<svg width="304" height="312" viewBox="0 0 304 312" fill="none" xmlns="http://www.w3.org/2000/svg">
<path d="M304 238.618H0V238.774H304V238.618Z" fill="#EBEBEB"/>
<path d="M273.539 248.658H241.273V248.814H273.539V248.658Z" fill="#EBEBEB"/>
<path d="M201.382 246.705H165.716V246.861H201.382V246.705Z" fill="#EBEBEB"/>
<path d="M242.829 245.806H231.162V245.962H242.829V245.806Z" fill="#EBEBEB"/>
<path d="M87.3453 243.915H61.0858V244.071H87.3453V243.915Z" fill="#EBEBEB"/>
<path d="M57.6992 243.915H48.3116V244.071H57.6992V243.915Z" fill="#EBEBEB"/>
<path d="M112.887 246.549H79.9338V246.705H112.887V246.549Z" fill="#EBEBEB"/>
<path d="M144.096 210.787H26.6973C25.7776 210.786 24.8961 210.409 24.2464 209.741C23.5966 209.073 23.2317 208.168 23.2317 207.224V37.8518C23.2397 36.9134 23.6082 36.016 24.257 35.3547C24.9059 34.6934 25.7828 34.3216 26.6973 34.32H144.096C145.017 34.32 145.9 34.6954 146.551 35.3636C147.202 36.0318 147.568 36.9381 147.568 37.883V207.224C147.568 208.169 147.202 209.075 146.551 209.744C145.9 210.412 145.017 210.787 144.096 210.787ZM26.6973 34.4448C25.8179 34.4465 24.9751 34.8061 24.3539 35.4449C23.7326 36.0837 23.3837 36.9493 23.3837 37.8518V207.224C23.3837 208.127 23.7326 208.992 24.3539 209.631C24.9751 210.27 25.8179 210.63 26.6973 210.631H144.096C144.976 210.63 145.819 210.27 146.442 209.632C147.064 208.993 147.414 208.127 147.416 207.224V37.8518C147.414 36.9488 147.064 36.0831 146.442 35.4445C145.819 34.8059 144.976 34.4465 144.096 34.4448H26.6973Z" fill="#EBEBEB"/>
<path d="M275.612 210.787H158.208C157.287 210.786 156.405 210.41 155.755 209.742C155.104 209.074 154.738 208.169 154.736 207.224V37.8518C154.746 36.9128 155.115 36.0155 155.765 35.3543C156.415 34.6932 157.293 34.3216 158.208 34.32H275.612C276.526 34.3233 277.401 34.6958 278.049 35.3569C278.696 36.018 279.064 36.9144 279.072 37.8518V207.224C279.072 208.167 278.708 209.071 278.059 209.739C277.411 210.407 276.531 210.784 275.612 210.787ZM158.208 34.4448C157.328 34.4465 156.484 34.8059 155.862 35.4445C155.24 36.0831 154.89 36.9488 154.888 37.8518V207.224C154.89 208.127 155.24 208.993 155.862 209.632C156.484 210.27 157.328 210.63 158.208 210.631H275.612C276.492 210.63 277.336 210.27 277.958 209.632C278.58 208.993 278.931 208.127 278.932 207.224V37.8518C278.931 36.9488 278.58 36.0831 277.958 35.4445C277.336 34.8059 276.492 34.4465 275.612 34.4448H158.208Z" fill="#EBEBEB"/>
<path d="M162.16 233.339H168.55V155.32H162.16V233.339Z" fill="#F0F0F0"/>
<path d="M39.3619 238.536L166.093 238.536V233.339L39.3619 233.339V238.536Z" fill="#F0F0F0"/>
<path d="M162.16 155.32H36.9117V233.339H162.16V155.32Z" fill="#F5F5F5"/>
<path d="M163.667 155.32H170.27V150.403H163.667V155.32Z" fill="#E0E0E0"/>
<path d="M163.668 150.403H35.1971V155.32H163.668V150.403Z" fill="#EBEBEB"/>
<path d="M152.401 161.373H46.664C44.0516 161.373 41.9338 163.546 41.9338 166.227V183.431C41.9338 186.112 44.0516 188.286 46.664 188.286H152.401C155.014 188.286 157.132 186.112 157.132 183.431V166.227C157.132 163.546 155.014 161.373 152.401 161.373Z" fill="white"/>
<path d="M152.401 196.323H46.664C44.0516 196.323 41.9338 198.496 41.9338 201.178V218.381C41.9338 221.062 44.0516 223.236 46.664 223.236H152.401C155.014 223.236 157.132 221.062 157.132 218.381V201.178C157.132 198.496 155.014 196.323 152.401 196.323Z" fill="white"/>
<path d="M72.3094 164.249H126.762C127.356 164.249 127.838 163.755 127.838 163.145V161.666C127.838 161.056 127.356 160.561 126.762 160.561H72.3094C71.7151 160.561 71.2333 161.056 71.2333 161.666V163.145C71.2333 163.755 71.7151 164.249 72.3094 164.249Z" fill="#F5F5F5"/>
<path d="M72.3094 199.2H126.762C127.356 199.2 127.838 198.705 127.838 198.095V196.616C127.838 196.006 127.356 195.512 126.762 195.512H72.3094C71.7151 195.512 71.2333 196.006 71.2333 196.616V198.095C71.2333 198.705 71.7151 199.2 72.3094 199.2Z" fill="#F5F5F5"/>
<path d="M271.892 180.916H252.618V184.698H271.892V180.916Z" fill="#E6E6E6"/>
<path d="M237.85 238.618H241.406L241.406 109.2H237.85L237.85 238.618Z" fill="#E6E6E6"/>
<path d="M225.532 184.692H252.624V180.91H225.532V184.692Z" fill="#F5F5F5"/>
<path d="M271.892 215.736H252.618V219.517H271.892V215.736Z" fill="#E6E6E6"/>
<path d="M225.532 219.517H252.624V215.736H225.532V219.517Z" fill="#F5F5F5"/>
<path d="M271.892 111.272H252.618V115.053H271.892V111.272Z" fill="#E6E6E6"/>
<path d="M225.532 115.053H252.624V111.272H225.532V115.053Z" fill="#F5F5F5"/>
<path d="M271.892 146.091H252.618V149.872H271.892V146.091Z" fill="#E6E6E6"/>
<path d="M225.532 149.879H252.624V146.097H225.532V149.879Z" fill="#F5F5F5"/>
<path d="M264.942 238.618H268.499V109.2H264.942V238.618Z" fill="#E6E6E6"/>
<path d="M249.061 238.618H252.618L252.618 109.2H249.061L249.061 238.618Z" fill="#F5F5F5"/>
<path d="M225.532 238.618H229.088L229.088 109.2H225.532L225.532 238.618Z" fill="#F5F5F5"/>
<path d="M53.4371 139.551L214.071 139.551V52.0229L53.4371 52.0229V139.551Z" fill="#E0E0E0"/>
<path d="M49.3818 139.551L211.779 139.551V52.0229L49.3818 52.0229V139.551Z" fill="#F5F5F5"/>
<path d="M205.954 132.65V58.9181L55.1942 58.9181V132.65H205.954Z" fill="white"/>
<path d="M152 266.797C217.106 266.797 269.885 263.635 269.885 259.734C269.885 255.833 217.106 252.67 152 252.67C86.8938 252.67 34.1149 255.833 34.1149 259.734C34.1149 263.635 86.8938 266.797 152 266.797Z" fill="#F5F5F5"/>
<path d="M235.795 164.873H67.2083C66.6718 164.872 66.1578 164.652 65.7784 164.263C65.3991 163.874 65.1853 163.346 65.1837 162.795C65.1853 162.245 65.3991 161.717 65.7784 161.328C66.1578 160.939 66.6718 160.719 67.2083 160.717H235.795C236.331 160.719 236.845 160.939 237.224 161.328C237.604 161.717 237.818 162.245 237.819 162.795C237.818 163.346 237.604 163.874 237.224 164.263C236.845 164.652 236.331 164.872 235.795 164.873Z" fill="#0059EF"/>
<path opacity="0.3" d="M235.795 164.873H196.329C195.793 164.872 195.279 164.652 194.899 164.263C194.52 163.874 194.306 163.346 194.305 162.795C194.306 162.245 194.52 161.717 194.899 161.328C195.279 160.939 195.793 160.719 196.329 160.717H235.795C236.331 160.719 236.845 160.939 237.224 161.328C237.604 161.717 237.818 162.245 237.819 162.795C237.818 163.346 237.604 163.874 237.224 164.263C236.845 164.652 236.331 164.872 235.795 164.873Z" fill="#263238"/>
<path d="M231.514 170.084H101.858V184.567H231.514V170.084Z" fill="#263238"/>
<path opacity="0.1" d="M231.514 170.084H101.858V184.567H231.514V170.084Z" fill="white"/>
<path d="M229.629 256.851H233.508L233.35 164.873H227.976L229.629 256.851Z" fill="#263238"/>
<path opacity="0.1" d="M229.629 256.851H233.508L233.35 164.873H227.976L229.629 256.851Z" fill="white"/>
<path d="M193.879 256.851H189.994L198.773 164.873H204.148L193.879 256.851Z" fill="#263238"/>
<path opacity="0.2" d="M193.879 256.851H189.994L198.773 164.873H204.148L193.879 256.851Z" fill="white"/>
<path d="M100.508 256.851H104.387L104.229 164.873H98.8547L100.508 256.851Z" fill="#263238"/>
<path opacity="0.1" d="M100.508 256.851H104.387L104.229 164.873H98.8547L100.508 256.851Z" fill="white"/>
<path d="M64.7581 256.851H60.8729L69.6525 164.873H75.0272L64.7581 256.851Z" fill="#263238"/>
<path opacity="0.2" d="M64.7581 256.851H60.8729L69.6525 164.873H75.0272L64.7581 256.851Z" fill="white"/>
<path d="M173.955 160.717H165.005L161.424 142.759H170.374L173.955 160.717Z" fill="#263238"/>
<path d="M185.829 157.017H147.002C146.7 157.021 146.401 156.96 146.123 156.838C145.845 156.717 145.595 156.537 145.388 156.312C145.181 156.086 145.022 155.818 144.921 155.526C144.82 155.234 144.779 154.924 144.801 154.615L146.285 129.386C146.33 128.74 146.61 128.135 147.07 127.69C147.529 127.245 148.134 126.993 148.765 126.984H187.598C187.9 126.982 188.199 127.043 188.476 127.165C188.754 127.287 189.004 127.466 189.21 127.692C189.417 127.917 189.576 128.184 189.677 128.476C189.779 128.767 189.82 129.078 189.799 129.386L188.316 154.615C188.269 155.262 187.987 155.867 187.527 156.312C187.067 156.756 186.461 157.008 185.829 157.017Z" fill="#263238"/>
<path d="M185.221 157.017H146.394C146.092 157.021 145.793 156.96 145.515 156.838C145.237 156.717 144.987 156.537 144.78 156.312C144.573 156.086 144.414 155.818 144.313 155.526C144.212 155.234 144.171 154.924 144.193 154.615L145.677 129.386C145.722 128.74 146.002 128.135 146.462 127.69C146.921 127.245 147.526 126.993 148.157 126.984H186.99C187.292 126.982 187.591 127.043 187.868 127.165C188.146 127.287 188.396 127.466 188.602 127.692C188.809 127.917 188.968 128.184 189.069 128.476C189.171 128.767 189.212 129.078 189.191 129.386L187.708 154.615C187.661 155.262 187.379 155.867 186.919 156.312C186.459 156.756 185.853 157.008 185.221 157.017Z" fill="#0059EF"/>
<path d="M146.388 155.769C146.253 155.77 146.12 155.743 145.995 155.689C145.871 155.636 145.758 155.557 145.665 155.457C145.573 155.354 145.503 155.232 145.458 155.101C145.413 154.969 145.394 154.829 145.403 154.69L146.887 129.461C146.909 129.128 147.052 128.816 147.287 128.585C147.522 128.354 147.832 128.222 148.157 128.213H186.99C187.126 128.211 187.261 128.238 187.386 128.292C187.511 128.347 187.623 128.427 187.716 128.529C187.809 128.631 187.88 128.751 187.924 128.883C187.969 129.014 187.986 129.154 187.975 129.293L186.492 154.521C186.471 154.855 186.328 155.168 186.093 155.399C185.858 155.63 185.547 155.762 185.221 155.769H146.388Z" fill="white"/>
<path opacity="0.2" d="M163.443 126.984L165.966 135.851L173.456 126.984H163.443Z" fill="black"/>
<path d="M103.086 105.456C103.147 105.936 103.439 106.298 103.749 106.273C104.059 106.248 104.254 105.837 104.193 105.356C104.132 104.876 103.84 104.514 103.536 104.539C103.232 104.564 103.032 104.988 103.086 105.456Z" fill="#263238"/>
<path d="M103.597 106.174C104.145 107.419 104.852 108.584 105.701 109.637C105.032 110.329 103.81 110.049 103.81 110.049L103.597 106.174Z" fill="#A02724"/>
<path d="M101.536 103.628C101.49 103.636 101.442 103.636 101.396 103.628C101.329 103.597 101.275 103.542 101.247 103.472C101.219 103.402 101.218 103.324 101.244 103.253C101.402 102.838 101.656 102.468 101.985 102.175C102.313 101.883 102.706 101.677 103.129 101.575C103.165 101.568 103.201 101.569 103.236 101.578C103.271 101.586 103.304 101.601 103.334 101.623C103.363 101.644 103.388 101.671 103.407 101.703C103.426 101.734 103.439 101.769 103.445 101.806C103.458 101.88 103.441 101.956 103.399 102.018C103.357 102.08 103.293 102.123 103.22 102.136C102.889 102.219 102.582 102.383 102.328 102.616C102.073 102.849 101.878 103.143 101.761 103.472C101.739 103.514 101.706 103.551 101.667 103.578C101.628 103.605 101.583 103.622 101.536 103.628Z" fill="#263238"/>
<path d="M89.3091 112.988L92.9571 115.858L97.9367 119.771C97.6637 120.359 97.4988 120.993 97.4503 121.643C97.2739 123.078 97.0976 124.139 100.205 125.018C100.535 125.099 100.835 125.276 101.07 125.527C101.305 125.778 101.465 126.093 101.53 126.435C101.652 127.284 101.147 128.307 98.2771 128.812C95.4975 129.239 92.658 128.742 90.1725 127.396C88.9565 126.772 88.9565 126.023 89.4672 124.756C90.9994 121.156 90.2576 116.563 89.3091 112.988Z" fill="#B55B52"/>
<path d="M85.12 125.892C85.8205 124.509 86.3984 123.064 86.8467 121.574C86.8467 121.574 96.0883 121.056 99.1405 121.992C102.193 122.928 104.09 126.984 104.09 126.984L85.12 125.892Z" fill="#0059EF"/>
<path d="M88.9869 132.949C88.762 133.648 88.5127 134.503 88.2756 135.289L87.5885 137.723C87.1629 139.345 86.7495 140.974 86.4272 142.596C86.0842 144.183 85.8224 145.787 85.6429 147.401C85.4555 148.885 85.4107 150.383 85.5092 151.875C85.545 152.507 85.6386 153.134 85.7888 153.747C85.8253 153.872 85.8557 154.009 85.8983 154.128L86.0199 154.465C85.9911 154.405 85.9586 154.346 85.9226 154.29C85.8605 154.199 85.7935 154.112 85.722 154.028C85.6436 153.932 85.5538 153.846 85.4544 153.772C85.3328 153.685 85.3146 153.697 85.3389 153.729C85.517 153.86 85.7087 153.971 85.9104 154.059C86.184 154.184 86.5184 154.309 86.8528 154.428C87.5399 154.665 88.2999 154.883 89.0842 155.095C92.2215 155.906 95.6445 156.537 98.9824 157.267L98.873 161.591C97.09 161.835 95.2962 161.987 93.4983 162.047C91.674 162.115 89.8474 162.083 88.0263 161.953C87.0619 161.887 86.1018 161.766 85.1504 161.591C84.6519 161.497 84.1351 161.391 83.5879 161.235C82.9585 161.069 82.3474 160.837 81.7639 160.543C81.3319 160.329 80.9241 160.068 80.5479 159.763C80.2815 159.545 80.0352 159.303 79.8122 159.039C79.6728 158.87 79.5429 158.693 79.4231 158.509C79.3623 158.402 79.2954 158.296 79.2407 158.19L79.1616 158.041L78.7421 157.161C78.6144 156.867 78.5111 156.58 78.4016 156.287C78.018 155.195 77.741 154.066 77.5748 152.917C76.9668 148.581 77.4471 144.712 78.0794 140.949C78.4199 139.077 78.8212 137.205 79.2954 135.427C79.5386 134.522 79.794 133.617 80.0676 132.725C80.3412 131.832 80.633 130.971 80.9856 129.992L88.9869 132.949Z" fill="#B55B52"/>
<path d="M83.3629 125.118C89.1085 123.558 92.5193 128.388 90.5738 136.35C88.6282 144.312 87.9776 144.612 87.9776 144.612L76.1277 142.584C77.5869 134.784 77.4714 126.709 83.3629 125.118Z" fill="#0059EF"/>
<path d="M101.925 155.538L101.031 155.457C98.49 155.457 98.0522 156.169 96.4897 157.66L95.8817 160.942C99.9857 163.095 102.187 160.73 102.193 160.73H105.993L104.655 157.61C104.422 157.046 104.045 156.556 103.565 156.192C103.085 155.828 102.519 155.602 101.925 155.538Z" fill="#B55B52"/>
<path d="M87.7405 106.779C88.7741 112.464 89.0963 115.846 92.2701 118.385C97.0368 122.198 103.603 118.572 104.248 112.657C104.825 107.334 103.032 98.929 97.3043 97.4376C96.027 97.1139 94.6908 97.1256 93.4191 97.4718C92.1474 97.818 90.9811 98.4874 90.028 99.4183C89.075 100.349 88.3658 101.512 87.966 102.798C87.5662 104.084 87.4886 105.454 87.7405 106.779Z" fill="#B55B52"/>
<path d="M98.7149 108.763C102.667 108.439 101.512 104.164 100.29 103.272C102.144 102.548 103.421 99.528 101.639 97.4563C102.685 94.6546 99.6937 91.2787 94.4467 91.7842C90.6163 92.1461 90.1907 94.224 90.1907 94.224C90.1907 94.224 85.6003 93.731 83.6912 97.6186C82.0617 100.951 84.0377 102.729 84.0377 102.729C84.0377 102.729 80.6086 103.752 81.5571 108.345C82.5664 113.3 86.2752 112.152 86.2752 112.152C86.2752 112.152 85.4422 116.694 90.4582 116.757C94.7933 116.813 94.848 113.481 94.848 113.481C94.848 113.481 100.466 112.944 98.7149 108.763Z" fill="#263238"/>
<path d="M95.7722 109.094C96.2154 110.313 97.0813 111.322 98.2042 111.927C99.6512 112.688 100.758 111.109 100.502 109.487C100.271 108.033 99.0372 106.167 97.5111 106.08C95.985 105.993 95.2311 107.584 95.7722 109.094Z" fill="#B55B52"/>
<path d="M154.718 249.706L160.123 247.453L156.305 234.131L150.9 236.377L154.718 249.706Z" fill="#B55B52"/>
<path opacity="0.2" d="M152.754 242.842L158.214 240.783L156.305 234.131L150.9 236.377L152.754 242.842Z" fill="black"/>
<path d="M159.655 245.232L153.471 247.435C153.419 247.451 153.371 247.478 153.329 247.513C153.288 247.549 153.253 247.592 153.228 247.642C153.202 247.691 153.186 247.745 153.181 247.8C153.176 247.856 153.182 247.912 153.198 247.965L154.596 253.094C154.686 253.359 154.873 253.576 155.118 253.7C155.362 253.823 155.645 253.844 155.903 253.756C158.037 252.945 158.901 252.508 161.54 251.335C164.137 250.22 166.678 248.97 169.152 247.591C171.213 246.343 169.973 244.215 168.969 244.564C166.592 245.388 162.695 245.925 160.719 245.226C160.373 245.106 159.999 245.108 159.655 245.232Z" fill="#263238"/>
<path d="M111.307 172.848C111.307 172.848 152.158 176.592 153.216 188.654C155.344 213.196 158.609 236.858 158.609 236.858L150.298 239.978C150.298 239.978 140.126 213.021 140.26 193.802C128.476 190.389 97.4928 195.399 92.4281 186.071C87.9533 177.834 91.8809 171.918 91.8809 171.918L111.307 172.848Z" fill="#263238"/>
<path d="M149.677 241.919L160.026 238.331L159.576 233.495L147.908 237.351L149.677 241.919Z" fill="#0059EF"/>
<path d="M161.935 245.488C161.437 245.652 160.923 245.759 160.403 245.806C160.376 245.81 160.349 245.805 160.325 245.793C160.302 245.781 160.282 245.761 160.269 245.737C160.255 245.715 160.248 245.689 160.248 245.663C160.248 245.636 160.255 245.61 160.269 245.588C160.403 245.4 161.594 243.753 162.354 243.778C162.441 243.783 162.526 243.811 162.6 243.857C162.674 243.904 162.736 243.969 162.78 244.046C162.859 244.156 162.908 244.286 162.922 244.422C162.936 244.558 162.914 244.696 162.859 244.82C162.642 245.152 162.312 245.39 161.935 245.488ZM160.719 245.488C161.771 245.338 162.488 245.051 162.652 244.695C162.686 244.614 162.698 244.524 162.687 244.436C162.675 244.348 162.64 244.265 162.585 244.196C162.566 244.156 162.537 244.122 162.501 244.098C162.464 244.074 162.422 244.06 162.379 244.059C161.941 244.04 161.187 244.845 160.688 245.488H160.719Z" fill="#0059EF"/>
<path d="M160.433 245.8C160.411 245.806 160.388 245.806 160.366 245.8C160.344 245.796 160.323 245.786 160.305 245.772C160.287 245.758 160.272 245.74 160.263 245.719C160.263 245.65 159.564 244.071 159.928 243.323C159.975 243.227 160.043 243.143 160.126 243.078C160.21 243.013 160.306 242.969 160.409 242.948C160.52 242.91 160.642 242.912 160.752 242.954C160.863 242.996 160.956 243.075 161.017 243.179C161.351 243.753 160.932 245.219 160.5 245.75C160.483 245.773 160.46 245.79 160.433 245.8ZM160.433 243.241C160.381 243.26 160.334 243.288 160.293 243.326C160.252 243.363 160.219 243.409 160.196 243.46C159.977 243.903 160.245 244.851 160.445 245.382C160.78 244.795 161.023 243.703 160.804 243.329C160.761 243.26 160.688 243.179 160.494 243.223L160.433 243.241Z" fill="#0059EF"/>
<path d="M125.795 253.668L131.571 253.388L132.514 239.391L126.738 239.672L125.795 253.668Z" fill="#B55B52"/>
<path d="M131.705 252.377L125.163 252.165C125.109 252.16 125.054 252.167 125.002 252.185C124.95 252.202 124.903 252.23 124.861 252.266C124.82 252.303 124.786 252.348 124.762 252.398C124.737 252.448 124.723 252.502 124.719 252.558L124.239 257.856C124.234 257.996 124.256 258.136 124.304 258.268C124.352 258.4 124.426 258.521 124.519 258.623C124.613 258.726 124.726 258.809 124.851 258.866C124.976 258.924 125.111 258.956 125.248 258.96C127.528 258.991 128.616 258.891 131.492 258.96C133.261 259.016 136.745 259.284 139.171 258.96C141.597 258.636 141.226 256.196 140.168 256.102C137.669 255.896 134.319 254.124 132.72 252.745C132.433 252.506 132.075 252.376 131.705 252.377Z" fill="#263238"/>
<path d="M133.76 253.481C133.238 253.45 132.72 253.363 132.216 253.219C132.19 253.213 132.166 253.2 132.148 253.18C132.13 253.16 132.118 253.136 132.113 253.109C132.109 253.082 132.112 253.055 132.123 253.03C132.133 253.005 132.151 252.984 132.173 252.97C132.362 252.839 134.046 251.722 134.751 252.046C134.831 252.082 134.901 252.138 134.954 252.209C135.007 252.28 135.042 252.363 135.055 252.452C135.09 252.583 135.091 252.722 135.057 252.853C135.022 252.985 134.955 253.105 134.86 253.2C134.542 253.435 134.148 253.536 133.76 253.481ZM132.593 253.026C133.626 253.275 134.417 253.269 134.678 253.026C134.738 252.96 134.78 252.879 134.799 252.791C134.818 252.704 134.814 252.612 134.788 252.527C134.782 252.483 134.765 252.442 134.74 252.407C134.714 252.372 134.681 252.345 134.642 252.327C134.24 252.14 133.255 252.608 132.544 253.026H132.593Z" fill="#0059EF"/>
<path d="M132.222 253.225C132.2 253.231 132.177 253.231 132.155 253.225C132.135 253.213 132.119 253.195 132.107 253.174C132.096 253.154 132.089 253.131 132.088 253.107C132.088 253.038 132.009 251.316 132.611 250.754C132.69 250.675 132.787 250.618 132.893 250.587C132.999 250.557 133.111 250.554 133.219 250.58C133.335 250.586 133.446 250.633 133.533 250.712C133.62 250.792 133.679 250.899 133.699 251.016C133.809 251.672 132.903 252.888 132.313 253.225C132.284 253.238 132.251 253.238 132.222 253.225ZM133.091 250.848C133.037 250.844 132.982 250.852 132.931 250.872C132.879 250.891 132.832 250.921 132.793 250.96C132.435 251.291 132.356 252.277 132.356 252.832C132.872 252.408 133.48 251.478 133.407 251.048C133.407 250.967 133.347 250.873 133.152 250.842L133.091 250.848Z" fill="#0059EF"/>
<path opacity="0.2" d="M126.738 239.672L132.52 239.391L131.973 247.397L126.215 247.391L126.738 239.672Z" fill="black"/>
<path d="M97.736 172.18C97.736 172.18 141.755 179.088 141.056 189.49C139.797 208.21 133.681 244.795 133.681 244.795L125.011 244.92C125.011 244.92 122.962 207.393 126.227 193.715C115.398 193.715 84.8525 193.328 80.6877 187.618C76.0791 181.309 80.8154 171.394 80.8154 171.394L97.736 172.18Z" fill="#263238"/>
<path d="M123.989 245.619L134.484 245.45L135 239.759L123.485 240.221L123.989 245.619Z" fill="#0059EF"/>
<path d="M105.488 124.488C101.943 123.777 85.959 123.983 85.959 123.983C84.3612 123.938 82.8052 124.51 81.5984 125.585C80.3915 126.661 79.6218 128.162 79.4412 129.792C78.8819 134.853 82.0131 146.16 82.1225 151.925C82.2563 159.008 80.9369 161.878 80.8032 171.413L111.307 172.848C111.307 153.673 110.492 137.798 109.756 130.185C109.495 127.508 109.033 125.193 105.488 124.488Z" fill="#0059EF"/>
<path opacity="0.3" d="M105.488 124.488C101.943 123.777 85.959 123.983 85.959 123.983C84.3612 123.938 82.8052 124.51 81.5984 125.585C80.3915 126.661 79.6218 128.162 79.4412 129.792C78.8819 134.853 82.0131 146.16 82.1225 151.925C82.2563 159.008 80.9369 161.878 80.8032 171.413L111.307 172.848C111.307 153.673 110.492 137.798 109.756 130.185C109.495 127.508 109.033 125.193 105.488 124.488Z" fill="white"/>
<path d="M109.665 130.528C110.62 133.898 111.58 137.361 112.571 140.743C113.562 144.125 114.578 147.526 115.721 150.727C116 151.545 116.329 152.306 116.596 153.092L117.064 154.197L117.125 154.334V154.403V154.44V154.396C117.02 154.204 116.889 154.027 116.736 153.872C116.529 153.666 116.45 153.648 116.432 153.648C116.568 153.773 116.724 153.872 116.894 153.941C117.192 154.088 117.498 154.215 117.812 154.321C118.499 154.565 119.271 154.783 120.056 155.002C123.236 155.832 126.707 156.468 130.088 157.211L129.978 161.535C128.163 161.786 126.337 161.938 124.506 161.99C122.653 162.064 120.798 162.028 118.949 161.884C117.966 161.812 116.988 161.683 116.019 161.497C115.508 161.398 114.979 161.273 114.407 161.104C113.729 160.909 113.076 160.633 112.462 160.281C111.972 159.992 111.522 159.637 111.124 159.226C110.82 158.905 110.559 158.544 110.346 158.153L110.139 157.76L109.452 156.424C109.051 155.551 108.613 154.671 108.236 153.804C107.488 152.05 106.832 150.315 106.175 148.574C105.518 146.833 104.959 145.092 104.394 143.345C103.269 139.832 102.253 136.356 101.354 132.737L109.665 130.528Z" fill="#B55B52"/>
<path d="M101.001 127.053C105.172 122.685 110.504 125.068 112.796 132.956C115.088 140.843 114.675 141.417 114.675 141.417L103.469 145.879C100.825 138.366 96.7328 131.502 101.001 127.053Z" fill="#0059EF"/>
<path d="M133.067 155.538L132.173 155.457C129.632 155.457 129.2 156.169 127.637 157.66L127.029 160.942C131.133 163.095 133.334 160.73 133.334 160.73H137.141L135.797 157.61C135.565 157.045 135.189 156.555 134.708 156.19C134.228 155.826 133.661 155.601 133.067 155.538Z" fill="#B55B52"/>
<path d="M82.1408 195.998H121.101C121.958 195.998 122.652 195.286 122.652 194.407V191.836C122.652 190.958 121.958 190.245 121.101 190.245H82.1408C81.2846 190.245 80.5904 190.958 80.5904 191.836V194.407C80.5904 195.286 81.2846 195.998 82.1408 195.998Z" fill="#0059EF"/>
<path d="M82.3172 260.052H80.5905L82.5786 195.992H84.968L82.3172 260.052Z" fill="#0059EF"/>
<path opacity="0.4" d="M82.3172 260.052H80.5905L82.5786 195.992H84.968L82.3172 260.052Z" fill="white"/>
<path d="M98.1981 260.052H99.9248L97.9427 195.992H95.5533L98.1981 260.052Z" fill="#0059EF"/>
<path opacity="0.4" d="M98.1981 260.052H99.9248L97.9427 195.992H95.5533L98.1981 260.052Z" fill="white"/>
<path d="M105.044 260.052H103.317L105.306 195.992H107.695L105.044 260.052Z" fill="#0059EF"/>
<path opacity="0.4" d="M105.044 260.052H103.317L105.306 195.992H107.695L105.044 260.052Z" fill="white"/>
<path d="M120.925 260.052H122.652L120.67 195.992H118.28L120.925 260.052Z" fill="#0059EF"/>
<path opacity="0.4" d="M120.925 260.052H122.652L120.67 195.992H118.28L120.925 260.052Z" fill="white"/>
<g opacity="0.3">
<path opacity="0.3" d="M82.5786 195.992H84.968L84.8525 198.713H82.4935L82.5786 195.992Z" fill="#0059EF"/>
<path opacity="0.3" d="M98.0218 198.713H95.6628L95.5533 195.992H97.9367L98.0218 198.713Z" fill="#0059EF"/>
<path opacity="0.3" d="M107.689 195.992L107.58 198.713H105.221L105.306 195.992H107.689Z" fill="#0059EF"/>
<path opacity="0.3" d="M120.755 198.713H118.39L118.28 195.992H120.67L120.755 198.713Z" fill="#0059EF"/>
</g>
<path d="M236.512 117.693H139.129C138.372 117.701 137.622 117.548 136.926 117.243C136.23 116.939 135.603 116.489 135.084 115.923C134.566 115.357 134.168 114.687 133.915 113.955C133.662 113.223 133.559 112.446 133.614 111.671L137.329 48.4162C137.446 46.7955 138.15 45.2785 139.302 44.164C140.454 43.0495 141.972 42.4182 143.555 42.3946H240.914C241.671 42.3865 242.421 42.5396 243.117 42.8441C243.813 43.1487 244.44 43.5981 244.958 44.164C245.476 44.7299 245.875 45.4 246.128 46.1319C246.381 46.8638 246.483 47.6416 246.428 48.4162L242.707 111.696C242.587 113.307 241.885 114.815 240.739 115.924C239.594 117.033 238.086 117.663 236.512 117.693Z" fill="#0059EF"/>
<path d="M152.158 104.32L161.138 135.851L187.781 104.32H152.158Z" fill="#0059EF"/>
<path opacity="0.1" d="M231.763 92.2397H177.189C176.765 92.2442 176.344 92.1584 175.954 91.9877C175.564 91.8171 175.212 91.5652 174.921 91.2479C174.63 90.9307 174.407 90.5551 174.264 90.1447C174.122 89.7344 174.064 89.2982 174.095 88.8638L176.18 53.4081C176.245 52.4996 176.64 51.649 177.286 51.0242C177.932 50.3993 178.782 50.0454 179.67 50.0323H234.244C234.67 50.023 235.093 50.1055 235.485 50.2745C235.878 50.4436 236.231 50.6954 236.523 51.0136C236.815 51.3319 237.038 51.7095 237.179 52.122C237.319 52.5345 237.374 52.9726 237.339 53.4081L235.253 88.8638C235.188 89.7724 234.794 90.6229 234.148 91.2478C233.502 91.8727 232.651 92.2265 231.763 92.2397Z" fill="white"/>
<path opacity="0.1" d="M202.567 107.534H147.987C147.563 107.538 147.143 107.451 146.754 107.28C146.364 107.109 146.013 106.857 145.723 106.54C145.433 106.223 145.21 105.847 145.068 105.438C144.926 105.028 144.868 104.592 144.899 104.158L146.984 68.7024C147.049 67.7949 147.443 66.9452 148.088 66.3205C148.732 65.6958 149.581 65.3412 150.468 65.3265H205.048C205.473 65.3181 205.895 65.4013 206.287 65.5707C206.679 65.7402 207.032 65.9921 207.323 66.3102C207.614 66.6284 207.837 67.0057 207.977 67.4177C208.117 67.8298 208.172 68.2674 208.137 68.7024L206.051 104.158C205.986 105.066 205.592 105.915 204.948 106.54C204.303 107.165 203.454 107.519 202.567 107.534Z" fill="white"/>
<g opacity="0.5">
<path opacity="0.5" d="M147.264 47.8982C147.253 48.3774 147.068 48.835 146.745 49.1813C146.422 49.5277 145.985 49.7377 145.519 49.7702C145.297 49.759 145.081 49.7001 144.883 49.5972C144.685 49.4944 144.51 49.3501 144.37 49.1735C144.231 48.997 144.128 48.7922 144.071 48.5725C144.013 48.3528 144.001 48.1231 144.035 47.8982C144.049 47.42 144.235 46.9639 144.557 46.6182C144.88 46.2724 145.315 46.0615 145.78 46.0262C146.002 46.0375 146.218 46.0964 146.416 46.1992C146.614 46.302 146.788 46.4464 146.928 46.623C147.068 46.7995 147.17 47.0043 147.228 47.224C147.286 47.4437 147.298 47.6734 147.264 47.8982Z" fill="white"/>
<path opacity="0.5" d="M153.216 47.8982C153.204 48.377 153.018 48.8338 152.695 49.1798C152.373 49.5259 151.936 49.7363 151.471 49.7702C151.249 49.7598 151.032 49.7015 150.833 49.5991C150.635 49.4966 150.459 49.3524 150.319 49.1758C150.178 48.9991 150.076 48.794 150.017 48.5739C149.959 48.3538 149.947 48.1236 149.981 47.8982C149.995 47.42 150.181 46.9639 150.503 46.6182C150.826 46.2724 151.261 46.0615 151.726 46.0262C151.948 46.0376 152.165 46.0966 152.363 46.1993C152.561 46.302 152.736 46.4463 152.876 46.6227C153.017 46.7991 153.119 47.0038 153.178 47.2235C153.236 47.4432 153.249 47.6731 153.216 47.8982Z" fill="white"/>
<path opacity="0.5" d="M159.211 47.8982C159.2 48.3774 159.015 48.835 158.692 49.1813C158.369 49.5277 157.932 49.7377 157.466 49.7702C157.244 49.759 157.028 49.7001 156.83 49.5972C156.632 49.4944 156.458 49.3501 156.318 49.1735C156.178 48.997 156.076 48.7922 156.018 48.5725C155.96 48.3528 155.948 48.1231 155.982 47.8982C155.996 47.42 156.182 46.9639 156.504 46.6182C156.827 46.2724 157.262 46.0615 157.727 46.0262C157.949 46.0375 158.165 46.0964 158.363 46.1992C158.561 46.302 158.736 46.4464 158.876 46.623C159.015 46.7995 159.118 47.0043 159.175 47.224C159.233 47.4437 159.245 47.6734 159.211 47.8982Z" fill="white"/>
</g>
<path opacity="0.3" d="M235.758 117.106H138.399C137.622 117.112 136.852 116.954 136.137 116.64C135.423 116.326 134.779 115.864 134.247 115.283C133.715 114.701 133.306 114.013 133.045 113.262C132.784 112.51 132.678 111.712 132.732 110.916L136.453 47.6611C136.57 46.0007 137.29 44.4457 138.469 43.3031C139.649 42.1606 141.203 41.5135 142.825 41.4897H240.16C240.937 41.4835 241.707 41.6422 242.422 41.9561C243.136 42.2699 243.78 42.732 244.312 43.3133C244.844 43.8946 245.253 44.5826 245.514 45.334C245.775 46.0855 245.881 46.8841 245.827 47.6798L242.112 110.935C241.994 112.591 241.276 114.143 240.101 115.285C238.925 116.427 237.376 117.076 235.758 117.106ZM142.825 41.808C141.278 41.8273 139.795 42.4422 138.669 43.5309C137.543 44.6195 136.856 46.1025 136.745 47.6861L133.024 110.941C132.97 111.694 133.069 112.451 133.315 113.164C133.561 113.876 133.948 114.528 134.452 115.079C134.956 115.629 135.566 116.067 136.244 116.363C136.921 116.66 137.651 116.808 138.387 116.8H235.758C237.305 116.779 238.787 116.164 239.913 115.076C241.039 113.987 241.726 112.505 241.838 110.922L245.553 47.6673C245.605 46.9115 245.504 46.1528 245.256 45.4393C245.007 44.7257 244.617 44.0728 244.11 43.522C243.603 42.9712 242.991 42.5344 242.311 42.2394C241.631 41.9443 240.898 41.7974 240.16 41.808H142.825Z" fill="#263238"/>
<path d="M183.038 80.1278C182.625 81.0264 182.248 81.7939 181.822 82.6238C181.397 83.4538 180.971 84.2026 180.533 84.9826C179.64 86.5363 178.709 88.1026 177.712 89.5627C177.21 90.3115 176.695 91.0541 176.168 91.7904C175.615 92.5142 175.092 93.2506 174.502 93.9557C173.352 95.4171 172.111 96.8011 170.787 98.099C170.453 98.436 170.088 98.723 169.735 99.0787C169.385 99.4155 169.016 99.7302 168.629 100.021L167.461 100.926L167.103 101.182C166.944 101.285 166.78 101.379 166.61 101.462C166.276 101.627 165.926 101.752 165.564 101.837C164.851 102.008 164.109 102.014 163.393 101.854C162.677 101.694 162.004 101.373 161.424 100.913C161.136 100.68 160.873 100.417 160.64 100.127L160.475 99.9024L160.396 99.7901L160.366 99.7401L160.257 99.5405L159.819 98.7293C159.685 98.4672 159.594 98.2176 159.484 97.9618C159.101 97.0202 158.788 96.0502 158.548 95.0602C158.125 93.256 157.828 91.4229 157.66 89.5752C157.483 87.7758 157.406 85.9674 157.429 84.1589C157.442 83.6458 157.633 83.1543 157.968 82.773C158.303 82.3918 158.76 82.1458 159.256 82.0796C159.751 82.0133 160.254 82.1311 160.673 82.4117C161.092 82.6922 161.399 83.1171 161.539 83.6098V83.6846C162.345 86.8649 163.342 89.9909 164.525 93.0446C164.795 93.6907 165.11 94.3163 165.467 94.9166C165.546 95.0414 165.625 95.1912 165.704 95.2973L165.935 95.5843L165.99 95.6592L165.96 95.6093L165.893 95.5157C165.798 95.3878 165.687 95.2725 165.564 95.1725C165.322 94.9716 165.04 94.8268 164.738 94.7481C164.435 94.6825 164.122 94.6825 163.819 94.7481C163.662 94.7822 163.509 94.8345 163.363 94.9042C163.284 94.9042 163.218 94.9853 163.145 95.0227C163.072 95.0602 162.962 95.1538 163.041 95.0851L163.801 94.3238C164.057 94.0867 164.306 93.7997 164.555 93.5251C164.804 93.2506 165.06 92.9822 165.303 92.6889C167.307 90.2216 169.132 87.6062 170.763 84.864C171.596 83.4725 172.417 82.056 173.195 80.6208L174.368 78.4618L175.481 76.3526L175.542 76.2403C176.069 75.2709 176.942 74.5482 177.976 74.2232C179.011 73.8982 180.128 73.9959 181.094 74.4961C182.06 74.9962 182.8 75.86 183.16 76.9072C183.52 77.9543 183.472 79.1037 183.026 80.1154L183.038 80.1278Z" fill="#263238"/>
<path d="M158.001 83.8843L155.04 82.1434L158.226 78.805C159.16 79.515 160.025 80.3153 160.81 81.1949C160.995 81.3961 161.131 81.639 161.208 81.9041C161.285 82.1691 161.301 82.449 161.253 82.7213C161.206 82.9936 161.097 83.2508 160.936 83.4722C160.775 83.6937 160.565 83.8733 160.324 83.9966C159.956 84.1715 159.553 84.2525 159.149 84.233C158.744 84.2134 158.351 84.0938 158.001 83.8843Z" fill="#FFC3BD"/>
<path d="M154.365 78.5678L155.976 77.3885C156.186 77.2322 156.447 77.1668 156.703 77.2065C156.959 77.2462 157.189 77.3878 157.344 77.6006L158.226 78.805L155.04 82.1434L154.037 79.7971C153.946 79.5847 153.929 79.3465 153.988 79.1227C154.048 78.8988 154.181 78.7029 154.365 78.5678Z" fill="#FFC3BD"/>
<path d="M176.66 77.3323C176.902 76.5169 177.358 75.7856 177.978 75.2187C178.598 74.6517 179.358 74.2712 180.175 74.1187C181.355 73.8511 182.551 73.6634 183.756 73.5571C187.382 73.4119 191.014 73.4786 194.633 73.7568C196.53 73.8878 198.469 74.1624 200.014 74.4245H200.068C200.886 74.5637 201.617 75.0301 202.1 75.7215C202.583 76.4128 202.78 77.2726 202.646 78.1123C201.886 82.6176 199.655 90.455 199.412 97.8494C199.09 107.559 199.236 113.15 199.071 115.49L174.721 115.009C173.025 91.2787 175.134 82.705 176.66 77.3323Z" fill="white"/>
<path d="M200.719 74.0563H200.64C199.011 73.7818 196.992 73.4885 194.967 73.3512L193.885 73.2888C192.821 77.8065 186.48 85.4069 184.558 96.9259C183.817 87.2976 183.245 77.2325 184.333 73.3075C182.612 73.3612 180.895 73.5091 179.19 73.7506C178.288 73.96 177.456 74.411 176.778 75.0577C176.101 75.7044 175.603 76.5237 175.335 77.4321C173.839 81.9499 170.982 92.0712 172.739 116.956H199.801C199.977 114.46 199.345 109.219 200.324 101.15C201.266 93.3379 202.622 82.705 203.419 77.9563C203.561 77.0722 203.358 76.1659 202.852 75.4353C202.346 74.7047 201.579 74.209 200.719 74.0563Z" fill="#263238"/>
<path opacity="0.2" d="M183.981 115.658C183.94 115.66 183.9 115.645 183.869 115.618C183.839 115.59 183.82 115.551 183.817 115.509C183.245 108.489 184.315 98.411 184.327 98.3049C184.33 98.2836 184.336 98.2629 184.346 98.2441C184.356 98.2253 184.37 98.2087 184.386 98.1953C184.403 98.182 184.421 98.1721 184.442 98.1663C184.462 98.1605 184.483 98.1588 184.504 98.1614C184.546 98.1661 184.585 98.1877 184.612 98.2215C184.64 98.2553 184.653 98.2987 184.65 98.3424C184.65 98.4422 183.567 108.495 184.139 115.477C184.141 115.499 184.14 115.521 184.134 115.542C184.127 115.563 184.117 115.583 184.104 115.6C184.09 115.617 184.073 115.631 184.054 115.641C184.035 115.651 184.014 115.657 183.993 115.658H183.981Z" fill="white"/>
<path opacity="0.3" d="M199.764 83.9342C198.761 88.6018 199.296 95.0664 200.372 100.963C201.169 94.3426 202.257 85.7501 203.054 80.4336C201.941 79.6723 200.561 80.209 199.764 83.9342Z" fill="black"/>
<path d="M184.273 73.5259C187.428 72.8145 187.975 70.8177 187.75 68.6088C187.695 68.0569 187.608 67.5089 187.489 66.9677L191.429 63.6605L194.329 61.2393C193.539 64.8211 192.669 71.3544 195.052 73.7942C195.052 73.7942 193.107 77.0702 187.696 76.6709C183.124 76.3339 184.273 73.5259 184.273 73.5259Z" fill="#FFC3BD"/>
<path d="M189.07 75.8472L188.194 76.6958L190.991 77.7754L190.626 76.6834L189.07 75.8472Z" fill="#E0E0E0"/>
<path d="M191.21 79.2979C191.21 79.2979 190.109 76.4462 189.07 75.8409C191.115 75.3405 192.988 74.2768 194.487 72.7646L196.147 73.4448C196.147 73.4448 196.67 76.752 191.21 79.2979Z" fill="#F5F5F5"/>
<path d="M187.538 75.6226L188.194 76.6958L185.251 76.9579L185.841 76.0032L187.538 75.6226Z" fill="#E0E0E0"/>
<path d="M183.774 78.493C184.852 77.3141 186.127 76.3421 187.538 75.6226C185.939 75.1358 185.841 72.877 185.841 72.877L184.291 73.1827C184.291 73.1827 181.445 76.0219 183.774 78.493Z" fill="#F5F5F5"/>
<path opacity="0.2" d="M187.489 66.9614C187.607 67.5049 187.694 68.0549 187.75 68.6088C189.222 68.3342 191.192 66.7368 191.398 65.208C191.468 64.6953 191.483 64.1763 191.441 63.6605L187.489 66.9614Z" fill="black"/>
<path d="M182.704 50.6313C181.293 52.4097 181.427 58.8432 184.412 58.9181C187.398 58.9929 185.27 47.3865 182.704 50.6313Z" fill="#263238"/>
<path d="M195.563 55.3113C195.265 60.1848 195.326 63.0489 192.931 65.5699C189.331 69.3576 183.494 67.1798 182.37 62.3313C181.366 57.9633 182.023 50.7312 186.662 48.7531C187.675 48.3082 188.783 48.1392 189.878 48.2623C190.974 48.3855 192.019 48.7968 192.914 49.4563C193.81 50.1158 194.524 51.0012 194.988 52.027C195.452 53.0527 195.65 54.184 195.563 55.3113Z" fill="#FFC3BD"/>
<path d="M193.228 51.2554C190.243 54.2942 194.122 56.5219 192.62 58.1568C195.435 59.6669 194.402 60.7776 194.402 60.7776C194.11 61.6084 194.11 62.5176 194.402 63.3485C197.576 62.5123 203.467 51.6922 197.035 50.0323C193.186 51.792 193.228 51.2554 193.228 51.2554Z" fill="#263238"/>
<path d="M194.451 53.4393C191.623 53.8886 188.067 52.5033 185.859 51.3302C183.652 50.1571 183.33 52.3723 184.145 53.0462C182.728 53.0961 180.935 51.948 181.379 49.3834C181.786 47.0434 184.771 44.8282 189.021 46.8062C192.031 48.204 195.739 46.3632 197.187 47.9794C198.634 49.5955 196.335 53.1336 194.451 53.4393Z" fill="#263238"/>
<path d="M196.384 50.2632C198.281 50.0074 198.36 48.7781 197.831 46.6253C199.88 49.6142 199.047 50.5315 197.831 51.2554C196.475 50.7874 196.384 50.2632 196.384 50.2632Z" fill="#263238"/>
<path d="M196.84 59.0491C196.42 60.0024 195.686 60.7733 194.767 61.2268C193.593 61.7697 192.997 60.659 193.314 59.3549C193.599 58.1755 194.53 56.4782 195.746 56.4907C196.962 56.5032 197.369 57.8448 196.84 59.0491Z" fill="#FFC3BD"/>
<path d="M188.152 56.784C188.152 57.1771 187.945 57.5016 187.696 57.5078C187.446 57.5141 187.264 57.1896 187.264 56.784C187.264 56.3784 187.471 56.0664 187.72 56.0664C187.969 56.0664 188.152 56.3846 188.152 56.784Z" fill="#263238"/>
<path d="M183.798 56.8214C183.798 57.2208 183.592 57.539 183.336 57.5453C183.081 57.5515 182.88 57.227 182.886 56.8277C182.893 56.4283 183.087 56.1101 183.342 56.1101C183.598 56.1101 183.798 56.4283 183.798 56.8214Z" fill="#263238"/>
<path d="M185.44 56.9587C184.985 58.174 184.372 59.3202 183.616 60.3658C183.878 60.5546 184.177 60.683 184.491 60.7423C184.806 60.8015 185.13 60.7901 185.44 60.709V56.9587Z" fill="#ED847E"/>
<path d="M186.972 61.776C187.413 61.7253 187.84 61.5809 188.224 61.3521C188.608 61.1233 188.942 60.815 189.204 60.4469C189.22 60.4212 189.225 60.3901 189.219 60.3602C189.213 60.3304 189.195 60.3043 189.17 60.2878C189.145 60.2712 189.115 60.2655 189.086 60.272C189.057 60.2784 189.031 60.2964 189.015 60.3221C188.722 60.7144 188.345 61.0315 187.912 61.2481C187.479 61.4647 187.004 61.5749 186.522 61.5701C186.507 61.5701 186.493 61.5732 186.479 61.5792C186.465 61.5852 186.453 61.594 186.443 61.6051C186.432 61.6162 186.424 61.6294 186.419 61.6437C186.414 61.6581 186.412 61.6734 186.413 61.6886C186.413 61.7039 186.416 61.7191 186.422 61.7331C186.428 61.7472 186.436 61.7598 186.447 61.7703C186.458 61.7809 186.471 61.789 186.485 61.7943C186.499 61.7995 186.513 61.8018 186.528 61.801C186.686 61.776 186.832 61.776 186.972 61.776Z" fill="#263238"/>
<path d="M190.261 55.2053C190.3 55.2031 190.336 55.1877 190.365 55.1616C190.389 55.1437 190.41 55.121 190.425 55.0947C190.44 55.0684 190.45 55.0392 190.454 55.0088C190.458 54.9784 190.456 54.9475 190.448 54.9179C190.44 54.8884 190.426 54.8609 190.407 54.8371C190.199 54.5416 189.924 54.3014 189.607 54.1365C189.29 53.9716 188.939 53.8866 188.583 53.8886C188.554 53.8909 188.525 53.8993 188.499 53.9132C188.473 53.9272 188.45 53.9463 188.431 53.9696C188.413 53.9929 188.399 54.0199 188.39 54.0488C188.382 54.0778 188.379 54.1082 188.383 54.1382C188.389 54.2006 188.418 54.2581 188.465 54.2987C188.511 54.3394 188.571 54.3601 188.632 54.3566C188.914 54.3539 189.193 54.4218 189.444 54.5544C189.695 54.6871 189.911 54.8805 190.073 55.1179C190.095 55.1469 190.124 55.1699 190.157 55.1851C190.19 55.2003 190.225 55.2072 190.261 55.2053Z" fill="#263238"/>
<path d="M182.035 55.3987C182.071 55.3936 182.106 55.3796 182.135 55.3578C182.165 55.3361 182.189 55.3073 182.205 55.2739C182.322 55.0039 182.498 54.7659 182.721 54.5793C182.944 54.3928 183.207 54.263 183.488 54.2006C183.518 54.1978 183.547 54.1885 183.573 54.1733C183.599 54.1582 183.622 54.1376 183.64 54.1129C183.657 54.0881 183.67 54.0598 183.676 54.0298C183.683 53.9997 183.683 53.9686 183.677 53.9385C183.666 53.8785 183.634 53.8246 183.587 53.7876C183.54 53.7506 183.481 53.7332 183.421 53.7389C183.067 53.8107 182.734 53.9681 182.451 54.1981C182.167 54.4282 181.942 54.7242 181.792 55.0617C181.766 55.1173 181.763 55.181 181.782 55.2392C181.801 55.2974 181.842 55.3456 181.895 55.3737C181.939 55.3945 181.987 55.4031 182.035 55.3987Z" fill="#263238"/>
<path d="M204.142 76.8768C204.884 78.4805 205.504 79.9968 206.112 81.5568C206.72 83.1168 207.261 84.708 207.802 86.2992C208.864 89.5422 209.721 92.8521 210.368 96.2083C210.508 97.0757 210.666 97.9243 210.769 98.8166L210.848 99.4781L210.891 99.8088V99.9773V100.208C210.951 100.854 210.951 101.503 210.891 102.149C210.75 103.561 210.277 104.917 209.511 106.099C208.793 107.181 207.85 108.087 206.75 108.751C205.834 109.303 204.848 109.723 203.82 109.999C202.905 110.256 201.968 110.427 201.023 110.51C199.24 110.683 197.443 110.61 195.679 110.292C195.2 110.21 194.765 109.959 194.446 109.583C194.128 109.208 193.947 108.73 193.934 108.232C193.921 107.735 194.077 107.248 194.375 106.855C194.674 106.462 195.096 106.188 195.569 106.08L195.788 106.03C196.396 105.887 197.193 105.712 197.874 105.525C198.555 105.337 199.248 105.119 199.892 104.901C201.017 104.531 202.061 103.937 202.963 103.153C203.201 102.927 203.382 102.644 203.492 102.33C203.535 102.109 203.535 101.882 203.492 101.662C203.471 101.494 203.441 101.327 203.4 101.163L203.181 100.146C203.042 99.4344 202.841 98.6981 202.659 97.9742C202.282 96.5078 201.856 95.0414 201.37 93.5688C200.883 92.0961 200.385 90.6297 199.856 89.1633C199.327 87.6969 198.767 86.2305 198.202 84.7953C197.636 83.3601 197.041 81.8501 196.475 80.4835V80.4211C196.02 79.3801 195.987 78.1964 196.383 77.1303C196.779 76.0643 197.571 75.2032 198.585 74.7365C199.599 74.2698 200.753 74.2357 201.791 74.6418C202.83 75.0478 203.669 75.8608 204.124 76.9017L204.142 76.8768Z" fill="#263238"/>
<path d="M193.757 107.877L191.076 109.2L195.709 110.891C195.709 110.891 198.798 109.88 197.302 108.12L196.469 107.852C195.132 107.403 194.475 107.453 193.757 107.877Z" fill="#FFC3BD"/>
<path d="M191.435 112.557L193.472 112.956C193.763 113.011 194.063 112.972 194.331 112.843C194.599 112.715 194.822 112.503 194.967 112.239L195.709 110.872L191.076 109.2L190.468 110.504C190.374 110.701 190.324 110.918 190.324 111.138C190.323 111.358 190.371 111.575 190.464 111.772C190.557 111.97 190.693 112.144 190.861 112.28C191.029 112.416 191.226 112.51 191.435 112.557Z" fill="#FFC3BD"/>
</svg>
