<svg width="294" height="294" viewBox="0 0 294 294" fill="none" xmlns="http://www.w3.org/2000/svg">
<path d="M23.1379 71.736L23.6083 72.5121C25.5129 75.7235 28.2599 78.3526 31.5517 80.1146C34.8435 81.8765 38.5546 82.7043 42.2832 82.5081C43.2561 82.4503 44.2232 82.3186 45.1761 82.1142C48.6291 81.3285 51.8344 79.7015 54.5067 77.3779C57.1791 75.0544 59.2357 72.1063 60.4935 68.796C61.9459 64.8858 62.3575 60.3817 65.1211 57.2771C68.7138 53.2375 74.8231 53.114 80.1916 53.2787C85.56 53.4433 91.6693 53.2787 95.2502 49.2509C97.4905 46.7107 98.1902 43.0945 98.0197 39.6959C97.5434 30.6877 91.2695 22.6439 83.2844 18.6337C75.2994 14.6235 65.909 14.2707 57.1772 16.0347C44.9409 18.5043 33.3044 25.284 26.3072 35.7386C19.31 46.1933 17.5401 60.4581 23.1379 71.736Z" fill="#EBEBEB"/>
<path d="M242.356 205.712L241.668 204.994C238.759 202.014 235.09 199.886 231.058 198.841C227.027 197.795 222.786 197.871 218.795 199.061C217.756 199.378 216.742 199.771 215.761 200.237C212.223 201.994 209.174 204.597 206.886 207.817C204.597 211.036 203.14 214.771 202.643 218.689C202.084 223.311 202.825 228.303 200.638 232.389C197.798 237.717 191.23 239.445 185.35 240.68C179.47 241.915 172.89 243.661 170.062 249C168.298 252.34 168.468 256.444 169.556 260.09C172.437 269.727 181.351 276.819 191.059 279.071C200.767 281.323 211.051 279.241 220.059 275.043C232.684 269.163 243.532 258.767 248.377 245.584C253.222 232.401 251.388 216.49 242.356 205.712Z" fill="#EBEBEB"/>
<path d="M164.787 229.755C173.737 229.755 180.992 222.5 180.992 213.55C180.992 204.6 173.737 197.345 164.787 197.345C155.837 197.345 148.582 204.6 148.582 213.55C148.582 222.5 155.837 229.755 164.787 229.755Z" fill="#EBEBEB"/>
<path d="M267.575 28.5828H110.885V185.273H267.575V28.5828Z" fill="#FAFAFA"/>
<path d="M267.575 185.273C267.575 184.144 267.522 122.539 267.446 28.5828L267.575 28.718H110.903L111.056 28.5651C111.056 85.948 111.056 139.697 111.056 185.255L110.92 185.126L267.611 185.255L110.92 185.391H110.791V185.255C110.791 139.721 110.791 85.948 110.791 28.5651V28.4122H110.962H267.634H267.769V28.5416C267.628 122.539 267.581 184.144 267.575 185.273Z" fill="#263238"/>
<path d="M157.384 48.5043H159.101V51.8029C158.143 52.4845 156.995 52.8466 155.82 52.8378C153.268 52.8378 151.386 51.0738 151.386 48.6336C151.386 46.1934 153.268 44.4294 155.855 44.4294C156.492 44.4038 157.127 44.5191 157.715 44.7671C158.302 45.0151 158.828 45.3897 159.254 45.8641L158.078 46.9813C157.814 46.6859 157.489 46.451 157.126 46.2926C156.762 46.1343 156.369 46.0563 155.973 46.064C155.284 46.064 154.623 46.3379 154.135 46.8253C153.648 47.3127 153.374 47.9737 153.374 48.663C153.374 49.3523 153.648 50.0134 154.135 50.5008C154.623 50.9882 155.284 51.262 155.973 51.262C156.482 51.2719 156.986 51.1525 157.437 50.9151L157.384 48.5043Z" fill="#0059EF"/>
<path d="M166.798 50.086H162.094C162.192 50.4701 162.423 50.807 162.746 51.0364C163.069 51.2659 163.463 51.3729 163.858 51.3384C164.146 51.3521 164.434 51.307 164.704 51.2059C164.973 51.1049 165.22 50.9499 165.428 50.7504L166.404 51.7794C166.075 52.1263 165.674 52.3968 165.229 52.5715C164.784 52.7463 164.306 52.8211 163.829 52.7907C161.665 52.7907 160.26 51.4325 160.26 49.5744C160.254 49.1405 160.338 48.7101 160.505 48.3097C160.672 47.9093 160.919 47.5473 161.232 47.246C161.544 46.9448 161.915 46.7106 162.321 46.5579C162.727 46.4052 163.16 46.3371 163.593 46.358C164.025 46.3353 164.457 46.4035 164.861 46.5581C165.265 46.7127 165.633 46.9504 165.939 47.2557C166.245 47.561 166.484 47.9272 166.64 48.3307C166.797 48.7341 166.866 49.1658 166.845 49.5979C166.833 49.739 166.81 49.9331 166.798 50.086ZM162.047 49.0275H165.128C165.065 48.6651 164.875 48.3367 164.593 48.1001C164.312 47.8634 163.956 47.7337 163.588 47.7337C163.22 47.7337 162.863 47.8634 162.582 48.1001C162.3 48.3367 162.111 48.6651 162.047 49.0275Z" fill="#0059EF"/>
<path d="M172.067 52.3968C171.625 52.6727 171.111 52.8099 170.591 52.7908C169.121 52.7908 168.239 52.0322 168.239 50.5505V47.9809H167.28V46.5874H168.239V45.0703H170.05V46.5874H171.608V47.9809H170.05V50.527C170.035 50.6349 170.045 50.7447 170.079 50.8483C170.112 50.9519 170.169 51.0467 170.244 51.1256C170.319 51.2046 170.411 51.2657 170.512 51.3046C170.614 51.3435 170.723 51.359 170.832 51.3502C171.094 51.3553 171.351 51.2725 171.561 51.115L172.067 52.3968Z" fill="#0059EF"/>
<path d="M176.153 44.5704C176.156 44.4288 176.188 44.2892 176.246 44.1603C176.305 44.0314 176.39 43.916 176.495 43.8212C176.601 43.7263 176.724 43.6542 176.859 43.6091C176.993 43.564 177.135 43.547 177.276 43.5591C177.415 43.5436 177.556 43.5571 177.69 43.5986C177.824 43.6402 177.948 43.7089 178.054 43.8006C178.16 43.8922 178.246 44.0048 178.306 44.1312C178.367 44.2576 178.4 44.3951 178.405 44.5352C178.389 44.8204 178.266 45.0891 178.06 45.2871C177.854 45.4851 177.581 45.5977 177.296 45.6021C177.01 45.6066 176.733 45.5026 176.521 45.3112C176.309 45.1197 176.178 44.855 176.153 44.5704ZM176.4 46.452H178.164V52.6966H176.4V46.452Z" fill="#0059EF"/>
<path d="M186.249 49.1216V52.6966H184.438V49.3921C184.438 48.3866 183.973 47.9221 183.174 47.9221C182.374 47.9221 181.68 48.4513 181.68 49.6038V52.6908H179.869V46.4521H181.598V47.1812C181.865 46.9069 182.187 46.6918 182.542 46.55C182.898 46.4082 183.279 46.3427 183.662 46.358C185.138 46.358 186.249 47.2165 186.249 49.1216Z" fill="#0059EF"/>
<path d="M195.216 52.3968C194.776 52.6718 194.264 52.809 193.746 52.7907C192.27 52.7907 191.394 52.0322 191.394 50.5505V47.9809H190.43V46.5874H191.394V45.0703H193.205V46.5874H194.757V47.9809H193.205V50.5269C193.19 50.6346 193.199 50.7443 193.232 50.8479C193.264 50.9516 193.32 51.0465 193.395 51.1256C193.469 51.2047 193.561 51.2659 193.662 51.3048C193.764 51.3437 193.873 51.3592 193.981 51.3501C194.244 51.3553 194.5 51.2725 194.71 51.1149L195.216 52.3968Z" fill="#0059EF"/>
<path d="M195.557 49.5744C195.557 47.6928 197.009 46.358 198.997 46.358C200.984 46.358 202.419 47.6928 202.419 49.5744C202.419 51.456 200.984 52.7908 198.997 52.7908C197.009 52.7908 195.557 51.456 195.557 49.5744ZM200.585 49.5744C200.559 49.2643 200.444 48.9683 200.253 48.7226C200.063 48.477 199.804 48.2923 199.51 48.1912C199.216 48.0901 198.899 48.077 198.597 48.1535C198.296 48.23 198.023 48.3928 197.812 48.622C197.602 48.8511 197.463 49.1366 197.412 49.4435C197.362 49.7505 197.402 50.0655 197.527 50.3501C197.653 50.6346 197.859 50.8764 198.12 51.0456C198.381 51.2149 198.686 51.3044 198.997 51.3031C199.219 51.3067 199.439 51.2634 199.642 51.1758C199.846 51.0883 200.029 50.9586 200.179 50.7953C200.329 50.632 200.443 50.4387 200.513 50.2283C200.582 50.0179 200.607 49.795 200.585 49.5744Z" fill="#0059EF"/>
<path d="M209.916 46.452V52.6966H208.193V51.9557C207.949 52.2255 207.651 52.4397 207.317 52.5838C206.983 52.7278 206.622 52.7984 206.259 52.7907C204.689 52.7907 203.583 51.9087 203.583 49.98V46.452H205.394V49.7154C205.394 50.7562 205.859 51.2207 206.664 51.2207C207.47 51.2207 208.105 50.6856 208.105 49.539V46.452H209.916Z" fill="#0059EF"/>
<path d="M211.139 49.5743C211.139 47.6927 212.586 46.358 214.62 46.358C215.192 46.3134 215.764 46.4407 216.262 46.7236C216.761 47.0065 217.164 47.432 217.419 47.9456L216.014 48.7041C215.884 48.4454 215.685 48.2279 215.439 48.0762C215.193 47.9246 214.909 47.8447 214.62 47.8456C214.162 47.8456 213.722 48.0277 213.398 48.3519C213.074 48.6761 212.891 49.1158 212.891 49.5743C212.891 50.0328 213.074 50.4725 213.398 50.7967C213.722 51.1209 214.162 51.303 214.62 51.303C214.912 51.309 215.199 51.2313 215.448 51.0792C215.697 50.9271 215.898 50.7069 216.025 50.4446L217.431 51.209C217.172 51.7213 216.766 52.1452 216.266 52.4268C215.765 52.7084 215.193 52.835 214.62 52.7907C212.586 52.7907 211.139 51.4559 211.139 49.5743Z" fill="#0059EF"/>
<path d="M224.798 49.1216V52.6967H222.987V49.3921C222.987 48.3866 222.523 47.9221 221.723 47.9221C220.923 47.9221 220.224 48.4513 220.224 49.6038V52.6908H218.413V44.1001H220.224V47.0989C220.489 46.8501 220.802 46.6565 221.143 46.5293C221.484 46.4021 221.847 46.3439 222.211 46.358C223.687 46.358 224.798 47.2165 224.798 49.1216Z" fill="#0059EF"/>
<path d="M230.819 59.0412C230.819 59.1235 211.651 59.1941 188.013 59.1941C164.375 59.1941 145.212 59.1235 145.212 59.0412C145.212 58.9589 164.369 58.8883 188.013 58.8883C211.656 58.8883 230.819 58.9589 230.819 59.0412Z" fill="#263238"/>
<path d="M244.649 86.0421C244.649 86.0421 244.649 85.8422 244.649 85.4541C244.649 85.066 244.649 84.5016 244.649 83.7607C244.649 82.2613 244.649 80.0563 244.649 77.1692L244.702 77.228L131.3 77.3221L131.453 77.1692V86.0362L131.3 85.8834L211.757 85.948L235.865 85.9951H242.403H244.108H244.696H244.108H242.427H235.923L211.815 86.0421L131.259 86.1068H131.106V77.0281H131.265L244.667 77.1222H244.726V77.181C244.726 80.0798 244.726 82.3024 244.696 83.8018C244.696 84.5427 244.696 85.1013 244.696 85.4894C244.696 85.8775 244.649 86.0421 244.649 86.0421Z" fill="#263238"/>
<path d="M133.905 70.9246V73.5H133.417L132.135 71.9359V73.5H131.547V70.9246H132.035L133.317 72.4886V70.9246H133.905Z" fill="#263238"/>
<path d="M136.228 72.3711V73.5001H135.687V73.2531C135.621 73.3465 135.533 73.4212 135.43 73.4697C135.326 73.5182 135.212 73.5388 135.099 73.5295C134.634 73.5295 134.358 73.2708 134.358 72.9415C134.358 72.6122 134.605 72.3535 135.211 72.3535H135.663C135.663 72.1065 135.516 71.9654 135.211 71.9654C135 71.9598 134.793 72.0239 134.623 72.1477L134.417 71.7478C134.671 71.5844 134.967 71.5005 135.269 71.5068C135.875 71.4891 136.228 71.7714 136.228 72.3711ZM135.64 72.8709V72.671H135.24C134.975 72.671 134.887 72.771 134.887 72.9003C134.887 73.0297 135.011 73.1414 135.211 73.1414C135.304 73.1525 135.398 73.1318 135.478 73.0827C135.558 73.0336 135.619 72.959 135.652 72.8709H135.64Z" fill="#263238"/>
<path d="M140.085 72.3652V73.5H139.497V72.4534C139.497 72.1359 139.35 71.9889 139.121 71.9889C138.891 71.9889 138.686 72.1535 138.686 72.5063V73.5H138.098V72.4534C138.098 72.1359 137.962 71.9889 137.721 71.9889C137.48 71.9889 137.286 72.1535 137.286 72.5063V73.5H136.698V71.5185H137.245V71.736C137.324 71.6504 137.421 71.5829 137.528 71.5383C137.636 71.4936 137.752 71.4728 137.868 71.4773C137.995 71.4697 138.122 71.4956 138.235 71.5524C138.349 71.6091 138.445 71.6948 138.515 71.8007C138.603 71.6963 138.713 71.613 138.837 71.557C138.961 71.501 139.096 71.4738 139.233 71.4773C139.351 71.4617 139.472 71.4743 139.585 71.514C139.698 71.5537 139.8 71.6194 139.883 71.7058C139.966 71.7922 140.028 71.8969 140.063 72.0114C140.098 72.126 140.105 72.2471 140.085 72.3652Z" fill="#263238"/>
<path d="M142.549 72.6709H141.055C141.086 72.7987 141.164 72.9104 141.272 72.9843C141.381 73.0583 141.513 73.0891 141.643 73.0708C141.735 73.0745 141.826 73.0591 141.911 73.0257C141.996 72.9923 142.073 72.9416 142.137 72.8768L142.443 73.206C142.285 73.3472 142.092 73.4431 141.884 73.4836C141.676 73.524 141.461 73.5076 141.262 73.4359C141.062 73.3642 140.886 73.24 140.751 73.0763C140.617 72.9127 140.529 72.7158 140.497 72.5063C140.496 72.3689 140.523 72.2328 140.576 72.1063C140.63 71.9797 140.708 71.8653 140.807 71.7702C140.906 71.675 141.024 71.601 141.152 71.5526C141.281 71.5043 141.418 71.4827 141.555 71.4891C141.692 71.4814 141.83 71.5028 141.958 71.5518C142.086 71.6008 142.203 71.6763 142.3 71.7734C142.397 71.8706 142.473 71.9871 142.522 72.1154C142.571 72.2437 142.592 72.3809 142.584 72.5181C142.575 72.5696 142.563 72.6207 142.549 72.6709ZM141.044 72.3358H142.02C142.002 72.2194 141.942 72.1133 141.853 72.0366C141.763 71.96 141.65 71.9179 141.532 71.9179C141.414 71.9179 141.3 71.96 141.21 72.0366C141.121 72.1133 141.062 72.2194 141.044 72.3358Z" fill="#263238"/>
<path d="M244.649 108.192C244.649 108.192 244.649 107.992 244.649 107.604C244.649 107.216 244.649 106.652 244.649 105.911C244.649 104.411 244.649 102.206 244.649 99.3192L244.702 99.378L131.3 99.472L131.453 99.3192V108.192L131.3 108.039L211.757 108.104L235.865 108.151H242.403H244.108H244.696H244.108H242.427H235.923L211.815 108.198L131.259 108.263H131.106V99.0898H131.265L244.667 99.1898H244.726V99.2427C244.726 102.142 244.726 104.364 244.696 105.864C244.696 106.604 244.696 107.163 244.696 107.551C244.696 107.939 244.649 108.192 244.649 108.192Z" fill="#263238"/>
<path d="M244.649 152.651C244.649 152.651 244.649 152.445 244.649 152.063C244.649 151.681 244.649 151.069 244.649 150.299C244.649 148.735 244.649 146.436 244.649 143.454C244.649 137.486 244.62 128.754 244.596 117.823L244.69 117.923L131.289 117.976L131.442 117.823C131.442 129.889 131.442 141.614 131.442 152.674L131.295 152.527L212.38 152.592L236.112 152.639H242.485H244.138H244.726H244.179H242.544H236.206L212.509 152.68L131.318 152.745H131.165V117.647H131.324L244.726 117.706H244.826V117.8C244.826 128.784 244.785 137.504 244.773 143.49C244.773 146.465 244.773 148.782 244.773 150.311C244.773 151.081 244.773 151.663 244.773 152.075C244.773 152.486 244.649 152.651 244.649 152.651Z" fill="#263238"/>
<path d="M133.541 95.1503V95.6324H131.547V93.057H133.476V93.5333H132.118V94.1213H133.294V94.5858H132.118V95.1738L133.541 95.1503Z" fill="#263238"/>
<path d="M137.316 94.4975V95.6324H136.728V94.5857C136.728 94.2682 136.586 94.1212 136.357 94.1212C136.128 94.1212 135.916 94.2858 135.916 94.6386V95.6324H135.328V94.5857C135.328 94.2682 135.187 94.1212 134.952 94.1212C134.717 94.1212 134.517 94.2858 134.517 94.6386V95.6324H133.929V93.6508H134.481V93.8801C134.559 93.7943 134.655 93.7267 134.761 93.6819C134.868 93.6372 134.983 93.6166 135.099 93.6214C135.226 93.6145 135.353 93.6407 135.468 93.6974C135.582 93.754 135.68 93.8393 135.752 93.9448C135.838 93.8409 135.947 93.7578 136.07 93.7018C136.193 93.6458 136.328 93.6183 136.463 93.6214C136.58 93.6075 136.699 93.6209 136.811 93.6604C136.922 93.6999 137.023 93.7645 137.105 93.8492C137.188 93.9339 137.25 94.0364 137.286 94.1488C137.323 94.2613 137.333 94.3806 137.316 94.4975Z" fill="#263238"/>
<path d="M139.58 94.5034V95.6324H139.044V95.3854C138.979 95.4784 138.89 95.5527 138.787 95.6012C138.684 95.6496 138.57 95.6705 138.456 95.6618C137.992 95.6618 137.716 95.4031 137.716 95.0738C137.716 94.7445 137.963 94.4858 138.568 94.4858H139.021C139.021 94.2388 138.874 94.0977 138.568 94.0977C138.357 94.0922 138.151 94.1562 137.98 94.28L137.774 93.8802C138.029 93.7174 138.325 93.6335 138.627 93.6391C139.233 93.6214 139.58 93.9037 139.58 94.5034ZM138.992 95.0032V94.8033H138.603C138.333 94.8033 138.245 94.9033 138.245 95.0326C138.245 95.162 138.368 95.2737 138.574 95.2737C138.665 95.282 138.757 95.2601 138.834 95.2112C138.912 95.1623 138.971 95.0892 139.003 95.0032H138.992Z" fill="#263238"/>
<path d="M140.026 93.0569C140.027 93.0116 140.037 92.9669 140.056 92.9256C140.074 92.8843 140.101 92.8473 140.135 92.8169C140.169 92.7866 140.208 92.7635 140.251 92.7491C140.294 92.7348 140.34 92.7295 140.385 92.7335C140.429 92.7295 140.474 92.7345 140.516 92.7481C140.558 92.7617 140.597 92.7838 140.631 92.8129C140.664 92.842 140.692 92.8776 140.711 92.9175C140.73 92.9574 140.742 93.0008 140.744 93.0452C140.744 93.1403 140.706 93.2315 140.639 93.2988C140.571 93.3661 140.48 93.4038 140.385 93.4038C140.29 93.4038 140.199 93.3661 140.131 93.2988C140.064 93.2315 140.026 93.1403 140.026 93.0452V93.0569ZM140.097 93.6449H140.685V95.6265H140.097V93.6449Z" fill="#263238"/>
<path d="M141.202 92.9041H141.79V95.6324H141.202V92.9041Z" fill="#263238"/>
<path d="M145.101 94.5034V95.6324H144.566V95.3854C144.5 95.4784 144.411 95.5527 144.308 95.6012C144.205 95.6496 144.091 95.6705 143.978 95.6618C143.513 95.6618 143.243 95.4031 143.243 95.0738C143.243 94.7445 143.484 94.4858 144.089 94.4858H144.548C144.548 94.2388 144.401 94.0977 144.089 94.0977C143.879 94.093 143.672 94.157 143.501 94.28L143.296 93.8802C143.55 93.7174 143.846 93.6335 144.148 93.6391C144.754 93.6214 145.101 93.9037 145.101 94.5034ZM144.513 95.0032V94.8033H144.119C143.848 94.8033 143.766 94.9033 143.766 95.0326C143.766 95.162 143.884 95.2737 144.089 95.2737C144.182 95.2827 144.276 95.2612 144.355 95.2124C144.435 95.1636 144.496 95.0902 144.53 95.0032H144.513Z" fill="#263238"/>
<path d="M147.659 92.9041V95.6324H147.112V95.403C147.034 95.4903 146.938 95.5589 146.83 95.6037C146.722 95.6485 146.605 95.6683 146.489 95.6618C146.231 95.6422 145.991 95.5263 145.816 95.3371C145.64 95.1479 145.543 94.8995 145.543 94.6416C145.543 94.3837 145.64 94.1352 145.816 93.9461C145.991 93.7569 146.231 93.641 146.489 93.6214C146.598 93.6159 146.708 93.6346 146.81 93.6763C146.911 93.7179 147.002 93.7815 147.077 93.8625V92.9041H147.659ZM147.071 94.6386C147.062 94.5412 147.024 94.4484 146.964 94.3717C146.903 94.2949 146.821 94.2375 146.728 94.2063C146.635 94.1751 146.535 94.1716 146.441 94.1961C146.346 94.2206 146.26 94.2721 146.194 94.3443C146.128 94.4166 146.084 94.5065 146.068 94.6031C146.052 94.6997 146.065 94.7988 146.104 94.8885C146.143 94.9782 146.208 95.0546 146.29 95.1083C146.371 95.1621 146.467 95.1909 146.565 95.1914C146.635 95.1956 146.705 95.185 146.771 95.1602C146.837 95.1355 146.897 95.0972 146.946 95.0478C146.996 94.9985 147.035 94.9391 147.061 94.8737C147.086 94.8082 147.098 94.7382 147.094 94.668L147.071 94.6386Z" fill="#263238"/>
<path d="M150.204 92.9041V95.6324H149.652V95.403C149.578 95.4863 149.488 95.5525 149.386 95.5972C149.285 95.6419 149.175 95.6639 149.064 95.6618C148.807 95.6422 148.566 95.5263 148.391 95.3371C148.216 95.1479 148.118 94.8995 148.118 94.6416C148.118 94.3837 148.216 94.1352 148.391 93.9461C148.566 93.7569 148.807 93.641 149.064 93.6214C149.173 93.6159 149.283 93.6346 149.385 93.6763C149.486 93.7179 149.578 93.7815 149.652 93.8625V92.9041H150.204ZM149.616 94.6386C149.607 94.5412 149.57 94.4484 149.509 94.3717C149.449 94.2949 149.367 94.2375 149.274 94.2063C149.181 94.1751 149.081 94.1716 148.986 94.1961C148.892 94.2206 148.806 94.2721 148.74 94.3444C148.674 94.4166 148.63 94.5065 148.614 94.6031C148.598 94.6997 148.611 94.7988 148.65 94.8885C148.689 94.9782 148.754 95.0546 148.835 95.1083C148.917 95.1621 149.013 95.1909 149.111 95.1914C149.181 95.1956 149.251 95.185 149.317 95.1603C149.383 95.1355 149.442 95.0972 149.492 95.0479C149.542 94.9985 149.581 94.9391 149.607 94.8737C149.632 94.8083 149.643 94.7382 149.64 94.6681L149.616 94.6386Z" fill="#263238"/>
<path d="M151.957 93.6214V94.1506H151.828C151.755 94.1447 151.682 94.1551 151.613 94.1813C151.545 94.2074 151.484 94.2485 151.433 94.3015C151.383 94.3546 151.346 94.4182 151.323 94.4877C151.301 94.5573 151.294 94.631 151.304 94.7033V95.6383H150.716V93.6567H151.269V93.9213C151.349 93.8172 151.454 93.7351 151.574 93.6827C151.695 93.6303 151.826 93.6092 151.957 93.6214Z" fill="#263238"/>
<path d="M154.209 94.8033H152.715C152.746 94.9311 152.824 95.0428 152.932 95.1167C153.041 95.1906 153.173 95.2214 153.303 95.2031C153.395 95.2061 153.485 95.1904 153.57 95.1571C153.655 95.1237 153.732 95.0733 153.797 95.0091L154.103 95.3384C153.945 95.4796 153.752 95.5754 153.544 95.6159C153.336 95.6564 153.121 95.6399 152.921 95.5682C152.722 95.4965 152.546 95.3723 152.411 95.2087C152.277 95.0451 152.189 94.8481 152.157 94.6386C152.156 94.5013 152.183 94.3652 152.236 94.2386C152.29 94.1121 152.368 93.9977 152.467 93.9025C152.566 93.8073 152.684 93.7333 152.812 93.685C152.941 93.6367 153.078 93.615 153.215 93.6214C153.352 93.6147 153.489 93.6367 153.617 93.686C153.745 93.7354 153.861 93.8109 153.958 93.9078C154.055 94.0048 154.13 94.1209 154.18 94.2488C154.229 94.3767 154.251 94.5135 154.244 94.6504C154.235 94.702 154.223 94.753 154.209 94.8033ZM152.704 94.4681H153.68C153.662 94.3517 153.602 94.2456 153.513 94.169C153.423 94.0923 153.309 94.0502 153.192 94.0502C153.074 94.0502 152.96 94.0923 152.87 94.169C152.781 94.2456 152.722 94.3517 152.704 94.4681Z" fill="#263238"/>
<path d="M154.409 95.4442L154.603 95.0326C154.81 95.1591 155.048 95.2263 155.291 95.2266C155.556 95.2266 155.655 95.1561 155.655 95.0443C155.655 94.7209 154.479 95.0443 154.479 94.2623C154.479 93.886 154.815 93.6214 155.391 93.6214C155.656 93.6163 155.919 93.6769 156.155 93.7978L155.961 94.2035C155.783 94.1013 155.579 94.0504 155.373 94.0565C155.12 94.0565 155.009 94.1388 155.009 94.2388C155.009 94.5798 156.185 94.2388 156.185 95.0326C156.185 95.3971 155.844 95.6617 155.25 95.6617C154.955 95.6635 154.666 95.5886 154.409 95.4442Z" fill="#263238"/>
<path d="M156.361 95.4442L156.555 95.0326C156.762 95.1591 157 95.2263 157.243 95.2266C157.508 95.2266 157.608 95.1561 157.608 95.0443C157.608 94.7209 156.432 95.0443 156.432 94.2623C156.432 93.886 156.767 93.6214 157.343 93.6214C157.608 93.6163 157.871 93.6769 158.107 93.7978L157.913 94.2035C157.735 94.1013 157.531 94.0504 157.325 94.0565C157.073 94.0565 156.961 94.1388 156.961 94.2388C156.961 94.5798 158.137 94.2388 158.137 95.0326C158.137 95.3971 157.796 95.6617 157.202 95.6617C156.907 95.6635 156.618 95.5886 156.361 95.4442Z" fill="#263238"/>
<path d="M133.887 114.878V113.331L133.135 114.607H132.888L132.135 113.367V114.878H131.577V112.308H132.065L133.029 113.907L133.982 112.308H134.47V114.884L133.887 114.878Z" fill="#263238"/>
<path d="M136.945 114.072H135.446C135.477 114.2 135.554 114.312 135.663 114.385C135.771 114.459 135.904 114.49 136.034 114.472C136.126 114.475 136.218 114.46 136.304 114.427C136.39 114.393 136.468 114.343 136.534 114.278L136.839 114.613C136.734 114.722 136.607 114.807 136.466 114.862C136.325 114.916 136.173 114.94 136.022 114.931C135.88 114.944 135.736 114.929 135.6 114.884C135.465 114.839 135.34 114.767 135.233 114.671C135.127 114.575 135.042 114.458 134.983 114.328C134.925 114.197 134.894 114.056 134.893 113.913C134.891 113.776 134.918 113.64 134.97 113.513C135.023 113.386 135.101 113.271 135.199 113.176C135.298 113.08 135.415 113.005 135.543 112.956C135.671 112.907 135.808 112.885 135.946 112.89C136.083 112.884 136.22 112.906 136.348 112.955C136.476 113.004 136.593 113.08 136.69 113.176C136.788 113.273 136.864 113.389 136.914 113.517C136.964 113.645 136.986 113.782 136.981 113.919C136.957 113.943 136.945 114.002 136.945 114.072ZM135.44 113.737H136.416C136.398 113.62 136.339 113.514 136.249 113.438C136.16 113.361 136.046 113.319 135.928 113.319C135.81 113.319 135.696 113.361 135.607 113.438C135.517 113.514 135.458 113.62 135.44 113.737Z" fill="#263238"/>
<path d="M137.145 114.695L137.333 114.284C137.543 114.405 137.78 114.47 138.021 114.472C138.292 114.472 138.386 114.401 138.386 114.296C138.386 113.972 137.21 114.296 137.21 113.508C137.21 113.137 137.551 112.867 138.127 112.867C138.391 112.862 138.651 112.923 138.886 113.043L138.698 113.449C138.518 113.349 138.315 113.299 138.11 113.302C137.851 113.302 137.739 113.384 137.739 113.49C137.739 113.825 138.915 113.49 138.915 114.278C138.915 114.648 138.568 114.907 137.98 114.907C137.689 114.907 137.402 114.834 137.145 114.695Z" fill="#263238"/>
<path d="M139.097 114.695L139.286 114.284C139.495 114.405 139.732 114.47 139.974 114.472C140.244 114.472 140.338 114.401 140.338 114.296C140.338 113.972 139.162 114.296 139.162 113.508C139.162 113.137 139.503 112.867 140.079 112.867C140.343 112.862 140.603 112.923 140.838 113.043L140.65 113.449C140.47 113.349 140.267 113.299 140.062 113.302C139.803 113.302 139.691 113.384 139.691 113.49C139.691 113.825 140.867 113.49 140.867 114.278C140.867 114.648 140.52 114.907 139.932 114.907C139.641 114.907 139.354 114.834 139.097 114.695Z" fill="#263238"/>
<path d="M142.99 113.749V114.878H142.455V114.66C142.39 114.754 142.301 114.829 142.198 114.877C142.095 114.926 141.981 114.946 141.867 114.936C141.408 114.936 141.132 114.678 141.132 114.348C141.132 114.019 141.379 113.76 141.979 113.76H142.437C142.437 113.513 142.29 113.372 141.979 113.372C141.768 113.368 141.562 113.432 141.391 113.555L141.185 113.155C141.439 112.992 141.736 112.908 142.037 112.914C142.643 112.896 142.99 113.149 142.99 113.749ZM142.402 114.254V114.072H142.008C141.737 114.072 141.655 114.172 141.655 114.307C141.655 114.442 141.773 114.542 141.979 114.542C142.074 114.55 142.169 114.526 142.248 114.474C142.328 114.422 142.389 114.345 142.42 114.254H142.402Z" fill="#263238"/>
<path d="M145.571 112.896V114.542C145.571 115.277 145.177 115.613 144.46 115.613C144.116 115.627 143.776 115.533 143.49 115.342L143.719 114.931C143.922 115.078 144.168 115.156 144.419 115.154C144.825 115.154 145.007 114.972 145.007 114.613V114.531C144.925 114.614 144.827 114.679 144.719 114.721C144.61 114.764 144.494 114.783 144.378 114.778C144.123 114.778 143.88 114.677 143.7 114.497C143.52 114.317 143.419 114.073 143.419 113.819C143.419 113.565 143.52 113.321 143.7 113.141C143.88 112.962 144.123 112.861 144.378 112.861C144.502 112.854 144.627 112.877 144.741 112.927C144.855 112.977 144.957 113.053 145.036 113.149V112.896H145.571ZM144.983 113.819C144.99 113.714 144.966 113.61 144.912 113.519C144.859 113.428 144.78 113.356 144.685 113.311C144.589 113.266 144.483 113.251 144.379 113.267C144.275 113.284 144.179 113.331 144.102 113.403C144.026 113.475 143.973 113.569 143.95 113.672C143.927 113.775 143.936 113.882 143.976 113.979C144.015 114.077 144.083 114.16 144.17 114.219C144.258 114.277 144.361 114.308 144.466 114.307C144.534 114.316 144.603 114.309 144.668 114.289C144.734 114.268 144.794 114.234 144.845 114.189C144.897 114.143 144.938 114.087 144.965 114.024C144.993 113.962 145.007 113.894 145.007 113.825L144.983 113.819Z" fill="#263238"/>
<path d="M148.035 114.072H146.535C146.566 114.2 146.644 114.312 146.752 114.385C146.861 114.459 146.993 114.49 147.123 114.472C147.216 114.475 147.307 114.46 147.393 114.427C147.479 114.393 147.558 114.343 147.623 114.278L147.929 114.613C147.824 114.722 147.696 114.806 147.555 114.861C147.414 114.916 147.263 114.939 147.112 114.931C146.969 114.945 146.825 114.93 146.689 114.886C146.553 114.841 146.427 114.769 146.321 114.673C146.215 114.577 146.129 114.46 146.071 114.329C146.013 114.198 145.983 114.057 145.983 113.913C145.982 113.78 146.008 113.647 146.059 113.523C146.109 113.399 146.184 113.287 146.279 113.192C146.373 113.098 146.486 113.023 146.61 112.972C146.733 112.921 146.866 112.895 147 112.896C147.137 112.889 147.274 112.911 147.402 112.961C147.53 113.01 147.647 113.085 147.744 113.182C147.842 113.279 147.918 113.395 147.968 113.523C148.018 113.651 148.041 113.788 148.035 113.925C148.047 113.943 148.035 114.002 148.035 114.072ZM146.53 113.737H147.506C147.487 113.62 147.428 113.514 147.339 113.438C147.249 113.361 147.135 113.319 147.018 113.319C146.9 113.319 146.786 113.361 146.696 113.438C146.607 113.514 146.548 113.62 146.53 113.737Z" fill="#263238"/>
<path d="M238.222 174.048H208.693C207.752 174.049 206.82 173.864 205.951 173.505C205.081 173.145 204.291 172.618 203.625 171.952C202.959 171.287 202.431 170.498 202.071 169.628C201.711 168.759 201.525 167.827 201.525 166.886C201.525 165.945 201.711 165.013 202.071 164.144C202.431 163.275 202.959 162.485 203.625 161.82C204.291 161.155 205.081 160.627 205.951 160.268C206.82 159.908 207.752 159.724 208.693 159.724H238.222C240.122 159.724 241.944 160.479 243.287 161.822C244.63 163.165 245.384 164.987 245.384 166.886C245.384 168.786 244.63 170.607 243.287 171.95C241.944 173.293 240.122 174.048 238.222 174.048Z" fill="#0059EF"/>
<path d="M216.972 167.998L217.248 167.41C217.586 167.641 217.985 167.766 218.395 167.768C218.871 167.768 219.065 167.609 219.065 167.398C219.065 166.745 217.042 167.192 217.042 165.898C217.042 165.31 217.519 164.811 218.512 164.811C218.935 164.803 219.352 164.91 219.718 165.122L219.471 165.71C219.178 165.537 218.846 165.442 218.507 165.434C218.024 165.434 217.842 165.616 217.842 165.834C217.842 166.475 219.871 166.034 219.871 167.315C219.871 167.903 219.389 168.392 218.389 168.392C217.887 168.408 217.393 168.271 216.972 167.998Z" fill="white"/>
<path d="M222.981 167.221H220.959C220.999 167.388 221.099 167.535 221.24 167.633C221.381 167.732 221.552 167.776 221.723 167.756C221.847 167.762 221.97 167.742 222.085 167.697C222.201 167.653 222.306 167.585 222.393 167.498L222.811 167.945C222.6 168.145 222.338 168.283 222.053 168.343C221.769 168.403 221.473 168.383 221.199 168.285C220.925 168.187 220.684 168.014 220.503 167.787C220.321 167.56 220.206 167.287 220.171 166.998C220.169 166.812 220.205 166.627 220.277 166.455C220.35 166.284 220.456 166.129 220.591 166C220.725 165.871 220.884 165.771 221.059 165.706C221.233 165.641 221.419 165.612 221.605 165.622C221.79 165.613 221.975 165.642 222.148 165.709C222.321 165.775 222.478 165.877 222.609 166.008C222.74 166.138 222.843 166.295 222.91 166.467C222.977 166.64 223.007 166.825 222.999 167.01C222.999 167.068 222.987 167.157 222.981 167.221ZM220.947 166.769H222.264C222.235 166.615 222.153 166.477 222.033 166.377C221.913 166.278 221.762 166.223 221.605 166.223C221.449 166.223 221.298 166.278 221.178 166.377C221.058 166.477 220.976 166.615 220.947 166.769Z" fill="white"/>
<path d="M226.257 166.804V168.339H225.475V166.927C225.475 166.492 225.281 166.292 224.934 166.292C224.587 166.292 224.293 166.522 224.293 167.016V168.339H223.517V165.663H224.257V165.975C224.373 165.857 224.511 165.765 224.664 165.704C224.817 165.643 224.981 165.615 225.145 165.622C225.3 165.612 225.455 165.637 225.599 165.693C225.743 165.75 225.873 165.838 225.979 165.951C226.085 166.064 226.165 166.199 226.213 166.347C226.261 166.494 226.276 166.65 226.257 166.804Z" fill="white"/>
<path d="M229.714 164.64V168.333H228.973V168.027C228.87 168.145 228.741 168.238 228.596 168.298C228.451 168.358 228.295 168.384 228.138 168.374C227.788 168.351 227.46 168.196 227.22 167.94C226.98 167.684 226.846 167.346 226.846 166.995C226.846 166.644 226.98 166.306 227.22 166.05C227.46 165.794 227.788 165.639 228.138 165.616C228.287 165.609 228.435 165.634 228.574 165.69C228.712 165.746 228.836 165.831 228.938 165.94V164.64H229.714ZM228.955 166.992C228.944 166.859 228.894 166.732 228.812 166.627C228.729 166.521 228.618 166.442 228.491 166.399C228.365 166.356 228.228 166.351 228.099 166.385C227.969 166.418 227.852 166.488 227.762 166.587C227.672 166.686 227.612 166.809 227.591 166.94C227.57 167.072 227.587 167.208 227.641 167.33C227.695 167.452 227.784 167.556 227.896 167.629C228.009 167.701 228.14 167.739 228.273 167.739C228.369 167.739 228.463 167.72 228.55 167.681C228.638 167.643 228.716 167.587 228.78 167.517C228.844 167.446 228.893 167.363 228.923 167.273C228.954 167.183 228.965 167.087 228.955 166.992Z" fill="white"/>
<path d="M130.436 40.919C129.987 40.8751 129.535 40.8554 129.084 40.8602C127.855 40.9207 126.681 41.3905 125.75 42.1949C125.067 42.785 124.543 43.5362 124.225 44.3803C123.907 45.2244 123.804 46.1346 123.927 47.0283C123.995 47.5427 124.14 48.0441 124.356 48.5159C124.579 49.0082 124.874 49.4641 125.232 49.8683C125.988 50.7254 126.998 51.3187 128.115 51.562C129.232 51.8052 130.397 51.6857 131.441 51.2207C131.937 51.0058 132.395 50.7141 132.8 50.3564C133.196 50.0189 133.537 49.6222 133.811 49.1804C134.295 48.4194 134.581 47.5495 134.642 46.6498C134.704 45.7501 134.54 44.8493 134.164 44.0295C133.656 42.9144 132.794 41.9986 131.712 41.4247C131.304 41.2336 130.886 41.0648 130.46 40.919C130.914 40.9787 131.355 41.1138 131.765 41.3188C132.914 41.8617 133.839 42.7865 134.381 43.9354C134.762 44.7272 134.949 45.5976 134.928 46.4756C134.902 47.4885 134.604 48.4757 134.064 49.3333C133.47 50.2836 132.606 51.035 131.583 51.4912C130.481 51.9896 129.249 52.1197 128.068 51.8623C126.887 51.605 125.82 50.9738 125.026 50.0624C124.631 49.6416 124.307 49.1589 124.068 48.6335C123.84 48.1386 123.691 47.6107 123.627 47.0695C123.501 46.1325 123.614 45.1788 123.957 44.2975C124.299 43.4163 124.859 42.6362 125.585 42.0303C126.559 41.2139 127.784 40.7572 129.054 40.7367C129.522 40.7222 129.988 40.7838 130.436 40.919Z" fill="#0059EF"/>
<path d="M127.337 41.16C128.312 42.6946 129.199 44.2827 129.995 45.917C130.873 47.5027 131.659 49.1381 132.347 50.815C131.38 49.277 130.495 47.6892 129.695 46.0581C128.817 44.4716 128.029 42.8363 127.337 41.16Z" fill="#0059EF"/>
<path d="M128.46 40.8484C129.409 42.3311 130.269 43.8685 131.036 45.4524C131.895 46.9894 132.666 48.5737 133.347 50.1976C132.398 48.7142 131.536 47.1769 130.765 45.5936C129.907 44.0573 129.137 42.473 128.46 40.8484Z" fill="#0059EF"/>
<path d="M129.76 40.8661C130.606 42.1595 131.366 43.507 132.035 44.8998C132.8 46.2442 133.471 47.639 134.046 49.0746C133.2 47.7802 132.438 46.4329 131.765 45.0409C131.006 43.6944 130.337 42.2998 129.76 40.8661Z" fill="#0059EF"/>
<path d="M131.159 41.0719C131.863 42.1022 132.487 43.1854 133.023 44.3118C133.645 45.3929 134.176 46.5238 134.611 47.6928C133.907 46.6625 133.284 45.5793 132.747 44.4529C132.125 43.3718 131.594 42.2409 131.159 41.0719Z" fill="#0059EF"/>
<path d="M126.326 41.8127C127.301 43.3467 128.189 44.9349 128.984 46.5697C129.872 48.1554 130.669 49.7908 131.371 51.4677C130.395 49.9341 129.508 48.3458 128.713 46.7108C127.828 45.1235 127.031 43.4883 126.326 41.8127Z" fill="#0059EF"/>
<path d="M125.321 42.4655C126.296 43.9975 127.183 45.5837 127.978 47.2165C128.852 48.8044 129.638 50.4396 130.33 52.1145C129.354 50.5809 128.467 48.9927 127.673 47.3576C126.799 45.7713 126.014 44.1381 125.321 42.4655Z" fill="#0059EF"/>
<path d="M124.509 43.5121C125.37 44.8311 126.142 46.2062 126.82 47.6281C127.592 48.9952 128.273 50.4114 128.86 51.8676C128 50.5479 127.228 49.1729 126.549 47.7516C125.779 46.3835 125.098 44.9675 124.509 43.5121Z" fill="#0059EF"/>
<path d="M123.909 44.9233C124.616 45.9415 125.235 47.0174 125.761 48.1397C126.378 49.2145 126.907 50.3373 127.343 51.4972C126.638 50.478 126.018 49.4022 125.491 48.2808C124.87 47.2084 124.341 46.0852 123.909 44.9233Z" fill="#0059EF"/>
<path d="M173.725 166.857C173.689 166.857 173.49 166.428 172.907 165.775C172.081 164.864 170.974 164.258 169.762 164.052C168.873 163.895 167.958 163.964 167.103 164.254C166.248 164.544 165.48 165.045 164.869 165.71C164.147 166.492 163.673 167.47 163.505 168.521C163.321 169.648 163.503 170.805 164.023 171.822C164.544 172.838 165.376 173.662 166.398 174.172C166.879 174.421 167.398 174.592 167.933 174.677C168.442 174.765 168.961 174.777 169.473 174.713C170.222 174.618 170.943 174.368 171.59 173.981C172.237 173.593 172.797 173.075 173.234 172.46C173.671 171.845 173.976 171.146 174.129 170.408C174.283 169.669 174.281 168.906 174.125 168.168C173.936 167.321 173.689 166.892 173.725 166.874C173.965 167.267 174.14 167.696 174.242 168.145C174.551 169.377 174.422 170.678 173.878 171.825C173.507 172.622 172.953 173.319 172.261 173.86C171.466 174.493 170.515 174.899 169.509 175.036C168.969 175.118 168.42 175.118 167.88 175.036C167.317 174.947 166.771 174.77 166.263 174.513C165.181 173.976 164.3 173.105 163.751 172.029C163.201 170.954 163.012 169.73 163.211 168.539C163.297 167.975 163.474 167.429 163.735 166.922C163.975 166.432 164.288 165.982 164.664 165.587C165.308 164.897 166.117 164.381 167.014 164.087C167.912 163.793 168.869 163.73 169.797 163.905C171.048 164.137 172.181 164.796 173.001 165.769C173.298 166.092 173.542 166.459 173.725 166.857Z" fill="#0059EF"/>
<path d="M171.567 164.64C170.996 166.367 170.33 168.061 169.573 169.715C168.91 171.404 168.152 173.055 167.304 174.66C167.872 172.935 168.536 171.243 169.291 169.591C169.957 167.9 170.717 166.247 171.567 164.64Z" fill="#0059EF"/>
<path d="M172.525 165.287C171.98 166.961 171.338 168.603 170.602 170.203C169.961 171.841 169.224 173.441 168.397 174.995C168.941 173.322 169.583 171.682 170.32 170.085C170.964 168.445 171.701 166.843 172.525 165.287Z" fill="#0059EF"/>
<path d="M173.337 166.304C172.873 167.78 172.313 169.223 171.661 170.626C171.107 172.068 170.454 173.471 169.709 174.824C170.171 173.348 170.73 171.904 171.385 170.502C171.939 169.06 172.591 167.657 173.337 166.304Z" fill="#0059EF"/>
<path d="M174.048 167.515C173.705 168.715 173.265 169.886 172.731 171.014C172.287 172.178 171.75 173.305 171.126 174.383C171.471 173.185 171.914 172.017 172.449 170.89C172.892 169.725 173.426 168.596 174.048 167.515Z" fill="#0059EF"/>
<path d="M170.426 164.258C169.854 165.982 169.188 167.674 168.433 169.326C167.767 171.017 167.009 172.67 166.163 174.277C166.73 172.55 167.394 170.856 168.151 169.203C168.812 167.512 169.572 165.86 170.426 164.258Z" fill="#0059EF"/>
<path d="M169.279 163.887C168.715 165.614 168.051 167.306 167.292 168.956C166.629 170.648 165.871 172.3 165.022 173.907C165.589 172.181 166.252 170.489 167.01 168.838C167.673 167.147 168.431 165.494 169.279 163.887Z" fill="#0059EF"/>
<path d="M167.974 163.911C167.504 165.409 166.936 166.874 166.275 168.297C165.707 169.76 165.045 171.184 164.293 172.56C164.765 171.061 165.332 169.594 165.993 168.168C166.56 166.708 167.222 165.286 167.974 163.911Z" fill="#0059EF"/>
<path d="M166.486 164.358C166.143 165.547 165.704 166.708 165.175 167.827C164.742 168.988 164.208 170.109 163.582 171.179C163.925 169.989 164.364 168.829 164.893 167.709C165.329 166.55 165.862 165.428 166.486 164.358Z" fill="#0059EF"/>
<path d="M255.239 54.9075C255.179 54.0818 255.055 53.262 254.869 52.4555C254.628 51.5162 254.247 50.6184 253.74 49.7919C252.544 47.8023 250.692 46.2911 248.504 45.5175C246.315 44.7439 243.925 44.7563 241.745 45.5524C240.84 45.8722 239.991 46.3304 239.228 46.9107C238.83 47.204 238.453 47.5242 238.099 47.8691C237.747 48.2379 237.42 48.6308 237.123 49.0451C235.866 50.748 235.188 52.8087 235.188 54.9251C235.188 57.0415 235.866 59.1023 237.123 60.8051C237.42 61.2194 237.747 61.6124 238.099 61.9811C238.453 62.326 238.83 62.6462 239.228 62.9396C239.991 63.5198 240.84 63.978 241.745 64.2978C243.925 65.094 246.315 65.1063 248.504 64.3328C250.692 63.5592 252.544 62.0479 253.74 60.0584C254.247 59.2319 254.628 58.334 254.869 57.3947C255.055 56.5882 255.179 55.7684 255.239 54.9428C255.246 54.9974 255.246 55.0527 255.239 55.1074C255.239 55.2309 255.239 55.3896 255.239 55.5896C255.24 55.8516 255.219 56.1133 255.174 56.3716C255.137 56.7269 255.072 57.0788 254.98 57.4241C254.757 58.3822 254.388 59.3003 253.887 60.1466C253.152 61.3947 252.16 62.4723 250.977 63.3077C249.794 64.1431 248.447 64.7171 247.025 64.9917C245.227 65.3311 243.371 65.1829 241.65 64.5624C240.718 64.2355 239.842 63.7675 239.052 63.1748C238.638 62.8721 238.245 62.5421 237.876 62.1869C237.513 61.8192 237.177 61.4262 236.87 61.0109C235.572 59.2574 234.871 57.1333 234.871 54.9516C234.871 52.7699 235.572 50.6458 236.87 48.8922C237.18 48.4794 237.516 48.0866 237.876 47.7162C238.245 47.3611 238.638 47.0311 239.052 46.7284C239.843 46.1113 240.726 45.6213 241.668 45.276C243.276 44.6915 245.005 44.523 246.695 44.7862C248.385 45.0494 249.981 45.7357 251.335 46.7813C252.375 47.5843 253.248 48.5831 253.904 49.7213C254.406 50.5676 254.775 51.4857 254.998 52.4438C255.09 52.793 255.155 53.1488 255.192 53.508C255.236 53.7664 255.258 54.028 255.257 54.2901C255.257 54.49 255.257 54.6488 255.257 54.7722C255.255 54.8178 255.25 54.8631 255.239 54.9075Z" fill="#0059EF"/>
<path d="M253.587 49.4744C253.64 49.5391 250.265 52.4497 246.043 55.9424C241.821 59.4351 238.358 62.3281 238.305 62.234C238.252 62.1399 241.627 59.294 245.849 55.766C250.071 52.238 253.534 49.3921 253.587 49.4744Z" fill="#0059EF"/>
<path d="M254.604 51.356C254.657 51.4207 251.382 54.2372 247.295 57.6535C243.209 61.0698 239.845 63.7863 239.792 63.7216C239.739 63.657 243.009 60.8346 247.101 57.4183C251.194 54.002 254.539 51.2913 254.604 51.356Z" fill="#0059EF"/>
<path d="M255.069 53.6785C255.127 53.7432 252.258 56.2246 248.671 59.2234C245.084 62.2222 242.127 64.5977 242.074 64.5154C242.021 64.4331 244.884 61.9693 248.471 58.9705C252.058 55.9717 255.016 53.6139 255.069 53.6785Z" fill="#0059EF"/>
<path d="M255.239 56.2599C255.292 56.3246 252.993 58.3355 250.1 60.7522C247.207 63.1689 244.808 65.074 244.761 65.0093C244.714 64.9447 247.007 62.9337 249.906 60.517C252.805 58.1003 255.192 56.1952 255.239 56.2599Z" fill="#0059EF"/>
<path d="M252.034 47.9221C252.093 47.9868 248.712 50.8974 244.496 54.3901C240.28 57.8828 236.805 60.7229 236.752 60.6582C236.699 60.5935 240.075 57.6829 244.296 54.1549C248.518 50.6269 251.981 47.8575 252.034 47.9221Z" fill="#0059EF"/>
<path d="M250.488 46.3698C250.541 46.4344 247.16 49.345 242.944 52.8377C238.728 56.3305 235.259 59.1999 235.2 59.1352C235.141 59.0705 238.522 56.1599 242.744 52.6319C246.966 49.104 250.429 46.3051 250.488 46.3698Z" fill="#0059EF"/>
<path d="M248.33 45.3232C248.383 45.3879 245.478 47.9045 241.833 50.9503C238.187 53.9962 235.2 56.407 235.141 56.3423C235.082 56.2776 237.993 53.7551 241.639 50.7151C245.284 47.6752 248.277 45.2761 248.33 45.3232Z" fill="#0059EF"/>
<path d="M245.543 44.8057C245.596 44.8704 243.308 46.8696 240.439 49.2686C237.57 51.6676 235.188 53.561 235.147 53.4963C235.106 53.4317 237.376 51.4324 240.251 49.0334C243.126 46.6344 245.49 44.741 245.543 44.8057Z" fill="#0059EF"/>
<path d="M234.353 41.7363C235.392 41.7363 236.235 40.8939 236.235 39.8547C236.235 38.8156 235.392 37.9731 234.353 37.9731C233.314 37.9731 232.472 38.8156 232.472 39.8547C232.472 40.8939 233.314 41.7363 234.353 41.7363Z" fill="#0059EF"/>
<path d="M181.986 163.599C181.987 163.972 181.878 164.336 181.672 164.646C181.466 164.956 181.172 165.199 180.829 165.342C180.485 165.485 180.106 165.523 179.741 165.451C179.376 165.379 179.04 165.201 178.776 164.938C178.512 164.675 178.333 164.34 178.259 163.974C178.186 163.609 178.223 163.231 178.366 162.887C178.508 162.542 178.749 162.248 179.059 162.041C179.368 161.834 179.732 161.724 180.104 161.724C180.603 161.724 181.08 161.921 181.433 162.273C181.786 162.624 181.985 163.101 181.986 163.599Z" fill="#0059EF"/>
<path d="M92.998 64.092C92.7625 62.6071 92.0447 61.2411 90.9553 60.2049C89.866 59.1687 88.4658 58.52 86.971 58.359C86.179 58.3766 85.3882 58.2896 84.619 58.1003C84.0383 57.8212 83.4782 57.5009 82.9432 57.1419C82.0176 56.676 80.9611 56.5387 79.9471 56.7524C78.9331 56.9661 78.022 57.5181 77.3631 58.3179C76.1871 59.8526 75.6755 57.7299 72.8472 59.3998C70.4952 60.7934 71.73 62.7279 71.73 62.7279C70.5165 62.7119 69.3349 63.1167 68.3862 63.8735C67.4375 64.6303 66.7802 65.6924 66.5262 66.8792C66.2499 68.3903 66.5262 70.2249 65.3502 71.2127C64.7622 71.689 63.9861 71.8007 63.3922 72.277C62.2985 73.1237 62.2632 74.7584 62.5102 76.1166C62.7571 77.4749 63.1805 78.9155 62.6748 80.2326C61.8457 82.3436 58.8411 83.1726 58.4706 85.4188C58.2942 86.4772 58.7352 87.7708 58.0002 88.5234C57.6737 88.8038 57.2992 89.0229 56.8948 89.1702C56.1063 89.5561 55.4393 90.1517 54.967 90.8916C54.4946 91.6315 54.2351 92.4871 54.2169 93.3648C54.1986 94.2424 54.4224 95.1081 54.8637 95.867C55.3049 96.6258 55.9466 97.2486 56.7184 97.6668C57.1417 97.8962 57.6533 98.1137 57.8121 98.5723C57.9708 99.031 57.6592 99.6131 57.4181 100.095C56.9704 100.991 56.8273 102.008 57.0104 102.992C57.1935 103.977 57.6929 104.874 58.4328 105.549C59.1726 106.224 60.1124 106.638 61.1094 106.73C62.1064 106.822 63.1061 106.586 63.9567 106.058C64.8902 107.671 66.4148 108.858 68.2079 109.368C69.0203 109.636 69.8936 109.658 70.7187 109.433C71.3628 109.205 71.9518 108.844 72.4474 108.374C74.8935 106.24 78.3274 102.982 78.5508 99.7425" fill="#263238"/>
<path d="M70.5012 75.8991C70.1266 75.9744 69.7409 75.9744 69.3663 75.8991C68.4536 75.748 67.5823 75.4085 66.8079 74.9024C66.0335 74.3962 65.3729 73.7344 64.8681 72.9592C64.6407 72.6545 64.4785 72.3062 64.3918 71.936C64.6277 72.2222 64.8457 72.5226 65.0445 72.8357C65.5861 73.5278 66.24 74.1241 66.979 74.5997C67.7255 75.0756 68.5463 75.4234 69.4075 75.6287C69.7776 75.6949 70.1429 75.7853 70.5012 75.8991Z" fill="#455A64"/>
<path d="M72.1415 68.4608C71.9514 68.7552 71.7008 69.0057 71.4065 69.1958C70.0372 70.2094 68.3253 70.6463 66.6378 70.413C66.2875 70.3872 65.9467 70.2869 65.6382 70.119C66.7809 70.2587 67.9388 70.211 69.0662 69.9778C70.1685 69.6466 71.2078 69.1339 72.1415 68.4608Z" fill="#455A64"/>
<path d="M60.1228 105.252C60.1228 105.252 60.0875 105.252 60.0229 105.252C59.9233 105.228 59.8251 105.199 59.7289 105.164C59.3619 105.024 59.0202 104.826 58.7175 104.576C58.2165 104.201 57.8131 103.711 57.5415 103.147C57.188 102.395 57.0889 101.549 57.2593 100.736C57.3519 100.265 57.5292 99.815 57.7826 99.4073C58.0659 98.9651 58.4149 98.5686 58.8175 98.2313C59.2298 97.8938 59.5904 97.4976 59.8876 97.0553C60.0225 96.8258 60.0975 96.566 60.1058 96.2999C60.114 96.0337 60.0551 95.7698 59.9347 95.5324C59.6402 95.017 59.287 94.5376 58.8821 94.1036C58.6759 93.8583 58.4929 93.5946 58.3353 93.3156C58.1773 93.02 58.07 92.7 58.0178 92.369C57.9231 91.6753 58.048 90.9695 58.3749 90.3504C58.7018 89.7314 59.2143 89.2303 59.8406 88.9174C60.4872 88.7011 61.1525 88.5456 61.828 88.4529C62.1317 88.3922 62.4198 88.2701 62.6747 88.0942C62.91 87.9185 63.0814 87.6707 63.1628 87.3886C63.2907 86.7951 63.2226 86.1761 62.9687 85.6246C62.7394 85.066 62.4219 84.5368 62.2161 83.9723C61.9739 83.4159 61.9303 82.7931 62.0926 82.2083C62.2849 81.6687 62.6353 81.1995 63.0981 80.8618C63.9224 80.3115 64.8446 79.9242 65.8147 79.7211C66.585 79.5386 67.3121 79.207 67.955 78.745C68.4089 78.3613 68.7231 77.8383 68.8487 77.2574C68.9374 76.8913 68.9001 76.506 68.7429 76.1637C68.6312 75.9285 68.5253 75.8344 68.543 75.8226C68.6516 75.9056 68.7401 76.0122 68.8017 76.1343C68.9868 76.484 69.045 76.8872 68.9663 77.275C68.8592 77.8957 68.5415 78.4605 68.0667 78.8744C67.4151 79.3712 66.6687 79.7294 65.8735 79.9269C64.9378 80.1376 64.0501 80.5226 63.2569 81.0617C62.8359 81.3686 62.5197 81.7977 62.3513 82.2906C62.2071 82.8206 62.2528 83.3844 62.4807 83.8841C62.6806 84.4251 62.9923 84.9366 63.2392 85.5246C63.517 86.1317 63.5912 86.8123 63.4509 87.465C63.3525 87.8087 63.1464 88.1116 62.8629 88.3294C62.5753 88.5326 62.2491 88.6747 61.9045 88.7469C61.2495 88.835 60.604 88.9826 59.9758 89.1879C59.4096 89.4731 58.9463 89.9275 58.6501 90.4881C58.354 91.0487 58.2399 91.6876 58.3235 92.316C58.3691 92.6133 58.4624 92.9012 58.5999 93.1686C58.7492 93.4328 58.9224 93.6828 59.1173 93.9154C59.5357 94.3674 59.8971 94.869 60.1934 95.4089C60.3283 95.6859 60.3925 95.992 60.3802 96.2998C60.3679 96.6076 60.2794 96.9076 60.1228 97.1729C59.8119 97.6347 59.431 98.0453 58.9939 98.3901C58.6062 98.7004 58.2673 99.0671 57.9884 99.4779C57.7435 99.861 57.5701 100.285 57.4768 100.73C57.3019 101.499 57.3802 102.303 57.7003 103.024C57.9457 103.569 58.314 104.05 58.7763 104.429C59.1776 104.774 59.6324 105.052 60.1228 105.252Z" fill="#455A64"/>
<path d="M121.145 252.428H57.812V255.792H121.145V252.428Z" fill="#E0E0E0"/>
<path d="M121.128 255.78C121.128 255.78 121.128 255.704 121.128 255.568C121.128 255.433 121.128 255.216 121.128 254.945C121.128 254.357 121.128 253.546 121.098 252.417L121.146 252.464C112.914 252.523 87.6589 252.57 57.812 252.57L57.9649 252.417V255.78L57.812 255.627L102.665 255.692L116.189 255.739H119.864H120.822H121.157H120.846H119.905H116.265L102.788 255.786L57.8238 255.851H57.6709V252.252H57.8238C87.6707 252.252 112.943 252.293 121.157 252.358H121.204V252.405C121.204 253.546 121.204 254.386 121.175 254.957C121.175 255.227 121.175 255.427 121.175 255.574C121.165 255.644 121.15 255.713 121.128 255.78Z" fill="#263238"/>
<path d="M64.4446 194.134L51.0735 284.463H55.5305L67.6316 195.31V194.134H64.4446Z" fill="#E0E0E0"/>
<path d="M64.4447 194.134C64.4447 194.134 64.6858 194.134 65.2091 194.134H67.6317H67.6729V194.175C67.6729 194.528 67.6729 194.922 67.6729 195.351C66.2264 206.47 61.4283 242.174 55.6777 284.516V284.651H50.8972V284.474C54.6839 259.308 58.0355 236.699 60.464 220.382C61.687 212.245 62.6749 205.682 63.3628 201.137C63.7039 198.879 63.9508 197.127 64.1566 195.928L64.3624 194.581C64.4153 194.281 64.4447 194.134 64.4447 194.134C64.4447 194.134 64.4447 194.293 64.3859 194.605C64.3271 194.916 64.2801 195.381 64.1919 195.975C64.0214 197.151 63.7685 198.915 63.4393 201.22C62.7807 205.771 61.8223 212.356 60.6345 220.512C58.2355 236.805 54.9191 259.367 51.2265 284.486L51.0736 284.31H55.5365L55.3837 284.439C61.1519 242.097 66.0206 206.388 67.6199 195.304C67.6199 194.875 67.6199 194.481 67.6199 194.128L67.6552 194.164H65.2562L64.4447 194.134Z" fill="#263238"/>
<path d="M114.495 194.134L128.149 284.463H123.686L111.308 195.31V194.134H114.495Z" fill="#E0E0E0"/>
<path d="M114.495 194.134H113.707H111.308L111.344 194.099C111.344 194.452 111.344 194.846 111.344 195.275C112.949 206.376 117.953 242.062 123.833 284.41L123.686 284.28H128.143L127.99 284.457C124.221 259.343 120.828 236.776 118.382 220.482C117.171 212.327 116.195 205.747 115.513 201.19C115.183 198.915 114.925 197.151 114.742 195.945C114.66 195.357 114.595 194.893 114.548 194.575C114.501 194.258 114.489 194.105 114.489 194.105C114.489 194.105 114.519 194.252 114.572 194.552C114.625 194.852 114.689 195.316 114.783 195.898C114.972 197.074 115.242 198.838 115.595 201.108C116.295 205.647 117.3 212.215 118.535 220.353C121.016 236.67 124.45 259.261 128.278 284.41V284.586H123.509V284.451C117.629 242.115 112.714 206.406 111.232 195.287C111.232 194.857 111.232 194.463 111.232 194.111V194.069H111.273H113.69C114.254 194.122 114.495 194.134 114.495 194.134Z" fill="#263238"/>
<path d="M89.9286 194.134H86.1184V284.463H89.9286V194.134Z" fill="#E0E0E0"/>
<path d="M89.9286 284.463C89.9286 284.463 89.9286 284.298 89.9286 283.986C89.9286 283.675 89.9286 283.216 89.9286 282.622C89.9286 281.446 89.9286 279.647 89.9286 277.377C89.9286 272.82 89.8992 266.241 89.8815 258.091C89.8815 241.797 89.8404 219.236 89.8168 194.134L89.9697 194.287H86.1595L86.3123 194.134C86.3123 237.382 86.2653 273.808 86.2006 284.463L86.1595 284.422H89.0348H89.7345H89.9697H89.7522H89.0583H86.1595H86.1183V284.38C86.0536 273.726 86.0066 237.299 86.0066 194.052V193.899H90.1226V194.052C90.1226 219.201 90.0756 241.797 90.0638 258.144C90.0638 266.282 90.0226 272.844 90.0168 277.395C90.0168 279.653 90.0168 281.405 90.0168 282.605C90.0168 283.193 90.0168 283.639 90.0168 283.951C90.0168 284.263 89.9286 284.463 89.9286 284.463Z" fill="#263238"/>
<path d="M115.254 188.095H62.9746V194.887H115.254V188.095Z" fill="#455A64"/>
<path d="M78.9388 188.289C78.3461 188.884 77.707 189.431 77.0278 189.924C76.2955 190.454 75.5295 190.935 74.7346 191.365C72.7847 192.414 70.6779 193.14 68.496 193.517C67.6056 193.67 66.7058 193.762 65.8029 193.793C64.9728 193.828 64.1412 193.799 63.3157 193.705H63.5038H64.0036C64.427 193.705 65.0503 193.705 65.8147 193.705C66.712 193.662 67.6056 193.562 68.4901 193.405C69.5724 193.204 70.6393 192.927 71.6829 192.576C72.7171 192.208 73.7249 191.77 74.6993 191.265C75.4924 190.843 76.2583 190.371 76.9925 189.853C77.6158 189.407 78.1097 189.024 78.4331 188.742L78.8095 188.425L78.9388 188.289Z" fill="#263238"/>
<path d="M86.4358 192.752L86.3064 192.705C86.2241 192.67 86.1006 192.605 85.936 192.541C85.4501 192.356 84.9452 192.226 84.4307 192.153C83.6204 192.039 82.7964 192.069 81.9964 192.241C80.9455 192.465 79.9648 192.941 79.1387 193.628V193.546C81.0296 194.008 82.9729 194.219 84.9188 194.175C86.0292 194.148 87.1359 194.036 88.2292 193.84C88.8018 193.776 89.3589 193.613 89.8756 193.358C90.124 193.214 90.3135 192.987 90.4107 192.717C90.4948 192.441 90.4845 192.145 90.3813 191.876C90.2475 191.562 90.0388 191.285 89.7733 191.069C89.5079 190.854 89.1937 190.707 88.8584 190.641C88.1993 190.491 87.5284 190.399 86.8533 190.365C85.5757 190.275 84.2925 190.3 83.0195 190.441C79.3887 190.839 75.9134 192.132 72.9059 194.205C72.4767 194.493 72.1592 194.746 71.9416 194.91L71.6064 195.157C71.6064 195.157 71.7123 195.063 71.9298 194.893C72.1474 194.722 72.4473 194.463 72.8765 194.169C74.0742 193.316 75.3594 192.593 76.7103 192.011C78.7108 191.137 80.832 190.57 83.0019 190.33C84.2845 190.187 85.5772 190.158 86.865 190.242C87.5479 190.279 88.2265 190.373 88.8936 190.524C89.2369 190.615 89.5613 190.767 89.8521 190.971C90.1453 191.19 90.3681 191.491 90.493 191.835C90.6018 192.133 90.6018 192.46 90.493 192.758C90.3906 193.056 90.181 193.306 89.905 193.458C89.376 193.722 88.8049 193.891 88.2174 193.958C87.1164 194.154 86.0017 194.265 84.8835 194.287C82.9288 194.332 80.9769 194.114 79.0799 193.64H78.9917L79.0623 193.581C79.9127 192.882 80.9226 192.403 82.0023 192.188C82.8091 192.019 83.6397 191.997 84.4542 192.123C84.9731 192.2 85.4806 192.34 85.9654 192.541C86.2535 192.664 86.4358 192.752 86.4358 192.752Z" fill="#263238"/>
<path d="M93.1919 188.272C93.3136 188.285 93.4325 188.317 93.5447 188.366C93.8563 188.504 94.1364 188.704 94.3679 188.954C94.7109 189.321 94.9521 189.771 95.0677 190.259C95.1927 190.864 95.1417 191.493 94.9207 192.07C94.495 193.106 93.6862 193.938 92.6627 194.393C92.3615 194.533 92.0487 194.647 91.7278 194.734L91.4632 194.799C91.3985 194.799 91.3691 194.799 91.3691 194.799C91.4793 194.748 91.5933 194.707 91.7102 194.675C92.0237 194.575 92.3285 194.449 92.6216 194.299C93.6122 193.84 94.3918 193.023 94.8031 192.011C95.0255 191.451 95.0787 190.838 94.9559 190.247C94.852 189.773 94.6272 189.333 94.3033 188.971C93.9941 188.653 93.613 188.413 93.1919 188.272Z" fill="#263238"/>
<path d="M101.377 188.242C100.98 188.409 100.597 188.606 100.23 188.83C99.3639 189.395 98.6183 190.127 98.0371 190.982C97.4619 191.843 96.9659 192.754 96.5554 193.705L96.1673 194.563C96.0732 194.763 96.0203 194.875 96.0144 194.875C96.0356 194.761 96.0712 194.651 96.1202 194.546C96.2026 194.334 96.3202 194.034 96.4731 193.67C96.8634 192.702 97.3541 191.777 97.9372 190.912C98.5261 190.043 99.2915 189.308 100.183 188.754C100.456 188.592 100.743 188.456 101.042 188.348C101.123 188.319 101.205 188.293 101.289 188.272C101.342 188.242 101.377 188.237 101.377 188.242Z" fill="#263238"/>
<path d="M110.409 192.276L110.103 192.141C109.812 192.018 109.511 191.921 109.203 191.853C108.066 191.591 106.874 191.723 105.822 192.229C105.652 192.296 105.505 192.41 105.399 192.558C105.351 192.634 105.33 192.723 105.34 192.812C105.35 192.9 105.389 192.983 105.452 193.046C105.779 193.294 106.153 193.474 106.551 193.575C107.42 193.885 108.325 194.082 109.244 194.163C110.256 194.251 111.274 194.201 112.273 194.016C112.797 193.948 113.296 193.746 113.719 193.428C113.92 193.252 114.06 193.016 114.119 192.756C114.178 192.495 114.153 192.222 114.048 191.976C113.837 191.472 113.439 191.07 112.937 190.853C112.45 190.629 111.939 190.459 111.414 190.347C110.424 190.122 109.406 190.039 108.392 190.1C106.666 190.205 104.993 190.736 103.523 191.647C102.535 192.259 101.652 193.025 100.907 193.917C100.642 194.24 100.454 194.505 100.319 194.675L100.125 194.946C100.34 194.574 100.584 194.221 100.854 193.887C101.597 192.958 102.487 192.155 103.488 191.512C104.967 190.584 106.655 190.04 108.398 189.93C109.423 189.864 110.453 189.945 111.455 190.171C111.988 190.283 112.507 190.454 113.002 190.683C113.528 190.912 113.948 191.332 114.178 191.859C114.285 192.132 114.311 192.429 114.254 192.717C114.187 193 114.032 193.255 113.813 193.446C113.376 193.786 112.857 194.005 112.308 194.081C111.298 194.269 110.268 194.318 109.244 194.228C108.319 194.141 107.407 193.944 106.528 193.64C106.322 193.57 106.122 193.487 105.94 193.411C105.738 193.339 105.555 193.222 105.405 193.07C105.332 192.992 105.287 192.892 105.276 192.786C105.266 192.68 105.29 192.573 105.346 192.482C105.464 192.324 105.623 192.2 105.805 192.123C106.876 191.62 108.089 191.499 109.239 191.782C109.652 191.885 110.047 192.052 110.409 192.276Z" fill="#263238"/>
<path d="M76.5163 101.724C74.5813 102.47 72.9689 103.87 71.9593 105.681C70.2483 108.709 70.7069 110.203 71.1538 111.996C71.6007 113.79 72.3886 117.335 72.4297 117.106C72.4709 116.877 76.5163 101.724 76.5163 101.724Z" fill="#A36957"/>
<path d="M76.7046 101.742L80.3032 99.6073L97.0318 93.3451L93.7449 121.463L81.3969 129.237L74.0821 125.579L73.353 117.441L76.7046 101.742Z" fill="#A36957"/>
<path d="M76.2694 144.53L69.7308 153.009L61.6282 151.104L55.1484 154.726L56.8654 157.778L74.0585 158.931L80.1208 146.436L76.2694 144.53Z" fill="#7C3B29"/>
<path d="M56.4302 225.921L63.0275 240.222L73.6703 235.3L66.8495 217.607L56.4302 225.921Z" fill="#A36957"/>
<path d="M61.781 239.263L65.6324 246.613C65.6324 246.613 55.7657 256.815 56.6948 259.096L79.8855 247.977L73.4998 233.236L61.781 239.263Z" fill="#0059EF"/>
<path d="M72.3239 242.168C72.5804 242.129 72.8423 242.186 73.0594 242.328C73.2764 242.47 73.4333 242.687 73.4999 242.938C73.5499 243.193 73.5002 243.456 73.3613 243.675C73.2223 243.894 73.0046 244.051 72.7531 244.114C72.4819 244.155 72.2052 244.094 71.9761 243.943C71.7471 243.792 71.5819 243.562 71.5124 243.297C71.489 243.026 71.5715 242.756 71.7425 242.545C71.9135 242.333 72.1598 242.196 72.4297 242.162" fill="#E0E0E0"/>
<g opacity="0.6">
<path opacity="0.6" d="M79.8856 247.977L78.9212 246.125L57.0359 257.479C57.0359 257.479 56.2186 258.42 56.6831 259.096L79.8856 247.977Z" fill="white"/>
</g>
<path d="M65.2032 246.678C65.2561 246.79 65.85 246.566 66.5791 246.678C67.3082 246.79 67.8374 247.107 67.9197 247.013C68.002 246.919 67.5199 246.343 66.632 246.243C65.7441 246.143 65.1267 246.584 65.2032 246.678Z" fill="#263238"/>
<path d="M63.2509 248.848C63.2509 248.971 63.8389 248.93 64.474 249.224C65.109 249.518 65.4442 249.971 65.55 249.912C65.6558 249.853 65.4265 249.177 64.6562 248.824C63.886 248.471 63.198 248.724 63.2509 248.848Z" fill="#263238"/>
<path d="M63.2627 252.423C63.3803 252.423 63.2627 251.752 62.6747 251.247C62.0867 250.741 61.4399 250.77 61.4399 250.888C61.4399 251.005 61.9221 251.182 62.3984 251.582C62.8747 251.982 63.1451 252.464 63.2627 252.423Z" fill="#263238"/>
<path d="M64.0919 243.844C64.1918 243.926 64.6328 243.52 65.2679 243.256C65.9029 242.991 66.5262 242.956 66.538 242.832C66.5497 242.709 65.8735 242.532 65.1032 242.832C64.333 243.132 63.9978 243.785 64.0919 243.844Z" fill="#263238"/>
<path d="M63.4157 242.374C63.4157 242.374 63.2981 242.227 63.1981 241.909C63.0659 241.455 63.0298 240.978 63.0923 240.51C63.1046 240.349 63.1403 240.19 63.1981 240.039C63.2348 239.941 63.2973 239.854 63.379 239.788C63.4607 239.721 63.5586 239.678 63.6626 239.663C63.7256 239.655 63.7896 239.661 63.8497 239.682C63.9098 239.702 63.9645 239.736 64.0096 239.781C64.0875 239.87 64.1367 239.98 64.1507 240.098C64.1657 240.294 64.1657 240.49 64.1507 240.686C64.1507 241.08 64.1507 241.456 64.0566 241.909C64.0375 242.042 63.9825 242.167 63.8975 242.27C63.8125 242.374 63.7008 242.452 63.5744 242.497C63.3398 242.568 63.0909 242.578 62.8512 242.526C62.2053 242.414 61.5831 242.193 61.0108 241.874C60.8143 241.777 60.6385 241.644 60.4933 241.48C60.4146 241.383 60.3716 241.261 60.3716 241.136C60.3716 241.011 60.4146 240.889 60.4933 240.792C60.5721 240.722 60.6668 240.672 60.7692 240.646C60.8716 240.62 60.9787 240.62 61.0813 240.645C61.3993 240.73 61.7054 240.855 61.9927 241.015C62.4046 241.239 62.7827 241.52 63.1158 241.85C63.3451 242.085 63.451 242.232 63.4333 242.25C62.9558 241.853 62.4398 241.504 61.8928 241.209C61.622 241.07 61.3359 240.964 61.0402 240.892C60.9758 240.874 60.9083 240.872 60.843 240.886C60.7777 240.899 60.7163 240.927 60.6638 240.968C60.6315 241.021 60.6174 241.083 60.6238 241.145C60.6301 241.206 60.6566 241.264 60.6991 241.309C60.8248 241.436 60.9721 241.54 61.1342 241.615C61.3093 241.712 61.49 241.798 61.6752 241.874C62.0534 242.033 62.4477 242.152 62.8512 242.227C63.044 242.276 63.2464 242.276 63.4392 242.227C63.5159 242.201 63.5837 242.155 63.6348 242.092C63.6858 242.03 63.7179 241.954 63.7273 241.874C63.7802 241.497 63.7979 241.062 63.8332 240.698C63.8468 240.52 63.8468 240.341 63.8332 240.163C63.8332 240.01 63.7508 239.939 63.6391 239.945C63.3863 239.945 63.2981 240.304 63.2569 240.574C63.196 241.179 63.2499 241.789 63.4157 242.374Z" fill="#263238"/>
<path d="M56.2774 230.831L39.4783 189.018C39.4783 189.018 39.8664 181.598 41.2423 179.252C42.6182 176.906 84.0251 163.229 84.0251 163.229C84.0251 163.229 94.5739 160.695 101.606 163.229C108.639 165.763 113.913 174.565 112.937 179.446C111.961 184.326 107.839 187.919 107.839 187.919L77.3808 188.824L60.7815 194.881L71.9535 226.927C71.9535 226.927 66.244 233.177 56.2774 230.831Z" fill="#263238"/>
<path d="M41.401 202.801L41.0071 218.542L52.7318 218.824L54.4194 199.938L41.401 202.801Z" fill="#A36957"/>
<path d="M40.3072 217.131L40.5247 225.427C40.5247 225.427 27.1713 230.226 27.0007 232.683L52.714 232.942L53.5078 216.901L40.3072 217.131Z" fill="#0059EF"/>
<path d="M48.4863 224.393C48.7336 224.471 48.9433 224.638 49.0756 224.862C49.2079 225.085 49.2534 225.349 49.2037 225.604C49.1334 225.849 48.9734 226.059 48.7556 226.192C48.5378 226.325 48.278 226.371 48.0277 226.321C47.7672 226.237 47.5469 226.06 47.4091 225.823C47.2713 225.587 47.2257 225.308 47.2809 225.039C47.3832 224.791 47.5769 224.592 47.822 224.482C48.0672 224.373 48.345 224.362 48.5981 224.451" fill="#E0E0E0"/>
<g opacity="0.6">
<path opacity="0.6" d="M52.7081 232.942L52.6611 230.855L28.0239 231.39C28.0239 231.39 26.8479 231.872 26.9949 232.683L52.7081 232.942Z" fill="white"/>
</g>
<path d="M40.1072 225.292C40.1072 225.422 40.7364 225.48 41.3538 225.88C41.9712 226.28 42.2887 226.821 42.4063 226.774C42.5239 226.727 42.3416 225.998 41.589 225.516C40.8363 225.034 40.0837 225.204 40.1072 225.292Z" fill="#263238"/>
<path d="M37.4025 226.38C37.3672 226.503 37.9141 226.721 38.3315 227.256C38.749 227.791 38.8725 228.356 38.996 228.35C39.1195 228.344 39.2077 227.638 38.6726 226.986C38.1375 226.333 37.4025 226.262 37.4025 226.38Z" fill="#263238"/>
<path d="M35.8326 229.596C35.9502 229.596 36.1325 229.008 35.8326 228.309C35.5327 227.609 34.9329 227.338 34.88 227.438C34.8271 227.538 35.1858 227.915 35.4327 228.485C35.6797 229.055 35.7091 229.579 35.8326 229.596Z" fill="#263238"/>
<path d="M40.3661 222.264C40.419 222.382 40.9952 222.211 41.7067 222.264C42.4182 222.317 42.965 222.546 43.0297 222.44C43.0944 222.335 42.5711 221.882 41.7361 221.852C40.9012 221.823 40.3073 222.164 40.3661 222.264Z" fill="#263238"/>
<path d="M40.4015 220.647C40.3639 220.479 40.3639 220.304 40.4015 220.135C40.482 219.669 40.6582 219.225 40.9189 218.83C41.0044 218.692 41.1072 218.566 41.2247 218.454C41.3019 218.381 41.3973 218.331 41.5008 218.308C41.6044 218.285 41.7121 218.291 41.8127 218.324C41.8726 218.345 41.927 218.379 41.9719 218.424C42.0167 218.469 42.0507 218.523 42.0714 218.583C42.1063 218.696 42.1063 218.817 42.0714 218.93C41.9932 219.11 41.9028 219.285 41.8009 219.453C41.601 219.789 41.4305 220.13 41.1776 220.506C41.1023 220.616 40.9984 220.703 40.8771 220.758C40.7559 220.813 40.6219 220.833 40.4897 220.818C40.2462 220.78 40.017 220.678 39.8252 220.524C39.4656 220.261 39.1363 219.959 38.8433 219.624C38.708 219.459 38.5787 219.295 38.4611 219.124C38.3258 218.95 38.2277 218.75 38.1729 218.536C38.1403 218.413 38.1519 218.283 38.2057 218.168C38.2594 218.053 38.3519 217.961 38.4669 217.907C38.569 217.881 38.676 217.88 38.7784 217.905C38.8809 217.929 38.9758 217.978 39.0549 218.048C39.3032 218.266 39.5225 218.515 39.7076 218.789C39.9794 219.17 40.1952 219.588 40.3485 220.03C40.4157 220.188 40.4536 220.357 40.4603 220.529C40.2038 219.963 39.8927 219.424 39.5312 218.918C39.3502 218.673 39.141 218.45 38.9079 218.254C38.8579 218.21 38.7986 218.178 38.7343 218.161C38.6701 218.144 38.6028 218.141 38.5375 218.154C38.4842 218.187 38.4436 218.236 38.4222 218.295C38.4009 218.354 38.4 218.418 38.4199 218.477C38.474 218.647 38.5598 218.804 38.6727 218.942C38.7874 219.107 38.911 219.266 39.0432 219.418C39.3245 219.738 39.64 220.026 39.984 220.277C40.1383 220.395 40.3171 220.477 40.5073 220.518C40.588 220.527 40.6697 220.514 40.7434 220.479C40.817 220.445 40.8798 220.391 40.9248 220.324C41.1365 220.012 41.3423 219.63 41.5128 219.312C41.6108 219.162 41.6973 219.005 41.7715 218.842C41.8244 218.695 41.7715 218.601 41.6951 218.56C41.4599 218.466 41.2305 218.73 41.0718 218.954C40.7447 219.471 40.5173 220.046 40.4015 220.647Z" fill="#263238"/>
<path d="M48.2452 159.101C48.2452 159.101 41.1892 158.542 40.4425 166.157C39.6957 173.772 38.8901 209.328 38.8901 209.328L55.3012 210.698L57.8414 174.354L84.025 163.229C84.025 163.229 52.9198 158.125 48.2452 159.101Z" fill="#263238"/>
<path d="M77.1924 148.823C77.1924 148.823 72.9295 160.771 73.7409 162.106C74.5523 163.441 85.5009 168.915 85.5009 168.915L112.925 179.446C114.829 175.966 115.799 172.052 115.742 168.086C115.742 161.2 106.204 148.823 106.204 148.823H77.1924Z" fill="#263238"/>
<path d="M85.3186 162.623C85.3186 162.623 85.2775 162.623 85.1893 162.694L84.8012 162.87L83.2841 163.546L77.5805 166.034L57.9002 174.501L57.9884 174.377C57.7414 177.97 57.4709 181.845 57.1946 185.855C56.5243 195.234 55.9127 203.877 55.4306 210.716V210.839H55.313L43.3354 209.781L40.0426 209.475L39.1841 209.381C39.085 209.377 38.9865 209.363 38.8901 209.34C38.9899 209.331 39.0903 209.331 39.19 209.34L40.0485 209.393L43.3472 209.634L55.313 210.581L55.1836 210.692C55.6481 203.854 56.242 195.204 56.8888 185.826C57.1711 181.816 57.4415 177.941 57.6944 174.354V174.26L57.7767 174.224L77.5041 165.857L83.2371 163.452L84.7777 162.817L85.1775 162.664L85.3186 162.623Z" fill="#455A64"/>
<path d="M107.134 163.817C106.869 163.777 106.611 163.706 106.363 163.605L104.299 162.941C102.044 162.172 99.7323 161.582 97.3845 161.177C95.0453 160.793 92.6568 160.825 90.3285 161.271C89.3701 161.493 88.424 161.766 87.4944 162.088C87.7189 161.945 87.9572 161.825 88.2059 161.729C88.8769 161.446 89.5714 161.222 90.2815 161.059C92.6371 160.541 95.0703 160.479 97.4492 160.877C99.8123 161.273 102.133 161.889 104.382 162.717C105.246 163.023 105.94 163.305 106.422 163.476C106.67 163.566 106.908 163.681 107.134 163.817Z" fill="#455A64"/>
<path d="M103.253 157.519C102.456 157.47 101.657 157.47 100.86 157.519C100.119 157.566 99.2426 157.684 98.2606 157.796C97.2786 157.907 96.2144 158.043 95.103 158.254C93.1974 158.557 91.3707 159.234 89.7287 160.248C89.0717 160.701 88.4487 161.202 87.8647 161.747C87.9694 161.554 88.1044 161.38 88.2646 161.23C88.6672 160.79 89.1168 160.396 89.6052 160.054C91.2469 158.97 93.1014 158.25 95.0442 157.943C96.1673 157.725 97.2492 157.602 98.2312 157.502C99.2132 157.402 100.095 157.314 100.848 157.29C101.437 157.261 102.027 157.287 102.612 157.366C102.832 157.382 103.049 157.434 103.253 157.519Z" fill="#455A64"/>
<path d="M76.5163 101.724C76.5163 101.724 71.8535 116.677 71.9593 120.957C72.0651 125.238 73.8409 137.421 73.6351 139.773C73.4293 142.125 74.2701 148.782 77.1631 148.782H106.187C106.187 148.782 112.743 146.965 113.025 143.031C113.307 139.097 104.205 100.895 104.205 100.895C104.205 100.895 102.488 93.8742 100.089 93.3626C97.6902 92.8511 95.0089 93.3626 93.4037 98.3195C91.7984 103.276 91.2633 110.274 87.8353 113.702C84.4073 117.13 79.5327 120.975 79.5327 120.975C79.5327 120.975 75.599 117.682 75.4167 113.225C75.2345 108.768 76.9103 101.553 76.9103 101.553L76.5163 101.724Z" fill="#0059EF"/>
<path d="M107.069 104.347C106.305 103.199 105.182 102.337 103.876 101.895C102.58 101.458 101.231 101.199 99.8657 101.124C98.6501 100.958 97.415 101.002 96.2143 101.254C95.0383 101.559 94.5443 103.018 94.0504 104.147C93.2587 109.17 93.5251 114.303 94.8325 119.217C94.9466 119.965 95.237 120.675 95.6797 121.288C96.1224 121.902 96.7047 122.401 97.3785 122.745C98.369 123.468 99.522 123.936 100.736 124.109C102.912 124.274 104.917 122.698 105.934 120.769C106.951 118.841 107.18 116.606 107.386 114.437C107.523 113.076 107.655 111.718 107.78 110.362C107.98 108.304 108.145 106.093 107.069 104.347Z" fill="#A36957"/>
<path d="M80.8146 149.146C80.3912 149.044 79.9982 148.842 79.668 148.558C78.8405 147.899 78.1765 147.058 77.7276 146.1C77.2827 145.163 76.951 144.176 76.7397 143.16C76.6167 142.746 76.5495 142.317 76.5398 141.884C76.7184 142.276 76.8545 142.686 76.9455 143.107C77.2152 144.096 77.5693 145.06 78.0039 145.989C78.4369 146.909 79.0485 147.735 79.8032 148.417C80.3912 148.887 80.8381 149.099 80.8146 149.146Z" fill="#263238"/>
<path d="M96.1733 130.612C96.0281 130.769 95.8642 130.907 95.6852 131.024C95.213 131.361 94.7111 131.654 94.1858 131.9C93.3979 132.263 92.5624 132.513 91.7045 132.641C90.6508 132.793 89.5779 132.747 88.541 132.506C86.6643 132.028 84.958 131.036 83.6136 129.642C83.2058 129.232 82.8267 128.793 82.4787 128.331C82.3455 128.164 82.2311 127.982 82.1377 127.79C82.1847 127.755 82.7257 128.496 83.7606 129.489C85.1145 130.8 86.7863 131.737 88.6116 132.206C90.4409 132.621 92.3547 132.448 94.08 131.712C95.4265 131.124 96.138 130.536 96.1733 130.612Z" fill="#263238"/>
<path d="M80.456 148.605C80.3914 148.658 79.9915 148.2 79.868 147.488C79.8021 147.28 79.7795 147.06 79.8018 146.843C79.824 146.625 79.8906 146.415 79.9974 146.224C80.0856 146.224 80.0385 146.782 80.1679 147.4C80.2973 148.017 80.556 148.558 80.456 148.605Z" fill="#263238"/>
<path d="M92.4804 104.276C92.2163 104.332 91.9713 104.456 91.7689 104.635C91.5422 104.858 91.385 105.142 91.3161 105.452C91.2604 105.655 91.2554 105.868 91.3016 106.073C91.3477 106.278 91.4436 106.469 91.5807 106.628L91.6866 106.734L91.5396 106.781C91.1791 106.899 90.8472 107.09 90.5647 107.343C90.2823 107.596 90.0556 107.905 89.8991 108.251C89.6898 108.664 89.5857 109.122 89.596 109.584C89.6062 110.047 89.7305 110.5 89.9579 110.903L90.1343 111.191L89.805 111.103C89.4264 111.006 89.0274 111.026 88.6603 111.16C88.2932 111.294 87.9751 111.536 87.7477 111.853C87.5202 112.171 87.3939 112.55 87.3854 112.941C87.3769 113.331 87.4865 113.715 87.6999 114.043L87.4295 114.178C87.309 113.942 87.1056 113.758 86.8582 113.663C86.6107 113.567 86.3368 113.566 86.0888 113.66C85.8118 113.739 85.5602 113.89 85.359 114.096C85.1579 114.302 85.0142 114.557 84.9422 114.836C84.7758 115.41 84.6926 116.004 84.6953 116.6L84.6717 117.424L84.4189 116.612C84.3314 116.404 84.175 116.232 83.976 116.125C83.777 116.018 83.5473 115.982 83.3252 116.024C83.1074 116.072 82.9045 116.172 82.7335 116.316C82.5626 116.459 82.4287 116.641 82.3433 116.847C81.9552 117.676 82.1904 118.611 82.3433 119.37H82.1081C82.1057 119.175 82.0596 118.982 81.9731 118.807C81.8866 118.632 81.7619 118.479 81.6083 118.359C81.3356 118.126 80.9902 117.997 80.6322 117.994C80.3448 118.013 80.0722 118.128 79.8587 118.321C79.6452 118.514 79.5034 118.774 79.4562 119.058C79.3672 119.428 79.4175 119.817 79.5973 120.152C79.7267 120.375 79.8443 120.464 79.8325 120.481C79.7111 120.41 79.6099 120.309 79.5385 120.187C79.3587 119.888 79.2774 119.54 79.3059 119.192C79.3343 118.843 79.4712 118.513 79.6973 118.247C79.815 118.112 79.9593 118.002 80.1212 117.926C80.283 117.849 80.459 117.806 80.6381 117.8C81.0465 117.793 81.4444 117.93 81.7611 118.188C81.9383 118.33 82.0827 118.509 82.1842 118.712C82.2857 118.915 82.342 119.137 82.3491 119.364V120.334L82.1198 119.393C82.0038 118.975 81.9212 118.549 81.8729 118.117C81.8108 117.635 81.882 117.145 82.0787 116.7C82.1789 116.451 82.3384 116.231 82.5433 116.058C82.7483 115.884 82.9925 115.764 83.2547 115.707C83.5444 115.65 83.845 115.695 84.1047 115.836C84.3644 115.976 84.567 116.203 84.6776 116.477L84.3895 116.518C84.3878 115.899 84.475 115.283 84.6482 114.689C84.7492 114.375 84.9111 114.083 85.1245 113.831C85.3594 113.571 85.6665 113.387 86.0065 113.302C86.3309 113.207 86.6758 113.207 87.0002 113.302C87.1631 113.355 87.3117 113.445 87.4349 113.564C87.5581 113.683 87.6528 113.829 87.7117 113.99L88.1351 115.166L87.4412 114.101C87.1917 113.725 87.0627 113.282 87.0713 112.831C87.0799 112.379 87.2257 111.941 87.4894 111.575C87.753 111.208 88.122 110.931 88.5472 110.779C88.9724 110.628 89.4337 110.609 89.8697 110.726L89.7168 110.932C89.471 110.491 89.3391 109.995 89.3329 109.49C89.3268 108.985 89.4466 108.486 89.6815 108.039C89.8544 107.668 90.1042 107.337 90.4144 107.07C90.7246 106.802 91.0881 106.603 91.4808 106.487L91.4396 106.64C91.288 106.459 91.1839 106.244 91.1367 106.013C91.0894 105.782 91.1006 105.542 91.1691 105.317C91.255 104.985 91.4396 104.688 91.6983 104.464C91.8595 104.327 92.051 104.23 92.2569 104.182C92.3355 104.203 92.4107 104.234 92.4804 104.276Z" fill="#0059EF"/>
<path d="M76.6576 101.83C76.6576 101.83 76.6928 101.83 76.7399 101.942C76.8017 102.064 76.8377 102.198 76.8457 102.336C76.8574 102.559 76.8108 102.782 76.7105 102.982C76.5715 103.26 76.3284 103.471 76.0343 103.57V103.435C76.2939 103.65 76.5028 103.919 76.6461 104.224C76.7894 104.529 76.8636 104.862 76.8634 105.199C76.8811 105.636 76.7813 106.069 76.5744 106.454C76.3676 106.838 76.0612 107.16 75.6874 107.386V107.169C76.0445 107.459 76.3109 107.845 76.4548 108.282C76.5986 108.718 76.6139 109.187 76.4988 109.633C76.2211 110.58 75.7303 111.451 75.0641 112.179L74.823 111.99C74.938 111.865 75.0802 111.767 75.2387 111.704C75.3972 111.641 75.568 111.615 75.738 111.628C75.908 111.641 76.0728 111.693 76.2199 111.779C76.367 111.865 76.4925 111.984 76.587 112.126C76.7392 112.381 76.8244 112.671 76.8347 112.968C76.8449 113.265 76.78 113.56 76.6458 113.825C76.3944 114.305 76.0507 114.731 75.6344 115.077L75.4816 114.825C75.6934 114.741 75.92 114.702 76.1475 114.71C76.375 114.717 76.5985 114.771 76.8044 114.868C77.0103 114.965 77.1943 115.103 77.3449 115.274C77.4955 115.444 77.6096 115.644 77.6803 115.86C77.7509 116.077 77.7766 116.305 77.7557 116.532C77.7348 116.758 77.6678 116.978 77.5588 117.178C77.4498 117.378 77.3012 117.554 77.1219 117.694C76.9426 117.834 76.7366 117.936 76.5164 117.994L76.1813 118.088L76.3812 117.8C76.5215 117.621 76.708 117.485 76.9206 117.405C77.1331 117.325 77.3635 117.305 77.5866 117.347C77.9754 117.397 78.3379 117.57 78.6215 117.841C78.8321 118.067 78.996 118.333 79.104 118.622C79.212 118.912 79.2618 119.22 79.2506 119.529C79.2565 119.911 79.2249 120.293 79.1566 120.669C79.143 120.802 79.1134 120.932 79.0684 121.057C79.0213 121.057 79.1448 120.505 79.1095 119.535C79.1067 118.958 78.8837 118.405 78.4862 117.988C78.2384 117.779 77.9368 117.645 77.616 117.6C77.4348 117.57 77.249 117.59 77.0782 117.657C76.9074 117.725 76.758 117.837 76.6458 117.982L76.5106 117.788C76.8426 117.671 77.1217 117.438 77.2974 117.133C77.4732 116.828 77.534 116.47 77.469 116.124C77.4166 115.938 77.3273 115.765 77.2065 115.614C77.0857 115.463 76.9358 115.338 76.7657 115.247C76.5957 115.155 76.4089 115.099 76.2166 115.081C76.0243 115.063 75.8303 115.084 75.6462 115.142L74.9641 115.383L75.4933 114.889C75.8791 114.562 76.1968 114.163 76.4282 113.713C76.5418 113.497 76.5983 113.256 76.5921 113.012C76.5859 112.768 76.5174 112.53 76.393 112.32C76.3251 112.218 76.2357 112.133 76.1312 112.071C76.0267 112.008 75.9096 111.969 75.7883 111.957C75.667 111.944 75.5445 111.959 75.4295 111.999C75.3145 112.04 75.2098 112.105 75.1229 112.19L74.8818 112.008C75.5218 111.317 75.9981 110.491 76.2754 109.591C76.384 109.199 76.378 108.785 76.2582 108.396C76.1383 108.007 75.9097 107.661 75.5992 107.398L75.4286 107.281L75.6109 107.175C75.9475 106.974 76.2247 106.688 76.4138 106.345C76.6029 106.002 76.6972 105.614 76.687 105.223C76.695 104.912 76.6355 104.604 76.5127 104.318C76.3899 104.033 76.2066 103.778 75.9755 103.57L75.852 103.488L75.999 103.447C76.2518 103.362 76.4623 103.183 76.587 102.947C76.6884 102.767 76.743 102.565 76.7458 102.359C76.7499 102.179 76.72 101.999 76.6576 101.83Z" fill="#0059EF"/>
<g opacity="0.3">
<path opacity="0.3" d="M82.6257 128.46C82.83 130.68 83.9012 132.729 85.6069 134.164C86.4624 134.862 87.4706 135.349 88.5496 135.584C89.6286 135.819 90.7478 135.796 91.8162 135.516C92.8785 135.211 93.8364 134.62 94.5851 133.807C95.3339 132.994 95.8446 131.99 96.0615 130.907C94.6 131.658 93.0403 132.2 91.4281 132.518C89.6889 132.752 87.919 132.479 86.332 131.729C84.745 130.98 83.4088 129.788 82.4846 128.296C82.5611 128.384 82.6434 128.466 82.7198 128.549" fill="black"/>
</g>
<g opacity="0.3">
<path opacity="0.3" d="M76.5282 142.296C76.3217 143.398 76.4038 144.535 76.7664 145.596C77.1291 146.658 77.76 147.607 78.5979 148.352C78.7574 148.533 78.9611 148.668 79.1891 148.746C79.417 148.823 79.6612 148.839 79.8974 148.793C78.2656 146.885 77.1216 144.609 76.5635 142.161" fill="black"/>
</g>
<path d="M99.2779 99.4132C99.2779 99.4132 92.7099 100.442 94.2975 109.78C95.8851 119.117 107.234 134.928 107.234 134.928L82.4258 150.058L85.3187 156.778L117.535 143.519C117.535 143.519 120.71 140.25 119.593 136.61C118.476 132.97 110.185 110.044 110.185 110.044C110.185 110.044 107.122 97.8256 99.2779 99.4132Z" fill="#A36957"/>
<path d="M60.7814 155.82L69.6602 150.211L81.4202 150.763L82.408 150.081L85.301 156.802C85.301 156.802 82.1316 158.319 80.4735 158.454L70.2011 157.672L59.2878 156.855L60.7814 155.82Z" fill="#A36957"/>
<path d="M107.204 135.111C106.986 134.875 106.789 134.622 106.616 134.352C106.263 133.852 105.763 133.117 105.158 132.206C103.952 130.371 102.347 127.802 100.695 124.891C99.0426 121.981 97.6667 119.282 96.7141 117.306C96.2378 116.318 95.8674 115.513 95.6204 114.954C95.4708 114.672 95.3487 114.377 95.2559 114.072C95.4309 114.338 95.5842 114.617 95.7145 114.907L96.8905 117.218C97.8901 119.164 99.3013 121.839 100.948 124.744C102.594 127.649 104.164 130.236 105.322 132.094L106.698 134.293C106.89 134.551 107.059 134.824 107.204 135.111Z" fill="#7C3B29"/>
<path d="M113.307 137.239C112.369 136.648 111.386 136.131 110.367 135.693C109.301 135.353 108.21 135.097 107.104 134.928C108.248 134.847 109.395 135.011 110.47 135.409C111.545 135.808 112.523 136.432 113.337 137.239H113.307Z" fill="#7C3B29"/>
<path d="M25.0193 127.79C25.2427 128.472 34.1568 158.431 34.1568 158.431L85.3128 162.106L87.1944 158.93L58.6294 156.778L50.6149 126.038C50.4523 125.421 50.0663 124.886 49.5318 124.537C48.9973 124.188 48.3523 124.051 47.722 124.15L25.0193 127.79Z" fill="#455A64"/>
<path d="M41.1598 140.361C41.5891 141.255 41.4127 142.231 40.7541 142.549C40.0955 142.866 39.2194 142.402 38.7902 141.514C38.3609 140.626 38.5373 139.644 39.19 139.327C39.8427 139.009 40.7306 139.474 41.1598 140.361Z" fill="#FAFAFA"/>
<path d="M86.2125 160.6H86.0596H85.6304L83.9546 160.506L77.757 160.095L57.0006 158.601H56.8948L56.8654 158.501C56.589 157.537 56.2774 156.514 55.9952 155.479L49.7212 133.394L47.8572 126.702C47.6456 125.926 47.4809 125.315 47.3633 124.874C47.3163 124.68 47.2751 124.527 47.2457 124.397C47.2255 124.345 47.2136 124.289 47.2104 124.233C47.2396 124.282 47.2614 124.336 47.2751 124.391C47.3104 124.515 47.3633 124.668 47.4221 124.862C47.5574 125.297 47.7396 125.897 47.969 126.667L49.9329 133.335L56.295 155.367C56.589 156.402 56.883 157.425 57.1594 158.39L57.0242 158.278L77.7747 159.871L83.9604 160.377L85.6304 160.524L86.0655 160.571C86.1157 160.573 86.1654 160.583 86.2125 160.6Z" fill="#263238"/>
<path d="M93.4155 69.0547L93.3684 66.7497L79.4446 64.68C75.1639 64.4036 70.7363 68.8548 70.6246 73.1413C70.5187 77.9041 70.5775 83.7253 71.2831 87.2533C72.7061 94.3093 78.2039 95.0208 78.2039 95.0208L78.5214 102.077L94.2857 101.636L93.4155 69.0547Z" fill="#A36957"/>
<path d="M73.5881 78.1335C73.5943 78.3716 73.694 78.5977 73.8657 78.7628C74.0374 78.9279 74.2673 79.0187 74.5054 79.0155C74.6219 79.0202 74.7382 79.0016 74.8475 78.9608C74.9567 78.92 75.0567 78.8578 75.1416 78.7779C75.2265 78.6979 75.2945 78.6018 75.3418 78.4952C75.3891 78.3886 75.4146 78.2736 75.4168 78.157C75.4092 77.9189 75.3092 77.693 75.138 77.5273C74.9668 77.3616 74.7378 77.269 74.4995 77.2691C74.3825 77.2644 74.2658 77.2832 74.1561 77.3244C74.0465 77.3655 73.9463 77.4283 73.8613 77.5089C73.7763 77.5894 73.7084 77.6862 73.6615 77.7935C73.6145 77.9008 73.5896 78.0164 73.5881 78.1335Z" fill="#263238"/>
<path d="M72.265 76.1167C72.3826 76.2284 73.0588 75.6875 74.029 75.6522C74.9992 75.6169 75.7519 76.0755 75.8518 75.9521C75.9518 75.8286 75.7813 75.6875 75.4579 75.4699C75.0193 75.1928 74.5061 75.0573 73.9879 75.0818C73.4767 75.1023 72.985 75.2834 72.5826 75.5993C72.3238 75.8521 72.2121 76.0638 72.265 76.1167Z" fill="#263238"/>
<path d="M82.7786 77.9336C82.7876 78.1712 82.8881 78.3962 83.059 78.5616C83.2299 78.727 83.458 78.8201 83.6958 78.8215C83.8126 78.8254 83.9291 78.806 84.0383 78.7646C84.1476 78.7231 84.2475 78.6603 84.3323 78.5799C84.4171 78.4995 84.4851 78.403 84.5323 78.2961C84.5795 78.1892 84.605 78.074 84.6072 77.9571C84.6011 77.7185 84.5015 77.4918 84.33 77.3257C84.1585 77.1597 83.9287 77.0676 83.69 77.0692C83.5732 77.0653 83.4567 77.0846 83.3475 77.1261C83.2382 77.1676 83.1383 77.2303 83.0535 77.3108C82.9687 77.3912 82.9007 77.4877 82.8535 77.5946C82.8063 77.7015 82.7808 77.8167 82.7786 77.9336Z" fill="#263238"/>
<path d="M81.9434 75.9049C82.061 76.0225 82.7314 75.4816 83.7074 75.4463C84.6835 75.411 85.4303 75.8697 85.5361 75.7462C85.642 75.6227 85.4597 75.4757 85.1363 75.264C84.7011 74.9841 84.1888 74.8484 83.6722 74.8759C83.1599 74.8907 82.6664 75.0724 82.2668 75.3934C81.9787 75.6345 81.8846 75.852 81.9434 75.9049Z" fill="#263238"/>
<path d="M78.6684 83.3432C78.1422 83.2048 77.6013 83.1298 77.0573 83.1197C76.8044 83.1197 76.5692 83.0668 76.5163 82.8963C76.4863 82.6369 76.5355 82.3745 76.6574 82.1436C76.8691 81.5556 77.0867 80.8794 77.3219 80.2032C78.2392 77.4396 78.8977 75.17 78.786 75.1347C78.6743 75.0994 77.8393 77.3103 76.9162 80.0739C76.6927 80.756 76.481 81.4028 76.2811 82.026C76.1377 82.335 76.1065 82.6844 76.1929 83.0139C76.2323 83.1019 76.2916 83.1795 76.366 83.2408C76.4405 83.302 76.5282 83.3451 76.6222 83.3667C76.7628 83.3994 76.9071 83.4133 77.0514 83.4079C77.5909 83.4565 78.1345 83.4347 78.6684 83.3432Z" fill="#263238"/>
<path d="M78.2039 95.0327C81.6391 94.9508 84.9872 93.9344 87.8882 92.0927C87.8882 92.0927 85.6832 97.1789 78.2803 96.7967L78.2039 95.0327Z" fill="#7C3B29"/>
<path d="M79.1799 85.6952C79.357 85.4509 79.5938 85.2562 79.8676 85.1296C80.1415 85.0029 80.4432 84.9487 80.744 84.9719C80.9642 84.9869 81.179 85.0468 81.3752 85.1479C81.5714 85.249 81.7448 85.3893 81.8847 85.5599C82.0237 85.7195 82.1101 85.918 82.1322 86.1284C82.1543 86.3389 82.111 86.551 82.0082 86.7359C81.8584 86.9201 81.6563 87.0547 81.4285 87.1218C81.2008 87.189 80.958 87.1857 80.7322 87.1122C80.2614 86.9654 79.8239 86.7276 79.4445 86.4125C79.3313 86.3356 79.232 86.2402 79.1505 86.1303C79.1146 86.0763 79.0955 86.0129 79.0955 85.948C79.0955 85.8831 79.1146 85.8197 79.1505 85.7657" fill="#7C3B29"/>
<path d="M81.5907 83.9076C81.4319 83.9076 81.4731 84.9719 80.5852 85.7657C79.6973 86.5595 78.5625 86.4889 78.5625 86.6418C78.5625 86.7947 78.8212 86.8358 79.3034 86.83C79.9289 86.8114 80.5281 86.5743 80.9968 86.1596C81.4462 85.7625 81.7226 85.2054 81.7671 84.6073C81.7906 84.1604 81.6613 83.8958 81.5907 83.9076Z" fill="#263238"/>
<path d="M81.532 72.0653C81.6378 72.324 82.6139 72.1594 83.7723 72.2535C84.9306 72.3475 85.8773 72.6239 86.0243 72.3769C86.089 72.2593 85.9126 72.0124 85.5304 71.7889C85.0161 71.4904 84.4404 71.3135 83.8472 71.2717C83.2541 71.2299 82.6593 71.3244 82.1082 71.5479C81.6907 71.736 81.4849 71.9359 81.532 72.0653Z" fill="#263238"/>
<path d="M72.512 73.2531C72.6943 73.4706 73.3646 73.2119 74.176 73.1649C74.9875 73.1178 75.6872 73.259 75.8401 73.0179C75.9047 72.9003 75.7872 72.6827 75.4755 72.4828C75.0627 72.2381 74.5835 72.1291 74.1055 72.1712C73.6277 72.2005 73.1703 72.3748 72.7942 72.671C72.5179 72.912 72.4297 73.1472 72.512 73.2531Z" fill="#263238"/>
<path d="M68.7959 64.5154C69.9719 67.0085 72.5121 70.7188 75.2639 70.9834C76.6354 71.1011 78.0141 70.8657 79.2688 70.2996C80.5235 69.7335 81.6124 68.8555 82.4316 67.7494C82.8903 69.7721 85.1717 70.8011 87.2238 71.0892C88.6735 71.353 90.1676 71.2168 91.5456 70.6953C92.2306 70.4279 92.836 69.9899 93.3042 69.4229C93.7724 68.8559 94.088 68.1786 94.221 67.4554C94.4092 66.003 92.263 62.4927 90.8165 62.2516" fill="#263238"/>
<path d="M91.04 100.936C91.1311 102.089 91.575 103.186 92.3114 104.079C93.0478 104.971 94.041 105.614 95.156 105.922C95.1225 106.866 95.4253 107.79 96.0105 108.531C96.5957 109.272 97.4251 109.781 98.3507 109.967C99.2763 110.152 100.238 110.003 101.064 109.546C101.889 109.088 102.526 108.352 102.859 107.469C102.982 106.992 103.181 106.537 103.447 106.122C104.141 105.234 105.505 105.411 106.575 105.064C108.504 104.441 109.339 102.077 109.121 100.06C109.056 99.6716 109.038 99.2767 109.068 98.884C109.186 98.0784 109.821 97.4611 110.291 96.7907C112.232 94.0389 111.42 90.0464 109.268 87.4533C108.551 86.5889 107.645 85.6893 107.716 84.5662C107.818 83.9509 108.016 83.3556 108.304 82.8022C108.658 81.8453 108.716 80.8041 108.472 79.8135C108.228 78.8229 107.692 77.9284 106.934 77.2456C106.672 77.0737 106.468 76.8282 106.346 76.54C106.307 76.3459 106.307 76.1461 106.346 75.952C106.464 74.4528 106.011 72.9643 105.077 71.7853C104.144 70.6063 102.799 69.8241 101.312 69.5957C101.132 69.5895 100.955 69.5496 100.789 69.4781C100.33 69.2371 100.313 68.6079 100.254 68.0963C100.095 66.738 99.078 64.2096 98.0137 63.3218C95.1325 60.8639 92.3454 62.8631 91.3516 63.798C91.3516 63.798 89.3818 73.5588 89.764 75.3816C90.1462 77.2044 91.481 81.732 90.94 83.7901C90.3991 85.8481 89.5465 90.064 90.352 91.9221C91.1576 93.7802 91.04 100.936 91.04 100.936Z" fill="#263238"/>
<path d="M101.8 69.531C101.8 69.531 101.677 69.6604 101.424 69.8427C101.059 70.0952 100.678 70.3231 100.283 70.5248C97.6525 71.8882 94.6565 72.3804 91.7279 71.9301C91.286 71.8677 90.8496 71.7714 90.4225 71.642C90.2627 71.6086 90.1084 71.5532 89.9639 71.4773C89.9639 71.4244 90.6518 71.5949 91.7279 71.7184C93.1631 71.8727 94.6126 71.8352 96.0379 71.6067C97.4617 71.3713 98.8466 70.942 100.154 70.3307C101.189 69.8662 101.771 69.4899 101.8 69.531Z" fill="#455A64"/>
<path d="M102.741 70.2249C102.693 70.4283 102.622 70.6255 102.53 70.8129C102.442 71.0379 102.338 71.2561 102.218 71.4655C102.076 71.7511 101.917 72.0279 101.742 72.2946C101.294 72.9999 100.778 73.6597 100.201 74.2644C99.4887 75.0003 98.7003 75.6586 97.8491 76.2283C96.9902 76.7843 96.0759 77.2493 95.1208 77.616C94.3381 77.9069 93.5286 78.1196 92.7041 78.2511C92.3892 78.3095 92.0711 78.3488 91.7515 78.3687C91.5107 78.3851 91.2691 78.3851 91.0283 78.3687C90.8219 78.387 90.6139 78.3751 90.4109 78.3334C90.4109 78.2746 91.2929 78.2863 92.6629 78.0159C93.4654 77.8554 94.2524 77.6252 95.0149 77.3279C96.8854 76.593 98.5818 75.4754 99.9953 74.0469C100.569 73.4626 101.091 72.829 101.554 72.1535C102.353 71.0128 102.682 70.2013 102.741 70.2249Z" fill="#455A64"/>
<path d="M97.6373 106.487C97.6373 106.487 97.7608 106.487 97.9784 106.452C98.2962 106.378 98.5824 106.205 98.7957 105.958C99.1425 105.574 99.3334 105.075 99.3308 104.558C99.3121 103.869 99.1872 103.187 98.9603 102.535C98.6452 101.714 98.5838 100.817 98.7839 99.96C99.0897 99.031 99.8306 98.3195 100.495 97.5551C100.844 97.1836 101.132 96.7589 101.348 96.2968C101.445 96.0615 101.491 95.8082 101.482 95.5538C101.474 95.2994 101.412 95.0496 101.301 94.8209C101.033 94.3453 100.653 93.9417 100.195 93.6449C99.7365 93.3097 99.2308 93.0157 98.7428 92.6571C98.2234 92.317 97.8147 91.8327 97.5668 91.2635C97.4723 90.9731 97.4397 90.666 97.4711 90.3622C97.5025 90.0584 97.5972 89.7645 97.749 89.4995C98.3018 88.4823 99.1661 87.7355 99.366 86.7771C99.44 86.3146 99.4136 85.8416 99.2888 85.3902C99.1641 84.9387 98.9437 84.5194 98.6428 84.1605C98.1392 83.4881 97.5634 82.8729 96.9258 82.3259C96.402 81.8547 95.9218 81.3371 95.4911 80.7795C95.163 80.3533 94.9104 79.874 94.7444 79.3624C94.6486 79.0363 94.6088 78.6963 94.6268 78.3569C94.6345 78.241 94.6562 78.1265 94.6914 78.0159C94.6731 78.4591 94.7287 78.9022 94.8561 79.3271C95.3458 80.4443 96.108 81.4208 97.0728 82.1672C97.7282 82.7123 98.32 83.3297 98.8368 84.0076C99.1303 84.3972 99.3623 84.8295 99.5248 85.2894C99.7079 85.7841 99.7446 86.3209 99.6306 86.8359C99.4013 87.9295 98.5017 88.6939 98.0078 89.6406C97.8729 89.8679 97.7885 90.1215 97.76 90.3842C97.7316 90.6469 97.76 90.9127 97.8431 91.1635C98.0694 91.6735 98.4392 92.1066 98.9074 92.4101C99.3719 92.757 99.8835 93.051 100.354 93.3979C100.844 93.7259 101.248 94.1677 101.53 94.6857C101.659 94.951 101.73 95.241 101.739 95.5361C101.747 95.8312 101.692 96.1247 101.577 96.3967C101.35 96.8915 101.042 97.3447 100.666 97.7374C99.9834 98.5077 99.2661 99.1956 98.9838 100.031C98.787 100.835 98.8299 101.679 99.1073 102.459C99.3262 103.135 99.4373 103.842 99.4366 104.552C99.4231 105.103 99.2026 105.627 98.8192 106.022C98.5835 106.276 98.2682 106.442 97.9254 106.493C97.8298 106.508 97.7323 106.506 97.6373 106.487Z" fill="#455A64"/>
<path d="M269.533 284.463C269.533 284.545 214.667 284.616 147.006 284.616C79.3446 284.616 24.4666 284.545 24.4666 284.463C24.4666 284.38 79.3211 284.31 147.006 284.31C214.69 284.31 269.533 284.374 269.533 284.463Z" fill="#263238"/>
</svg>
