<svg width="148" height="148" viewBox="0 0 148 148" fill="none" xmlns="http://www.w3.org/2000/svg">
<path d="M59.1112 21.6257C37.8377 27.7707 14.208 50.8912 22.2947 74.8258C30.4347 98.8817 68.2399 109.162 75.5925 78.7952C76.9511 73.186 74.4559 65.9192 78.2032 61.1388C81.9506 56.3584 90.8543 56.832 96.496 55.9824C108.04 54.2331 115.804 47.6293 109.816 35.3216C101.706 18.6065 74.3671 17.2212 59.1112 21.6257Z" fill="#0059EF"/>
<path opacity="0.8" d="M59.1112 21.6257C37.8377 27.7707 14.208 50.8912 22.2947 74.8258C30.4347 98.8817 68.2399 109.162 75.5925 78.7952C76.9511 73.186 74.4559 65.9192 78.2032 61.1388C81.9506 56.3584 90.8543 56.832 96.496 55.9824C108.04 54.2331 115.804 47.6293 109.816 35.3216C101.706 18.6065 74.3671 17.2212 59.1112 21.6257Z" fill="white"/>
<path d="M74.0001 126.558C105.697 126.558 131.392 125.058 131.392 123.207C131.392 121.356 105.697 119.856 74.0001 119.856C42.3037 119.856 16.6086 121.356 16.6086 123.207C16.6086 125.058 42.3037 126.558 74.0001 126.558Z" fill="#F5F5F5"/>
<path d="M79.0645 120.472C78.9718 120.472 78.8819 120.44 78.8102 120.381C78.7385 120.322 78.6892 120.24 78.6708 120.149L73.0468 92.4556H63.2522L57.6282 120.149C57.6014 120.248 57.5381 120.333 57.451 120.386C57.364 120.44 57.2598 120.459 57.1596 120.438C57.0594 120.418 56.9707 120.36 56.9115 120.277C56.8523 120.194 56.827 120.091 56.8408 119.99L62.53 91.9732C62.5489 91.8825 62.5983 91.8011 62.6699 91.7424C62.7415 91.6837 62.831 91.6513 62.9236 91.6505H73.3724C73.4652 91.6507 73.555 91.6829 73.6267 91.7417C73.6985 91.8005 73.7477 91.8823 73.7661 91.9732L79.4582 119.99C79.4791 120.094 79.4579 120.202 79.3991 120.291C79.3403 120.38 79.2487 120.442 79.1444 120.463L79.0645 120.472Z" fill="#0059EF"/>
<path d="M63.344 120.472C63.2514 120.471 63.1618 120.439 63.0902 120.38C63.0186 120.321 62.9692 120.24 62.9503 120.149L57.3263 92.4556H47.5316L41.9076 120.149C41.9002 120.204 41.8817 120.256 41.8532 120.304C41.8246 120.351 41.7868 120.391 41.7419 120.423C41.697 120.455 41.646 120.478 41.5921 120.489C41.5383 120.5 41.4826 120.501 41.4287 120.49C41.3747 120.479 41.3236 120.457 41.2784 120.425C41.2332 120.394 41.195 120.353 41.1661 120.306C41.1372 120.26 41.1182 120.207 41.1103 120.153C41.1025 120.098 41.1058 120.043 41.1203 119.99L46.8124 91.9732C46.8308 91.8823 46.88 91.8005 46.9517 91.7417C47.0235 91.6829 47.1133 91.6507 47.206 91.6505H57.6548C57.7472 91.6508 57.8366 91.6832 57.9079 91.742C57.9791 91.8008 58.0278 91.8825 58.0456 91.9732L63.7376 119.99C63.7586 120.094 63.7374 120.202 63.6786 120.291C63.6198 120.38 63.5282 120.442 63.4239 120.463L63.344 120.472Z" fill="#0059EF"/>
<path d="M65.5432 92.056H47.5465C45.8946 92.0563 44.3084 91.4089 43.1285 90.2528C41.9486 89.0967 41.269 87.5241 41.2357 85.8725L40.5668 58.5222C40.5542 57.9108 40.6637 57.3031 40.8889 56.7346C41.114 56.1661 41.4504 55.6482 41.8782 55.2113C42.306 54.7744 42.8167 54.4273 43.3803 54.1902C43.9439 53.9531 44.5492 53.8308 45.1607 53.8306H56.4442C57.5734 53.8313 58.663 54.2474 59.5052 54.9996C60.3475 55.7518 60.8836 56.7875 61.0115 57.9094L65.5432 92.056Z" fill="#0059EF"/>
<path d="M55.7279 88.5928H73.3399C73.9938 88.5928 74.621 88.8526 75.0834 89.315C75.5458 89.7774 75.8056 90.4045 75.8056 91.0585V91.1443C75.8056 91.3798 75.712 91.6057 75.5455 91.7722C75.379 91.9387 75.1531 92.0323 74.9176 92.0323H55.7279V88.5928Z" fill="#0059EF"/>
<g opacity="0.3">
<path opacity="0.3" d="M79.0645 120.472C78.9718 120.472 78.8819 120.44 78.8102 120.381C78.7385 120.322 78.6892 120.24 78.6708 120.149L73.0468 92.4556H63.2522L57.6282 120.149C57.6014 120.248 57.5381 120.333 57.451 120.387C57.364 120.44 57.2598 120.459 57.1596 120.438C57.0594 120.418 56.9707 120.36 56.9115 120.277C56.8523 120.194 56.827 120.091 56.8408 119.99L62.53 91.9732C62.5489 91.8825 62.5983 91.8011 62.6699 91.7424C62.7415 91.6837 62.831 91.6513 62.9236 91.6505H73.3724C73.4652 91.6507 73.555 91.6829 73.6267 91.7417C73.6985 91.8005 73.7477 91.8823 73.7661 91.9732L79.4582 119.99C79.4791 120.094 79.4579 120.202 79.3991 120.291C79.3403 120.38 79.2487 120.442 79.1444 120.463L79.0645 120.472Z" fill="black"/>
<path opacity="0.3" d="M63.344 120.472C63.2514 120.471 63.1618 120.439 63.0902 120.38C63.0186 120.321 62.9692 120.24 62.9503 120.149L57.3263 92.4556H47.5316L41.9076 120.149C41.9002 120.204 41.8817 120.256 41.8532 120.304C41.8246 120.351 41.7868 120.391 41.7419 120.423C41.697 120.455 41.646 120.478 41.5921 120.489C41.5383 120.5 41.4826 120.501 41.4287 120.49C41.3747 120.479 41.3236 120.457 41.2784 120.425C41.2332 120.394 41.195 120.353 41.1661 120.306C41.1372 120.26 41.1182 120.207 41.1103 120.153C41.1025 120.098 41.1058 120.043 41.1203 119.99L46.8124 91.9732C46.8308 91.8823 46.88 91.8005 46.9517 91.7417C47.0235 91.6829 47.1133 91.6507 47.206 91.6505H57.6548C57.7472 91.6508 57.8366 91.6832 57.9079 91.742C57.9791 91.8008 58.0278 91.8825 58.0456 91.9732L63.7376 119.99C63.7586 120.094 63.7374 120.202 63.6786 120.291C63.6198 120.38 63.5282 120.442 63.4239 120.463L63.344 120.472Z" fill="black"/>
<path opacity="0.3" d="M65.5432 92.056H47.5465C45.8946 92.0563 44.3084 91.4089 43.1285 90.2528C41.9486 89.0967 41.269 87.5241 41.2357 85.8725L40.5668 58.5222C40.5542 57.9108 40.6637 57.3031 40.8889 56.7346C41.114 56.1661 41.4504 55.6482 41.8782 55.2113C42.306 54.7744 42.8167 54.4273 43.3803 54.1902C43.9439 53.9531 44.5492 53.8308 45.1607 53.8306H56.4442C57.5734 53.8313 58.663 54.2474 59.5052 54.9996C60.3475 55.7518 60.8836 56.7875 61.0115 57.9094L65.5432 92.056Z" fill="black"/>
<path opacity="0.3" d="M55.7279 88.5928H73.3399C73.9938 88.5928 74.621 88.8526 75.0834 89.315C75.5458 89.7774 75.8056 90.4045 75.8056 91.0585V91.1443C75.8056 91.3798 75.712 91.6057 75.5455 91.7722C75.379 91.9387 75.1531 92.0323 74.9176 92.0323H55.7279V88.5928Z" fill="black"/>
</g>
<path d="M60.5349 52.3209C60.5349 52.3209 63.0509 55.6065 61.4229 62.1481C59.7949 68.6897 51.3944 65.1377 50.8853 59.2414C50.2933 52.2913 58.0958 57.0836 59.4693 50.9031L60.5349 52.3209Z" fill="#263238"/>
<path d="M58.7086 50.3704C57.6164 51.14 57.1842 52.2588 58.3919 53.354C59.5996 54.4493 61.3223 54.4137 61.8432 53.9638C62.3642 53.5139 62.2606 51.2288 62.2606 51.2288L58.7086 50.3704Z" fill="#0059EF"/>
<path opacity="0.8" d="M58.7086 50.3704C57.6164 51.14 57.1842 52.2588 58.3919 53.354C59.5996 54.4493 61.3223 54.4137 61.8432 53.9638C62.3642 53.5139 62.2606 51.2288 62.2606 51.2288L58.7086 50.3704Z" fill="white"/>
<path d="M72.5022 64.9305C72.5318 65.0637 72.5821 65.2709 72.6294 65.4456L72.7715 66.0021C72.8722 66.375 72.9817 66.748 73.0971 67.1209C73.3162 67.8728 73.5589 68.6217 73.8134 69.3705C74.068 70.1194 74.3285 70.8505 74.6126 71.6083C74.7518 71.9783 74.8909 72.3513 75.0389 72.7213L75.2106 73.1653C75.2449 73.2412 75.2897 73.312 75.3438 73.3754C75.7651 73.8016 76.2785 74.1256 76.8445 74.3226C77.5358 74.6008 78.2485 74.8226 78.9757 74.9857C79.7275 75.1603 80.5001 75.3054 81.2815 75.4267C82.063 75.5481 82.8651 75.6458 83.6347 75.7227L83.6614 77.3152C81.9727 77.4898 80.2706 77.4898 78.582 77.3152C77.6994 77.2242 76.8267 77.0548 75.9742 76.809C75.5125 76.6696 75.063 76.4924 74.6304 76.2792C74.1323 76.0371 73.6765 75.7163 73.2806 75.329C73.0509 75.1003 72.8519 74.8425 72.6886 74.5624C72.6442 74.4913 72.6058 74.4114 72.5643 74.3374L72.4874 74.1776L72.3512 73.8816C72.1677 73.5057 71.9842 73.1297 71.8154 72.7479C71.4721 71.9842 71.1376 71.2146 70.8386 70.4302C70.5397 69.6458 70.2466 68.8555 69.998 68.0622C69.8766 67.6537 69.7582 67.2482 69.6487 66.8309L69.4859 66.2063C69.4386 65.9813 69.3942 65.7949 69.3468 65.5285L72.5022 64.9305Z" fill="#E58A7B"/>
<path d="M71.4958 61.568C72.7657 61.8906 73.6507 67.112 73.6507 67.112L70.1549 69.48C70.1549 69.48 66.8013 64.2112 67.7869 62.8171C68.7963 61.3844 69.6429 61.1062 71.4958 61.568Z" fill="#0059EF"/>
<path opacity="0.5" d="M71.4958 61.568C72.7657 61.8906 73.6507 67.112 73.6507 67.112L70.1549 69.48C70.1549 69.48 66.8013 64.2112 67.7869 62.8171C68.7963 61.3844 69.6429 61.1062 71.4958 61.568Z" fill="white"/>
<path opacity="0.2" d="M71.04 62.8822L68.0001 65.2916C68.5921 66.7553 69.3122 68.1638 70.152 69.5008L72.5763 67.852L71.04 62.8822Z" fill="#0059EF"/>
<path d="M71.4958 61.568C71.4958 61.568 72.9758 62.083 70.0158 80.1479H57.5186C57.7288 75.0596 57.7347 71.922 55.3046 61.4762C57.0545 61.1158 58.8282 60.8823 60.6118 60.7776C62.5029 60.6428 64.4011 60.6428 66.2921 60.7776C68.7311 61.0115 71.4958 61.568 71.4958 61.568Z" fill="#0059EF"/>
<path opacity="0.5" d="M71.4958 61.568C71.4958 61.568 72.9758 62.083 70.0158 80.1479H57.5186C57.7288 75.0596 57.7347 71.922 55.3046 61.4762C57.0545 61.1158 58.8282 60.8823 60.6118 60.7776C62.5029 60.6428 64.4011 60.6428 66.2921 60.7776C68.7311 61.0115 71.4958 61.568 71.4958 61.568Z" fill="white"/>
<path d="M83.1759 75.708L85.3575 73.4939L85.6535 76.6137C85.6535 76.6137 84.0166 77.7208 82.8859 77.1258L83.1759 75.708Z" fill="#E58A7B"/>
<path d="M87.9327 73.1653L88.0304 75.7878L85.6505 76.6137L85.3634 73.4938L87.9327 73.1653Z" fill="#E58A7B"/>
<path d="M84.2001 117.601H87.2785L87.7521 110.47H84.6737L84.2001 117.601Z" fill="#E58A7B"/>
<path d="M72.2861 117.601H75.3645L76.3532 110.47H73.2748L72.2861 117.601Z" fill="#E58A7B"/>
<path d="M75.557 117.243H72.0967C72.0371 117.241 71.9791 117.262 71.9338 117.301C71.8885 117.34 71.8591 117.394 71.8511 117.453L71.4574 120.191C71.4504 120.26 71.4579 120.33 71.4795 120.396C71.5012 120.462 71.5364 120.523 71.583 120.574C71.6296 120.626 71.6864 120.667 71.75 120.696C71.8135 120.724 71.8822 120.738 71.9517 120.738C73.1564 120.718 73.7277 120.647 75.258 120.647C76.1934 120.647 78.594 120.744 79.8875 120.744C81.181 120.744 81.2491 119.466 80.7104 119.35C78.298 118.829 76.8831 118.116 76.0691 117.432C75.9263 117.31 75.7448 117.243 75.557 117.243Z" fill="#263238"/>
<path d="M87.5182 117.243H84.0639C84.0045 117.242 83.9468 117.263 83.9016 117.302C83.8565 117.34 83.8268 117.394 83.8182 117.453L83.4245 120.191C83.4175 120.26 83.4251 120.33 83.4467 120.396C83.4683 120.462 83.5036 120.523 83.5501 120.574C83.5967 120.626 83.6536 120.667 83.7171 120.695C83.7806 120.724 83.8494 120.738 83.9189 120.738C85.1236 120.718 85.6949 120.647 87.2252 120.647C88.1635 120.647 90.0964 120.744 91.3899 120.744C92.6834 120.744 92.7515 119.466 92.2128 119.35C89.8004 118.829 88.8502 118.116 88.0392 117.432C87.8936 117.309 87.7089 117.242 87.5182 117.243Z" fill="#263238"/>
<path d="M69.0419 48.1652C70.149 48.2362 70.7113 53.7892 67.4642 53.4665C64.2171 53.1439 69.0419 48.1652 69.0419 48.1652Z" fill="#263238"/>
<path d="M87.7521 110.47L87.5064 114.147H84.428L84.6707 110.47H87.7521Z" fill="#CF6F64"/>
<path d="M73.2748 110.47H76.3561L75.844 114.147H72.7627L73.2748 110.47Z" fill="#CF6F64"/>
<path opacity="0.2" d="M56.5537 67.2838C56.8497 68.7993 57.0599 70.1076 57.2197 71.2857L57.9508 65.6292L56.5537 67.2838Z" fill="#0059EF"/>
<path d="M61.1743 54.396C61.5325 56.2223 61.8907 59.5701 60.6119 60.7896C60.6119 60.7896 61.1122 62.6426 64.5073 62.6426C68.2399 62.6426 66.2833 60.7896 66.2833 60.7896C64.2439 60.3042 64.2971 58.7916 64.6523 57.3738L61.1743 54.396Z" fill="#E58A7B"/>
<path d="M63.8324 63.0391L64.969 62.6306L64.8181 62.3198L63.8324 63.0391Z" fill="#263238"/>
<path d="M66.0376 62.8023L64.969 62.6306L65.1999 62.2843L66.0376 62.8023Z" fill="#263238"/>
<path d="M61.0263 59.9282L60.2537 60.68C60.2306 60.7038 60.2177 60.7356 60.2177 60.7688C60.2177 60.802 60.2306 60.8338 60.2537 60.8576L63.5097 64.5665C63.6646 63.6856 64.1363 62.8918 64.8358 62.3346C62.1422 61.3164 61.4407 60.2626 61.2009 59.9666C61.1954 59.9494 61.1854 59.934 61.172 59.9218C61.1587 59.9097 61.1423 59.9012 61.1247 59.8973C61.107 59.8934 61.0886 59.8942 61.0714 59.8996C61.0541 59.9051 61.0386 59.9149 61.0263 59.9282Z" fill="#0059EF"/>
<path d="M65.6795 60.4965L66.6385 60.757C66.6672 60.7649 66.6933 60.7804 66.7141 60.8017C66.7349 60.823 66.7496 60.8494 66.7569 60.8783C67.0278 62.0948 66.9768 63.3609 66.6089 64.5517C66.4728 64.0485 66.0169 62.8438 65.2 62.2843C66.088 61.6716 65.7298 60.8813 65.6025 60.5823C65.5984 60.5712 65.5974 60.5592 65.5996 60.5475C65.6018 60.5358 65.6071 60.525 65.6151 60.5162C65.623 60.5073 65.6332 60.5008 65.6445 60.4973C65.6559 60.4939 65.668 60.4936 65.6795 60.4965Z" fill="#0059EF"/>
<path d="M62.598 55.6095L64.67 57.3707C64.5839 57.7007 64.5255 58.0374 64.4954 58.3771C63.7169 58.2646 62.6483 57.4121 62.5654 56.6011C62.5147 56.2714 62.5258 55.9352 62.598 55.6095Z" fill="#CF6F64"/>
<path d="M60.9759 49.583C60.6237 52.617 60.4076 53.8957 61.6508 55.7072C63.5156 58.4334 67.3222 58.2025 68.5742 55.3342C69.702 52.7531 70.0868 48.2302 67.3636 46.5016C66.7646 46.1192 66.0777 45.8964 65.3683 45.8543C64.6589 45.8121 63.9505 45.9521 63.3104 46.2609C62.6703 46.5696 62.1198 47.0369 61.7112 47.6184C61.3026 48.1998 61.0495 48.8761 60.9759 49.583Z" fill="#E58A7B"/>
<path d="M67.9142 44.5717C62.897 42.5914 59.1289 44.8262 58.3504 48.0023C57.1279 52.9337 61.0322 53.28 61.0322 53.28L61.5206 52.019C62.2221 52.4423 64.1846 52.2558 63.5926 48.5943C63.2433 46.5223 65.8659 49.4083 69.1929 49.0857C70.0779 48.9998 71.2886 45.9037 67.9142 44.5717Z" fill="#263238"/>
<path d="M69.6221 45.7912C68.962 44.7759 67.6123 43.9057 64.8151 43.4943C64.8151 43.4943 66.2684 43.8228 66.7391 44.8855C67.2097 45.9481 70.4183 47.0137 69.6221 45.7912Z" fill="#263238"/>
<path d="M60.0109 52.2085C59.9905 52.5003 60.0278 52.7932 60.1207 53.0705C60.2137 53.3479 60.3605 53.6041 60.5526 53.8246C61.0706 54.4166 61.7514 54.0526 61.9645 53.3422C62.154 52.6998 62.1155 51.6224 61.4229 51.2968C60.7302 50.9712 60.0672 51.4862 60.0109 52.2085Z" fill="#E58A7B"/>
<path d="M70.0247 80.1598C70.0247 80.1598 90.6678 82.0808 90.4665 91.467C90.2563 101.235 88.1666 113.436 88.1666 113.436H83.9012C83.9012 113.436 83.5371 103.112 83.4128 93.4946C83.3507 88.4863 63.4032 87.4828 63.4032 87.4828L60.828 80.1598H70.0247Z" fill="#263238"/>
<path d="M66.7213 80.1598C66.7213 80.1598 80.062 84.585 80.3995 90.061C81.0181 100.143 76.587 113.445 76.587 113.445H72.3867C72.3867 113.445 72.6265 104.624 73.1267 95.4896C73.7602 84.0108 53.5079 95.3298 57.5187 80.1687L66.7213 80.1598Z" fill="#263238"/>
<path d="M65.3657 51.2376C65.3213 51.4803 65.416 51.7023 65.5758 51.7319C65.7357 51.7615 65.8985 51.5839 65.9429 51.3412C65.9873 51.0984 65.8926 50.8735 65.7327 50.8468C65.5729 50.8202 65.416 50.9919 65.3657 51.2376Z" fill="#263238"/>
<path d="M68.1273 51.7319C68.0829 51.9747 68.1776 52.1967 68.3374 52.2263C68.4973 52.2559 68.663 52.0783 68.7074 51.8355C68.7518 51.5928 68.6571 51.3679 68.4973 51.3412C68.3374 51.3146 68.1717 51.4863 68.1273 51.7319Z" fill="#263238"/>
<path d="M68.4233 51.3412L69.042 51.2761C69.042 51.2761 68.672 51.6817 68.4233 51.3412Z" fill="#263238"/>
<path d="M67.3222 52.019C67.4407 52.6155 67.6399 53.1931 67.9142 53.7358C67.7748 53.7993 67.6234 53.8322 67.4702 53.8322C67.3171 53.8322 67.1657 53.7993 67.0262 53.7358L67.3222 52.019Z" fill="#DF5753"/>
<path d="M66.008 54.5262C65.6832 54.4747 65.3751 54.3474 65.1087 54.1545C64.8423 53.9616 64.6251 53.7087 64.4747 53.4162C64.4697 53.4048 64.4694 53.3919 64.4738 53.3803C64.4782 53.3687 64.4871 53.3592 64.4984 53.3541C64.5102 53.35 64.5231 53.3505 64.5346 53.3554C64.5461 53.3603 64.5554 53.3693 64.5606 53.3807C64.7029 53.6571 64.9079 53.8964 65.1592 54.0794C65.4106 54.2623 65.7012 54.3839 66.008 54.4345C66.0203 54.4373 66.0311 54.4447 66.0382 54.4551C66.0453 54.4655 66.0483 54.4782 66.0465 54.4907C66.0443 54.4998 66.0394 54.508 66.0326 54.5143C66.0257 54.5206 66.0172 54.5247 66.008 54.5262Z" fill="#263238"/>
<path d="M64.7175 50.1454C64.7046 50.1459 64.6919 50.1434 64.6801 50.1383C64.6683 50.1332 64.6578 50.1255 64.6494 50.1158C64.6404 50.1075 64.6333 50.0974 64.6284 50.0862C64.6235 50.075 64.621 50.0629 64.621 50.0507C64.621 50.0384 64.6235 50.0263 64.6284 50.0151C64.6333 50.0039 64.6404 49.9938 64.6494 49.9855C64.8088 49.8297 65.0034 49.7145 65.2166 49.6496C65.4299 49.5847 65.6556 49.572 65.8748 49.6126C65.898 49.6195 65.9176 49.635 65.9297 49.6559C65.9418 49.6768 65.9455 49.7015 65.94 49.7251C65.9372 49.737 65.932 49.7483 65.9249 49.7582C65.9177 49.7681 65.9086 49.7765 65.8981 49.7828C65.8876 49.7892 65.8759 49.7934 65.8638 49.7951C65.8517 49.7969 65.8393 49.7962 65.8275 49.7931C65.6384 49.7597 65.444 49.7721 65.2606 49.8293C65.0773 49.8864 64.9103 49.9867 64.7737 50.1217C64.7579 50.1352 64.7382 50.1435 64.7175 50.1454Z" fill="#263238"/>
<path d="M69.6369 50.6309C69.6185 50.6315 69.6004 50.6265 69.585 50.6164C69.5697 50.6063 69.5578 50.5918 69.5511 50.5746C69.4787 50.397 69.3654 50.2389 69.2203 50.1134C69.0753 49.9879 68.9026 49.8984 68.7163 49.8524C68.6922 49.848 68.6707 49.8345 68.6564 49.8146C68.642 49.7948 68.6359 49.7701 68.6394 49.7458C68.6437 49.7211 68.6577 49.6991 68.6782 49.6847C68.6987 49.6703 68.7242 49.6646 68.7489 49.6689C68.9657 49.7191 69.1672 49.821 69.3363 49.9658C69.5053 50.1106 69.6369 50.2941 69.7198 50.5006C69.7298 50.5234 69.7305 50.5493 69.7216 50.5725C69.7127 50.5958 69.6951 50.6146 69.6724 50.625L69.6369 50.6309Z" fill="#263238"/>
<path d="M57.1723 65.9429C56.903 66.8309 56.6129 67.7189 56.3554 68.6306C56.0978 69.5423 55.8255 70.4303 55.5917 71.3331C55.3578 72.2359 55.1358 73.1298 54.9701 73.9971C54.8902 74.4352 54.8162 74.8703 54.7747 75.2788C54.751 75.483 54.7392 75.6754 54.7362 75.853C54.7362 75.8945 54.7362 75.853 54.7066 75.7849C54.6705 75.7047 54.6204 75.6315 54.5586 75.5689C54.4077 75.4386 54.3514 75.4623 54.4195 75.483C54.5435 75.5132 54.6709 75.5261 54.7984 75.5215C55.1969 75.5078 55.5932 75.4573 55.9824 75.3705C56.8641 75.1763 57.733 74.9282 58.5842 74.6276C60.3336 74.0356 62.1096 73.3133 63.8382 72.5763L64.6019 73.9705C62.9619 75.0456 61.2477 76.0031 59.4722 76.8357C58.5529 77.2694 57.6044 77.6383 56.6336 77.9398C56.0931 78.1044 55.538 78.2164 54.976 78.2743C54.6251 78.3103 54.2709 78.3014 53.9222 78.2477C53.6909 78.213 53.465 78.1483 53.2503 78.0553C52.9729 77.9353 52.7215 77.7624 52.5103 77.5461C52.0998 77.1135 51.8646 76.5439 51.8502 75.9477C51.8354 75.6517 51.8325 75.3557 51.8502 75.0893C51.871 74.5417 51.9213 74.0237 51.9894 73.5176C52.1314 72.5052 52.315 71.5284 52.5399 70.5576C52.7649 69.5867 53.0047 68.6484 53.2681 67.7071C53.5315 66.7658 53.8157 65.8423 54.1561 64.901L57.1723 65.9429Z" fill="#E58A7B"/>
<path d="M76.6107 117.761C76.3379 117.754 76.0668 117.716 75.8026 117.648C75.7927 117.646 75.7836 117.641 75.7765 117.634C75.7694 117.627 75.7645 117.618 75.7626 117.608C75.7607 117.598 75.7618 117.588 75.7658 117.579C75.7697 117.57 75.7764 117.562 75.7848 117.556C75.8884 117.488 76.812 116.89 77.1642 117.047C77.2011 117.064 77.2328 117.09 77.2557 117.124C77.2787 117.157 77.2921 117.196 77.2944 117.237C77.3092 117.302 77.3065 117.371 77.2868 117.435C77.2671 117.499 77.2309 117.558 77.182 117.604C77.016 117.722 76.8136 117.777 76.6107 117.761ZM75.9447 117.577C76.516 117.696 76.9452 117.681 77.1109 117.527C77.147 117.492 77.1735 117.448 77.188 117.4C77.2025 117.352 77.2045 117.301 77.1938 117.251C77.1927 117.228 77.1852 117.206 77.1721 117.186C77.1591 117.167 77.141 117.152 77.1198 117.142C76.8948 117.041 76.2703 117.376 75.9447 117.577Z" fill="#0059EF"/>
<path d="M75.8144 117.651H75.7878C75.7795 117.646 75.7726 117.639 75.768 117.631C75.7633 117.623 75.7609 117.613 75.7611 117.604C75.7611 117.568 75.7611 116.692 76.0927 116.402C76.1315 116.365 76.1784 116.337 76.2298 116.321C76.2812 116.305 76.3356 116.302 76.3887 116.31C76.442 116.31 76.4939 116.328 76.5354 116.361C76.577 116.395 76.6056 116.442 76.6166 116.494C76.6787 116.813 76.1637 117.468 75.841 117.651H75.8144ZM76.3354 116.402C76.2702 116.402 76.2077 116.428 76.1607 116.473C75.9269 116.68 75.8795 117.266 75.8647 117.5C76.1607 117.287 76.5574 116.748 76.5071 116.509C76.5071 116.47 76.4775 116.42 76.3709 116.405L76.3354 116.402Z" fill="#0059EF"/>
<path d="M88.6756 117.761C88.3504 117.753 88.0264 117.717 87.7077 117.651C87.6973 117.649 87.6878 117.643 87.6805 117.635C87.6732 117.627 87.6682 117.617 87.6663 117.607C87.6647 117.596 87.6668 117.585 87.6721 117.575C87.6774 117.566 87.6858 117.558 87.6959 117.553C87.832 117.482 89.0486 116.861 89.4186 117.062C89.4507 117.08 89.4779 117.106 89.4975 117.137C89.5172 117.168 89.5287 117.203 89.5311 117.24C89.5394 117.301 89.5324 117.364 89.5108 117.423C89.4891 117.481 89.4533 117.533 89.4067 117.574C89.1915 117.718 88.9335 117.784 88.6756 117.761ZM87.8794 117.577C88.276 117.645 89.0634 117.743 89.3357 117.5C89.3697 117.468 89.3957 117.429 89.4117 117.385C89.4276 117.342 89.433 117.295 89.4275 117.249C89.4272 117.229 89.4216 117.209 89.4112 117.192C89.4008 117.175 89.386 117.16 89.3683 117.151C89.1256 117.021 88.3086 117.367 87.8794 117.577Z" fill="#0059EF"/>
<path d="M87.7195 117.651C87.7099 117.654 87.6996 117.654 87.6899 117.651C87.6827 117.645 87.6769 117.638 87.6728 117.63C87.6687 117.622 87.6665 117.613 87.6663 117.604C87.6663 117.568 87.7403 116.748 88.1191 116.42C88.1722 116.375 88.234 116.341 88.3007 116.32C88.3674 116.3 88.4376 116.293 88.5069 116.301C88.6963 116.319 88.7496 116.414 88.7644 116.488C88.8177 116.828 88.1014 117.479 87.7403 117.642L87.7195 117.651ZM88.4507 116.402C88.3534 116.402 88.2594 116.437 88.1872 116.503C87.909 116.734 87.8113 117.287 87.7817 117.509C88.1695 117.293 88.6993 116.736 88.6697 116.509C88.6697 116.485 88.6697 116.42 88.5069 116.405L88.4507 116.402Z" fill="#0059EF"/>
<path d="M63.7672 72.6235L66.6858 71.8835L65.2946 74.6867C65.2946 74.6867 63.3203 74.7725 62.6691 73.6714L63.7672 72.6235Z" fill="#E58A7B"/>
<path d="M69.0449 72.9462L67.7543 75.2313L65.2946 74.6867L66.6858 71.8835L69.0449 72.9462Z" fill="#E58A7B"/>
<path d="M65.6587 50.8469L66.2773 50.7817C66.2773 50.7817 65.8955 51.1873 65.6587 50.8469Z" fill="#263238"/>
<path d="M57.3322 79.4257L57.2316 80.5446C57.1901 80.6334 57.2908 80.7222 57.4358 80.7222H70.0869C70.1993 80.7222 70.2911 80.6659 70.3 80.5949L70.4125 79.476C70.4125 79.3991 70.3207 79.3339 70.1993 79.3339H57.5364C57.4974 79.3307 57.4582 79.3374 57.4225 79.3534C57.3867 79.3695 57.3557 79.3943 57.3322 79.4257Z" fill="#0059EF"/>
<path d="M59.0342 80.8435H58.6938C58.6257 80.8435 58.5754 80.808 58.5784 80.7666L58.7382 79.3102C58.7382 79.2688 58.8033 79.2333 58.8714 79.2333H59.2C59.2681 79.2333 59.3184 79.2688 59.3154 79.3102L59.1556 80.7666C59.1585 80.808 59.0993 80.8435 59.0342 80.8435Z" fill="#263238"/>
<path d="M69.1337 80.8435H68.7933C68.7252 80.8435 68.6749 80.808 68.6779 80.7666L68.8377 79.3102C68.8377 79.2688 68.9028 79.2333 68.9709 79.2333H69.3083C69.3764 79.2333 69.4267 79.2688 69.4238 79.3102L69.2639 80.7666C69.2639 80.808 69.1988 80.8435 69.1337 80.8435Z" fill="#263238"/>
<path d="M64.084 80.8435H63.7436C63.6755 80.8435 63.6252 80.808 63.6282 80.7666L63.788 79.3102C63.788 79.2688 63.8531 79.2333 63.9212 79.2333H64.2586C64.3267 79.2333 64.377 79.2688 64.3741 79.3102L64.2142 80.7666C64.2083 80.808 64.1521 80.8435 64.084 80.8435Z" fill="#263238"/>
<path d="M55.3046 61.4882C54.0496 61.87 52.5459 66.1827 52.5459 66.1827L56.5863 70.1284C56.5863 70.1284 59.1793 66.0584 58.6583 64.4393C58.1048 62.7521 56.7343 61.056 55.3046 61.4882Z" fill="#0059EF"/>
<path opacity="0.5" d="M55.3046 61.4882C54.0496 61.87 52.5459 66.1827 52.5459 66.1827L56.5863 70.1284C56.5863 70.1284 59.1793 66.0584 58.6583 64.4393C58.1048 62.7521 56.7343 61.056 55.3046 61.4882Z" fill="white"/>
<path d="M122.443 77.0844H98.8937V122.89H122.443V77.0844Z" fill="#0059EF"/>
<path opacity="0.6" d="M122.443 77.0844H98.8937V122.89H122.443V77.0844Z" fill="white"/>
<path d="M76.8209 77.0844H53.2711V122.89H76.8209V77.0844Z" fill="#0059EF"/>
<path opacity="0.6" d="M76.8209 77.0844H53.2711V122.89H76.8209V77.0844Z" fill="white"/>
<path d="M123.325 77.0844H121.384V122.89H123.325V77.0844Z" fill="#0059EF"/>
<path opacity="0.3" d="M123.325 77.0844H121.384V122.89H123.325V77.0844Z" fill="#99BDF9"/>
<path d="M77.102 80.5209H123.926V77.0843H77.102V80.5209Z" fill="#0059EF"/>
<path opacity="0.3" d="M77.102 80.5209H123.926V77.0843H77.102V80.5209Z" fill="#99BDF9"/>
<path d="M77.7059 77.0844H75.7642V122.89H77.7059V77.0844Z" fill="#0059EF"/>
<path opacity="0.3" d="M77.7059 77.0844H75.7642V122.89H77.7059V77.0844Z" fill="#99BDF9"/>
<path d="M76.9896 88.0422H122.355V78.1469H76.9896V88.0422Z" fill="#0059EF"/>
<path opacity="0.3" d="M76.9896 88.0422H122.355V78.1469H76.9896V88.0422Z" fill="#99BDF9"/>
<path d="M122.455 124.222H109.381C108.493 124.222 107.642 123.869 107.015 123.241C106.387 122.613 106.034 121.762 106.033 120.875V79.624C106.033 78.839 105.721 78.0861 105.166 77.531C104.611 76.9759 103.858 76.664 103.073 76.664H99.16V76.368H103.07C103.934 76.368 104.762 76.7111 105.373 77.3217C105.983 77.9323 106.326 78.7605 106.326 79.624V120.875C106.327 121.684 106.649 122.46 107.221 123.032C107.793 123.604 108.569 123.926 109.378 123.926H122.455C122.678 123.927 122.895 123.857 123.075 123.727C123.256 123.597 123.391 123.413 123.461 123.201C123.53 122.99 123.532 122.762 123.464 122.55C123.397 122.338 123.265 122.152 123.086 122.02L123.26 121.783C123.489 121.953 123.658 122.19 123.744 122.461C123.83 122.732 123.828 123.024 123.739 123.294C123.65 123.564 123.478 123.799 123.247 123.966C123.017 124.132 122.74 124.222 122.455 124.222Z" fill="#0059EF"/>
<path opacity="0.3" d="M122.455 124.222H109.381C108.493 124.222 107.642 123.869 107.015 123.241C106.387 122.613 106.034 121.762 106.033 120.875V79.624C106.033 78.839 105.721 78.0861 105.166 77.531C104.611 76.9759 103.858 76.664 103.073 76.664H99.16V76.368H103.07C103.934 76.368 104.762 76.7111 105.373 77.3217C105.983 77.9323 106.326 78.7605 106.326 79.624V120.875C106.327 121.684 106.649 122.46 107.221 123.032C107.793 123.604 108.569 123.926 109.378 123.926H122.455C122.678 123.927 122.895 123.857 123.075 123.727C123.256 123.597 123.391 123.413 123.461 123.201C123.53 122.99 123.532 122.762 123.464 122.55C123.397 122.338 123.265 122.152 123.086 122.02L123.26 121.783C123.489 121.953 123.658 122.19 123.744 122.461C123.83 122.732 123.828 123.024 123.739 123.294C123.65 123.564 123.478 123.799 123.247 123.966C123.017 124.132 122.74 124.222 122.455 124.222Z" fill="black"/>
<path d="M102.682 63.4091H80.7369L77.5579 76.3679H99.5003L102.682 63.4091Z" fill="#0059EF"/>
<path opacity="0.4" d="M102.682 63.4091H80.7369L77.5579 76.3679H99.5003L102.682 63.4091Z" fill="white"/>
<path d="M78.2298 76.3679L78.141 77.0843H69.5304L69.6192 76.3679H78.2298Z" fill="#0059EF"/>
<path opacity="0.4" d="M78.2298 76.3679L78.141 77.0843H69.5304L69.6192 76.3679H78.2298Z" fill="white"/>
<path d="M100.175 76.3679L100.086 77.0843H78.141L78.2298 76.3679H100.175Z" fill="#0059EF"/>
<path opacity="0.5" d="M100.175 76.3679L100.086 77.0843H78.141L78.2298 76.3679H100.175Z" fill="#0059EF"/>
<path d="M103.357 63.4091H81.4118L78.2328 76.3679H100.175L103.357 63.4091Z" fill="#0059EF"/>
<path opacity="0.5" d="M103.357 63.4091H81.4118L78.2328 76.3679H100.175L103.357 63.4091Z" fill="#0059EF"/>
<path d="M111.832 73.8194C111.832 73.8194 108.602 68.2517 113.072 63.8206C113.072 63.8206 114.241 64.5842 114.223 65.5966C114.206 66.6089 112.971 66.8812 113.235 67.7337C113.498 68.5862 114.667 69.4298 113.901 70.1372C113.134 70.8446 114.025 71.4722 113.972 72.3365C113.919 73.2008 111.832 73.8194 111.832 73.8194Z" fill="#0059EF"/>
<path d="M112.078 74.3286C112.078 74.3286 113.386 68.0268 107.739 65.2355C107.739 65.2355 106.868 66.3277 107.209 67.3075C107.549 68.2872 108.801 68.1304 108.819 69.0272C108.837 69.9241 107.996 71.0844 108.946 71.5136C109.897 71.9428 109.242 72.822 109.571 73.6271C109.899 74.4322 112.078 74.3286 112.078 74.3286Z" fill="#0059EF"/>
<path opacity="0.5" d="M112.078 74.3286C112.078 74.3286 113.386 68.0268 107.739 65.2355C107.739 65.2355 106.868 66.3277 107.209 67.3075C107.549 68.2872 108.801 68.1304 108.819 69.0272C108.837 69.9241 107.996 71.0844 108.946 71.5136C109.897 71.9428 109.242 72.822 109.571 73.6271C109.899 74.4322 112.078 74.3286 112.078 74.3286Z" fill="black"/>
<path d="M107.128 72.9314C107.128 72.9314 107.238 77.0754 111.355 77.0754C115.473 77.0754 115.579 72.9314 115.579 72.9314H107.128Z" fill="#0059EF"/>
<path opacity="0.5" d="M107.128 72.9314C107.128 72.9314 107.238 77.0754 111.355 77.0754C115.473 77.0754 115.579 72.9314 115.579 72.9314H107.128Z" fill="black"/>
<path d="M93.3138 52.4075L89.7974 47.8639L86.2809 52.4075H87.9355V58.289H91.6592V52.4075H93.3138Z" fill="#0059EF"/>
<path d="M95.312 51.1222C95.312 48.9241 96.1852 46.816 97.7395 45.2617C99.2938 43.7074 101.402 42.8342 103.6 42.8342V44.9921C102.796 44.9917 101.999 45.1498 101.255 45.4574C100.512 45.765 99.8366 46.216 99.2676 46.7848C98.6986 47.3535 98.2472 48.0288 97.9393 48.772C97.6313 49.5152 97.4728 50.3118 97.4728 51.1163L95.312 51.1222Z" fill="#0059EF"/>
<path d="M95.312 51.1222H97.4728C97.4728 52.7472 98.1184 54.3057 99.2674 55.4548C100.416 56.6038 101.975 57.2494 103.6 57.2494C104.675 57.2514 105.731 56.9674 106.661 56.4265L107.744 58.312C106.484 59.0395 105.055 59.4224 103.6 59.4224C102.145 59.4224 100.716 59.0394 99.4558 58.3119C98.1959 57.5845 97.1496 56.5382 96.4222 55.2782C95.6948 54.0182 95.3119 52.5889 95.312 51.134V51.1222Z" fill="#0059EF"/>
<path opacity="0.5" d="M95.312 51.1222H97.4728C97.4728 52.7472 98.1184 54.3057 99.2674 55.4548C100.416 56.6038 101.975 57.2494 103.6 57.2494C104.675 57.2514 105.731 56.9674 106.661 56.4265L107.744 58.312C106.484 59.0395 105.055 59.4224 103.6 59.4224C102.145 59.4224 100.716 59.0394 99.4558 58.3119C98.1959 57.5845 97.1496 56.5382 96.4222 55.2782C95.6948 54.0182 95.3119 52.5889 95.312 51.134V51.1222Z" fill="white"/>
<path d="M103.6 44.9921V42.8283C105.43 42.8213 107.212 43.4204 108.666 44.532C110.12 45.6437 111.165 47.2054 111.638 48.9735C112.111 50.7416 111.986 52.6166 111.281 54.3059C110.577 55.9953 109.333 57.4039 107.744 58.3121L106.664 56.4384C107.841 55.7684 108.762 54.7272 109.284 53.4778C109.807 52.2283 109.9 50.841 109.55 49.5328C109.2 48.2246 108.426 47.0694 107.349 46.2478C106.273 45.4262 104.954 44.9846 103.6 44.9921Z" fill="#0059EF"/>
<path opacity="0.7" d="M103.6 44.9921V42.8283C105.43 42.8213 107.212 43.4204 108.666 44.532C110.12 45.6437 111.165 47.2054 111.638 48.9735C112.111 50.7416 111.986 52.6166 111.281 54.3059C110.577 55.9953 109.333 57.4039 107.744 58.3121L106.664 56.4384C107.841 55.7684 108.762 54.7272 109.284 53.4778C109.807 52.2283 109.9 50.841 109.55 49.5328C109.2 48.2246 108.426 47.0694 107.349 46.2478C106.273 45.4262 104.954 44.9846 103.6 44.9921Z" fill="#0059EF"/>
<path d="M95.8182 30.7841H88.2672C87.998 30.7841 87.7397 30.891 87.5493 31.0814C87.3589 31.2718 87.252 31.5301 87.252 31.7993V45.7617C87.2543 46.0294 87.3623 46.2854 87.5524 46.4738C87.7426 46.6623 87.9995 46.7681 88.2672 46.7681H97.9316C98.2004 46.7673 98.4579 46.66 98.6476 46.4697C98.8374 46.2793 98.944 46.0215 98.944 45.7528V33.9128L95.8182 30.7841Z" fill="#0059EF"/>
<path d="M95.3741 45.3798H89.096C88.9782 45.3798 88.8653 45.333 88.782 45.2497C88.6988 45.1665 88.652 45.0535 88.652 44.9358C88.6528 44.8185 88.6999 44.7064 88.7831 44.6237C88.8662 44.5411 88.9787 44.4947 89.096 44.4948H95.3771C95.4943 44.4947 95.6068 44.5411 95.69 44.6237C95.7732 44.7064 95.8203 44.8185 95.8211 44.9358C95.8203 45.0538 95.7729 45.1667 95.6891 45.2499C95.6054 45.3331 95.4922 45.3798 95.3741 45.3798Z" fill="#0059EF"/>
<path d="M92.4141 33.0722H89.096C88.9787 33.0722 88.8662 33.0258 88.7831 32.9432C88.6999 32.8606 88.6528 32.7484 88.652 32.6311C88.652 32.5134 88.6988 32.4004 88.782 32.3172C88.8653 32.2339 88.9782 32.1871 89.096 32.1871H92.4171C92.5349 32.1871 92.6478 32.2339 92.7311 32.3172C92.8143 32.4004 92.8611 32.5134 92.8611 32.6311C92.8607 32.6894 92.8488 32.7471 92.8262 32.8008C92.8035 32.8545 92.7705 32.9033 92.729 32.9442C92.6875 32.9852 92.6383 33.0176 92.5843 33.0395C92.5303 33.0615 92.4725 33.0726 92.4141 33.0722Z" fill="#0059EF"/>
<path d="M94.5838 34.8304H89.096C88.9787 34.8304 88.8662 34.784 88.7831 34.7014C88.6999 34.6187 88.6528 34.5066 88.652 34.3893C88.652 34.2716 88.6988 34.1586 88.782 34.0754C88.8653 33.9921 88.9782 33.9453 89.096 33.9453H94.5868C94.704 33.9461 94.8162 33.9932 94.8988 34.0764C94.9815 34.1596 95.0278 34.2721 95.0278 34.3893C95.0278 34.4475 95.0163 34.5051 94.994 34.5588C94.9716 34.6125 94.9389 34.6612 94.8976 34.7022C94.8563 34.7432 94.8074 34.7756 94.7535 34.7976C94.6997 34.8196 94.642 34.8307 94.5838 34.8304Z" fill="#0059EF"/>
<path d="M97.1057 36.5887H89.096C88.9787 36.5887 88.8662 36.5423 88.7831 36.4597C88.6999 36.377 88.6528 36.2649 88.652 36.1476C88.652 36.0299 88.6988 35.9169 88.782 35.8337C88.8653 35.7504 88.9782 35.7036 89.096 35.7036H97.1087C97.2265 35.7036 97.3394 35.7504 97.4227 35.8337C97.5059 35.9169 97.5527 36.0299 97.5527 36.1476C97.5523 36.2059 97.5404 36.2636 97.5178 36.3173C97.4951 36.371 97.4621 36.4198 97.4206 36.4607C97.3791 36.5017 97.3299 36.534 97.2759 36.556C97.2219 36.5779 97.164 36.589 97.1057 36.5887Z" fill="#0059EF"/>
<path d="M97.1057 38.3468H92.4467C92.3294 38.3468 92.2169 38.3005 92.1338 38.2178C92.0506 38.1352 92.0035 38.023 92.0027 37.9058C92.0027 37.788 92.0495 37.6751 92.1327 37.5918C92.216 37.5086 92.3289 37.4618 92.4467 37.4618H97.1057C97.2235 37.4618 97.3364 37.5086 97.4197 37.5918C97.503 37.6751 97.5497 37.788 97.5497 37.9058C97.549 38.023 97.5018 38.1352 97.4187 38.2178C97.3355 38.3005 97.223 38.3468 97.1057 38.3468Z" fill="#0059EF"/>
<path d="M90.3096 38.3468H89.096C88.9787 38.3468 88.8663 38.3005 88.7831 38.2178C88.6999 38.1352 88.6528 38.023 88.652 37.9058C88.652 37.788 88.6988 37.6751 88.782 37.5918C88.8653 37.5086 88.9782 37.4618 89.096 37.4618H90.3126C90.4303 37.4618 90.5433 37.5086 90.6265 37.5918C90.7098 37.6751 90.7566 37.788 90.7566 37.9058C90.7562 37.9641 90.7443 38.0218 90.7216 38.0755C90.699 38.1292 90.6659 38.1779 90.6244 38.2189C90.5829 38.2598 90.5338 38.2922 90.4797 38.3142C90.4257 38.3361 90.3679 38.3472 90.3096 38.3468Z" fill="#0059EF"/>
<path d="M97.1057 40.1051H89.096C88.9782 40.1051 88.8653 40.0584 88.782 39.9751C88.6988 39.8918 88.652 39.7789 88.652 39.6611C88.6528 39.5439 88.6999 39.4317 88.7831 39.3491C88.8662 39.2665 88.9787 39.2201 89.096 39.2201H97.1087C97.2259 39.2201 97.3384 39.2665 97.4216 39.3491C97.5048 39.4317 97.5519 39.5439 97.5527 39.6611C97.5527 39.7197 97.5411 39.7777 97.5186 39.8317C97.4961 39.8858 97.4632 39.9349 97.4216 39.9761C97.3801 40.0174 97.3308 40.05 97.2766 40.0722C97.2223 40.0943 97.1643 40.1055 97.1057 40.1051Z" fill="#0059EF"/>
<path d="M94.0125 41.8634H89.096C88.9782 41.8634 88.8653 41.8167 88.782 41.7334C88.6988 41.6501 88.652 41.5372 88.652 41.4194C88.6528 41.3022 88.6999 41.19 88.7831 41.1074C88.8662 41.0248 88.9787 40.9784 89.096 40.9784H94.0155C94.1327 40.9784 94.2452 41.0248 94.3284 41.1074C94.4116 41.19 94.4587 41.3022 94.4595 41.4194C94.4595 41.478 94.4479 41.536 94.4254 41.59C94.4029 41.6441 94.37 41.6932 94.3284 41.7344C94.2869 41.7757 94.2376 41.8083 94.1834 41.8305C94.1292 41.8526 94.0711 41.8638 94.0125 41.8634Z" fill="#0059EF"/>
<path d="M97.1059 41.8634H95.7916C95.6744 41.8627 95.5622 41.8155 95.4796 41.7324C95.397 41.6492 95.3506 41.5367 95.3506 41.4194C95.3506 41.3025 95.397 41.1903 95.4798 41.1076C95.5625 41.0249 95.6747 40.9784 95.7916 40.9784H97.1059C97.2231 40.9784 97.3356 41.0248 97.4188 41.1074C97.5019 41.19 97.5491 41.3022 97.5499 41.4194C97.5499 41.5372 97.5031 41.6501 97.4198 41.7334C97.3366 41.8167 97.2236 41.8634 97.1059 41.8634Z" fill="#0059EF"/>
<path d="M97.1057 43.6216H89.096C88.9782 43.6216 88.8653 43.5748 88.782 43.4916C88.6988 43.4083 88.652 43.2954 88.652 43.1776C88.6528 43.0604 88.6999 42.9482 88.7831 42.8656C88.8662 42.7829 88.9787 42.7366 89.096 42.7366H97.1087C97.2259 42.7366 97.3384 42.7829 97.4216 42.8656C97.5048 42.9482 97.5519 43.0604 97.5527 43.1776C97.5527 43.2362 97.5411 43.2941 97.5186 43.3482C97.4961 43.4023 97.4632 43.4513 97.4216 43.4926C97.3801 43.5339 97.3308 43.5665 97.2766 43.5887C97.2223 43.6108 97.1643 43.622 97.1057 43.6216Z" fill="#0059EF"/>
<g opacity="0.5">
<path opacity="0.5" d="M95.3741 45.3798H89.096C88.9782 45.3798 88.8653 45.333 88.782 45.2497C88.6988 45.1665 88.652 45.0535 88.652 44.9358C88.6528 44.8185 88.6999 44.7064 88.7831 44.6237C88.8662 44.5411 88.9787 44.4947 89.096 44.4948H95.3771C95.4943 44.4947 95.6068 44.5411 95.69 44.6237C95.7732 44.7064 95.8203 44.8185 95.8211 44.9358C95.8203 45.0538 95.7729 45.1667 95.6891 45.2499C95.6054 45.3331 95.4922 45.3798 95.3741 45.3798Z" fill="white"/>
</g>
<g opacity="0.5">
<path opacity="0.5" d="M92.4141 33.0722H89.096C88.9787 33.0722 88.8662 33.0258 88.7831 32.9432C88.6999 32.8606 88.6528 32.7484 88.652 32.6311C88.652 32.5134 88.6988 32.4004 88.782 32.3172C88.8653 32.2339 88.9782 32.1871 89.096 32.1871H92.4171C92.5349 32.1871 92.6478 32.2339 92.7311 32.3172C92.8143 32.4004 92.8611 32.5134 92.8611 32.6311C92.8607 32.6894 92.8488 32.7471 92.8262 32.8008C92.8035 32.8545 92.7705 32.9033 92.729 32.9442C92.6875 32.9852 92.6383 33.0176 92.5843 33.0395C92.5303 33.0615 92.4725 33.0726 92.4141 33.0722Z" fill="white"/>
</g>
<g opacity="0.5">
<path opacity="0.5" d="M94.5838 34.8304H89.096C88.9787 34.8304 88.8662 34.784 88.7831 34.7014C88.6999 34.6187 88.6528 34.5066 88.652 34.3893C88.652 34.2716 88.6988 34.1586 88.782 34.0754C88.8653 33.9921 88.9782 33.9453 89.096 33.9453H94.5868C94.704 33.9461 94.8162 33.9932 94.8988 34.0764C94.9815 34.1596 95.0278 34.2721 95.0278 34.3893C95.0278 34.4475 95.0163 34.5051 94.994 34.5588C94.9716 34.6125 94.9389 34.6612 94.8976 34.7022C94.8563 34.7432 94.8074 34.7756 94.7535 34.7976C94.6997 34.8196 94.642 34.8307 94.5838 34.8304Z" fill="white"/>
</g>
<g opacity="0.5">
<path opacity="0.5" d="M97.1057 36.5887H89.096C88.9787 36.5887 88.8662 36.5423 88.7831 36.4597C88.6999 36.377 88.6528 36.2649 88.652 36.1476C88.652 36.0299 88.6988 35.9169 88.782 35.8337C88.8653 35.7504 88.9782 35.7036 89.096 35.7036H97.1087C97.2265 35.7036 97.3394 35.7504 97.4227 35.8337C97.5059 35.9169 97.5527 36.0299 97.5527 36.1476C97.5523 36.2059 97.5404 36.2636 97.5178 36.3173C97.4951 36.371 97.4621 36.4198 97.4206 36.4607C97.3791 36.5017 97.3299 36.534 97.2759 36.556C97.2219 36.5779 97.164 36.589 97.1057 36.5887Z" fill="white"/>
</g>
<g opacity="0.5">
<path opacity="0.5" d="M97.1057 38.3468H92.4467C92.3294 38.3468 92.2169 38.3005 92.1338 38.2178C92.0506 38.1352 92.0035 38.023 92.0027 37.9058C92.0027 37.788 92.0495 37.6751 92.1327 37.5918C92.216 37.5086 92.3289 37.4618 92.4467 37.4618H97.1057C97.2235 37.4618 97.3364 37.5086 97.4197 37.5918C97.503 37.6751 97.5497 37.788 97.5497 37.9058C97.549 38.023 97.5018 38.1352 97.4187 38.2178C97.3355 38.3005 97.223 38.3468 97.1057 38.3468Z" fill="white"/>
</g>
<g opacity="0.5">
<path opacity="0.5" d="M90.3096 38.3468H89.096C88.9787 38.3468 88.8663 38.3005 88.7831 38.2178C88.6999 38.1352 88.6528 38.023 88.652 37.9058C88.652 37.788 88.6988 37.6751 88.782 37.5918C88.8653 37.5086 88.9782 37.4618 89.096 37.4618H90.3126C90.4303 37.4618 90.5433 37.5086 90.6265 37.5918C90.7098 37.6751 90.7566 37.788 90.7566 37.9058C90.7562 37.9641 90.7443 38.0218 90.7216 38.0755C90.699 38.1292 90.6659 38.1779 90.6244 38.2189C90.5829 38.2598 90.5338 38.2922 90.4797 38.3142C90.4257 38.3361 90.3679 38.3472 90.3096 38.3468Z" fill="white"/>
</g>
<g opacity="0.5">
<path opacity="0.5" d="M97.1057 40.1051H89.096C88.9782 40.1051 88.8653 40.0584 88.782 39.9751C88.6988 39.8918 88.652 39.7789 88.652 39.6611C88.6528 39.5439 88.6999 39.4317 88.7831 39.3491C88.8662 39.2665 88.9787 39.2201 89.096 39.2201H97.1087C97.2259 39.2201 97.3384 39.2665 97.4216 39.3491C97.5048 39.4317 97.5519 39.5439 97.5527 39.6611C97.5527 39.7197 97.5411 39.7777 97.5186 39.8317C97.4961 39.8858 97.4632 39.9349 97.4216 39.9761C97.3801 40.0174 97.3308 40.05 97.2766 40.0722C97.2223 40.0943 97.1643 40.1055 97.1057 40.1051Z" fill="white"/>
</g>
<g opacity="0.5">
<path opacity="0.5" d="M94.0125 41.8634H89.096C88.9782 41.8634 88.8653 41.8167 88.782 41.7334C88.6988 41.6501 88.652 41.5372 88.652 41.4194C88.6528 41.3022 88.6999 41.19 88.7831 41.1074C88.8662 41.0248 88.9787 40.9784 89.096 40.9784H94.0155C94.1327 40.9784 94.2452 41.0248 94.3284 41.1074C94.4116 41.19 94.4587 41.3022 94.4595 41.4194C94.4595 41.478 94.4479 41.536 94.4254 41.59C94.4029 41.6441 94.37 41.6932 94.3284 41.7344C94.2869 41.7757 94.2376 41.8083 94.1834 41.8305C94.1292 41.8526 94.0711 41.8638 94.0125 41.8634Z" fill="white"/>
</g>
<g opacity="0.5">
<path opacity="0.5" d="M97.1059 41.8634H95.7916C95.6744 41.8627 95.5622 41.8155 95.4796 41.7324C95.397 41.6492 95.3506 41.5367 95.3506 41.4194C95.3506 41.3025 95.397 41.1903 95.4798 41.1076C95.5625 41.0249 95.6747 40.9784 95.7916 40.9784H97.1059C97.2231 40.9784 97.3356 41.0248 97.4188 41.1074C97.5019 41.19 97.5491 41.3022 97.5499 41.4194C97.5499 41.5372 97.5031 41.6501 97.4198 41.7334C97.3366 41.8167 97.2236 41.8634 97.1059 41.8634Z" fill="white"/>
</g>
<g opacity="0.5">
<path opacity="0.5" d="M97.1057 43.6216H89.096C88.9782 43.6216 88.8653 43.5748 88.782 43.4916C88.6988 43.4083 88.652 43.2954 88.652 43.1776C88.6528 43.0604 88.6999 42.9482 88.7831 42.8656C88.8662 42.7829 88.9787 42.7366 89.096 42.7366H97.1087C97.2259 42.7366 97.3384 42.7829 97.4216 42.8656C97.5048 42.9482 97.5519 43.0604 97.5527 43.1776C97.5527 43.2362 97.5411 43.2941 97.5186 43.3482C97.4961 43.4023 97.4632 43.4513 97.4216 43.4926C97.3801 43.5339 97.3308 43.5665 97.2766 43.5887C97.2223 43.6108 97.1643 43.622 97.1057 43.6216Z" fill="white"/>
</g>
<path d="M95.8182 30.7841V32.8975C95.8179 33.0309 95.8439 33.1631 95.8947 33.2865C95.9456 33.4098 96.0204 33.5219 96.1147 33.6163C96.2091 33.7106 96.3212 33.7854 96.4445 33.8363C96.5679 33.8872 96.7001 33.9132 96.8335 33.9128H98.944L95.8182 30.7841Z" fill="#0059EF"/>
<path opacity="0.5" d="M95.8182 30.7841V32.8975C95.8179 33.0309 95.8439 33.1631 95.8947 33.2865C95.9456 33.4098 96.0204 33.5219 96.1147 33.6163C96.2091 33.7106 96.3212 33.7854 96.4445 33.8363C96.5679 33.8872 96.7001 33.9132 96.8335 33.9128H98.944L95.8182 30.7841Z" fill="white"/>
</svg>
