<svg width="378" height="339" viewBox="0 0 378 339" fill="none" xmlns="http://www.w3.org/2000/svg">
<path d="M325.65 38.17C319.3 34.7 316.42 37.59 314.11 34.7C311.8 31.81 320.46 24.31 303.11 16.81C303.11 16.81 301.96 0.650009 278.29 0.0700089C254.62 -0.509991 261 16.23 254.65 20.27C248.3 24.31 246.57 18 240.22 22C233.87 26 236.76 34.12 231.57 35.27C226.38 36.42 219.44 30.08 213.09 34.12C206.74 38.16 206.74 41.62 203.86 41.62C200.98 41.62 195.2 39.31 191.74 41.62C188.28 43.93 184.23 46.82 184.23 46.82H330.23C330.23 46.82 332 41.63 325.65 38.17Z" fill="#0059EF"/>
<path opacity="0.5" d="M325.65 38.17C319.3 34.7 316.42 37.59 314.11 34.7C311.8 31.81 320.46 24.31 303.11 16.81C303.11 16.81 301.96 0.650009 278.29 0.0700089C254.62 -0.509991 261 16.23 254.65 20.27C248.3 24.31 246.57 18 240.22 22C233.87 26 236.76 34.12 231.57 35.27C226.38 36.42 219.44 30.08 213.09 34.12C206.74 38.16 206.74 41.62 203.86 41.62C200.98 41.62 195.2 39.31 191.74 41.62C188.28 43.93 184.23 46.82 184.23 46.82H330.23C330.23 46.82 332 41.63 325.65 38.17Z" fill="white"/>
<path d="M160.08 167.9C155.62 165.47 153.59 167.49 151.97 165.47C150.35 163.45 156.43 158.17 144.27 152.9C144.27 152.9 143.46 141.55 126.83 141.14C110.2 140.73 114.67 152.49 110.21 155.33C105.75 158.17 104.54 153.71 100.08 156.55C95.62 159.39 97.64 165.06 94 165.87C90.36 166.68 85.48 162.22 81 165.06C76.52 167.9 76.54 170.33 74.52 170.33C72.5 170.33 68.43 168.71 66 170.33C63.57 171.95 60.73 173.98 60.73 173.98H163.32C163.32 173.98 164.54 170.33 160.08 167.9Z" fill="white"/>
<path opacity="0.5" d="M160.08 167.9C155.62 165.47 153.59 167.49 151.97 165.47C150.35 163.45 156.43 158.17 144.27 152.9C144.27 152.9 143.46 141.55 126.83 141.14C110.2 140.73 114.67 152.49 110.21 155.33C105.75 158.17 104.54 153.71 100.08 156.55C95.62 159.39 97.64 165.06 94 165.87C90.36 166.68 85.48 162.22 81 165.06C76.52 167.9 76.54 170.33 74.52 170.33C72.5 170.33 68.43 168.71 66 170.33C63.57 171.95 60.73 173.98 60.73 173.98H163.32C163.32 173.98 164.54 170.33 160.08 167.9Z" fill="white"/>
<path d="M286.87 336.87H350.07C348.86 329.14 343.89 330.5 343.23 318.52C342.9 312.52 348.49 305.02 348 297.1C347.6 290.57 341.17 283.88 340.67 276.41C340.22 269.67 345.67 262.19 345.18 254.93C344.67 248.07 338.18 241.48 337.57 234.34C337.01 227.34 342.39 219.83 341.75 212.79C341.11 205.75 334.48 199.28 333.75 192.34C333.02 185.21 338.23 177.53 337.43 170.71C336.59 163.46 329.75 157.2 328.82 150.52C327.82 143.09 332.63 135.15 331.5 128.73C330.11 120.87 322.79 115.18 321.25 109.38C318.38 98.57 318.74 88.16 315.35 87.48C311.74 86.76 310.91 96.97 308.17 108.38C306.79 114.11 299.64 119.92 298.46 127.79C297.51 134.16 302.57 141.91 301.74 149.31C301 155.94 294.33 162.31 293.68 169.52C293.07 176.3 298.48 183.77 297.95 190.86C297.43 197.75 290.95 204.32 290.52 211.32C290.09 218.32 295.65 225.64 295.27 232.55C294.88 239.63 288.53 246.32 288.2 253.13C287.86 260.34 293.55 267.61 293.27 274.29C292.96 281.7 286.7 288.48 286.47 294.96C286.19 302.82 291.96 310.07 291.78 316.06C291.4 329.06 285.45 326.35 285.24 336.81L286.87 336.87Z" fill="#0059EF"/>
<path d="M314 108.25V333.95" stroke="black"/>
<path d="M323.87 131.91L313.58 140.8L305.16 129.57" stroke="black"/>
<path d="M323.87 171.2L313.58 180.08L305.16 168.86" stroke="black"/>
<path d="M323.87 208.14L313.58 217.03L305.16 205.8" stroke="black"/>
<path d="M323.87 252.11L313.58 260.99L305.16 249.77" stroke="black"/>
<path d="M323.87 296.54L313.58 305.42L305.16 294.2" stroke="black"/>
<path d="M243.82 336.87H292.61C291.67 330.87 287.84 331.95 287.33 322.71C287.07 318.05 291.38 312.29 291.01 306.17C290.7 301.17 285.74 295.96 285.35 290.17C285 284.97 289.24 279.17 288.83 273.59C288.44 268.29 283.41 263.21 282.96 257.7C282.51 252.19 286.68 246.49 286.19 241.06C285.7 235.63 280.57 230.63 280.03 225.28C279.47 219.77 283.49 213.85 282.87 208.57C282.22 202.98 276.94 198.15 276.23 193C275.43 187.26 279.17 181.13 278.29 176.18C277.22 170.11 271.57 165.71 270.39 161.24C268.17 152.9 268.45 144.85 265.83 144.33C263.04 143.77 262.4 151.65 260.29 160.47C259.23 164.89 253.7 169.38 252.79 175.47C252.06 180.39 255.96 186.37 255.32 192.08C254.75 197.2 249.61 202.08 249.1 207.68C248.63 212.91 252.81 218.68 252.4 224.15C252 229.47 247.01 234.54 246.66 239.94C246.31 245.34 250.66 251 250.33 256.33C250 261.66 245.13 266.96 244.88 272.22C244.61 277.78 249 283.39 248.79 288.55C248.55 294.27 243.72 299.55 243.54 304.55C243.32 310.61 247.78 316.22 247.64 320.83C247.34 330.83 242.75 328.78 242.59 336.83L243.82 336.87Z" fill="#0059EF"/>
<path d="M264.77 160.4V334.62" stroke="black"/>
<path d="M272.38 178.66L264.44 185.52L257.94 176.85" stroke="black"/>
<path d="M272.38 208.98L264.44 215.84L257.94 207.18" stroke="black"/>
<path d="M272.38 237.5L264.44 244.36L257.94 235.7" stroke="black"/>
<path d="M272.38 271.44L264.44 278.3L257.94 269.63" stroke="black"/>
<path d="M272.38 305.74L264.44 312.59L257.94 303.93" stroke="black"/>
<path d="M200.33 336.4V134.22H211V336.4" fill="#252525"/>
<path d="M200.33 336.4V134.22H211V336.4" stroke="#2E353A" stroke-linecap="round" stroke-linejoin="round"/>
<path d="M195 336.4V134.22H205.67V336.4" fill="#0059EF"/>
<path d="M195 336.4V134.22H205.67V336.4" stroke="#2E353A" stroke-linecap="round" stroke-linejoin="round"/>
<g style="mix-blend-mode:multiply" opacity="0.3">
<rect x="195" y="134.22" width="10.67" height="24" fill="#2E353A"/>
</g>
<path d="M240.53 55.29H161.47L195.93 139.93H275V89.75C275 80.6089 271.368 71.8424 264.903 65.3796C258.439 58.9168 249.671 55.2874 240.53 55.29Z" fill="#0059EF" stroke="#2E353A" stroke-linecap="round" stroke-linejoin="round"/>
<g style="mix-blend-mode:multiply" opacity="0.3">
<path d="M189.9 125.11L195.9 139.93H275V89.75C275 88.99 275 88.23 274.92 87.48H189.92L189.9 125.11Z" fill="black"/>
</g>
<path d="M239.95 87.48H231.63" stroke="#2E353A" stroke-linecap="round" stroke-linejoin="round"/>
<path d="M274.92 87.48H249.74" stroke="#2E353A" stroke-linecap="round" stroke-linejoin="round"/>
<path d="M161.47 55.29C180.507 55.29 195.94 70.7228 195.94 89.76V139.94H127V89.75C127.006 70.7167 142.437 55.29 161.47 55.29Z" fill="#252525" stroke="#2E353A" stroke-linecap="round" stroke-linejoin="round"/>
<rect x="136.53" y="134.22" width="59.4" height="5.71" fill="#0059EF" stroke="#2E353A" stroke-linecap="round" stroke-linejoin="round"/>
<rect x="73" y="134.22" width="122.93" height="5.71" fill="#0059EF" stroke="#2E353A" stroke-linecap="round" stroke-linejoin="round"/>
<rect opacity="0.3" x="136.53" y="134.22" width="59.4" height="5.71" fill="black"/>
<rect x="221" y="34.89" width="24.67" height="17.33" fill="#252525" stroke="#2E353A" stroke-linecap="round" stroke-linejoin="round"/>
<rect x="217.67" y="34.89" width="5.33" height="54" fill="white" stroke="#2E353A" stroke-linecap="round" stroke-linejoin="round"/>
<circle cx="220.33" cy="90.22" r="6" fill="#252525" stroke="#2E353A" stroke-linecap="round" stroke-linejoin="round"/>
<path d="M132.34 69.15C146.26 76.22 170.46 87.55 192.78 93.25" stroke="white" stroke-linecap="round" stroke-linejoin="round" stroke-dasharray="2 4"/>
<path d="M120.66 63C120.66 63 125.12 65.52 132.34 69.19" stroke="#2E353A" stroke-linecap="round" stroke-linejoin="round" stroke-dasharray="2 4"/>
<path d="M115.65 62.63L125.66 38.85L53.0699 21.14L115.65 62.63Z" fill="white" stroke="#2E353A" stroke-width="1.2629" stroke-linecap="round" stroke-linejoin="round"/>
<path d="M120.53 41.73L115.65 62.63L53.0699 21.14L120.53 41.73Z" fill="#0059EF" stroke="#2E353A" stroke-width="1.2629" stroke-linecap="round" stroke-linejoin="round"/>
<path d="M120.53 41.73L109.14 51.49L53.0699 21.14L120.53 41.73Z" fill="white" stroke="#2E353A" stroke-width="1.2629" stroke-linecap="round" stroke-linejoin="round"/>
<path d="M125.66 38.85L135.8 34.73L53.0699 21.14L125.66 38.85Z" fill="white" stroke="#2E353A" stroke-width="1.2629" stroke-linecap="round" stroke-linejoin="round"/>
<path d="M101.55 58.9301L103.9 60.3701" stroke="#2E353A" stroke-linecap="round" stroke-linejoin="round"/>
<path d="M88.73 51.0699L96.6 55.8899" stroke="#2E353A" stroke-linecap="round" stroke-linejoin="round"/>
<path d="M79.89 108.15V82.36L153.67 94.22L79.89 108.15Z" fill="white" stroke="#2E353A" stroke-width="1.2629" stroke-linecap="round" stroke-linejoin="round"/>
<path d="M83.5 87L79.89 108.15L153.67 94.22L83.5 87Z" fill="#0059EF" stroke="#2E353A" stroke-width="1.2629" stroke-linecap="round" stroke-linejoin="round"/>
<path d="M83.5 87L90.21 100.41L153.67 94.22L83.5 87Z" fill="white" stroke="#2E353A" stroke-width="1.2629" stroke-linecap="round" stroke-linejoin="round"/>
<path d="M79.89 82.36L72.15 74.62L153.67 94.22L79.89 82.36Z" fill="white" stroke="#2E353A" stroke-width="1.2629" stroke-linecap="round" stroke-linejoin="round"/>
<path d="M106.31 107.67L112.71 106.37" stroke="#2E353A" stroke-linecap="round" stroke-linejoin="round"/>
<path d="M83.83 112.24L99.92 108.97" stroke="#2E353A" stroke-linecap="round" stroke-linejoin="round"/>
<path d="M71 106.56C71 106.56 13 116.56 1.99998 168.56C-9.00002 220.56 49 223.56 59 198.56C69 173.56 25 163.56 15 187.56C4.99998 211.56 35 252.56 76 254.56C110.07 256.22 205.59 216.45 265 206.4C265 206.4 309 194.22 377 196.89" stroke="#2E353A" stroke-linecap="round" stroke-linejoin="round" stroke-dasharray="2 4"/>
<path d="M357.33 269.56H374H357.33Z" fill="white"/>
<path d="M357.33 269.56H374" stroke="#2E353A" stroke-linecap="round" stroke-linejoin="round"/>
<path d="M357.33 294.22H374H357.33Z" fill="white"/>
<path d="M357.33 294.22H374" stroke="#2E353A" stroke-linecap="round" stroke-linejoin="round"/>
<path d="M6.32996 293.56H355.33V270.22H6.32996" fill="white"/>
<path d="M6.32996 293.56H355.33V270.22H6.32996" stroke="#2E353A" stroke-linecap="round" stroke-linejoin="round"/>
<path d="M30.59 336.56V219.14C30.5904 218.558 30.8288 218.002 31.25 217.6L40.37 209.01C41.2249 208.211 42.5645 208.251 43.37 209.1L51.37 217.61C51.7329 218.006 51.936 218.523 51.94 219.06V336.56" fill="#252525"/>
<path d="M30.59 336.56V219.14C30.5904 218.558 30.8288 218.002 31.25 217.6L40.37 209.01C41.2249 208.211 42.5645 208.251 43.37 209.1L51.37 217.61C51.7329 218.006 51.936 218.523 51.94 219.06V336.56" stroke="#2E353A" stroke-linecap="round" stroke-linejoin="round"/>
<path d="M28 337.56V219.14C27.9994 218.556 28.2422 217.998 28.67 217.6L37.79 209.01C38.1995 208.624 38.7459 208.416 39.3087 208.433C39.8715 208.45 40.4044 208.69 40.79 209.1L48.79 217.61C49.1572 218.003 49.3609 218.522 49.36 219.06V337.56" fill="white"/>
<path d="M28 337.56V219.14C27.9994 218.556 28.2422 217.998 28.67 217.6L37.79 209.01C38.1995 208.624 38.7459 208.416 39.3087 208.433C39.8715 208.45 40.4044 208.69 40.79 209.1L48.79 217.61C49.1572 218.003 49.3609 218.522 49.36 219.06V337.56" stroke="#2E353A" stroke-linecap="round" stroke-linejoin="round"/>
<path d="M107.49 336.56V219.14C107.49 218.558 107.729 218.002 108.15 217.6L117.28 209.01C117.689 208.624 118.236 208.416 118.799 208.433C119.361 208.45 119.894 208.69 120.28 209.1L128.28 217.61C128.647 218.003 128.851 218.522 128.85 219.06V336.56" fill="#252525"/>
<path d="M107.49 336.56V219.14C107.49 218.558 107.729 218.002 108.15 217.6L117.28 209.01C117.689 208.624 118.236 208.416 118.799 208.433C119.361 208.45 119.894 208.69 120.28 209.1L128.28 217.61C128.647 218.003 128.851 218.522 128.85 219.06V336.56" stroke="#2E353A" stroke-linecap="round" stroke-linejoin="round"/>
<path d="M105.33 337.56V219.14C105.329 218.556 105.572 217.998 106 217.6L115.12 209.01C115.975 208.211 117.315 208.251 118.12 209.1L126.12 217.61C126.49 218.002 126.697 218.521 126.7 219.06V337.56" fill="white"/>
<path d="M105.33 337.56V219.14C105.329 218.556 105.572 217.998 106 217.6L115.12 209.01C115.975 208.211 117.315 208.251 118.12 209.1L126.12 217.61C126.49 218.002 126.697 218.521 126.7 219.06V337.56" stroke="#2E353A" stroke-linecap="round" stroke-linejoin="round"/>
<path d="M184.82 336.56V219.14C184.819 218.556 185.062 217.998 185.49 217.6L194.61 209.01C195.465 208.211 196.804 208.251 197.61 209.1L205.61 217.61C205.98 218.002 206.187 218.521 206.19 219.06V337.56" fill="#252525"/>
<path d="M184.82 336.56V219.14C184.819 218.556 185.062 217.998 185.49 217.6L194.61 209.01C195.465 208.211 196.804 208.251 197.61 209.1L205.61 217.61C205.98 218.002 206.187 218.521 206.19 219.06V337.56" stroke="#2E353A" stroke-linecap="round" stroke-linejoin="round"/>
<path d="M182.67 337.56V219.14C182.67 218.558 182.909 218.002 183.33 217.6L192.46 209.01C192.87 208.624 193.416 208.416 193.979 208.433C194.542 208.45 195.074 208.69 195.46 209.1L203.46 217.61C203.827 218.003 204.031 218.522 204.03 219.06V337.56" fill="white"/>
<path d="M182.67 337.56V219.14C182.67 218.558 182.909 218.002 183.33 217.6L192.46 209.01C192.87 208.624 193.416 208.416 193.979 208.433C194.542 208.45 195.074 208.69 195.46 209.1L203.46 217.61C203.827 218.003 204.031 218.522 204.03 219.06V337.56" stroke="#2E353A" stroke-linecap="round" stroke-linejoin="round"/>
<path d="M262.16 336.56V219.14C262.16 218.558 262.399 218.002 262.82 217.6L271.94 209.01C272.795 208.211 274.135 208.251 274.94 209.1L282.94 217.61C283.303 218.006 283.506 218.523 283.51 219.06V336.56" fill="#252525"/>
<path d="M262.16 336.56V219.14C262.16 218.558 262.399 218.002 262.82 217.6L271.94 209.01C272.795 208.211 274.135 208.251 274.94 209.1L282.94 217.61C283.303 218.006 283.506 218.523 283.51 219.06V336.56" stroke="#2E353A" stroke-linecap="round" stroke-linejoin="round"/>
<path d="M260 337.56V219.14C259.999 218.556 260.242 217.998 260.67 217.6L269.79 209.01C270.199 208.624 270.746 208.416 271.309 208.433C271.871 208.45 272.404 208.69 272.79 209.1L280.79 217.61C281.157 218.003 281.361 218.522 281.36 219.06V337.56" fill="white"/>
<path d="M260 337.56V219.14C259.999 218.556 260.242 217.998 260.67 217.6L269.79 209.01C270.199 208.624 270.746 208.416 271.309 208.433C271.871 208.45 272.404 208.69 272.79 209.1L280.79 217.61C281.157 218.003 281.361 218.522 281.36 219.06V337.56" stroke="#2E353A" stroke-linecap="round" stroke-linejoin="round"/>
<path d="M339.49 336.56V219.14C339.49 218.558 339.729 218.002 340.15 217.6L349.28 209.01C349.689 208.624 350.236 208.416 350.799 208.433C351.361 208.45 351.894 208.69 352.28 209.1L360.28 217.61C360.647 218.003 360.851 218.522 360.85 219.06V336.56" fill="#2E353A"/>
<path d="M339.49 336.56V219.14C339.49 218.558 339.729 218.002 340.15 217.6L349.28 209.01C349.689 208.624 350.236 208.416 350.799 208.433C351.361 208.45 351.894 208.69 352.28 209.1L360.28 217.61C360.647 218.003 360.851 218.522 360.85 219.06V336.56" stroke="#2E353A" stroke-linecap="round" stroke-linejoin="round"/>
<path d="M337.33 337.56V219.14C337.329 218.556 337.572 217.998 338 217.6L347.12 209.01C347.975 208.211 349.315 208.251 350.12 209.1L358.12 217.61C358.49 218.002 358.697 218.521 358.7 219.06V337.56" fill="white"/>
<path d="M337.33 337.56V219.14C337.329 218.556 337.572 217.998 338 217.6L347.12 209.01C347.975 208.211 349.315 208.251 350.12 209.1L358.12 217.61C358.49 218.002 358.697 218.521 358.7 219.06V337.56" stroke="#2E353A" stroke-linecap="round" stroke-linejoin="round"/>
<path d="M40.78 209.1V217.66" stroke="#2E353A" stroke-linecap="round" stroke-linejoin="round"/>
<path d="M44.21 213.52V233.78" stroke="#2E353A" stroke-linecap="round" stroke-linejoin="round"/>
<path d="M109.54 215.18V240.81" stroke="#2E353A" stroke-linecap="round" stroke-linejoin="round"/>
<path d="M112.85 211.87V223.03" stroke="#2E353A" stroke-linecap="round" stroke-linejoin="round"/>
<path d="M192.46 209.01V234.2" stroke="#2E353A" stroke-linecap="round" stroke-linejoin="round"/>
<path d="M197.21 211.04V248.26" stroke="#2E353A" stroke-linecap="round" stroke-linejoin="round"/>
<path d="M263.78 215.18V243.29" stroke="#2E353A" stroke-linecap="round" stroke-linejoin="round"/>
<path d="M274.53 211.87V218.9" stroke="#2E353A" stroke-linecap="round" stroke-linejoin="round"/>
<path d="M344.41 211.45V226.34" stroke="#2E353A" stroke-linecap="round" stroke-linejoin="round"/>
<path d="M353.51 213.11V256.11" stroke="#2E353A" stroke-linecap="round" stroke-linejoin="round"/>
<path d="M336.97 275.96H327.87" stroke="#2E353A" stroke-linecap="round" stroke-linejoin="round"/>
<path d="M336.97 282.99H305.13" stroke="#2E353A" stroke-linecap="round" stroke-linejoin="round"/>
<path d="M218.29 282.99H203.82" stroke="#2E353A" stroke-linecap="round" stroke-linejoin="round"/>
<path d="M142.21 282.99H127.74" stroke="#2E353A" stroke-linecap="round" stroke-linejoin="round"/>
<path d="M27.67 279.27H13.2" stroke="#2E353A" stroke-linecap="round" stroke-linejoin="round"/>
<path d="M27.67 285.88H21.88" stroke="#2E353A" stroke-linecap="round" stroke-linejoin="round"/>
<path d="M210.85 279.27H203.82" stroke="#2E353A" stroke-linecap="round" stroke-linejoin="round"/>
<path d="M133.94 287.12H126.91" stroke="#2E353A" stroke-linecap="round" stroke-linejoin="round"/>
<path d="M104.58 287.12H97.55" stroke="#2E353A" stroke-linecap="round" stroke-linejoin="round"/>
<path d="M365.08 282.99H358.88" stroke="#2E353A" stroke-linecap="round" stroke-linejoin="round"/>
<path d="M373.35 282.99H369.63" stroke="#2E353A" stroke-linecap="round" stroke-linejoin="round"/>
<path d="M49 240C49 240 46.5 261.49 43.5 283.48C40.5 305.47 46 327.97 47.5 329.97" stroke="#2E353A" stroke-linecap="round" stroke-linejoin="round"/>
<path d="M39.11 283.5C39.59 279.21 39.99 276.5 39.99 276.5" stroke="#2E353A" stroke-linecap="round" stroke-linejoin="round"/>
<path d="M46.49 327.47C46.49 327.47 37.49 325.47 37.49 309.47C37.49 302.9 37.91 296.17 38.41 290.47" stroke="#2E353A" stroke-linecap="round" stroke-linejoin="round"/>
<path d="M122 214.5C122 214.5 124 216 120.5 233C117 250 117.5 275 122 289" stroke="#2E353A" stroke-linecap="round" stroke-linejoin="round"/>
<path d="M127 246C127 246 122 261 125.5 282" stroke="#2E353A" stroke-linecap="round" stroke-linejoin="round"/>
<path d="M184 255.49C184 255.49 186.5 269.99 189 284.98C191.5 299.97 189.5 320.98 187.5 326.47C185.5 331.96 183.5 336.47 183.5 336.47" stroke="#2E353A" stroke-linecap="round" stroke-linejoin="round"/>
<path d="M193.42 329.12C191.19 335.96 188.42 327.97 188.42 327.97" stroke="#2E353A" stroke-linecap="round" stroke-linejoin="round"/>
<path d="M193.33 278C193.33 278 198.04 302.31 195.38 320.61" stroke="#2E353A" stroke-linecap="round" stroke-linejoin="round"/>
<path d="M183 286C183 286 188 296.5 183.5 306.5" stroke="#2E353A" stroke-linecap="round" stroke-linejoin="round"/>
<path d="M276.3 287.48C276.969 290.537 277.848 293.544 278.93 296.48" stroke="#2E353A" stroke-linecap="round" stroke-linejoin="round"/>
<path d="M280.43 235.5C277.257 245.571 275.244 255.972 274.43 266.5C274.131 271.827 274.43 277.17 275.32 282.43" stroke="#2E353A" stroke-linecap="round" stroke-linejoin="round"/>
<path d="M270.93 281.48C270.93 281.48 275.43 298.48 277.93 304.48C280.43 310.48 279.43 324.97 276.43 331.97" stroke="#2E353A" stroke-linecap="round" stroke-linejoin="round"/>
<path d="M338.41 243C338.41 243 348.41 261 338.91 290.49" stroke="#2E353A" stroke-linecap="round" stroke-linejoin="round"/>
<path d="M347.6 273.74C347.66 279.36 347.16 286.48 344.91 292.48C340.41 304.48 338.41 308.48 338.41 308.48" stroke="#2E353A" stroke-linecap="round" stroke-linejoin="round"/>
<path d="M346.91 264C346.91 264 347.24 266.15 347.44 269.46" stroke="#2E353A" stroke-linecap="round" stroke-linejoin="round"/>
</svg>
