<svg width="84" height="84" viewBox="0 0 84 84" fill="none" xmlns="http://www.w3.org/2000/svg">
<path d="M64.5726 72.1756C63.281 72.4026 61.8043 72.7846 61.2548 73.9753C60.8694 74.8107 61.13 75.8948 61.853 76.4638C62.6575 77.0969 63.8278 77.0666 64.6627 77.659C65.682 78.3824 66.0571 79.9263 67.2533 80.2889C67.7894 80.4515 68.3663 80.324 68.9082 80.1818C70.0543 79.8807 71.1835 79.5147 72.2885 79.0862C72.6353 78.9516 73.0023 78.7927 73.1995 78.4772C74.1846 76.9017 73.2524 72.9206 71.5031 72.125C69.8832 71.3884 66.2259 71.8848 64.5726 72.1756Z" fill="#0059EF"/>
<path d="M73.1987 78.4767C73.0024 78.793 72.6356 78.9518 72.2888 79.0855C71.4855 79.3967 70.6705 79.6757 69.8469 79.9175C70.0262 79.8092 70.1852 79.6757 70.2967 79.4981C71.4196 77.6989 70.356 73.1548 68.3588 72.2467C67.9293 72.0505 67.3746 71.9322 66.7523 71.8679C68.4435 71.6904 70.4237 71.6346 71.5026 72.125C73.2528 72.9199 74.1847 76.9023 73.1987 78.4767Z" fill="#0593FC"/>
<path d="M37.703 7.8873L34.973 8.57997C34.3308 8.74289 33.8159 9.22146 33.6065 9.84982L32.8207 12.2074C32.556 13.0015 31.813 13.537 30.9759 13.537C30.4928 13.537 30.027 13.3571 29.6693 13.0325L28.229 11.7257C27.4781 11.0444 26.3295 11.0544 25.5906 11.749L18.8612 18.0746C17.9618 18.92 17.1643 19.8673 16.4845 20.8975L15.9695 21.6777C14.4143 24.0342 12.259 25.9332 9.72557 27.1791L3.97272 30.0083C2.47828 30.7433 1.28915 31.9795 0.612885 33.5014C-0.214483 35.3628 -0.203655 37.4896 0.642252 39.3425L6.92142 53.0967C7.30893 53.9455 7.32337 54.9179 6.96128 55.778L6.83512 56.0775C6.30848 57.3282 6.59165 58.7732 7.55109 59.7328C8.67606 60.8578 10.4388 61.0324 11.7626 60.1499L16.4154 57.0481C16.8756 56.7413 17.4047 56.5538 17.9553 56.5021L22.8183 56.0462C23.1835 56.0119 23.5316 55.8751 23.8223 55.6515L28.1147 52.3495C28.3449 52.1725 28.6116 52.0493 28.8956 51.9889L36.8966 50.2866C37.3865 50.1824 37.8977 50.2712 38.3238 50.5345L47.3723 56.1282C48.0125 56.5239 48.8235 56.5148 49.4545 56.1046C50.8587 55.1919 52.7432 55.9443 53.1327 57.5731L54.231 62.1656C54.3932 62.8441 54.84 63.4198 55.457 63.7453L56.9995 64.5594C59.9538 66.1186 63.3028 66.7701 66.6261 66.4322C70.7161 66.0163 74.4171 63.8249 76.7485 60.4388L81.0854 54.1401C81.2212 53.9427 81.3195 53.7221 81.3751 53.4891L83.8429 43.1548C84.2119 41.6097 83.9238 39.9809 83.0474 38.6559L76.8429 29.2769C76.2879 28.4379 75.6498 27.6568 74.9384 26.9456L72.5225 24.5296C71.2347 23.2419 70.4376 21.5445 70.2687 19.7311L69.8374 15.0946C69.7806 14.4836 69.4387 13.9355 68.9152 13.6155L66.8664 12.3636C66.451 12.1098 66.1324 11.7241 65.9618 11.2681L64.4076 7.11818C64.0888 6.26686 63.2752 5.70281 62.3662 5.70281C61.2305 5.70281 60.285 6.5748 60.1935 7.70667L59.7924 12.6594C59.7768 12.852 59.7325 13.0413 59.6611 13.2208L58.6638 15.729C57.923 17.5918 55.6542 18.2985 53.9867 17.1859L49.8224 14.4075C48.5572 13.5632 48.0757 11.9357 48.6776 10.539L49.6846 8.20296C49.883 7.7426 49.9731 7.24287 49.9478 6.74231C49.8597 5.00144 48.4227 3.63513 46.6795 3.63513H43.0916C41.8093 3.63513 40.6451 4.38408 40.1136 5.55122L39.8763 6.07195C39.4647 6.97544 38.6652 7.64318 37.703 7.8873Z" fill="#0059EF"/>
<path d="M83.8424 43.155L81.375 53.4891C81.3193 53.7226 81.2212 53.9424 81.0858 54.1403L76.7483 60.4396C75.5815 62.1324 74.0748 63.5276 72.3464 64.5489C70.6181 65.5736 68.6717 66.2248 66.6255 66.4328C66.0303 66.4937 65.4333 66.5224 64.8397 66.5191C66.2349 66.1928 67.5657 65.655 68.7851 64.9328C70.5116 63.9097 72.02 62.5163 73.1869 60.8217L77.5229 54.5242C77.658 54.3263 77.7562 54.1065 77.8121 53.873L80.2811 43.5387C80.6497 41.9931 80.3623 40.3646 79.4846 39.0388L73.28 29.66C72.7253 28.8212 72.0878 28.0399 71.3759 27.3297L68.9611 24.913C67.6725 23.6261 66.876 21.9283 66.7069 20.1137L66.2757 15.4785C66.2181 14.8663 65.8766 14.3184 65.354 13.9988L63.3042 12.7476C62.8882 12.494 62.5704 12.1085 62.3994 11.6519L60.8453 7.50191C60.7539 7.255 60.6203 7.03351 60.4512 6.84238C60.5662 6.63107 60.7133 6.44157 60.8892 6.28096C61.2782 5.92068 61.7991 5.70264 62.3655 5.70264C63.2753 5.70264 64.0888 6.2675 64.4084 7.118L65.9625 11.268C66.1333 11.7246 66.4513 12.1101 66.8673 12.3637L68.9152 13.6152C69.4393 13.9364 69.7811 14.4844 69.8369 15.0949L70.268 19.7318C70.4372 21.5447 71.2353 23.2426 72.5222 24.5293L74.9389 26.9459C75.6491 27.6578 76.2883 28.4374 76.843 29.2779L83.0475 38.6567C83.9236 39.9809 84.211 41.6094 83.8424 43.155Z" fill="#0593FC"/>
</svg>
