<svg width="80" height="80" viewBox="0 0 80 80" fill="none" xmlns="http://www.w3.org/2000/svg">
<path d="M6.34899 6.34906C3.48978 6.34906 1.17212 8.66687 1.17212 11.5259V58.1202C1.17212 60.9794 3.48993 63.297 6.34899 63.297H73.6509C76.5099 63.297 78.8277 60.9792 78.8277 58.1202V11.5259C78.8277 8.66672 76.5099 6.34906 73.6509 6.34906H6.34899Z" fill="#5B7FA0"/>
<path d="M73.6509 6.34906H70.0571C72.9163 6.34906 75.234 8.66687 75.234 11.5259V58.1202C75.234 60.9794 72.9162 63.297 70.0571 63.297H73.6509C76.5101 63.297 78.8278 60.9792 78.8278 58.1202V11.5259C78.8278 8.66672 76.5099 6.34906 73.6509 6.34906Z" fill="#4A6F99"/>
<path d="M51.0013 73.6505L49.707 63.2969V62.0312H30.2928V63.2969L28.9985 73.6505V75.1042H51.0013V73.6505Z" fill="#BEC8F7"/>
<path d="M6.34888 52.943V12.8205C6.34888 12.1056 6.92825 11.5262 7.6431 11.5262H72.3569C73.0717 11.5262 73.6511 12.1058 73.6511 12.8205V52.9428L6.34888 52.943Z" fill="#0059EF"/>
<path d="M72.3568 11.5262H68.7627C69.4775 11.5262 70.0569 12.1058 70.0569 12.8205V52.9428H73.651V12.8205C73.651 12.1058 73.0716 11.5262 72.3568 11.5262Z" fill="#0059EF"/>
<path d="M56.8698 73.6512H23.1302C22.4399 73.6512 21.8802 74.2109 21.8802 74.9012V77.5781C21.8802 78.2684 22.4399 78.8281 23.1302 78.8281H56.8698C57.5601 78.8281 58.1198 78.2684 58.1198 77.5781V74.9012C58.1198 74.2109 57.5601 73.6512 56.8698 73.6512Z" fill="#E9EFFF"/>
<path d="M56.8698 73.6512H53.276C53.9663 73.6512 54.526 74.2109 54.526 74.9012V77.5781C54.526 78.2684 53.9663 78.8281 53.276 78.8281H56.8698C57.5601 78.8281 58.1198 78.2684 58.1198 77.5781V74.9012C58.1198 74.2109 57.5601 73.6512 56.8698 73.6512Z" fill="#D3DCFB"/>
<path d="M78.8278 58.1201V52.9431H1.172V58.1201C1.172 60.9794 3.48981 63.297 6.34887 63.297H73.6507C76.51 63.297 78.8278 60.9792 78.8278 58.1201Z" fill="#E9EFFF"/>
<path d="M75.234 58.1201C75.234 60.9794 72.9162 63.297 70.0571 63.297H73.6509C76.5101 63.297 78.8278 60.9792 78.8278 58.1201V52.9431H75.234V58.1201Z" fill="#D3DCFB"/>
<path d="M65.8852 52.943H14.1146V3.67188C14.1146 2.29109 15.2338 1.17188 16.6146 1.17188H63.3854C64.7662 1.17188 65.8854 2.29109 65.8854 3.67188V52.943H65.8852Z" fill="#E9EFFF"/>
<path d="M63.3853 1.17188H59.7915C61.1723 1.17188 62.2915 2.29109 62.2915 3.67188V52.943H65.8853V3.67188C65.8853 2.29125 64.766 1.17188 63.3853 1.17188Z" fill="#D3DCFB"/>
<path d="M55.5312 19.2917C58.3903 19.2917 60.7082 16.9739 60.7082 14.1147C60.7082 11.2555 58.3903 8.93768 55.5312 8.93768C52.672 8.93768 50.3541 11.2555 50.3541 14.1147C50.3541 16.9739 52.672 19.2917 55.5312 19.2917Z" fill="#0059EF"/>
<path d="M47.7655 37.4114V43.0572H19.2916V37.4114C19.2916 31.693 23.9274 27.0572 29.6458 27.0572H37.4113C43.1298 27.0573 47.7655 31.693 47.7655 37.4114Z" fill="#0059EF"/>
<path d="M37.4114 27.0574H33.8176C39.5361 27.0574 44.1718 31.6932 44.1718 37.4116V43.0574H47.7656V37.4116C47.7656 31.693 43.1298 27.0574 37.4114 27.0574Z" fill="#0059EF"/>
<path d="M36.117 6.34912C38.9763 6.34912 41.2941 8.66693 41.2941 11.5262V19.2918C41.2941 23.5807 37.8173 27.0574 33.5284 27.0574C29.2395 27.0574 25.7628 23.5807 25.7628 19.2918C25.7628 18.7938 25.7628 11.5262 25.7628 11.5262C25.7628 8.66693 28.0806 6.34912 30.9399 6.34912H36.117Z" fill="#FFC2A3"/>
<path d="M41.2942 11.5262C41.2942 8.66693 38.9764 6.34912 36.1172 6.34912H32.5234C35.3826 6.34912 37.7004 8.66693 37.7004 11.5262V19.2918C37.7004 22.9618 35.1537 26.0351 31.7317 26.8462C32.3087 26.9829 32.9098 27.0574 33.5286 27.0574C37.8173 27.0574 41.2942 23.5807 41.2942 19.2918C41.2942 18.7938 41.2942 11.5262 41.2942 11.5262Z" fill="#FFB294"/>
<path d="M29.6459 27.0574L32.5287 30.9011C33.0287 31.5678 34.0287 31.5678 34.5287 30.9011L37.4115 27.0574H29.6459Z" fill="#E9EFFF"/>
<path d="M36.1171 6.34894H30.9401C28.0809 6.34894 25.7631 8.66675 25.7631 11.526V15.4088H41.2943C41.2943 13.4652 41.2943 11.526 41.2943 11.526C41.2942 8.66691 38.9763 6.34894 36.1171 6.34894Z" fill="#FFC55E"/>
<path d="M37.7004 11.5261V15.4089H41.2941C41.2941 15.0444 41.2941 14.6803 41.2941 14.3289C41.2941 13.9399 41.2941 13.5671 41.2941 13.2271C41.2941 12.236 41.2941 11.5263 41.2941 11.5263C41.2941 8.66706 38.9763 6.34924 36.1171 6.34924H32.5233C35.3825 6.34893 37.7004 8.6669 37.7004 11.5261Z" fill="#FFA438"/>
<path d="M14.1146 42.5886H65.8854V52.9432H14.1146V42.5886Z" fill="#BEC8F7"/>
<path d="M62.2915 42.5886H65.8853V52.9428H62.2915V42.5886Z" fill="#A2B6F4"/>
<path d="M14.1146 42.5886H24.4688V52.943H14.1146V42.5886Z" fill="#0059EF"/>
<path d="M80 52.943C80 52.9409 79.9997 52.9389 79.9997 52.9369V29.4009C79.9997 28.7536 79.475 28.2291 78.8278 28.2291C78.1806 28.2291 77.6559 28.7536 77.6559 29.4009V51.7711H74.823V12.8206C74.823 11.4608 73.7166 10.3545 72.3569 10.3545H67.0572V7.52094H73.6508C75.8592 7.52094 77.6558 9.3175 77.6558 11.5259V24.7134C77.6558 25.3608 78.1805 25.8853 78.8277 25.8853C79.4748 25.8853 79.9995 25.3608 79.9995 24.7134V11.5259C79.9995 8.02531 77.1516 5.17719 73.6508 5.17719H67.0572V3.67188C67.0572 1.64719 65.41 0 63.3853 0H16.6147C14.59 0 12.9428 1.64719 12.9428 3.67188V5.17719H6.34906C2.84828 5.17719 0.0003125 8.02531 0.0003125 11.5259V52.9384C0.0003125 52.94 0 52.9414 0 52.943C0 52.9445 0.00015625 52.9459 0.0003125 52.9475V58.1202C0.0003125 61.6209 2.84844 64.4691 6.34906 64.4691H11.7708C12.418 64.4691 12.9427 63.9445 12.9427 63.2972C12.9427 62.6498 12.418 62.1253 11.7708 62.1253H6.34906C4.14062 62.1253 2.34406 60.3286 2.34406 58.1202V54.1148H14.1147H65.8855H77.6559V58.1202C77.6559 60.3286 75.8594 62.1253 73.6509 62.1253H49.6844C49.683 62.1253 49.6816 62.1253 49.6802 62.1253H42.5916C42.5905 62.1253 42.5895 62.1252 42.5886 62.1252C42.5877 62.1252 42.5866 62.1253 42.5856 62.1253H37.4145C37.4134 62.1253 37.4125 62.1252 37.4116 62.1252C37.4106 62.1252 37.4095 62.1253 37.4086 62.1253H30.3189C30.3184 62.1253 30.318 62.1253 30.3175 62.1253H16.4583C15.8111 62.1253 15.2864 62.6498 15.2864 63.2972C15.2864 63.9445 15.8111 64.4691 16.4583 64.4691H28.9653L27.9639 72.4795H21.8803C21.2331 72.4795 20.7084 73.0041 20.7084 73.6514V78.8281C20.7084 79.4755 21.2331 80 21.8803 80H58.1198C58.767 80 59.2917 79.4755 59.2917 78.8281V73.6513C59.2917 73.0039 58.767 72.4794 58.1198 72.4794H52.0359L51.0345 64.4689H73.6508C77.1516 64.4689 79.9995 61.6208 79.9995 58.12V52.9489C79.9997 52.947 80 52.945 80 52.943ZM72.3569 12.6983C72.4244 12.6983 72.4792 12.7533 72.4792 12.8206V51.7711H67.0572V12.6983H72.3569ZM15.2866 3.67188C15.2866 2.93953 15.8823 2.34375 16.6147 2.34375H63.3855C64.1178 2.34375 64.7136 2.93953 64.7136 3.67188V41.4166H48.9375V37.4114C48.9375 31.7213 44.7917 26.9839 39.3625 26.0539C41.2611 24.4137 42.4661 21.9914 42.4661 19.2916V11.5259C42.4661 8.02516 39.618 5.17703 36.1172 5.17703H30.9402C27.4394 5.17703 24.5913 8.02516 24.5913 11.5259V15.4081V15.4089V15.4097V19.2917C24.5913 21.9916 25.7962 24.4139 27.6948 26.0541C22.2658 26.9841 18.1198 31.7213 18.1198 37.4116V41.4167H15.2866V3.67188ZM20.4636 41.4166V37.4114C20.4636 32.5403 24.2767 28.5448 29.0747 28.2488L32.3569 32.625V41.4167H20.4636V41.4166ZM26.9348 11.5261C26.9348 9.31766 28.7316 7.52094 30.94 7.52094H36.117C38.3255 7.52094 40.1222 9.31766 40.1222 11.5261V14.2372H32.1117V12.8206C32.1117 12.1733 31.587 11.6488 30.9398 11.6488C30.2927 11.6488 29.768 12.1733 29.768 12.8206V14.2372H26.9347L26.9348 11.5261ZM40.1223 16.5808V19.2917C40.1223 22.9277 37.1644 25.8855 33.5286 25.8855C29.8928 25.8855 26.9348 22.9275 26.9348 19.2917V16.5808H40.1223ZM33.5286 30.2812L31.9895 28.2292H35.0675L33.5286 30.2812ZM34.7005 32.625L37.9827 28.2488C42.7805 28.5448 46.5938 32.5403 46.5938 37.4114V41.4166H34.7006V32.625H34.7005ZM12.9428 51.7711H7.52078V12.8206C7.52078 12.7531 7.57578 12.6983 7.64313 12.6983H12.9428V51.7711ZM2.34406 11.5259C2.34406 9.3175 4.14062 7.52094 6.34906 7.52094H12.9428V10.3545H7.64313C6.28328 10.3545 5.17703 11.4608 5.17703 12.8206V51.7711H2.34406V11.5259ZM15.2866 43.7603H19.2919H23.2969V51.7711H15.2866V43.7603ZM25.6406 51.7711V43.7603H47.7656H64.7136V51.7711H25.6406ZM38.5834 64.4691H41.4167V67.3022H38.5834V64.4691ZM56.948 77.6562H23.0522V74.8231H56.948V77.6562ZM49.6741 72.4794H30.3259L31.3273 64.4689H36.2397V68.4739C36.2397 69.1213 36.7644 69.6458 37.4116 69.6458H42.5886C43.2358 69.6458 43.7605 69.1213 43.7605 68.4739V64.4689H48.6727L49.6741 72.4794Z" fill="black"/>
<path d="M19.9388 46.5938H18.6445C17.9973 46.5938 17.4727 47.1183 17.4727 47.7656C17.4727 48.413 17.9973 48.9375 18.6445 48.9375H19.9388C20.5859 48.9375 21.1106 48.413 21.1106 47.7656C21.1106 47.1183 20.5861 46.5938 19.9388 46.5938Z" fill="black"/>
<path d="M60.7083 46.5938H29.6458C28.9986 46.5938 28.4739 47.1183 28.4739 47.7656C28.4739 48.413 28.9986 48.9375 29.6458 48.9375H60.7083C61.3554 48.9375 61.8801 48.413 61.8801 47.7656C61.8801 47.1183 61.3554 46.5938 60.7083 46.5938Z" fill="black"/>
<path d="M55.5313 20.4636C59.0321 20.4636 61.8802 17.6156 61.8802 14.1147C61.8802 10.6137 59.0321 7.76562 55.5313 7.76562C52.0305 7.76562 49.1824 10.6139 49.1824 14.1147C49.1824 17.6155 52.0305 20.4636 55.5313 20.4636ZM55.5313 10.1094C57.7397 10.1094 59.5364 11.9061 59.5364 14.1147C59.5364 16.3231 57.7397 18.1198 55.5313 18.1198C53.3228 18.1198 51.5261 16.3231 51.5261 14.1147C51.5261 11.9061 53.3228 10.1094 55.5313 10.1094Z" fill="black"/>
</svg>
