<svg width="91" height="91" viewBox="0 0 91 91" fill="none" xmlns="http://www.w3.org/2000/svg">
<path d="M45.5 22.276C45.1229 22.276 44.7612 22.1262 44.4946 21.8595C44.2279 21.5929 44.0781 21.2312 44.0781 20.8541V19.9062C44.0769 18.7753 43.627 17.6911 42.8274 16.8914C42.0277 16.0917 40.9434 15.6419 39.8125 15.6406C39.4354 15.6406 39.0737 15.4908 38.8071 15.2242C38.5404 14.9575 38.3906 14.5959 38.3906 14.2187C38.3906 13.8416 38.5404 13.48 38.8071 13.2133C39.0737 12.9467 39.4354 12.7969 39.8125 12.7969C41.6974 12.799 43.5044 13.5487 44.8372 14.8815C46.1701 16.2143 46.9198 18.0214 46.9219 19.9062V20.8541C46.9219 21.2312 46.7721 21.5929 46.5054 21.8595C46.2388 22.1262 45.8771 22.276 45.5 22.276Z" fill="#353744"/>
<path d="M68.9609 41.2344H40.5234C42.2204 41.2344 43.8479 41.9085 45.0478 43.1084C46.2478 44.3084 46.9219 45.9358 46.9219 47.6328C46.9219 49.3298 46.2478 50.9573 45.0478 52.1572C43.8479 53.3571 42.2204 54.0312 40.5234 54.0312H68.9609C70.6579 54.0312 72.2854 53.3571 73.4853 52.1572C74.6853 50.9573 75.3594 49.3298 75.3594 47.6328C75.3594 45.9358 74.6853 44.3084 73.4853 43.1084C72.2854 41.9085 70.6579 41.2344 68.9609 41.2344Z" fill="#0059EF"/>
<path d="M14.2188 42.6562H40.5234C41.8433 42.6562 43.1091 43.1806 44.0424 44.1139C44.9757 45.0471 45.5 46.3129 45.5 47.6328C45.5 48.9527 44.9757 50.2185 44.0424 51.1518C43.1091 52.0851 41.8433 52.6094 40.5234 52.6094H14.2188V42.6562Z" fill="#D7E6F0"/>
<path d="M40.5234 54.0312H11.375C10.9979 54.0312 10.6362 53.8814 10.3696 53.6148C10.1029 53.3481 9.95312 52.9865 9.95312 52.6094C9.95312 52.2323 10.1029 51.8706 10.3696 51.604C10.6362 51.3373 10.9979 51.1875 11.375 51.1875H40.5234C41.4662 51.1875 42.3703 50.813 43.037 50.1464C43.7036 49.4797 44.0781 48.5756 44.0781 47.6328C44.0781 46.6901 43.7036 45.7859 43.037 45.1193C42.3703 44.4526 41.4662 44.0781 40.5234 44.0781H11.375C10.9979 44.0781 10.6362 43.9283 10.3696 43.6617C10.1029 43.395 9.95312 43.0334 9.95312 42.6562C9.95312 42.2791 10.1029 41.9175 10.3696 41.6508C10.6362 41.3842 10.9979 41.2344 11.375 41.2344H40.5234C42.2204 41.2344 43.8479 41.9085 45.0478 43.1084C46.2478 44.3084 46.9219 45.9358 46.9219 47.6328C46.9219 49.3298 46.2478 50.9573 45.0478 52.1572C43.8479 53.3571 42.2204 54.0312 40.5234 54.0312Z" fill="#6478B9"/>
<path d="M59.2446 41.2344H59.4817C61.1787 41.2344 62.8062 41.9085 64.0061 43.1084C65.206 44.3084 65.8802 45.9358 65.8802 47.6328C65.8802 48.4731 65.7147 49.3051 65.3931 50.0814C65.0716 50.8577 64.6002 51.563 64.0061 52.1572C63.412 52.7513 62.7066 53.2226 61.9303 53.5442C61.154 53.8658 60.322 54.0312 59.4817 54.0312H65.1692C66.0095 54.0312 66.8415 53.8658 67.6178 53.5442C68.3941 53.2226 69.0994 52.7513 69.6936 52.1572C70.2877 51.563 70.7591 50.8577 71.0806 50.0814C71.4022 49.3051 71.5677 48.4731 71.5677 47.6328C71.5677 45.9358 70.8935 44.3084 69.6936 43.1084C68.4937 41.9085 66.8662 41.2344 65.1692 41.2344H59.2446Z" fill="#353744"/>
<path d="M71.0938 65.4062H12.7969C10.5342 65.4063 8.36429 66.3051 6.76437 67.905C5.16445 69.5049 4.26563 71.6749 4.26562 73.9375C4.26563 76.2001 5.16445 78.3701 6.76437 79.97C8.36429 81.5699 10.5342 82.4688 12.7969 82.4688H71.0938V65.4062Z" fill="#A5C3DC"/>
<path d="M48.3438 65.4062H12.7969C10.5342 65.4063 8.36429 66.3051 6.76437 67.905C5.16445 69.5049 4.26563 71.6749 4.26562 73.9375C4.26563 76.2001 5.16445 78.3701 6.76437 79.97C8.36429 81.5699 10.5342 82.4688 12.7969 82.4688H48.3438V65.4062Z" fill="#D7E6F0"/>
<path d="M73.9375 83.8906H12.7969C10.1571 83.8906 7.62553 82.842 5.75895 80.9754C3.89238 79.1089 2.84375 76.5772 2.84375 73.9375C2.84375 71.2978 3.89238 68.7661 5.75895 66.8996C7.62553 65.033 10.1571 63.9844 12.7969 63.9844H73.9375C74.3146 63.9844 74.6763 64.1342 74.9429 64.4008C75.2096 64.6675 75.3594 65.0291 75.3594 65.4062C75.3594 65.7834 75.2096 66.145 74.9429 66.4117C74.6763 66.6783 74.3146 66.8281 73.9375 66.8281H12.7969C10.9114 66.8281 9.10305 67.5771 7.76979 68.9104C6.43652 70.2437 5.6875 72.052 5.6875 73.9375C5.6875 75.823 6.43652 77.6313 7.76979 78.9646C9.10305 80.2979 10.9114 81.0469 12.7969 81.0469H73.9375C74.3146 81.0469 74.6763 81.1967 74.9429 81.4633C75.2096 81.73 75.3594 82.0916 75.3594 82.4688C75.3594 82.8459 75.2096 83.2075 74.9429 83.4742C74.6763 83.7408 74.3146 83.8906 73.9375 83.8906Z" fill="#4B55A5"/>
<path d="M51.1875 83.8906H12.7969C10.1571 83.8906 7.62553 82.842 5.75895 80.9754C3.89238 79.1089 2.84375 76.5772 2.84375 73.9375C2.84375 71.2978 3.89238 68.7661 5.75895 66.8996C7.62553 65.033 10.1571 63.9844 12.7969 63.9844H51.1875C51.5646 63.9844 51.9263 64.1342 52.1929 64.4008C52.4596 64.6675 52.6094 65.0291 52.6094 65.4062C52.6094 65.7834 52.4596 66.145 52.1929 66.4117C51.9263 66.6783 51.5646 66.8281 51.1875 66.8281H12.7969C10.9114 66.8281 9.10305 67.5771 7.76979 68.9104C6.43652 70.2437 5.6875 72.052 5.6875 73.9375C5.6875 75.823 6.43652 77.6313 7.76979 78.9646C9.10305 80.2979 10.9114 81.0469 12.7969 81.0469H51.1875C51.5646 81.0469 51.9263 81.1967 52.1929 81.4633C52.4596 81.73 52.6094 82.0916 52.6094 82.4688C52.6094 82.8459 52.4596 83.2075 52.1929 83.4742C51.9263 83.7408 51.5646 83.8906 51.1875 83.8906Z" fill="#6478B9"/>
<path d="M29.529 83.8906C29.7444 83.8906 29.955 83.8268 30.1343 83.7074L34.125 81.0469L38.1157 83.7074C38.295 83.8268 38.5056 83.8906 38.721 83.8906C38.8644 83.8906 39.0063 83.8624 39.1387 83.8076C39.2712 83.7527 39.3915 83.6723 39.4929 83.571C39.5942 83.4696 39.6746 83.3493 39.7295 83.2169C39.7843 83.0844 39.8125 82.9425 39.8125 82.7992V71.0938H28.4375V82.7992C28.4375 82.9425 28.4657 83.0844 28.5205 83.2169C28.5754 83.3493 28.6558 83.4696 28.7571 83.571C28.8585 83.6723 28.9788 83.7527 29.1113 83.8076C29.2437 83.8624 29.3856 83.8906 29.529 83.8906Z" fill="#F04B37"/>
<path d="M86.7344 54.0312H18.4844C17.6991 54.0312 17.0625 54.6678 17.0625 55.4531V62.5625C17.0625 63.3478 17.6991 63.9844 18.4844 63.9844H86.7344C87.5197 63.9844 88.1562 63.3478 88.1562 62.5625V55.4531C88.1562 54.6678 87.5197 54.0312 86.7344 54.0312Z" fill="#FABE19"/>
<path d="M22.75 54.0312H28.4375V63.9844H22.75V54.0312Z" fill="#F5871E"/>
<path d="M76.7812 54.0312H82.4688V63.9844H76.7812V54.0312Z" fill="#F5871E"/>
<path d="M51.1875 18.4844C49.0882 18.4817 47.0622 19.2562 45.5 20.6584C44.2728 19.56 42.7538 18.8404 41.1265 18.5865C39.4992 18.3325 37.8332 18.5551 36.3296 19.2273C34.8261 19.8996 33.5493 20.9927 32.6534 22.3748C31.7576 23.7568 31.281 25.3686 31.2813 27.0156C31.2813 35.0729 36.9688 41.2344 41.2344 41.2344H49.7656C54.0312 41.2344 59.7188 35.0729 59.7188 27.0156C59.7188 24.753 58.8199 22.583 57.22 20.9831C55.6201 19.3832 53.4501 18.4844 51.1875 18.4844Z" fill="#D7322D"/>
<path d="M38.3906 27.0156C39.9612 27.0156 41.2344 25.7424 41.2344 24.1719C41.2344 22.6013 39.9612 21.3281 38.3906 21.3281C36.8201 21.3281 35.5469 22.6013 35.5469 24.1719C35.5469 25.7424 36.8201 27.0156 38.3906 27.0156Z" fill="#F04B37"/>
<path d="M52.6094 7.10938C52.9865 7.10938 53.3481 7.25918 53.6148 7.52583C53.8814 7.79249 54.0312 8.15415 54.0312 8.53125C54.0312 10.4168 53.2822 12.2251 51.949 13.5583C50.6157 14.8916 48.8074 15.6406 46.9219 15.6406H45.5V14.2188C45.5 12.3332 46.249 10.5249 47.5823 9.19166C48.9156 7.8584 50.7239 7.10938 52.6094 7.10938Z" fill="#6EA5D7"/>
</svg>
