<svg width="80" height="80" viewBox="0 0 80 80" fill="none" xmlns="http://www.w3.org/2000/svg">
<path d="M76.3502 22.7524V68.946C76.3493 70.3721 75.7824 71.7396 74.7739 72.7481C73.7655 73.7566 72.398 74.3235 70.9718 74.3243H11.5913C10.1651 74.3235 8.79758 73.7566 7.78913 72.7481C6.78067 71.7396 6.21375 70.3721 6.21289 68.946V22.7524H76.3502Z" fill="#EEEFEE"/>
<path d="M33.0713 27.4292H47.7816V36.1232H33.0713V27.4292Z" fill="#FCD462"/>
<path d="M18.4832 43.0562H29.8215V51.7503H18.4832V43.0562Z" fill="#27CCBC"/>
<path d="M52.7427 59.4303H64.0811V68.1244H52.7427V59.4303Z" fill="#FCD462"/>
<path d="M52.7688 47.7584L58.3996 42.1276L64.0303 47.7584L58.3996 53.3892L52.7688 47.7584Z" fill="#89C5CD"/>
<path d="M24.1524 68.1244C26.5532 68.1244 28.4995 66.1781 28.4995 63.7773C28.4995 61.3765 26.5532 59.4303 24.1524 59.4303C21.7517 59.4303 19.8054 61.3765 19.8054 63.7773C19.8054 66.1781 21.7517 68.1244 24.1524 68.1244Z" fill="#FE7058"/>
<path d="M47.7785 27.4313V36.1211H45.4995V29.3254H33.0725V27.4313H47.7785Z" fill="#F7BE56"/>
<path d="M29.8217 43.0594V51.7492H27.8066V44.9632H18.479V43.0594H29.8217Z" fill="#21B3A9"/>
<path d="M64.0855 59.4259V68.1264H62.0693V61.3405H52.7417V59.4259H64.0855Z" fill="#F7BE56"/>
<path d="M64.0443 47.7589L58.413 53.3892L58.3827 53.3589L62.4951 49.2476L56.894 43.6465L58.413 42.1276L64.0443 47.7589Z" fill="#6EAAAD"/>
<path d="M28.4952 63.7838C28.4955 64.5527 28.2912 65.3078 27.9033 65.9716C27.5153 66.6354 26.9577 67.184 26.2876 67.5611C26.7187 66.8756 26.9469 66.0822 26.946 65.2725C26.9471 64.7011 26.8356 64.1351 26.6177 63.6069C26.3999 63.0787 26.0801 62.5987 25.6765 62.1942C25.273 61.7897 24.7936 61.4688 24.2659 61.2498C23.7382 61.0308 23.1725 60.918 22.6011 60.9179C21.856 60.9158 21.1231 61.1077 20.4746 61.4746C20.9737 60.6735 21.7205 60.0571 22.6016 59.7187C23.4827 59.3804 24.4501 59.3386 25.3571 59.5997C26.2641 59.8608 27.0612 60.4106 27.6275 61.1657C28.1938 61.9208 28.4984 62.84 28.4952 63.7838Z" fill="#EA6453"/>
<path d="M33.0713 32.3135H26.3416C26.1982 32.3135 26.0607 32.2566 25.9593 32.1552C25.858 32.0538 25.801 31.9163 25.801 31.773C25.801 31.6296 25.858 31.4921 25.9593 31.3907C26.0607 31.2894 26.1982 31.2324 26.3416 31.2324H33.0713C33.2147 31.2324 33.3521 31.2894 33.4535 31.3907C33.5549 31.4921 33.6118 31.6296 33.6118 31.773C33.6118 31.9163 33.5549 32.0538 33.4535 32.1552C33.3521 32.2566 33.2147 32.3135 33.0713 32.3135Z" fill="#323C6B"/>
<path d="M24.1558 43.5946C24.0124 43.5946 23.8749 43.5377 23.7736 43.4363C23.6722 43.3349 23.6152 43.1974 23.6152 43.0541V33.9589C23.6152 33.8156 23.6722 33.6781 23.7736 33.5767C23.8749 33.4753 24.0124 33.4184 24.1558 33.4184C24.2991 33.4184 24.4366 33.4753 24.538 33.5767C24.6394 33.6781 24.6963 33.8156 24.6963 33.9589V43.0541C24.6963 43.1974 24.6394 43.3349 24.538 43.4363C24.4366 43.5377 24.2991 43.5946 24.1558 43.5946Z" fill="#323C6B"/>
<path d="M40.8161 49.9449C42.0233 49.9449 43.002 48.9662 43.002 47.7589C43.002 46.5517 42.0233 45.573 40.8161 45.573C39.6088 45.573 38.6301 46.5517 38.6301 47.7589C38.6301 48.9662 39.6088 49.9449 40.8161 49.9449Z" fill="#FE7058"/>
<path d="M40.8163 50.4865C40.2771 50.4865 39.7499 50.3266 39.3016 50.027C38.8532 49.7274 38.5037 49.3016 38.2974 48.8034C38.091 48.3052 38.037 47.757 38.1422 47.2281C38.2474 46.6992 38.5071 46.2134 38.8884 45.8321C39.2697 45.4508 39.7555 45.1911 40.2844 45.0859C40.8133 44.9807 41.3615 45.0347 41.8597 45.2411C42.3579 45.4474 42.7837 45.7969 43.0833 46.2452C43.3829 46.6936 43.5428 47.2207 43.5428 47.76C43.542 48.4828 43.2544 49.1758 42.7433 49.687C42.2322 50.1981 41.5392 50.4856 40.8163 50.4865ZM40.8163 46.1135C40.4909 46.1135 40.1728 46.21 39.9022 46.3908C39.6316 46.5716 39.4207 46.8286 39.2962 47.1292C39.1716 47.4299 39.1391 47.7607 39.2025 48.0799C39.266 48.3991 39.4227 48.6923 39.6529 48.9224C39.883 49.1525 40.1762 49.3092 40.4953 49.3727C40.8145 49.4362 41.1453 49.4036 41.446 49.2791C41.7467 49.1545 42.0036 48.9436 42.1844 48.6731C42.3652 48.4025 42.4617 48.0843 42.4617 47.7589C42.4614 47.3225 42.288 46.9041 41.9796 46.5954C41.6711 46.2867 41.2527 46.113 40.8163 46.1124V46.1135Z" fill="#323C6B"/>
<path d="M52.7762 48.2995H43.0032C42.8598 48.2995 42.7223 48.2425 42.621 48.1411C42.5196 48.0398 42.4626 47.9023 42.4626 47.7589C42.4626 47.6156 42.5196 47.4781 42.621 47.3767C42.7223 47.2753 42.8598 47.2184 43.0032 47.2184H52.7762C52.9195 47.2184 53.057 47.2753 53.1584 47.3767C53.2598 47.4781 53.3167 47.6156 53.3167 47.7589C53.3167 47.9023 53.2598 48.0398 53.1584 48.1411C53.057 48.2425 52.9195 48.2995 52.7762 48.2995Z" fill="#323C6B"/>
<path d="M40.8162 46.1124C40.6728 46.1124 40.5353 46.0555 40.434 45.9541C40.3326 45.8527 40.2756 45.7152 40.2756 45.5719V36.1232C40.2756 35.9799 40.3326 35.8424 40.434 35.741C40.5353 35.6397 40.6728 35.5827 40.8162 35.5827C40.9595 35.5827 41.097 35.6397 41.1984 35.741C41.2998 35.8424 41.3567 35.9799 41.3567 36.1232V45.5719C41.3567 45.7152 41.2998 45.8527 41.1984 45.9541C41.097 46.0555 40.9595 46.1124 40.8162 46.1124Z" fill="#323C6B"/>
<path d="M24.1524 59.9708C24.009 59.9708 23.8715 59.9139 23.7701 59.8125C23.6688 59.7111 23.6118 59.5736 23.6118 59.4303V51.7546C23.6118 51.6112 23.6688 51.4737 23.7701 51.3724C23.8715 51.271 24.009 51.2141 24.1524 51.2141C24.2957 51.2141 24.4332 51.271 24.5346 51.3724C24.6359 51.4737 24.6929 51.6112 24.6929 51.7546V59.4303C24.6929 59.5736 24.6359 59.7111 24.5346 59.8125C24.4332 59.9139 24.2957 59.9708 24.1524 59.9708Z" fill="#323C6B"/>
<path d="M38.2401 64.3146H28.4995C28.3562 64.3146 28.2187 64.2577 28.1173 64.1563C28.0159 64.0549 27.959 63.9174 27.959 63.7741C27.959 63.6307 28.0159 63.4932 28.1173 63.3918C28.2187 63.2905 28.3562 63.2335 28.4995 63.2335H38.2401C38.3834 63.2335 38.5209 63.2905 38.6223 63.3918C38.7237 63.4932 38.7806 63.6307 38.7806 63.7741C38.7806 63.9174 38.7237 64.0549 38.6223 64.1563C38.5209 64.2577 38.3834 64.3146 38.2401 64.3146Z" fill="#323C6B"/>
<path d="M52.7762 64.3146H42.614C42.4707 64.3146 42.3332 64.2577 42.2318 64.1563C42.1304 64.0549 42.0735 63.9174 42.0735 63.7741C42.0735 63.6307 42.1304 63.4932 42.2318 63.3918C42.3332 63.2905 42.4707 63.2335 42.614 63.2335H52.7762C52.9195 63.2335 53.057 63.2905 53.1584 63.3918C53.2598 63.4932 53.3167 63.6307 53.3167 63.7741C53.3167 63.9174 53.2598 64.0549 53.1584 64.1563C53.057 64.2577 52.9195 64.3146 52.7762 64.3146Z" fill="#323C6B"/>
<path d="M58.4107 59.9708C58.2673 59.9708 58.1298 59.9138 58.0284 59.8125C57.9271 59.7111 57.8701 59.5736 57.8701 59.4303V53.3892C57.8701 53.2458 57.9271 53.1083 58.0284 53.007C58.1298 52.9056 58.2673 52.8486 58.4107 52.8486C58.554 52.8486 58.6915 52.9056 58.7929 53.007C58.8943 53.1083 58.9512 53.2458 58.9512 53.3892V59.4303C58.9512 59.5736 58.8943 59.7111 58.7929 59.8125C58.6915 59.9138 58.554 59.9708 58.4107 59.9708Z" fill="#323C6B"/>
<path d="M40.4259 65.96C41.6332 65.96 42.6119 64.9813 42.6119 63.7741C42.6119 62.5668 41.6332 61.5881 40.4259 61.5881C39.2187 61.5881 38.24 62.5668 38.24 63.7741C38.24 64.9813 39.2187 65.96 40.4259 65.96Z" fill="#84879C"/>
<path d="M40.4259 66.5005C39.8867 66.5005 39.3596 66.3406 38.9112 66.041C38.4628 65.7414 38.1134 65.3156 37.907 64.8174C37.7006 64.3192 37.6467 63.771 37.7519 63.2421C37.8571 62.7132 38.1167 62.2274 38.498 61.8461C38.8793 61.4648 39.3651 61.2051 39.894 61.0999C40.4229 60.9947 40.9711 61.0487 41.4693 61.2551C41.9675 61.4615 42.3933 61.8109 42.6929 62.2593C42.9925 62.7076 43.1524 63.2348 43.1524 63.774C43.1516 64.4969 42.864 65.1899 42.3529 65.701C41.8418 66.2121 41.1488 66.4997 40.4259 66.5005ZM40.4259 62.1286C40.1005 62.1286 39.7824 62.2251 39.5118 62.4059C39.2412 62.5867 39.0303 62.8437 38.9058 63.1444C38.7813 63.445 38.7487 63.7759 38.8122 64.095C38.8756 64.4142 39.0324 64.7074 39.2625 64.9375C39.4926 65.1676 39.7858 65.3243 40.1049 65.3878C40.4241 65.4513 40.755 65.4187 41.0556 65.2942C41.3563 65.1697 41.6133 64.9588 41.7941 64.6882C41.9748 64.4176 42.0714 64.0995 42.0714 63.774C42.0708 63.3378 41.8972 62.9196 41.5888 62.6112C41.2803 62.3027 40.8622 62.1292 40.4259 62.1286Z" fill="#323C6B"/>
<path d="M24.1557 33.96C25.3629 33.96 26.3416 32.9813 26.3416 31.774C26.3416 30.5668 25.3629 29.5881 24.1557 29.5881C22.9484 29.5881 21.9697 30.5668 21.9697 31.774C21.9697 32.9813 22.9484 33.96 24.1557 33.96Z" fill="#84879C"/>
<path d="M24.1558 34.4995C23.6175 34.4988 23.0914 34.3386 22.6441 34.0392C22.1967 33.7397 21.8482 33.3143 21.6425 32.8169C21.4368 32.3194 21.3831 31.7721 21.4883 31.2442C21.5935 30.7162 21.8528 30.2313 22.2334 29.8506C22.6141 29.4699 23.099 29.2106 23.627 29.1055C24.1549 29.0003 24.7022 29.0539 25.1997 29.2597C25.6972 29.4654 26.1225 29.8139 26.422 30.2612C26.7215 30.7086 26.8816 31.2346 26.8823 31.773C26.8814 32.4958 26.5939 33.1888 26.0828 33.7C25.5716 34.2111 24.8786 34.4986 24.1558 34.4995ZM24.1558 30.1341C23.831 30.1347 23.5137 30.2316 23.244 30.4126C22.9743 30.5936 22.7643 30.8505 22.6406 31.1508C22.5169 31.4511 22.4851 31.7813 22.5491 32.0998C22.6131 32.4182 22.77 32.7105 23.0001 32.9397C23.2303 33.1689 23.5232 33.3247 23.8418 33.3875C24.1605 33.4502 24.4906 33.417 24.7905 33.2921C25.0903 33.1673 25.3463 32.9563 25.5262 32.6859C25.7062 32.4155 25.8018 32.0978 25.8012 31.773C25.7998 31.3376 25.6257 30.9206 25.3173 30.6134C25.0088 30.3061 24.5911 30.1338 24.1558 30.1341Z" fill="#323C6B"/>
<path d="M76.3502 10.5784V22.7524H6.21289V10.5784C6.21375 9.15222 6.78067 7.78471 7.78913 6.77625C8.79758 5.7678 10.1651 5.20087 11.5913 5.20001H70.9718C72.398 5.20087 73.7655 5.7678 74.7739 6.77625C75.7824 7.78471 76.3493 9.15222 76.3502 10.5784Z" fill="#0059EF"/>
<path d="M76.3502 22.7524V68.946C76.3497 70.3364 75.8103 71.6725 74.8452 72.6735C73.8801 73.6745 72.5646 74.2623 71.175 74.3135C71.7045 73.8159 72.126 73.2149 72.4135 72.5476C72.701 71.8804 72.8484 71.1612 72.8464 70.4346V22.7524H76.3502Z" fill="#E1E6E9"/>
<path d="M76.3502 10.5784V22.7525H72.8453V13.8195C72.8445 12.3933 72.2775 11.0258 71.2691 10.0173C70.2606 9.00889 68.8931 8.44196 67.4669 8.44111H8.08749C7.57454 8.43716 7.06405 8.51228 6.57397 8.66381C6.95922 7.64621 7.64527 6.77009 8.5408 6.15208C9.43634 5.53407 10.4989 5.20349 11.5869 5.20435H70.9718C72.3972 5.2052 73.7641 5.77154 74.7724 6.77906C75.7808 7.78658 76.3482 9.15298 76.3502 10.5784Z" fill="#0059EF"/>
<path d="M67.2984 16.3503C68.6095 16.3503 69.6724 15.2874 69.6724 13.9762C69.6724 12.6651 68.6095 11.6022 67.2984 11.6022C65.9872 11.6022 64.9243 12.6651 64.9243 13.9762C64.9243 15.2874 65.9872 16.3503 67.2984 16.3503Z" fill="#EEEFEE"/>
<path d="M67.2983 16.8908C66.721 16.8908 66.1567 16.7196 65.6767 16.3989C65.1966 16.0782 64.8225 15.6223 64.6016 15.0889C64.3807 14.5556 64.3229 13.9687 64.4355 13.4024C64.5481 12.8362 64.8261 12.3161 65.2343 11.9079C65.6425 11.4997 66.1626 11.2217 66.7289 11.1091C67.2951 10.9964 67.882 11.0542 68.4153 11.2752C68.9487 11.4961 69.4046 11.8702 69.7253 12.3502C70.046 12.8302 70.2172 13.3946 70.2172 13.9719C70.2172 14.746 69.9097 15.4885 69.3623 16.0359C68.8149 16.5833 68.0725 16.8908 67.2983 16.8908ZM67.2983 12.1427C66.9348 12.1427 66.5795 12.2505 66.2773 12.4524C65.975 12.6544 65.7395 12.9414 65.6004 13.2772C65.4613 13.6131 65.4249 13.9826 65.4958 14.3391C65.5667 14.6956 65.7417 15.0231 65.9988 15.2801C66.2558 15.5371 66.5833 15.7122 66.9398 15.7831C67.2963 15.854 67.6658 15.8176 68.0016 15.6785C68.3374 15.5394 68.6245 15.3038 68.8264 15.0016C69.0284 14.6994 69.1362 14.344 69.1362 13.9805C69.1362 13.4931 68.9425 13.0257 68.5979 12.681C68.2532 12.3363 67.7857 12.1427 67.2983 12.1427Z" fill="#323C6B"/>
<path d="M57.866 16.3503C59.1772 16.3503 60.2401 15.2874 60.2401 13.9762C60.2401 12.6651 59.1772 11.6022 57.866 11.6022C56.5548 11.6022 55.4919 12.6651 55.4919 13.9762C55.4919 15.2874 56.5548 16.3503 57.866 16.3503Z" fill="#EEEFEE"/>
<path d="M57.8659 16.8908C57.2886 16.8908 56.7243 16.7196 56.2443 16.3989C55.7643 16.0782 55.3901 15.6223 55.1692 15.0889C54.9483 14.5556 54.8905 13.9687 55.0031 13.4024C55.1157 12.8362 55.3937 12.3161 55.802 11.9079C56.2102 11.4997 56.7303 11.2217 57.2965 11.1091C57.8627 10.9964 58.4496 11.0542 58.983 11.2752C59.5163 11.4961 59.9722 11.8702 60.2929 12.3502C60.6137 12.8302 60.7849 13.3946 60.7849 13.9719C60.7849 14.746 60.4773 15.4885 59.9299 16.0359C59.3825 16.5833 58.6401 16.8908 57.8659 16.8908ZM57.8659 12.1427C57.5025 12.1427 57.1471 12.2505 56.8449 12.4524C56.5427 12.6544 56.3071 12.9414 56.168 13.2772C56.0289 13.6131 55.9925 13.9826 56.0634 14.3391C56.1343 14.6956 56.3094 15.0231 56.5664 15.2801C56.8234 15.5371 57.1509 15.7122 57.5074 15.7831C57.8639 15.854 58.2334 15.8176 58.5693 15.6785C58.9051 15.5394 59.1921 15.3038 59.3941 15.0016C59.596 14.6994 59.7038 14.344 59.7038 13.9805C59.7038 13.7392 59.6562 13.5002 59.5639 13.2772C59.4715 13.0543 59.3362 12.8517 59.1655 12.681C58.9948 12.5103 58.7922 12.375 58.5693 12.2826C58.3463 12.1902 58.1073 12.1427 57.8659 12.1427Z" fill="#323C6B"/>
<path d="M48.4336 16.3503C49.7448 16.3503 50.8077 15.2874 50.8077 13.9762C50.8077 12.6651 49.7448 11.6022 48.4336 11.6022C47.1225 11.6022 46.0596 12.6651 46.0596 13.9762C46.0596 15.2874 47.1225 16.3503 48.4336 16.3503Z" fill="#EEEFEE"/>
<path d="M48.4323 16.8908C47.855 16.8908 47.2907 16.7196 46.8107 16.3989C46.3307 16.0782 45.9565 15.6223 45.7356 15.0889C45.5147 14.5556 45.4569 13.9687 45.5695 13.4024C45.6821 12.8362 45.9601 12.3161 46.3684 11.9079C46.7766 11.4997 47.2967 11.2217 47.8629 11.1091C48.4291 10.9964 49.016 11.0542 49.5494 11.2752C50.0827 11.4961 50.5386 11.8702 50.8593 12.3502C51.1801 12.8302 51.3513 13.3946 51.3513 13.9719C51.3513 14.746 51.0437 15.4885 50.4963 16.0359C49.9489 16.5833 49.2065 16.8908 48.4323 16.8908ZM48.4323 12.1427C48.0689 12.1427 47.7135 12.2505 47.4113 12.4524C47.1091 12.6544 46.8735 12.9414 46.7344 13.2772C46.5953 13.6131 46.5589 13.9826 46.6298 14.3391C46.7007 14.6956 46.8758 15.0231 47.1328 15.2801C47.3898 15.5371 47.7173 15.7122 48.0738 15.7831C48.4303 15.854 48.7998 15.8176 49.1357 15.6785C49.4715 15.5394 49.7585 15.3038 49.9605 15.0016C50.1624 14.6994 50.2702 14.344 50.2702 13.9805C50.2702 13.4931 50.0766 13.0257 49.7319 12.681C49.3872 12.3363 48.9198 12.1427 48.4323 12.1427Z" fill="#323C6B"/>
<path d="M38.9188 14.5167H12.8906C12.7473 14.5167 12.6098 14.4597 12.5084 14.3584C12.407 14.257 12.3501 14.1195 12.3501 13.9761C12.3501 13.8328 12.407 13.6953 12.5084 13.5939C12.6098 13.4926 12.7473 13.4356 12.8906 13.4356H38.9188C39.0621 13.4356 39.1996 13.4926 39.301 13.5939C39.4023 13.6953 39.4593 13.8328 39.4593 13.9761C39.4593 14.1195 39.4023 14.257 39.301 14.3584C39.1996 14.4597 39.0621 14.5167 38.9188 14.5167Z" fill="#323C6B"/>
<path d="M70.9718 74.8648H11.5913C10.022 74.8631 8.51751 74.239 7.40787 73.1293C6.29823 72.0197 5.67408 70.5152 5.67236 68.9459V22.7524C5.67236 22.609 5.72931 22.4715 5.83068 22.3702C5.93205 22.2688 6.06954 22.2119 6.2129 22.2119H76.3502C76.4935 22.2119 76.631 22.2688 76.7324 22.3702C76.8338 22.4715 76.8907 22.609 76.8907 22.7524V68.9459C76.889 70.5152 76.2649 72.0197 75.1552 73.1293C74.0456 74.239 72.5411 74.8631 70.9718 74.8648ZM6.75561 23.2973V68.9459C6.75704 70.2286 7.2672 71.4583 8.17416 72.3652C9.08112 73.2722 10.3108 73.7823 11.5934 73.7838H70.9718C72.2544 73.7823 73.4841 73.2722 74.3911 72.3652C75.2981 71.4583 75.8082 70.2286 75.8096 68.9459V23.2929L6.75561 23.2973Z" fill="#323C6B"/>
<path d="M76.3508 23.2929H6.21461C6.07125 23.2929 5.93376 23.236 5.83239 23.1346C5.73102 23.0332 5.67407 22.8958 5.67407 22.7524V10.5783C5.67579 9.00908 6.29994 7.50457 7.40958 6.39493C8.51922 5.28529 10.0237 4.66114 11.593 4.65942H70.9725C72.5417 4.66114 74.0462 5.28529 75.1559 6.39493C76.2655 7.50457 76.8896 9.00908 76.8914 10.5783V22.7524C76.8914 22.8958 76.8344 23.0332 76.733 23.1346C76.6317 23.236 76.4942 23.2929 76.3508 23.2929ZM6.75515 22.2119H75.8103V10.5783C75.8089 9.29571 75.2987 8.06602 74.3917 7.15906C73.4848 6.25209 72.2551 5.74194 70.9725 5.7405H11.5919C10.3095 5.74222 9.08005 6.25251 8.17332 7.15944C7.26659 8.06637 6.75658 9.29589 6.75515 10.5783V22.2119Z" fill="#323C6B"/>
<path d="M47.7837 36.6637H33.0713C32.9279 36.6637 32.7905 36.6068 32.6891 36.5054C32.5877 36.4041 32.5308 36.2666 32.5308 36.1232V27.4292C32.5308 27.2858 32.5877 27.1483 32.6891 27.0469C32.7905 26.9456 32.9279 26.8886 33.0713 26.8886H47.7837C47.9271 26.8886 48.0646 26.9456 48.166 27.0469C48.2673 27.1483 48.3243 27.2858 48.3243 27.4292V36.1232C48.3243 36.2666 48.2673 36.4041 48.166 36.5054C48.0646 36.6068 47.9271 36.6637 47.7837 36.6637ZM33.614 35.5827H47.2432V27.9697H33.6118L33.614 35.5827Z" fill="#323C6B"/>
<path d="M29.8204 52.2919H18.4863C18.343 52.2919 18.2055 52.2349 18.1041 52.1335C18.0028 52.0322 17.9458 51.8947 17.9458 51.7513V43.0573C17.9458 42.9139 18.0028 42.7764 18.1041 42.675C18.2055 42.5737 18.343 42.5167 18.4863 42.5167H29.8204C29.9638 42.5167 30.1012 42.5737 30.2026 42.675C30.304 42.7764 30.3609 42.9139 30.3609 43.0573V51.7513C30.3609 51.8947 30.304 52.0322 30.2026 52.1335C30.1012 52.2349 29.9638 52.2919 29.8204 52.2919ZM19.0226 51.2108H29.2799V43.5978H19.0269L19.0226 51.2108Z" fill="#323C6B"/>
<path d="M64.08 68.6659H52.7427C52.5993 68.6659 52.4618 68.6089 52.3605 68.5075C52.2591 68.4062 52.2021 68.2687 52.2021 68.1253V59.4302C52.2021 59.2868 52.2591 59.1493 52.3605 59.048C52.4618 58.9466 52.5993 58.8896 52.7427 58.8896H64.08C64.2234 58.8896 64.3608 58.9466 64.4622 59.048C64.5636 59.1493 64.6205 59.2868 64.6205 59.4302V68.1242C64.6207 68.1953 64.6068 68.2657 64.5797 68.3314C64.5526 68.3971 64.5128 68.4569 64.4626 68.5072C64.4124 68.5575 64.3528 68.5974 64.2871 68.6246C64.2214 68.6519 64.1511 68.6659 64.08 68.6659ZM53.2821 67.5848H63.5395V59.9707H53.2832L53.2821 67.5848Z" fill="#323C6B"/>
<path d="M58.4108 53.9297C58.3398 53.9298 58.2695 53.9159 58.2038 53.8888C58.1381 53.8618 58.0784 53.822 58.0281 53.7718L52.3968 48.1405C52.2955 48.0391 52.2385 47.9016 52.2385 47.7583C52.2385 47.615 52.2955 47.4775 52.3968 47.3762L58.0281 41.7448C58.1295 41.6435 58.267 41.5865 58.4103 41.5865C58.5536 41.5865 58.6911 41.6435 58.7925 41.7448L64.4238 47.3762C64.5252 47.4775 64.5821 47.615 64.5821 47.7583C64.5821 47.9016 64.5252 48.0391 64.4238 48.1405L58.7925 53.7718C58.6912 53.8729 58.5539 53.9296 58.4108 53.9297ZM53.546 47.7578L58.4108 52.6226L63.2757 47.7578L58.4108 42.8929L53.546 47.7578Z" fill="#323C6B"/>
<path d="M24.1525 68.6659C23.1858 68.6659 22.2408 68.3792 21.4371 67.8422C20.6333 67.3051 20.0069 66.5418 19.6369 65.6487C19.267 64.7556 19.1702 63.7729 19.3588 62.8248C19.5474 61.8767 20.0129 61.0058 20.6964 60.3223C21.38 59.6387 22.2508 59.1733 23.1989 58.9847C24.147 58.7961 25.1298 58.8929 26.0229 59.2628C26.9159 59.6327 27.6793 60.2592 28.2163 61.0629C28.7534 61.8667 29.04 62.8116 29.04 63.7783C29.0383 65.0741 28.5228 66.3162 27.6066 67.2325C26.6904 68.1487 25.4482 68.6642 24.1525 68.6659ZM24.1525 59.9718C23.3996 59.9718 22.6637 60.1951 22.0377 60.6133C21.4117 61.0316 20.9238 61.6261 20.6357 62.3216C20.3476 63.0172 20.2722 63.7825 20.4191 64.5209C20.566 65.2593 20.9285 65.9376 21.4609 66.4699C21.9932 67.0023 22.6715 67.3648 23.4099 67.5117C24.1482 67.6585 24.9136 67.5832 25.6091 67.2951C26.3047 67.007 26.8992 66.5191 27.3174 65.8931C27.7357 65.2671 27.9589 64.5312 27.9589 63.7783C27.9581 62.7689 27.5568 61.8011 26.8432 61.0873C26.1295 60.3735 25.1618 59.9719 24.1525 59.9707V59.9718Z" fill="#323C6B"/>
<path d="M30.8702 19.6952C30.8699 19.7758 30.8537 19.8556 30.8226 19.93C30.7915 20.0044 30.746 20.0719 30.6888 20.1287C30.6316 20.1855 30.5637 20.2305 30.4891 20.2611C30.4145 20.2917 30.3346 20.3073 30.254 20.307L21.4886 20.3006C21.4079 20.3006 21.3281 20.2847 21.2536 20.2538C21.1791 20.223 21.1114 20.1777 21.0544 20.1207C20.9973 20.0637 20.9521 19.996 20.9213 19.9215C20.8904 19.847 20.8745 19.7671 20.8745 19.6865C20.8745 19.6059 20.8904 19.526 20.9213 19.4515C20.9521 19.377 20.9973 19.3093 21.0544 19.2523C21.1114 19.1953 21.1791 19.15 21.2536 19.1192C21.3281 19.0883 21.4079 19.0724 21.4886 19.0724L30.254 19.0789C30.335 19.0787 30.4152 19.0944 30.4901 19.1253C30.565 19.1561 30.6331 19.2015 30.6903 19.2588C30.7476 19.3161 30.793 19.3841 30.8239 19.459C30.8547 19.5339 30.8705 19.6142 30.8702 19.6952Z" fill="white"/>
<path d="M33.4605 19.7016C33.4602 19.7822 33.4441 19.862 33.413 19.9364C33.3818 20.0108 33.3364 20.0784 33.2791 20.1352C33.2219 20.192 33.1541 20.237 33.0795 20.2676C33.0049 20.2982 32.925 20.3138 32.8443 20.3135H32.5005C32.3377 20.3135 32.1815 20.2488 32.0663 20.1336C31.9512 20.0185 31.8865 19.8623 31.8865 19.6994C31.8865 19.5366 31.9512 19.3804 32.0663 19.2652C32.1815 19.1501 32.3377 19.0854 32.5005 19.0854H32.8443C32.9253 19.0852 33.0055 19.1011 33.0803 19.132C33.1551 19.1629 33.2231 19.2083 33.2804 19.2656C33.3376 19.3228 33.383 19.3908 33.4139 19.4656C33.4448 19.5404 33.4607 19.6206 33.4605 19.7016Z" fill="white"/>
<path d="M3.17506 59.5038C3.0317 59.5038 2.89421 59.4468 2.79284 59.3454C2.69147 59.2441 2.63452 59.1066 2.63452 58.9632V58.3729C2.63452 58.2296 2.69147 58.0921 2.79284 57.9907C2.89421 57.8893 3.0317 57.8324 3.17506 57.8324C3.31842 57.8324 3.45591 57.8893 3.55728 57.9907C3.65865 58.0921 3.7156 58.2296 3.7156 58.3729V58.9632C3.7156 59.1066 3.65865 59.2441 3.55728 59.3454C3.45591 59.4468 3.31842 59.5038 3.17506 59.5038Z" fill="#323C6B"/>
<path d="M3.17506 56.7189C3.0317 56.7189 2.89421 56.662 2.79284 56.5606C2.69147 56.4593 2.63452 56.3218 2.63452 56.1784V48.3244C2.63452 48.181 2.69147 48.0435 2.79284 47.9421C2.89421 47.8408 3.0317 47.7838 3.17506 47.7838C3.31842 47.7838 3.45591 47.8408 3.55728 47.9421C3.65865 48.0435 3.7156 48.181 3.7156 48.3244V56.173C3.71632 56.2444 3.70286 56.3153 3.67602 56.3815C3.64917 56.4477 3.60947 56.508 3.55921 56.5587C3.50894 56.6095 3.44911 56.6498 3.38317 56.6773C3.31724 56.7048 3.2465 56.7189 3.17506 56.7189Z" fill="#323C6B"/>
<path d="M54.7861 2.70272H53.8574C53.7141 2.70272 53.5766 2.64577 53.4752 2.5444C53.3738 2.44303 53.3169 2.30554 53.3169 2.16218C53.3169 2.01882 53.3738 1.88133 53.4752 1.77996C53.5766 1.67859 53.7141 1.62164 53.8574 1.62164H54.7861C54.9294 1.62164 55.0669 1.67859 55.1683 1.77996C55.2697 1.88133 55.3266 2.01882 55.3266 2.16218C55.3266 2.30554 55.2697 2.44303 55.1683 2.5444C55.0669 2.64577 54.9294 2.70272 54.7861 2.70272Z" fill="#323C6B"/>
<path d="M67.1925 2.70272H57.6131C57.4697 2.70272 57.3322 2.64577 57.2308 2.5444C57.1295 2.44303 57.0725 2.30554 57.0725 2.16218C57.0725 2.01882 57.1295 1.88133 57.2308 1.77996C57.3322 1.67859 57.4697 1.62164 57.6131 1.62164H67.1925C67.3359 1.62164 67.4734 1.67859 67.5747 1.77996C67.6761 1.88133 67.733 2.01882 67.733 2.16218C67.733 2.30554 67.6761 2.44303 67.5747 2.5444C67.4734 2.64577 67.3359 2.70272 67.1925 2.70272Z" fill="#323C6B"/>
</svg>
