<svg width="167" height="49" viewBox="0 0 167 49" fill="none" xmlns="http://www.w3.org/2000/svg">
<path d="M159.907 35.2697H1.55902C1.02272 35.2123 0.5007 35.4661 0.214586 35.9233C-0.0715286 36.3805 -0.0715286 36.9609 0.214586 37.4182C0.5007 37.8754 1.02272 38.1292 1.55902 38.0717H159.907L159.086 40.0292L167 36.6907L159.086 33.3523L159.907 35.2697Z" fill="url(#paint0_linear)"/>
<path d="M35.4317 24.9102C34.8953 26.3993 34.3629 27.4121 32.1413 27.4121C29.9196 27.4121 29.3392 26.3993 28.8228 24.9102L24.7999 13.61C24.6878 13.2977 24.5477 12.9335 24.3996 12.9335C24.1154 12.9335 24.1154 13.4138 24.1154 13.5539L24.2595 27.1919H19.1758V10.3156C19.1758 7.66963 21.6776 7.27734 23.1787 7.27734C25.1441 7.27734 26.6653 7.98186 27.4498 10.1755L31.5768 21.5358C31.6889 21.872 31.9171 22.3364 32.1413 22.3364C32.3654 22.3364 32.5896 21.856 32.7017 21.5358L36.8367 10.1755C37.6373 7.98186 39.1424 7.27734 41.0838 7.27734C44.3182 7.27734 45.0867 8.79445 45.0867 10.3156V27.1879H40.043L40.2112 13.5499C40.2112 13.1496 40.0711 12.9295 39.9029 12.9295C39.7348 12.9295 39.6187 13.2097 39.4786 13.606L35.4317 24.9102Z" fill="#0059EF"/>
<path fill-rule="evenodd" clip-rule="evenodd" d="M62.2591 17.0087C62.2591 14.1946 60.5978 12.2812 57.6437 12.2812H48.449V15.4316H55.9865C57.1954 15.4316 57.8719 16.032 57.8719 17.2329V17.8693H51.0949C48.4209 17.8693 47.4082 19.7067 47.4082 22.5087C47.4082 25.599 48.4209 27.1761 51.0949 27.1761H59.457C61.2743 27.1761 62.2591 26.2034 62.2591 24.3741V17.0087ZM51.8517 22.5488C51.8517 21.508 52.332 20.9156 53.1726 20.9156H57.8721V23.1652C57.8721 23.8697 57.5879 24.1499 56.8873 24.1499H53.1446C52.252 24.1499 51.8517 23.5055 51.8517 22.5488Z" fill="#0059EF"/>
<path d="M71.1659 27.1879C67.9355 27.1879 65.6258 25.8949 65.6258 22.2362V15.5153H63.5603V12.281H65.6378V7.50146H70.041V12.281H74.2601V15.5153H70.017V20.6351C70.017 22.8847 71.0298 23.9535 73.4195 23.9535H74.2201V27.1879H71.1659Z" fill="#0059EF"/>
<path d="M75.5291 7.50146H79.9324V12.285H84.2916C87.8061 12.285 90.2959 13.8581 90.2959 17.6529V27.1879H85.8927V18.7817C85.8927 16.5321 85.0481 15.5193 82.7985 15.5193H79.9284V27.1879H75.5251L75.5291 7.50146Z" fill="#0059EF"/>
<path fill-rule="evenodd" clip-rule="evenodd" d="M128.215 17.0082C128.215 14.1942 126.558 12.2808 123.604 12.2808H114.421V15.4311H121.959C123.168 15.4311 123.84 16.0315 123.84 17.2324V17.8688H117.063C114.393 17.8688 113.381 19.7062 113.381 22.5082C113.381 25.5985 114.393 27.1757 117.063 27.1757H125.413C127.231 27.1757 128.215 26.2029 128.215 24.3736V17.0082ZM117.824 22.5483C117.824 21.5076 118.3 20.9151 119.145 20.9151H123.84V23.1648C123.84 23.8693 123.56 24.1495 122.856 24.1495H119.117C118.224 24.1495 117.824 23.505 117.824 22.5483Z" fill="#07C1FF"/>
<path fill-rule="evenodd" clip-rule="evenodd" d="M145.409 19.7342C145.409 15.2349 144.032 12.2808 139.252 12.2808L133.376 12.2928C131.558 12.2928 130.574 13.2655 130.574 15.0948V31.9672H134.977V27.1877H139.252C144.02 27.1877 145.409 24.2335 145.409 19.7342ZM138.071 23.9536H134.977V16.5842C134.977 15.7996 135.301 15.5154 136.102 15.5154H138.015C140.629 15.5154 140.909 17.4288 140.909 19.7345C140.909 21.8441 140.629 23.9536 138.071 23.9536Z" fill="#07C1FF"/>
<path d="M146.986 23.9534H155.252C155.844 23.9534 156.264 23.7573 156.264 23.0528C156.264 22.04 154.523 21.8519 153.65 21.5637L150.612 20.635C147.858 19.7904 146.817 18.7216 146.817 16.2318C146.817 13.4778 148.138 12.2649 150.92 12.2649H160.203V15.4993H152.197C151.553 15.4993 150.996 15.5833 150.996 16.2598C150.996 17.0604 151.897 17.3286 152.826 17.6088L156.312 18.6776C158.87 19.4782 160.716 20.2547 160.716 23.317C160.716 25.8508 159.591 27.1718 156.921 27.1718H146.986V23.9534Z" fill="#07C1FF"/>
<path d="M106.295 17.1765H101.74V20.3789H106.295V21.944C106.295 22.9287 105.955 23.265 104.971 23.265H102.837C98.8981 23.265 97.6051 22.0001 97.6051 17.3607C97.6051 12.7213 98.8981 11.4564 102.837 11.4564H110.907V7.50146H100.9C94.2907 7.50146 92.4333 11.1561 92.4333 17.3447C92.4333 23.5332 94.2907 27.1879 100.9 27.1879H108.393C110.218 27.1879 111.371 26.2872 111.371 24.1777V17.1765H106.295Z" fill="#07C1FF"/>
<path d="M8.35205 7.91379L10.2815 7.09319V46.6261C10.224 47.1624 10.4778 47.6844 10.935 47.9705C11.3923 48.2566 11.9727 48.2566 12.4299 47.9705C12.8872 47.6844 13.1409 47.1624 13.0835 46.6261V7.09319L15.0129 7.91379L11.6905 0L8.35205 7.91379Z" fill="#0059EF"/>
<defs>
<linearGradient id="paint0_linear" x1="1.14611" y1="39.9678" x2="165.074" y2="39.9678" gradientUnits="userSpaceOnUse">
<stop stop-color="#0059EF"/>
<stop offset="1" stop-color="#07C1FF"/>
</linearGradient>
</defs>
</svg>
