<svg width="48" height="48" viewBox="0 0 48 48" fill="none" xmlns="http://www.w3.org/2000/svg">
<circle cx="24" cy="24" r="24" fill="url(#paint0_radial)" fill-opacity="0.8"/>
<path d="M23.3043 15.878C23.391 15.826 23.521 15.8 23.6943 15.8H26.8403C26.927 15.8 26.9963 15.8347 27.0483 15.904C27.1176 15.956 27.1523 16.0253 27.1523 16.112V33.688C27.1523 33.7747 27.1176 33.8527 27.0483 33.922C26.9963 33.974 26.927 34 26.8403 34H23.7983C23.7116 34 23.6336 33.974 23.5643 33.922C23.5123 33.8527 23.4863 33.7747 23.4863 33.688V19.44C23.4863 19.4053 23.469 19.3707 23.4343 19.336C23.3996 19.3013 23.365 19.2927 23.3303 19.31L20.7563 20.012L20.6523 20.038C20.4963 20.038 20.4183 19.9427 20.4183 19.752L20.3403 17.516C20.3403 17.3427 20.4183 17.2213 20.5743 17.152L23.3043 15.878Z" fill="white"/>
<defs>
<radialGradient id="paint0_radial" cx="0" cy="0" r="1" gradientUnits="userSpaceOnUse" gradientTransform="translate(24 24) rotate(90) scale(24)">
<stop offset="0.380208" stop-color="#005FFF"/>
<stop offset="1" stop-color="#0059EF" stop-opacity="0.41"/>
</radialGradient>
</defs>
</svg>
