<svg width="285" height="285" viewBox="0 0 285 285" fill="none" xmlns="http://www.w3.org/2000/svg">
<path d="M205.114 141.867C204.67 142.2 204.173 142.456 203.644 142.625C202.189 143.128 200.605 143.108 199.164 142.568C198.165 142.204 197.266 141.608 196.542 140.83C195.708 139.931 195.131 138.825 194.872 137.626C194.725 136.982 194.679 136.319 194.735 135.66C194.782 134.971 194.938 134.294 195.196 133.654C195.734 132.294 196.694 131.142 197.934 130.368C199.174 129.593 200.63 129.237 202.088 129.35C203.443 129.457 204.736 129.963 205.804 130.804C206.766 131.563 207.506 132.567 207.947 133.711C208.33 134.703 208.472 135.771 208.363 136.828C208.211 138.361 207.532 139.793 206.443 140.881C206.058 141.281 205.609 141.614 205.114 141.867C205.543 141.532 205.952 141.172 206.34 140.79C207.357 139.695 207.976 138.29 208.096 136.8C208.185 135.787 208.035 134.768 207.657 133.825C207.225 132.742 206.513 131.794 205.593 131.077C205.101 130.691 204.553 130.379 203.969 130.154C203.361 129.909 202.719 129.765 202.065 129.726C200.688 129.622 199.313 129.96 198.141 130.691C196.97 131.422 196.062 132.508 195.55 133.79C195.303 134.396 195.153 135.036 195.105 135.688C195.048 136.312 195.086 136.941 195.219 137.552C195.443 138.62 195.93 139.615 196.636 140.447C197.341 141.28 198.244 141.922 199.261 142.318C200.649 142.858 202.179 142.916 203.604 142.483C204.63 142.169 205.092 141.827 205.114 141.867Z" fill="#E0E0E0"/>
<path d="M206.34 150.731L206.511 150.885L207.024 151.38L209.03 153.358H208.956L214.223 150.024L214.183 150.138C213.801 149.066 213.379 147.858 212.929 146.587V146.524L212.975 146.473C213.897 145.487 214.682 144.381 215.306 143.184L215.34 143.115H219.188L219.051 143.218C219.49 141.309 219.957 139.274 220.442 137.142L220.522 137.313L217.13 135.683L217.045 135.643V135.546C217.001 134.192 216.777 132.85 216.378 131.556L216.349 131.459L216.418 131.391C217.25 130.57 218.162 129.681 219.091 128.734V128.951L215.716 123.69L215.927 123.764L212.376 125.007L212.268 125.041L212.188 124.967C211.207 124.049 210.109 123.265 208.922 122.635L208.819 122.584V122.47C208.819 121.29 208.819 120.008 208.819 118.702L208.968 118.891L202.92 117.494L203.137 117.391L201.495 120.811L201.449 120.914H201.33C199.99 120.957 198.662 121.178 197.38 121.57L197.186 121.518L197.146 121.478L197.06 121.393L196.895 121.222L196.564 120.886L195.898 120.219L194.575 118.885L194.815 118.913L189.525 122.214L189.605 121.986C190.019 123.183 190.431 124.368 190.842 125.542L190.882 125.651L190.802 125.736C189.88 126.714 189.096 127.813 188.47 129.002L188.413 129.099H188.305H184.537L184.714 128.957C184.235 131.024 183.766 133.047 183.306 135.027L183.209 134.828L186.601 136.469L186.692 136.515V136.617C186.729 137.971 186.95 139.313 187.348 140.607L187.376 140.704L187.302 140.773L184.623 143.418V143.218L187.912 148.513L187.741 148.456L191.298 147.225L191.377 147.197L191.44 147.254C192.422 148.177 193.523 148.967 194.712 149.602L194.78 149.636V149.716C194.78 151.084 194.78 152.315 194.752 153.478L194.661 153.37L200.725 154.8L200.629 154.846L202.293 151.466V151.432H202.327C203.348 151.403 204.363 151.277 205.36 151.056L206.095 150.879L206.34 150.828L206.101 150.913C205.941 150.964 205.702 151.038 205.371 151.118C204.376 151.369 203.358 151.516 202.333 151.557L202.384 151.517L200.771 154.937L200.737 155H200.674L194.592 153.626H194.507V153.535C194.507 152.395 194.507 151.135 194.507 149.767L194.569 149.881C193.355 149.243 192.232 148.446 191.229 147.51L191.366 147.539L187.815 148.787L187.707 148.827L187.644 148.73L184.332 143.446L184.264 143.338L184.355 143.247L187.023 140.596L186.983 140.761C186.576 139.447 186.348 138.084 186.304 136.709L186.401 136.857L182.981 135.227L182.856 135.164L182.884 135.027L184.304 128.82L184.332 128.677H184.48H188.248L188.083 128.774C188.726 127.556 189.53 126.429 190.471 125.423L190.431 125.617C190.021 124.442 189.607 123.257 189.189 122.06L189.137 121.917L189.268 121.837L194.552 118.537L194.683 118.452L194.792 118.56L196.114 119.894L196.775 120.566L197.112 120.903L197.277 121.074L197.362 121.153L197.402 121.199C197.015 121.102 197.294 121.171 197.209 121.148C198.524 120.745 199.887 120.519 201.261 120.475L201.096 120.583L202.738 117.163L202.8 117.027L202.948 117.061L209.019 118.463L209.167 118.497V118.651C209.167 119.951 209.167 121.239 209.167 122.419L209.07 122.254C210.287 122.897 211.412 123.701 212.416 124.642L212.234 124.602L215.791 123.371L215.922 123.319L216.001 123.445L219.296 128.734L219.364 128.848L219.268 128.945C218.338 129.869 217.421 130.769 216.589 131.59L216.634 131.425C217.034 132.74 217.258 134.103 217.301 135.477L217.21 135.341L220.601 136.988L220.71 137.039L220.681 137.153C220.185 139.285 219.706 141.314 219.262 143.224V143.332H219.154H215.386L215.494 143.264C214.85 144.473 214.047 145.591 213.106 146.587V146.473C213.55 147.755 213.961 148.958 214.331 150.035L214.36 150.109L214.291 150.149L208.985 153.421H208.945L208.911 153.387L206.967 151.38L206.471 150.856C206.424 150.818 206.381 150.776 206.34 150.731Z" fill="#E0E0E0"/>
<path fill-rule="evenodd" clip-rule="evenodd" d="M218.737 105.632C216.899 106.199 214.994 106.517 213.072 106.579L210.752 111.372L202.168 109.389V104.059C200.465 103.163 198.891 102.041 197.488 100.725L192.46 102.48L187.798 95.0019L191.577 91.257C191.012 89.4169 190.696 87.5094 190.636 85.5855L185.837 83.2713L187.849 74.67H193.173C194.073 72.9686 195.197 71.3948 196.513 69.9903L194.758 64.98L202.236 60.3174L205.981 64.0965C207.819 63.5315 209.725 63.2152 211.647 63.156L213.967 58.3566L222.551 60.3459V65.6697C224.25 66.5688 225.822 67.6902 227.225 69.0042L232.252 67.2543L236.92 74.727L233.13 78.5004C233.699 80.3376 234.018 82.2435 234.076 84.1662L238.87 86.4861L236.886 95.0703H231.562C230.662 96.7697 229.538 98.3415 228.222 99.7443L229.978 104.772L222.482 109.44L218.737 105.655V105.632ZM217.027 93.0924C218.614 92.102 219.871 90.6634 220.64 88.9586C221.409 87.2537 221.655 85.3592 221.347 83.5145C221.039 81.6698 220.191 79.9578 218.911 78.595C217.63 77.2321 215.974 76.2797 214.152 75.858C212.33 75.4364 210.423 75.5645 208.674 76.2262C206.925 76.8878 205.411 78.0533 204.324 79.5753C203.237 81.0972 202.626 82.9073 202.568 84.7766C202.51 86.6459 203.007 88.4904 203.997 90.0771C204.653 91.1321 205.511 92.0475 206.521 92.771C207.531 93.4944 208.674 94.0118 209.884 94.2934C211.094 94.575 212.348 94.6154 213.573 94.4122C214.799 94.2091 215.973 93.7664 217.027 93.1095V93.0924Z" fill="#E0E0E0"/>
<path fill-rule="evenodd" clip-rule="evenodd" d="M238.961 134.03C237.982 134.329 236.969 134.498 235.946 134.531L234.715 137.079L230.155 136.025V133.175C229.25 132.696 228.412 132.1 227.664 131.402L224.99 132.331L222.511 128.341L224.523 126.352C224.219 125.374 224.05 124.36 224.021 123.337L221.468 122.1L222.522 117.54H225.372C225.854 116.637 226.452 115.802 227.151 115.055L226.216 112.381L230.206 109.896L232.201 111.908C233.18 111.609 234.193 111.44 235.216 111.407L236.447 108.853L241.007 109.913V112.763C241.911 113.24 242.747 113.836 243.493 114.536L246.172 113.607L248.651 117.597L246.639 119.592C246.943 120.569 247.111 121.584 247.141 122.607L249.694 123.838L248.64 128.398H245.79C245.309 129.303 244.711 130.141 244.011 130.889L244.946 133.562L240.956 136.048L238.961 134.036V134.03ZM238.055 127.367C238.9 126.84 239.57 126.075 239.98 125.168C240.39 124.26 240.522 123.252 240.359 122.27C240.195 121.288 239.745 120.376 239.063 119.65C238.382 118.924 237.5 118.416 236.53 118.192C235.561 117.967 234.546 118.034 233.614 118.386C232.683 118.738 231.877 119.358 231.298 120.169C230.719 120.979 230.394 121.942 230.363 122.937C230.332 123.932 230.596 124.914 231.124 125.759C231.83 126.891 232.957 127.696 234.256 127.998C235.556 128.299 236.922 128.072 238.055 127.367Z" fill="#EBEBEB"/>
<path d="M64.0452 83.5905C64.1079 83.6475 61.4346 86.3892 58.0773 89.7066C54.72 93.024 51.9555 95.6688 51.8985 95.6118C51.8415 95.5548 54.5148 92.8131 57.8721 89.4957C61.2294 86.1783 63.9882 83.5335 64.0452 83.5905Z" fill="#263238"/>
<path d="M64.0737 95.5832C64.0167 95.6402 61.2237 93.0068 57.8721 89.7065C54.5205 86.4062 51.813 83.6816 51.87 83.6189C51.927 83.5562 54.72 86.1896 58.0773 89.4956C61.4346 92.8016 64.1364 95.5205 64.0737 95.5832Z" fill="#263238"/>
<path d="M76.1349 159.452C76.1349 159.532 72.7149 159.235 68.5197 158.796C64.3245 158.357 60.9273 157.924 60.933 157.844C60.9387 157.765 64.353 158.055 68.5482 158.5C72.7434 158.944 76.1463 159.366 76.1349 159.452Z" fill="#E0E0E0"/>
<path d="M75.5307 165.175C75.5307 165.254 72.1107 164.964 67.9155 164.519C63.7203 164.074 60.3174 163.653 60.3288 163.573C60.3402 163.493 63.7488 163.784 67.944 164.223C72.1392 164.662 75.5421 165.095 75.5307 165.175Z" fill="#E0E0E0"/>
<path d="M30.78 234.481C30.78 234.481 30.78 234.538 30.8655 234.623C30.9752 234.751 31.114 234.851 31.2702 234.914C31.561 235.013 31.8706 235.045 32.1757 235.008C32.4807 234.97 32.7733 234.864 33.0315 234.697C33.7041 234.327 34.2912 233.597 35.1918 233.272C36.1925 232.952 37.2716 232.974 38.2584 233.335C39.2602 233.679 40.217 234.142 41.1084 234.715C41.848 235.189 42.6193 235.612 43.4169 235.98C43.9616 236.222 44.5369 236.389 45.1269 236.476C45.2874 236.498 45.4493 236.51 45.6114 236.51C45.7197 236.51 45.7767 236.51 45.7767 236.51C44.9882 236.388 44.2208 236.156 43.4967 235.82C42.7138 235.435 41.9526 235.007 41.2167 234.538C40.3136 233.941 39.3388 233.46 38.3154 233.107C37.2713 232.729 36.1296 232.717 35.0778 233.073C34.6343 233.255 34.2241 233.509 33.8637 233.825C33.5616 234.094 33.2417 234.341 32.9061 234.566C32.673 234.728 32.4073 234.837 32.1276 234.885C31.848 234.934 31.5611 234.92 31.2873 234.846C31.0964 234.758 30.9242 234.634 30.78 234.481Z" fill="#F5F5F5"/>
<path d="M31.35 242.062C31.35 242.062 31.4811 241.891 31.7376 241.623C32.1169 241.248 32.5716 240.959 33.0714 240.774C33.814 240.505 34.6026 240.387 35.3913 240.426C36.3636 240.501 37.3305 240.635 38.2869 240.825C39.2652 241.013 40.2663 241.053 41.2566 240.945C42.0648 240.842 42.8527 240.617 43.5936 240.278C44.1016 240.054 44.5833 239.775 45.03 239.446C45.1976 239.334 45.3475 239.197 45.4746 239.041C44.8578 239.439 44.2141 239.793 43.548 240.101C42.8181 240.396 42.0507 240.588 41.268 240.671C40.301 240.766 39.3254 240.718 38.3724 240.529C37.4035 240.337 36.4228 240.211 35.4369 240.152C34.6164 240.126 33.7994 240.269 33.0372 240.574C32.522 240.779 32.0643 241.105 31.7034 241.526C31.6074 241.642 31.5216 241.766 31.4469 241.897C31.3842 242.011 31.35 242.056 31.35 242.062Z" fill="#F5F5F5"/>
<path d="M44.6766 246.12C44.5379 246.015 44.3815 245.936 44.2149 245.887C43.7726 245.719 43.3076 245.619 42.8355 245.59C42.1378 245.544 41.4371 245.584 40.7493 245.71C39.9684 245.835 39.1362 246.046 38.2641 246.234C37.4496 246.425 36.6154 246.519 35.7789 246.514C35.1006 246.495 34.4317 246.35 33.8067 246.086C33.2352 245.814 32.7266 245.426 32.3133 244.946C32.3786 245.108 32.4755 245.255 32.5983 245.379C32.9151 245.74 33.3033 246.031 33.7383 246.234C34.3778 246.537 35.0719 246.708 35.7789 246.736C36.6359 246.757 37.4921 246.669 38.3268 246.474C39.216 246.286 40.0368 246.063 40.8006 245.904C41.4703 245.77 42.1528 245.711 42.8355 245.727C43.4627 245.784 44.0808 245.916 44.6766 246.12Z" fill="#F5F5F5"/>
<path d="M32.8433 251.832C33.3537 251.613 33.9189 251.558 34.4621 251.672C35.0542 251.815 35.6279 252.026 36.1721 252.299C36.8609 252.633 37.6044 252.84 38.3666 252.909C39.7606 253.028 41.1567 252.705 42.3566 251.986C42.7036 251.765 43.0264 251.509 43.3199 251.222C43.5194 251.005 43.6277 250.88 43.6106 250.868C43.1697 251.21 42.7091 251.526 42.2312 251.815C41.0528 252.465 39.7077 252.751 38.3666 252.635C36.7877 252.544 35.5736 251.604 34.4792 251.495C34.0584 251.423 33.6261 251.463 33.2252 251.609C32.9516 251.701 32.8319 251.826 32.8433 251.832Z" fill="#F5F5F5"/>
<path d="M33.7724 259.738C34.2511 259.749 34.7262 259.654 35.1632 259.458C36.0011 259.179 37.0328 258.541 38.2469 258.056C38.8114 257.829 39.4115 257.704 40.0196 257.686C40.5112 257.686 40.9964 257.797 41.4389 258.01C41.8446 258.227 42.197 258.53 42.4706 258.9C42.4482 258.77 42.3933 258.649 42.311 258.546C42.1095 258.253 41.842 258.011 41.5301 257.84C41.067 257.584 40.5486 257.445 40.0196 257.435C39.3784 257.436 38.7435 257.562 38.15 257.805C36.896 258.301 35.87 258.945 35.0891 259.282C34.3082 259.618 33.7667 259.692 33.7724 259.738Z" fill="#F5F5F5"/>
<path d="M34.5876 263.414C34.9216 263.576 35.2765 263.691 35.6421 263.756C36.5103 263.966 37.3921 264.115 38.2812 264.201C39.1694 264.288 40.0626 264.315 40.9545 264.28C41.3273 264.287 41.6994 264.243 42.0603 264.149C42.0603 264.064 40.3503 264.149 38.3097 263.933C36.2691 263.716 34.6104 263.34 34.5876 263.414Z" fill="#F5F5F5"/>
<path d="M268.624 269.929C268.624 270.015 211.897 270.077 141.941 270.077C71.9853 270.077 15.2532 270.015 15.2532 269.929C15.2532 269.844 71.9625 269.781 141.941 269.781C211.92 269.781 268.624 269.849 268.624 269.929Z" fill="#263238"/>
<path d="M86.8452 91.77C86.8452 91.77 88.3956 82.4733 88.7661 81.7665C89.1366 81.0597 93.4173 76.7163 93.9246 76.6365C94.4319 76.5567 101.186 74.4249 100.81 75.4965C100.434 76.5681 95.6802 77.9703 95.6802 77.9703L95.2299 78.5403C95.2299 78.5403 99.2826 77.2179 100.286 77.2521C101.289 77.2863 101.38 78.2496 100.656 78.5232C99.9324 78.7968 96.3642 79.8399 96.2274 80.0679C96.0906 80.2959 100.217 79.116 100.719 79.1388C101.414 79.1673 101.916 80.0451 101.209 80.3472C100.787 80.5182 96.8202 81.4302 96.8202 81.4302C98.0436 81.2695 99.2746 81.1743 100.508 81.1452C101.118 81.3105 101.078 82.0515 100.394 82.2282C99.9324 82.3479 97.5099 82.4562 96.8943 82.6215C96.8943 82.6215 96.4326 83.0091 96.4497 84.2403C96.4668 85.4715 94.8708 88.7376 94.8708 88.7376L86.8452 91.77Z" fill="#FFBE9D"/>
<path d="M100.804 75.468C100.533 75.8163 100.196 76.1085 99.8127 76.3287C99.4128 76.5982 98.9892 76.831 98.5473 77.0241C98.0457 77.2122 97.4871 77.406 96.9057 77.5941L95.6574 78.0159L95.7258 77.976C95.0135 78.7478 94.2416 79.4626 93.4173 80.1135C94.0511 79.2816 94.7486 78.5002 95.5035 77.7765V77.748H95.5434L96.7746 77.3148L98.4105 76.7448C98.8424 76.5693 99.2615 76.3636 99.6645 76.1292C100.383 75.7473 100.776 75.4281 100.804 75.468Z" fill="#EB996E"/>
<path d="M190.802 193.868L98.7924 184.389C97.4438 184.245 96.2069 183.574 95.3524 182.52C94.4978 181.467 94.0952 180.118 94.2324 178.769L110.152 24.0824C110.352 22.1644 111.305 20.4039 112.801 19.1869C114.296 17.9699 116.214 17.3957 118.132 17.5901L205.867 26.6246C207.785 26.8245 209.545 27.7768 210.762 29.2727C211.979 30.7686 212.554 32.686 212.359 34.6046L196.399 189.291C196.259 190.639 195.593 191.876 194.544 192.734C193.495 193.591 192.15 193.999 190.802 193.868Z" fill="#0059EF"/>
<path opacity="0.4" d="M190.802 193.868L98.7924 184.389C97.4438 184.245 96.2069 183.574 95.3524 182.52C94.4978 181.467 94.0952 180.118 94.2324 178.769L110.152 24.0824C110.352 22.1644 111.305 20.4039 112.801 19.1869C114.296 17.9699 116.214 17.3957 118.132 17.5901L205.867 26.6246C207.785 26.8245 209.545 27.7768 210.762 29.2727C211.979 30.7686 212.554 32.686 212.359 34.6046L196.399 189.291C196.259 190.639 195.593 191.876 194.544 192.734C193.495 193.591 192.15 193.999 190.802 193.868Z" fill="black"/>
<path d="M181.517 192.911L89.49 183.437C88.1403 183.294 86.9025 182.621 86.0478 181.566C85.1931 180.512 84.7912 179.162 84.93 177.811L100.89 23.1249C100.988 22.1746 101.271 21.2528 101.725 20.4122C102.179 19.5716 102.794 18.8286 103.535 18.2257C104.276 17.6228 105.129 17.1718 106.044 16.8985C106.959 16.6251 107.92 16.5348 108.87 16.6326L196.582 25.65C197.532 25.7475 198.454 26.0313 199.294 26.4852C200.135 26.9391 200.878 27.5541 201.481 28.2951C202.084 29.0362 202.535 29.8887 202.808 30.8041C203.081 31.7195 203.172 32.6797 203.074 33.63L187.114 188.322C186.977 189.672 186.311 190.912 185.262 191.772C184.213 192.632 182.867 193.041 181.517 192.911Z" fill="#0059EF"/>
<path d="M134.736 150.806L103.007 147.539C102.249 147.46 101.571 148.012 101.493 148.769L100.207 161.255C100.129 162.013 100.68 162.69 101.438 162.768L133.168 166.036C133.925 166.114 134.603 165.563 134.681 164.805L135.967 152.32C136.045 151.562 135.494 150.884 134.736 150.806Z" fill="#0059EF"/>
<g opacity="0.4">
<path opacity="0.4" d="M134.734 150.83L103.007 147.54C102.249 147.461 101.572 148.012 101.494 148.769L100.217 161.256C100.14 162.014 100.691 162.692 101.449 162.77L133.176 166.061C133.934 166.139 134.611 165.589 134.689 164.831L135.966 152.344C136.043 151.587 135.492 150.908 134.734 150.83Z" fill="black"/>
</g>
<path d="M107.277 33.926L103.747 68.2012L191.122 77.1997L194.651 42.9244L107.277 33.926Z" fill="#FAFAFA"/>
<path d="M191.127 77.2008C191.127 77.2008 191.127 76.9899 191.178 76.5909C191.229 76.1919 191.275 75.5934 191.349 74.8182C191.503 73.2564 191.731 70.965 192.027 68.0067C192.597 62.0958 193.481 53.5401 194.552 42.9267L194.644 43.0407L107.268 34.0746L107.434 33.9435C106.197 45.9135 105 57.513 103.894 68.2176L103.768 68.058L166.383 74.5788L184.566 76.4883L189.439 77.0127L190.699 77.1495L191.132 77.2008C191.132 77.2008 190.99 77.2008 190.711 77.1666L189.468 77.0469L184.623 76.5681L166.44 74.7384L103.74 68.343H103.597V68.2062C104.698 57.4959 105.877 45.9135 107.12 33.9264V33.7782H107.268L194.666 42.8241H194.769V42.9267C193.629 53.5686 192.745 62.1471 192.124 68.0694C191.811 71.0106 191.554 73.2963 191.4 74.8467C191.315 75.6162 191.252 76.2033 191.206 76.6023L191.127 77.2008Z" fill="#263238"/>
<path d="M120.895 83.7726L108.404 82.4862C107.753 82.4191 107.17 82.8928 107.103 83.5441L105.817 96.0352C105.75 96.6865 106.223 97.2689 106.875 97.336L119.366 98.6224C120.017 98.6895 120.599 98.2158 120.666 97.5645L121.953 85.0734C122.02 84.4221 121.546 83.8397 120.895 83.7726Z" fill="#0059EF"/>
<g opacity="0.4">
<path opacity="0.4" d="M120.894 83.7824L108.404 82.487C107.753 82.4195 107.171 82.8928 107.104 83.5442L105.826 96.0363C105.76 96.6877 106.234 97.2705 106.885 97.3381L119.375 98.6334C120.027 98.701 120.609 98.2276 120.675 97.5762L121.953 85.0841C122.019 84.4327 121.545 83.8499 120.894 83.7824Z" fill="black"/>
</g>
<path d="M118.605 83.5391L106.114 82.2527C105.463 82.1856 104.881 82.6592 104.813 83.3106L103.527 95.8016C103.46 96.453 103.934 97.0354 104.585 97.1024L117.076 98.3888C117.727 98.4559 118.31 97.9823 118.377 97.3309L119.663 84.8399C119.73 84.1886 119.257 83.6062 118.605 83.5391Z" fill="#263238"/>
<path d="M112.963 87.2727L112.33 93.48L110.893 93.3318L111.412 88.2929L110.175 88.1619L110.295 87.0219L112.963 87.2727Z" fill="white"/>
<path d="M141.606 85.9113L129.115 84.6249C128.463 84.5578 127.881 85.0314 127.814 85.6828L126.527 98.1738C126.46 98.8251 126.934 99.4075 127.585 99.4746L140.076 100.761C140.728 100.828 141.31 100.354 141.377 99.7031L142.664 87.2121C142.731 86.5608 142.257 85.9784 141.606 85.9113Z" fill="#0059EF"/>
<g opacity="0.4">
<path opacity="0.4" d="M141.605 85.921L129.115 84.6257C128.463 84.5582 127.881 85.0315 127.815 85.6829L126.537 98.175C126.47 98.8264 126.944 99.4092 127.596 99.4767L140.086 100.772C140.737 100.84 141.319 100.366 141.386 99.7149L142.664 87.2228C142.73 86.5714 142.256 85.9886 141.605 85.921Z" fill="black"/>
</g>
<path d="M139.311 85.6722L126.82 84.3857C126.169 84.3187 125.586 84.7923 125.519 85.4436L124.233 97.9347C124.166 98.586 124.639 99.1684 125.291 99.2355L137.782 100.522C138.433 100.589 139.015 100.115 139.082 99.464L140.369 86.973C140.436 86.3216 139.962 85.7392 139.311 85.6722Z" fill="#263238"/>
<path d="M135.392 94.6599L135.272 95.7999L130.598 95.3211L130.695 94.392L133.312 92.3799C133.916 91.9183 134.047 91.6104 134.075 91.3083C134.127 90.8238 133.819 90.5047 133.163 90.4363C132.916 90.4013 132.664 90.4278 132.43 90.5133C132.195 90.5988 131.985 90.7407 131.818 90.9265L130.843 90.1455C131.165 89.795 131.569 89.5298 132.019 89.3736C132.469 89.2174 132.95 89.1752 133.42 89.2507C134.799 89.3932 135.649 90.1911 135.529 91.314C135.472 91.9182 135.244 92.454 134.298 93.1608L132.736 94.3578L135.392 94.6599Z" fill="white"/>
<path d="M163.074 88.1221L150.583 86.8357C149.932 86.7686 149.35 87.2423 149.282 87.8936L147.996 100.385C147.929 101.036 148.403 101.618 149.054 101.685L161.545 102.972C162.196 103.039 162.779 102.565 162.846 101.914L164.132 89.4229C164.199 88.7716 163.726 88.1892 163.074 88.1221Z" fill="#0059EF"/>
<g opacity="0.4">
<path opacity="0.4" d="M163.074 88.1319L150.583 86.8365C149.932 86.769 149.35 87.2423 149.283 87.8937L148.006 100.386C147.939 101.037 148.413 101.62 149.064 101.688L161.555 102.983C162.206 103.05 162.788 102.577 162.855 101.926L164.132 89.4336C164.199 88.7822 163.725 88.1994 163.074 88.1319Z" fill="black"/>
</g>
<path d="M160.785 87.883L148.294 86.5966C147.643 86.5295 147.061 87.0031 146.993 87.6545L145.707 100.146C145.64 100.797 146.114 101.379 146.765 101.446L159.256 102.733C159.907 102.8 160.49 102.326 160.557 101.675L161.843 89.1838C161.91 88.5325 161.437 87.9501 160.785 87.883Z" fill="#263238"/>
<path d="M156.887 96.1362C156.778 97.1793 155.878 98.0514 154.117 97.8747C153.285 97.7999 152.493 97.4851 151.837 96.9684L152.503 95.9253C152.981 96.3463 153.58 96.6057 154.213 96.6663C154.932 96.7404 155.405 96.4953 155.456 95.988C155.507 95.4807 155.188 95.1957 154.379 95.1102L153.723 95.0418L153.82 94.0956L155.24 92.7846L152.606 92.5167L152.726 91.3767L157.058 91.8213L156.961 92.7504L155.399 94.1982C155.849 94.2675 156.255 94.5076 156.532 94.8687C156.809 95.2297 156.936 95.6838 156.887 96.1362Z" fill="white"/>
<path d="M184.549 90.333L172.058 89.0466C171.406 88.9796 170.824 89.4532 170.757 90.1045L169.47 102.596C169.403 103.247 169.877 103.829 170.528 103.896L183.019 105.183C183.671 105.25 184.253 104.776 184.32 104.125L185.607 91.6339C185.674 90.9825 185.2 90.4001 184.549 90.333Z" fill="#0059EF"/>
<g opacity="0.4">
<path opacity="0.4" d="M184.548 90.3428L172.058 89.0475C171.406 88.9799 170.824 89.4532 170.758 90.1046L169.48 102.597C169.413 103.248 169.887 103.831 170.539 103.899L183.029 105.194C183.68 105.261 184.262 104.788 184.329 104.137L185.606 91.6446C185.673 90.9932 185.199 90.4103 184.548 90.3428Z" fill="black"/>
</g>
<path d="M182.305 90.0928L169.814 88.8064C169.163 88.7393 168.58 89.213 168.513 89.8643L167.227 102.355C167.16 103.007 167.633 103.589 168.285 103.656L180.776 104.943C181.427 105.01 182.009 104.536 182.077 103.885L183.363 91.3936C183.43 90.7423 182.956 90.1599 182.305 90.0928Z" fill="#263238"/>
<path d="M171.931 96.0047L171.873 96.5717L178.507 97.2549L178.565 96.6879L171.931 96.0047Z" fill="white"/>
<path d="M176.603 93.8562C176.582 94.0694 176.498 94.2714 176.361 94.4367C176.225 94.6021 176.043 94.7233 175.838 94.7851C175.633 94.8469 175.414 94.8465 175.209 94.7839C175.004 94.7213 174.823 94.5994 174.687 94.4335C174.551 94.2677 174.468 94.0653 174.448 93.8521C174.427 93.6388 174.47 93.4243 174.571 93.2356C174.673 93.0469 174.828 92.8925 175.017 92.7919C175.206 92.6913 175.421 92.6491 175.634 92.6706C175.92 92.6994 176.182 92.8405 176.364 93.0628C176.546 93.2851 176.632 93.5705 176.603 93.8562Z" fill="white"/>
<path d="M176.005 99.6417C175.983 99.8551 175.899 100.057 175.762 100.223C175.626 100.388 175.443 100.509 175.238 100.571C175.032 100.632 174.813 100.631 174.608 100.568C174.403 100.505 174.222 100.382 174.087 100.216C173.951 100.05 173.869 99.8468 173.849 99.6332C173.829 99.4197 173.873 99.2051 173.975 99.0166C174.077 98.8281 174.233 98.6743 174.423 98.5745C174.613 98.4747 174.828 98.4335 175.041 98.4561C175.326 98.4863 175.587 98.628 175.768 98.8501C175.948 99.0723 176.033 99.3569 176.005 99.6417Z" fill="white"/>
<path d="M118.655 105.533L106.164 104.247C105.513 104.18 104.93 104.653 104.863 105.305L103.577 117.796C103.51 118.447 103.983 119.03 104.635 119.097L117.126 120.383C117.777 120.45 118.359 119.976 118.426 119.325L119.713 106.834C119.78 106.183 119.306 105.6 118.655 105.533Z" fill="#0059EF"/>
<g opacity="0.4">
<path opacity="0.4" d="M118.654 105.543L106.164 104.248C105.513 104.18 104.931 104.653 104.864 105.305L103.586 117.797C103.52 118.448 103.994 119.031 104.645 119.099L117.135 120.394C117.787 120.462 118.369 119.988 118.435 119.337L119.713 106.845C119.779 106.193 119.305 105.611 118.654 105.543Z" fill="black"/>
</g>
<path d="M116.365 105.3L103.874 104.013C103.223 103.946 102.641 104.42 102.574 105.071L101.287 117.562C101.22 118.214 101.694 118.796 102.345 118.863L114.836 120.149C115.487 120.217 116.07 119.743 116.137 119.092L117.423 106.601C117.49 105.949 117.017 105.367 116.365 105.3Z" fill="#263238"/>
<path d="M112.028 114.103L111.019 114L110.882 115.3L109.486 115.157L109.622 113.857L106.288 113.51L106.385 112.546L109.708 108.921L111.213 109.081L108.123 112.501L109.788 112.672L109.907 111.532L111.258 111.669L111.139 112.809L112.147 112.911L112.028 114.103Z" fill="white"/>
<path d="M139.366 107.666L126.875 106.38C126.223 106.313 125.641 106.786 125.574 107.438L124.287 119.929C124.22 120.58 124.694 121.163 125.345 121.23L137.836 122.516C138.488 122.583 139.07 122.11 139.137 121.458L140.424 108.967C140.491 108.316 140.017 107.733 139.366 107.666Z" fill="#0059EF"/>
<g opacity="0.4">
<path opacity="0.4" d="M139.365 107.676L126.875 106.381C126.223 106.313 125.641 106.786 125.575 107.438L124.297 119.93C124.231 120.581 124.705 121.164 125.356 121.232L137.846 122.527C138.497 122.595 139.079 122.121 139.146 121.47L140.424 108.978C140.49 108.326 140.016 107.744 139.365 107.676Z" fill="black"/>
</g>
<path d="M137.077 107.427L124.586 106.141C123.934 106.074 123.352 106.547 123.285 107.199L121.998 119.69C121.931 120.341 122.405 120.923 123.056 120.99L135.547 122.277C136.199 122.344 136.781 121.87 136.848 121.219L138.135 108.728C138.202 108.077 137.728 107.494 137.077 107.427Z" fill="#263238"/>
<path d="M132.548 115.567C132.439 116.662 131.533 117.534 129.766 117.352C128.935 117.276 128.143 116.961 127.486 116.445L128.165 115.408C128.641 115.829 129.241 116.087 129.875 116.143C130.593 116.217 131.066 115.966 131.117 115.459C131.168 114.952 130.883 114.621 129.76 114.507L128.176 114.342L128.854 110.922L132.628 111.31L132.514 112.45L129.931 112.182L129.709 113.35L130.216 113.401C132.023 113.572 132.662 114.467 132.548 115.567Z" fill="white"/>
<path d="M160.84 109.877L148.349 108.591C147.698 108.524 147.115 108.997 147.048 109.649L145.762 122.14C145.695 122.791 146.168 123.373 146.82 123.44L159.311 124.727C159.962 124.794 160.545 124.32 160.612 123.669L161.898 111.178C161.965 110.527 161.491 109.944 160.84 109.877Z" fill="#0059EF"/>
<g opacity="0.4">
<path opacity="0.4" d="M160.839 109.887L148.349 108.592C147.698 108.524 147.116 108.997 147.049 109.649L145.772 122.141C145.705 122.792 146.179 123.375 146.83 123.443L159.32 124.738C159.972 124.805 160.554 124.332 160.62 123.681L161.898 111.189C161.965 110.537 161.491 109.954 160.839 109.887Z" fill="black"/>
</g>
<path d="M158.545 109.638L146.054 108.351C145.403 108.284 144.821 108.758 144.754 109.409L143.467 121.9C143.4 122.552 143.874 123.134 144.525 123.201L157.016 124.488C157.667 124.555 158.25 124.081 158.317 123.43L159.603 110.939C159.67 110.287 159.197 109.705 158.545 109.638Z" fill="#263238"/>
<path d="M154.47 117.813C154.339 119.079 153.222 119.768 151.916 119.632C150.206 119.455 149.26 118.275 149.465 116.28C149.688 114.137 151.101 113.077 152.965 113.27C153.57 113.317 154.151 113.525 154.647 113.875L154.008 114.872C153.68 114.617 153.283 114.466 152.868 114.439C151.831 114.336 151.107 114.878 150.942 116.058C151.167 115.89 151.422 115.77 151.695 115.702C151.967 115.635 152.249 115.622 152.526 115.664C152.798 115.667 153.067 115.726 153.315 115.838C153.563 115.95 153.786 116.112 153.968 116.314C154.151 116.515 154.29 116.753 154.376 117.011C154.462 117.269 154.494 117.542 154.47 117.813ZM153.073 117.739C153.088 117.607 153.074 117.473 153.033 117.346C152.991 117.219 152.923 117.103 152.833 117.004C152.743 116.906 152.633 116.828 152.51 116.776C152.387 116.724 152.255 116.699 152.122 116.702C151.991 116.674 151.855 116.673 151.724 116.7C151.593 116.727 151.468 116.781 151.358 116.858C151.249 116.935 151.156 117.033 151.086 117.148C151.017 117.262 150.971 117.39 150.953 117.523C150.896 118.053 151.255 118.48 151.945 118.554C152.072 118.581 152.203 118.58 152.33 118.552C152.457 118.524 152.577 118.47 152.682 118.394C152.786 118.317 152.874 118.219 152.938 118.106C153.003 117.993 153.043 117.868 153.056 117.739H153.073Z" fill="white"/>
<path d="M182.303 112.087L169.812 110.801C169.161 110.734 168.578 111.208 168.511 111.859L167.225 124.35C167.158 125.001 167.631 125.584 168.283 125.651L180.774 126.937C181.425 127.004 182.008 126.531 182.075 125.879L183.361 113.388C183.428 112.737 182.954 112.155 182.303 112.087Z" fill="#0059EF"/>
<g opacity="0.4">
<path opacity="0.4" d="M182.302 112.097L169.812 110.802C169.161 110.734 168.579 111.208 168.512 111.859L167.235 124.351C167.168 125.003 167.642 125.585 168.293 125.653L180.783 126.948C181.435 127.016 182.017 126.542 182.083 125.891L183.361 113.399C183.428 112.748 182.954 112.165 182.302 112.097Z" fill="black"/>
</g>
<path d="M180.014 111.848L167.523 110.562C166.872 110.495 166.289 110.968 166.222 111.62L164.936 124.111C164.869 124.762 165.342 125.344 165.994 125.412L178.485 126.698C179.136 126.765 179.719 126.291 179.786 125.64L181.072 113.149C181.139 112.498 180.665 111.915 180.014 111.848Z" fill="#263238"/>
<path d="M175.44 116.346L170.203 120.475L170.556 120.923L175.793 116.793L175.44 116.346Z" fill="white"/>
<path d="M171.121 115.891L170.679 116.251L174.887 121.425L175.329 121.065L171.121 115.891Z" fill="white"/>
<path d="M116.433 127.114L103.942 125.828C103.291 125.761 102.708 126.234 102.641 126.886L101.355 139.377C101.288 140.028 101.761 140.61 102.413 140.677L114.904 141.964C115.555 142.031 116.137 141.557 116.205 140.906L117.491 128.415C117.558 127.764 117.084 127.181 116.433 127.114Z" fill="#0059EF"/>
<g opacity="0.4">
<path opacity="0.4" d="M116.432 127.124L103.942 125.829C103.291 125.761 102.709 126.234 102.642 126.886L101.365 139.378C101.298 140.029 101.772 140.612 102.423 140.68L114.913 141.975C115.565 142.042 116.147 141.569 116.213 140.918L117.491 128.426C117.558 127.774 117.084 127.191 116.432 127.124Z" fill="black"/>
</g>
<path d="M114.144 126.881L101.652 125.594C101.001 125.527 100.419 126.001 100.352 126.652L99.0653 139.143C98.9982 139.795 99.4718 140.377 100.123 140.444L112.614 141.73C113.266 141.797 113.848 141.324 113.915 140.673L115.201 128.181C115.269 127.53 114.795 126.948 114.144 126.881Z" fill="#263238"/>
<path d="M109.486 130.707L109.389 131.636L106.539 136.663L104.983 136.498L107.719 131.704L105.667 131.493L105.564 132.502L104.287 132.371L104.515 130.199L109.486 130.707Z" fill="white"/>
<path d="M137.144 129.247L124.653 127.961C124.002 127.894 123.419 128.367 123.352 129.019L122.066 141.51C121.999 142.161 122.472 142.743 123.124 142.81L135.615 144.097C136.266 144.164 136.848 143.69 136.915 143.039L138.202 130.548C138.269 129.897 137.795 129.314 137.144 129.247Z" fill="#0059EF"/>
<g opacity="0.4">
<path opacity="0.4" d="M137.143 129.257L124.653 127.962C124.001 127.894 123.42 128.367 123.353 129.019L122.075 141.511C122.009 142.162 122.483 142.745 123.134 142.813L135.624 144.108C136.276 144.175 136.858 143.702 136.924 143.051L138.202 130.559C138.268 129.907 137.794 129.324 137.143 129.257Z" fill="black"/>
</g>
<path d="M134.849 129.008L122.358 127.722C121.707 127.654 121.124 128.128 121.057 128.779L119.771 141.27C119.704 141.922 120.177 142.504 120.829 142.571L133.32 143.858C133.971 143.925 134.554 143.451 134.621 142.8L135.907 130.309C135.974 129.657 135.501 129.075 134.849 129.008Z" fill="#263238"/>
<path d="M130.815 137.37C130.695 138.51 129.578 139.165 128.005 139C126.432 138.835 125.48 137.997 125.6 136.834C125.626 136.525 125.744 136.231 125.938 135.988C126.132 135.746 126.393 135.566 126.688 135.472C126.481 135.318 126.319 135.112 126.219 134.874C126.118 134.637 126.084 134.377 126.118 134.121C126.232 133.032 127.258 132.457 128.678 132.599C130.097 132.742 131.003 133.528 130.895 134.617C130.872 134.875 130.78 135.123 130.628 135.333C130.477 135.544 130.272 135.71 130.034 135.814C130.303 135.968 130.521 136.197 130.659 136.474C130.798 136.751 130.852 137.063 130.815 137.37ZM129.367 137.176C129.424 136.606 129.008 136.247 128.296 136.173C127.583 136.099 127.11 136.39 127.053 136.937C126.996 137.484 127.401 137.877 128.113 137.951C128.826 138.025 129.316 137.701 129.39 137.153L129.367 137.176ZM127.52 134.326C127.469 134.794 127.811 135.124 128.393 135.187C128.974 135.25 129.396 134.993 129.447 134.526C129.498 134.058 129.139 133.705 128.552 133.648C127.965 133.591 127.566 133.825 127.52 134.309V134.326Z" fill="white"/>
<path d="M158.613 131.458L146.122 130.172C145.47 130.105 144.888 130.578 144.821 131.23L143.534 143.721C143.467 144.372 143.941 144.954 144.592 145.021L157.083 146.308C157.735 146.375 158.317 145.901 158.384 145.25L159.67 132.759C159.738 132.108 159.264 131.525 158.613 131.458Z" fill="#0059EF"/>
<g opacity="0.4">
<path opacity="0.4" d="M158.612 131.468L146.121 130.172C145.47 130.105 144.888 130.578 144.822 131.23L143.544 143.722C143.477 144.373 143.951 144.956 144.603 145.023L157.093 146.319C157.744 146.386 158.326 145.913 158.393 145.262L159.67 132.77C159.737 132.118 159.263 131.535 158.612 131.468Z" fill="black"/>
</g>
<path d="M155.905 130.22L143.474 128.964C142.826 128.899 142.247 129.371 142.182 130.019L140.926 142.451C140.86 143.099 141.333 143.678 141.981 143.743L154.413 144.999C155.061 145.064 155.639 144.592 155.705 143.944L156.961 131.512C157.026 130.864 156.554 130.285 155.905 130.22Z" fill="#263238"/>
<path d="M152.19 138.1C151.968 140.243 150.565 141.303 148.69 141.109C148.089 141.065 147.512 140.858 147.02 140.511L147.658 139.513C147.986 139.769 148.384 139.919 148.798 139.941C149.824 140.043 150.56 139.502 150.725 138.316C150.499 138.485 150.241 138.607 149.967 138.675C149.693 138.744 149.408 138.757 149.129 138.715C148.858 138.71 148.591 138.649 148.345 138.536C148.098 138.424 147.878 138.262 147.697 138.06C147.515 137.859 147.377 137.622 147.292 137.365C147.206 137.108 147.173 136.836 147.197 136.566C147.328 135.301 148.445 134.611 149.756 134.748C151.46 134.925 152.401 136.105 152.19 138.1ZM150.702 136.857C150.754 136.327 150.394 135.899 149.716 135.825C149.588 135.8 149.456 135.803 149.329 135.832C149.201 135.861 149.082 135.917 148.977 135.995C148.873 136.074 148.786 136.173 148.722 136.287C148.659 136.401 148.62 136.527 148.607 136.657C148.595 136.787 148.611 136.918 148.653 137.042C148.694 137.166 148.762 137.279 148.85 137.375C148.938 137.472 149.046 137.548 149.166 137.6C149.285 137.652 149.415 137.679 149.545 137.678C149.676 137.706 149.811 137.706 149.942 137.679C150.073 137.652 150.197 137.599 150.306 137.522C150.415 137.445 150.507 137.346 150.577 137.231C150.646 137.117 150.69 136.989 150.708 136.857H150.702Z" fill="white"/>
<path d="M180.081 133.668L167.59 132.382C166.939 132.315 166.356 132.789 166.289 133.44L165.003 145.931C164.936 146.582 165.41 147.165 166.061 147.232L178.552 148.518C179.203 148.585 179.786 148.112 179.853 147.46L181.139 134.969C181.206 134.318 180.733 133.735 180.081 133.668Z" fill="#0059EF"/>
<g opacity="0.4">
<path opacity="0.4" d="M180.08 133.678L167.59 132.383C166.939 132.315 166.357 132.789 166.29 133.44L165.013 145.932C164.946 146.583 165.42 147.166 166.071 147.234L178.562 148.529C179.213 148.597 179.795 148.123 179.861 147.472L181.139 134.98C181.206 134.328 180.732 133.746 180.08 133.678Z" fill="black"/>
</g>
<path d="M177.792 133.429L165.301 132.143C164.65 132.076 164.067 132.549 164 133.201L162.714 145.692C162.647 146.343 163.121 146.925 163.772 146.992L176.263 148.279C176.914 148.346 177.497 147.872 177.564 147.221L178.85 134.73C178.917 134.079 178.444 133.496 177.792 133.429Z" fill="#263238"/>
<path d="M167.495 139.599L167.437 140.166L174.071 140.85L174.129 140.283L167.495 139.599Z" fill="white"/>
<path d="M156.371 153.229L143.88 151.943C143.229 151.876 142.647 152.35 142.58 153.001L141.293 165.492C141.226 166.143 141.7 166.726 142.351 166.793L154.842 168.079C155.494 168.146 156.076 167.673 156.143 167.021L157.429 154.53C157.496 153.879 157.023 153.296 156.371 153.229Z" fill="#0059EF"/>
<g opacity="0.4">
<path opacity="0.4" d="M156.371 153.239L143.88 151.944C143.229 151.876 142.647 152.35 142.58 153.001L141.303 165.493C141.236 166.144 141.71 166.727 142.362 166.795L154.852 168.09C155.503 168.158 156.085 167.684 156.152 167.033L157.429 154.541C157.496 153.89 157.022 153.307 156.371 153.239Z" fill="black"/>
</g>
<path d="M154.077 152.99L141.586 151.704C140.934 151.637 140.352 152.11 140.285 152.762L138.998 165.253C138.931 165.904 139.405 166.487 140.056 166.554L152.547 167.84C153.199 167.907 153.781 167.433 153.848 166.782L155.135 154.291C155.202 153.64 154.728 153.057 154.077 152.99Z" fill="#263238"/>
<path d="M177.84 155.44L165.349 154.154C164.698 154.087 164.115 154.56 164.048 155.212L162.762 167.703C162.695 168.354 163.168 168.937 163.82 169.004L176.311 170.29C176.962 170.357 177.545 169.884 177.612 169.232L178.898 156.741C178.965 156.09 178.492 155.507 177.84 155.44Z" fill="#0059EF"/>
<g opacity="0.4">
<path opacity="0.4" d="M177.839 155.45L165.349 154.155C164.698 154.087 164.116 154.561 164.049 155.212L162.772 167.704C162.705 168.355 163.179 168.938 163.83 169.006L176.32 170.301C176.972 170.369 177.554 169.895 177.62 169.244L178.898 156.752C178.965 156.1 178.491 155.518 177.839 155.45Z" fill="black"/>
</g>
<path d="M175.551 155.201L163.06 153.915C162.409 153.848 161.826 154.321 161.759 154.973L160.473 167.464C160.406 168.115 160.879 168.697 161.531 168.764L174.022 170.051C174.673 170.118 175.256 169.644 175.323 168.993L176.609 156.502C176.676 155.851 176.202 155.268 175.551 155.201Z" fill="#455A64"/>
<path d="M165.34 160.561L165.281 161.128L171.915 161.811L171.974 161.244L165.34 160.561Z" fill="white"/>
<path d="M165.084 163.081L165.025 163.648L171.659 164.332L171.717 163.765L165.084 163.081Z" fill="white"/>
<path d="M131.904 150.513L98.887 147.113C98.1042 147.032 97.4042 147.601 97.3236 148.384L96.0471 160.779C95.9664 161.562 96.5357 162.262 97.3186 162.342L130.335 165.742C131.118 165.823 131.818 165.254 131.899 164.471L133.175 152.076C133.256 151.293 132.686 150.593 131.904 150.513Z" fill="#263238"/>
<path d="M113.27 155.998C113.481 153.951 114.735 152.914 116.257 153.068C117.779 153.222 118.788 154.499 118.577 156.545C118.366 158.591 117.124 159.629 115.596 159.469C114.068 159.309 113.059 158.038 113.27 155.998ZM117.135 156.397C117.283 154.989 116.844 154.356 116.132 154.282C115.419 154.208 114.866 154.738 114.724 156.146C114.581 157.554 115.015 158.186 115.721 158.261C116.428 158.335 116.992 157.799 117.135 156.397Z" fill="white"/>
<path d="M147.171 156.425L146.389 163.048L146.955 163.115L147.737 156.491L147.171 156.425Z" fill="white"/>
<path d="M143.782 159.154L143.724 159.721L150.358 160.404L150.416 159.837L143.782 159.154Z" fill="white"/>
<path d="M140.676 54.8568L139.724 64.1079L139.285 64.0623L140.22 55.2216L137.894 54.9822L137.934 54.5718L140.676 54.8568Z" fill="#263238"/>
<path d="M148.28 64.5753L148.234 64.9857L141.964 64.3416L141.998 64.0224L146.376 60.4371C147.63 59.4168 147.932 58.767 148.012 58.0146C148.137 56.7834 147.362 55.9056 145.732 55.7346C145.219 55.6424 144.693 55.6685 144.192 55.8107C143.691 55.953 143.229 56.2077 142.842 56.5554L142.568 56.2362C143.005 55.856 143.52 55.5771 144.076 55.4194C144.633 55.2617 145.218 55.2292 145.789 55.3242C147.556 55.5066 148.588 56.5326 148.434 58.026C148.342 58.9038 147.989 59.6391 146.644 60.7278L142.654 63.9939L148.28 64.5753Z" fill="#263238"/>
<path d="M155.61 63.1503C155.45 64.6893 154.259 65.6583 152.224 65.4303C151.625 65.3981 151.039 65.2374 150.507 64.9591C149.975 64.6808 149.509 64.2914 149.141 63.8172L149.414 63.5265C149.753 63.9664 150.184 64.3276 150.675 64.5854C151.167 64.8432 151.709 64.9914 152.264 65.0199C154.031 65.2023 155.046 64.4499 155.188 63.0933C155.331 61.7367 154.516 60.8133 152.555 60.591L152.042 60.534L152.076 60.2205L155.342 56.7606L150.241 56.2362L150.281 55.8258L155.98 56.3958L155.946 56.7093L152.663 60.1806C154.806 60.42 155.77 61.6056 155.61 63.1503Z" fill="#263238"/>
<path d="M164.73 63.9825L162.718 63.7773L162.444 66.4506L162.005 66.405L162.279 63.7317L156.967 63.1617L157.001 62.8425L162.763 57.1083L163.277 57.1596L157.577 62.8254L162.313 63.3156L162.553 60.9615L162.992 61.0071L162.746 63.3555L164.758 63.5664L164.73 63.9825Z" fill="#263238"/>
<path d="M166.651 66.4791C166.624 66.6447 166.58 66.8071 166.52 66.9636L165.859 68.6736L165.517 68.6394L166.115 66.8553C166 66.8364 165.898 66.7726 165.83 66.678C165.762 66.5834 165.734 66.4657 165.753 66.3508C165.772 66.2359 165.836 66.1332 165.93 66.0654C166.025 65.9975 166.143 65.97 166.258 65.9889C166.374 66.0032 166.48 66.0624 166.554 66.154C166.627 66.2456 166.662 66.3622 166.651 66.4791Z" fill="#263238"/>
<path d="M175.816 65.1282L173.81 64.923L173.536 67.5906L173.098 67.545L173.371 64.8774L168.059 64.3074L168.093 63.9882L173.85 58.2711L174.363 58.3281L168.663 63.9939L173.4 64.4784L173.639 62.1243L174.078 62.1699L173.85 64.524L175.862 64.7292L175.816 65.1282Z" fill="#263238"/>
<path d="M182.691 65.892C182.531 67.3968 181.368 68.4513 179.271 68.2347C178.674 68.2004 178.092 68.0387 177.563 67.7605C177.034 67.4822 176.57 67.0939 176.204 66.6216L176.489 66.3309C176.827 66.7724 177.257 67.1349 177.749 67.3929C178.241 67.6508 178.784 67.7981 179.339 67.8243C181.146 68.0124 182.132 67.1517 182.269 65.8407C182.417 64.4157 181.653 63.4809 179.008 63.2073L177.213 63.0249L178.125 58.71L182.896 59.2059L182.856 59.6163L178.45 59.1603L177.692 62.6601L179.117 62.8083C181.944 63.099 182.856 64.2504 182.691 65.892Z" fill="#263238"/>
<path d="M81.5784 255.457L77.9532 268.858L89.7351 269.929L92.2089 257.173L81.5784 255.457Z" fill="#0059EF"/>
<path d="M90.06 268.841C89.4896 268.881 88.9164 268.862 88.35 268.784C87.2898 268.698 85.8306 268.533 84.2175 268.328L80.1021 267.758C79.5239 267.714 78.9512 267.615 78.3921 267.461C78.963 267.429 79.5357 267.451 80.1021 267.53C81.1623 267.615 82.6215 267.78 84.2346 267.986L88.35 268.556C88.9271 268.602 89.4991 268.697 90.06 268.841Z" fill="#263238"/>
<g opacity="0.6">
<path opacity="0.6" d="M77.9532 268.858L89.7351 269.929L89.9232 268.949L78.2952 267.473L77.9703 268.721" fill="white"/>
</g>
<path d="M83.79 268.259C84.4518 264.818 85.2889 261.412 86.298 258.056C86.008 259.785 85.6275 261.497 85.158 263.186C84.79 264.9 84.3334 266.593 83.79 268.259Z" fill="#263238"/>
<path d="M89.4273 268.755C89.6122 267.935 89.6122 267.084 89.4273 266.264C89.2204 265.383 88.7747 264.577 88.1391 263.933C87.3466 263.16 86.312 262.682 85.2093 262.582C84.1082 262.468 83.0003 262.721 82.0572 263.3C81.2917 263.786 80.6606 264.456 80.2218 265.25C79.8313 265.994 79.5784 266.803 79.4751 267.638C79.4675 267.579 79.4675 267.52 79.4751 267.461C79.4728 267.292 79.4824 267.122 79.5036 266.954C79.5856 266.326 79.7786 265.718 80.0736 265.158C80.5064 264.316 81.1507 263.601 81.9432 263.084C82.9303 262.459 84.0991 262.186 85.2606 262.308C86.4253 262.414 87.5162 262.925 88.3443 263.75C89.0001 264.435 89.4504 265.29 89.6439 266.218C89.7714 266.839 89.7714 267.479 89.6439 268.099C89.6073 268.266 89.5577 268.43 89.4957 268.59C89.4805 268.648 89.4575 268.703 89.4273 268.755Z" fill="#263238"/>
<path d="M130.171 253.929L129.47 264.48C129.47 264.48 139.969 267.963 140.032 269.923L119.512 270.072L119.928 253.587L130.171 253.929Z" fill="#0059EF"/>
<g opacity="0.6">
<path opacity="0.6" d="M123.154 263.403C122.955 263.458 122.783 263.584 122.67 263.757C122.558 263.93 122.513 264.139 122.544 264.343C122.591 264.545 122.713 264.721 122.886 264.835C123.06 264.948 123.27 264.991 123.473 264.953C123.684 264.894 123.865 264.76 123.983 264.576C124.101 264.392 124.147 264.171 124.112 263.956C124.041 263.751 123.895 263.582 123.703 263.483C123.51 263.384 123.287 263.364 123.08 263.426" fill="white"/>
</g>
<g opacity="0.6">
<path opacity="0.6" d="M119.512 270.083L119.62 268.419L139.376 268.989C139.585 269.096 139.764 269.254 139.896 269.448C140.028 269.643 140.11 269.867 140.134 270.1L119.512 270.083Z" fill="white"/>
</g>
<path d="M129.806 264.389C129.806 264.491 129.299 264.52 128.791 264.828C128.284 265.135 128.016 265.546 127.925 265.506C127.834 265.466 127.999 264.89 128.615 264.526C129.23 264.161 129.829 264.298 129.806 264.389Z" fill="#263238"/>
<path d="M131.926 265.346C131.926 265.443 131.51 265.597 131.157 266.013C130.804 266.429 130.69 266.868 130.587 266.863C130.484 266.857 130.439 266.293 130.889 265.78C131.339 265.267 131.932 265.25 131.926 265.346Z" fill="#263238"/>
<path d="M133.072 267.957C132.981 267.957 132.856 267.467 133.129 266.931C133.403 266.395 133.882 266.184 133.921 266.27C133.961 266.355 133.659 266.64 133.443 267.085C133.226 267.53 133.175 267.951 133.072 267.957Z" fill="#263238"/>
<path d="M129.698 261.966C129.652 262.057 129.196 261.904 128.632 261.926C128.068 261.949 127.617 262.114 127.566 262.023C127.515 261.932 127.954 261.596 128.62 261.579C129.287 261.562 129.749 261.892 129.698 261.966Z" fill="#263238"/>
<g opacity="0.3">
<path opacity="0.3" d="M130.028 256.021L129.903 257.902L119.825 257.503L119.865 255.81L130.028 256.021Z" fill="black"/>
</g>
<path d="M129.8 259.834C129.461 259.915 129.107 259.903 128.774 259.8C128.406 259.722 128.048 259.6 127.708 259.435C127.51 259.34 127.32 259.229 127.138 259.105C127.024 259.039 126.922 258.955 126.836 258.854C126.772 258.781 126.734 258.688 126.729 258.591C126.724 258.494 126.752 258.398 126.808 258.318C126.861 258.251 126.928 258.197 127.005 258.159C127.082 258.122 127.167 258.102 127.252 258.102C127.383 258.104 127.511 258.127 127.634 258.17C127.853 258.229 128.064 258.309 128.267 258.409C128.61 258.575 128.923 258.794 129.196 259.059C129.658 259.515 129.812 259.891 129.766 259.909C129.721 259.926 129.498 259.624 129.025 259.242C128.75 259.022 128.447 258.84 128.125 258.7C127.941 258.617 127.75 258.551 127.555 258.501C127.338 258.438 127.156 258.427 127.093 258.501C127.03 258.575 127.093 258.552 127.093 258.615C127.159 258.687 127.233 258.75 127.315 258.803C127.494 258.924 127.67 259.033 127.845 259.128C128.159 259.294 128.487 259.432 128.826 259.538C129.156 259.616 129.482 259.715 129.8 259.834Z" fill="#263238"/>
<path d="M129.664 259.977C129.482 259.675 129.399 259.325 129.424 258.974C129.414 258.372 129.571 257.78 129.88 257.264C129.939 257.13 130.031 257.013 130.148 256.925C130.265 256.838 130.402 256.781 130.547 256.762C130.639 256.766 130.728 256.797 130.803 256.85C130.878 256.904 130.936 256.978 130.969 257.064C131.018 257.185 131.05 257.311 131.066 257.441C131.101 257.749 131.076 258.061 130.991 258.359C130.906 258.657 130.763 258.936 130.57 259.179C130.154 259.703 129.732 259.806 129.726 259.749C129.721 259.692 130.051 259.515 130.37 259.014C130.556 258.726 130.677 258.401 130.724 258.062C130.752 257.863 130.752 257.662 130.724 257.463C130.724 257.247 130.621 257.07 130.541 257.087C130.462 257.104 130.262 257.241 130.171 257.412C130.065 257.595 129.974 257.785 129.897 257.982C129.774 258.308 129.698 258.649 129.669 258.997C129.624 259.584 129.721 259.96 129.664 259.977Z" fill="#263238"/>
<path d="M85.6767 89.5698C85.6767 89.5698 83.448 101.711 81.6867 109.058C80.2959 114.758 76.7049 125.463 83.2086 128.569C89.7123 131.676 98.4333 119.13 98.4333 119.13L102.144 90.5502C99.5619 91.0347 96.6321 94.0329 93.5142 98.439L94.0842 87.609L85.6767 89.5698Z" fill="#455A64"/>
<path d="M175.178 107.508L171.758 109.138L168.606 104.196L170.447 100.383C170.624 100.029 170.812 99.636 171.017 99.18C171.245 98.6461 171.382 98.0777 171.422 97.4985C171.501 96.785 171.484 96.0641 171.371 95.3553C171.2 94.7169 171.872 94.2153 172.328 94.5687C172.784 94.9221 173.297 96.6777 172.961 98.781C172.625 100.884 175.064 98.6556 175.97 97.8576C176.877 97.0596 179.789 94.734 180.251 94.8252C180.918 94.9563 180.901 95.7201 179.977 96.4896C179.054 97.2591 176.449 99.7842 176.877 100.252C177.411 100.312 177.913 100.537 178.313 100.895C178.714 101.254 178.993 101.728 179.111 102.252C179.339 103.284 179.527 104.715 178.946 105.188C177.741 106.041 176.483 106.816 175.178 107.508Z" fill="#FFBE9D"/>
<path d="M108.87 61.4403L108.779 91.143L121.513 91.77L121.883 84.5481C121.883 84.5481 126.409 85.4487 127.583 81.2421C128.33 78.5574 128.153 57.8037 128.153 57.8037L108.87 61.4403Z" fill="#FFBE9D"/>
<path d="M131.015 60.7107C130.154 62.4834 126.067 65.7324 126.067 65.7324L124.22 70.68C122.618 69.426 120.464 69.5001 120.059 72.3159C119.763 74.3565 122.294 74.7669 122.294 74.7669C120.817 77.2749 119.82 79.3269 117.676 81.6867C115.351 84.2745 114.051 84.5367 111.532 84.5766H108.75C108.75 84.5766 103.05 79.8228 104.19 67.3113C105.33 54.7998 116.565 58.4535 119.25 55.3413C123.622 50.2341 133.882 54.7884 131.015 60.7107Z" fill="#263238"/>
<path d="M104.823 77.7708H105.176C105.516 77.7647 105.853 77.7266 106.185 77.6568C107.404 77.3795 108.529 76.7902 109.451 75.9468C110.774 74.6485 111.889 73.1548 112.757 71.5179C113.327 70.623 113.863 69.6711 114.547 68.7534C115.236 67.789 116.082 66.947 117.05 66.2625C118.045 65.6179 119.144 65.1494 120.298 64.8774C121.404 64.5924 122.493 64.4157 123.519 64.2162C125.571 63.8343 127.412 63.2643 128.649 62.2896C129.661 61.5491 130.394 60.4887 130.729 59.28C130.81 58.9517 130.852 58.615 130.855 58.2768C130.855 58.0431 130.855 57.9177 130.855 57.9177C130.855 57.9177 130.855 58.0431 130.895 58.2768C130.902 58.6179 130.868 58.9587 130.792 59.2914C130.468 60.5192 129.737 61.6005 128.717 62.358C127.452 63.3498 125.594 63.9369 123.542 64.3188C122.51 64.524 121.427 64.7007 120.327 64.9914C119.186 65.2626 118.099 65.7252 117.112 66.3594C116.159 67.0405 115.324 67.8722 114.638 68.8218C113.96 69.7338 113.396 70.68 112.854 71.5749C111.975 73.2172 110.846 74.7131 109.508 76.0095C108.574 76.8612 107.432 77.4511 106.197 77.7195C105.861 77.7853 105.519 77.8177 105.176 77.8164C104.943 77.7879 104.823 77.7708 104.823 77.7708Z" fill="#455A64"/>
<path d="M104.167 67.5963C104.167 67.5963 104.367 67.5165 104.737 67.3911C105.305 67.1916 105.891 67.0521 106.487 66.975C107.436 66.8304 108.406 67.0328 109.218 67.545C109.468 67.7118 109.684 67.9266 109.851 68.1771C110.018 68.4276 110.134 68.7087 110.192 69.0042C110.26 69.3378 110.244 69.6831 110.144 70.0086C110.045 70.3342 109.865 70.6297 109.622 70.8681C109.345 71.1116 108.993 71.2525 108.625 71.2671C108.242 71.2728 107.865 71.1722 107.536 70.9764C106.838 70.5623 106.318 69.9044 106.077 69.1296C105.803 68.3132 105.765 67.4357 105.969 66.5988C106.178 65.7145 106.659 64.9176 107.342 64.3188C108.058 63.6775 108.957 63.2785 109.913 63.1788C110.903 63.117 111.895 63.2447 112.837 63.555C113.806 63.866 114.797 64.1042 115.801 64.2675C116.838 64.4044 117.888 64.4044 118.925 64.2675C119.962 64.144 120.975 63.8634 121.929 63.4353C122.395 63.2474 122.816 62.9621 123.163 62.5983C123.51 62.2346 123.775 61.8009 123.941 61.3263C124.077 60.8616 124.086 60.3692 123.969 59.8994C123.852 59.4296 123.612 58.9995 123.274 58.653C122.93 58.3423 122.502 58.1402 122.043 58.0722C121.585 58.0042 121.117 58.0735 120.697 58.2711C120.289 58.4503 119.955 58.7642 119.751 59.1603C119.557 59.5498 119.485 59.989 119.546 60.42C119.604 60.8326 119.75 61.228 119.973 61.5799C120.196 61.9318 120.492 62.2321 120.84 62.4606C121.51 62.872 122.282 63.0891 123.069 63.0876C123.794 63.1007 124.516 62.9928 125.206 62.7684C126.401 62.3923 127.487 61.7311 128.37 60.8418C129.041 60.1808 129.594 59.4096 130.006 58.5618C130.265 58.0146 130.466 57.4414 130.604 56.8518C130.678 56.4528 130.729 56.2419 130.729 56.2419L130.627 56.8575C130.5 57.4468 130.309 58.0203 130.057 58.5675C129.655 59.4309 129.103 60.2163 128.427 60.8874C127.542 61.7904 126.45 62.4635 125.246 62.8482C124.547 63.0741 123.815 63.1857 123.08 63.1788C122.276 63.1839 121.487 62.9648 120.8 62.5461C120.438 62.3111 120.131 62.0012 119.899 61.6374C119.667 61.2736 119.515 60.8644 119.455 60.4371C119.388 59.9851 119.461 59.5234 119.666 59.1147C119.882 58.6973 120.234 58.3657 120.663 58.1742C121.103 57.9659 121.594 57.8927 122.075 57.9637C122.556 58.0347 123.005 58.2469 123.365 58.5732C123.717 58.9335 123.968 59.3808 124.091 59.8694C124.214 60.358 124.206 60.8706 124.066 61.3548C123.895 61.8458 123.622 62.2948 123.264 62.6722C122.906 63.0495 122.473 63.3465 121.991 63.5436C121.026 63.9749 120.002 64.2592 118.953 64.3872C117.905 64.5212 116.844 64.5212 115.795 64.3872C114.788 64.2225 113.793 63.9844 112.82 63.6747C111.891 63.3696 110.913 63.2401 109.936 63.2928C109.273 63.3634 108.635 63.5817 108.068 63.9316C107.501 64.2815 107.019 64.7541 106.659 65.3146C106.298 65.8751 106.068 66.5093 105.985 67.1706C105.902 67.8318 105.969 68.5032 106.18 69.1353C106.414 69.8873 106.917 70.5265 107.593 70.9308C107.907 71.1185 108.265 71.217 108.631 71.2158C108.98 71.2028 109.314 71.0699 109.577 70.8396C109.808 70.6091 109.978 70.325 110.072 70.0128C110.167 69.7005 110.183 69.3697 110.118 69.0498C110.004 68.4744 109.668 67.9668 109.183 67.6362C108.384 67.1291 107.429 66.9268 106.493 67.0662C105.9 67.1377 105.315 67.2695 104.749 67.4595L104.167 67.5963Z" fill="#455A64"/>
<path d="M95.7657 148.457L78.8025 259.88L92.8929 261.664L112.769 168.213L117.779 262.297L133.049 262.029L130.519 148.719L95.7657 148.457Z" fill="#263238"/>
<path d="M117.506 262.582V262.308L112.615 170.379L93.1152 261.983L78.4776 260.125L95.5206 148.2L130.798 148.462L133.34 262.337L117.506 262.582ZM112.946 166.041L118.076 262.006L132.787 261.75L130.268 149.004L96.0108 148.77L79.1274 259.629L92.6649 261.339L112.946 166.041Z" fill="#263238"/>
<path d="M128.512 261.847C128.427 261.847 128.364 239.525 128.364 211.994C128.364 184.463 128.427 162.131 128.512 162.131C128.598 162.131 128.66 184.452 128.66 211.994C128.66 239.537 128.592 261.847 128.512 261.847Z" fill="#455A64"/>
<path d="M89.7921 261.442C89.796 261.361 89.8074 261.281 89.8263 261.202C89.8263 261.026 89.9004 260.792 89.9574 260.496C90.0771 259.863 90.2538 258.951 90.4761 257.788C90.9549 255.423 91.6161 252.031 92.4768 247.842C94.1868 239.446 96.6093 227.863 99.3909 215.095C102.173 202.327 104.789 190.779 106.727 182.44C107.702 178.279 108.494 174.91 109.047 172.562C109.326 171.422 109.548 170.51 109.697 169.883C109.771 169.586 109.833 169.358 109.873 169.187C109.893 169.108 109.917 169.03 109.947 168.954C109.947 168.954 109.947 169.033 109.902 169.193C109.856 169.353 109.822 169.598 109.759 169.894C109.617 170.527 109.417 171.433 109.161 172.59C108.631 174.939 107.873 178.29 106.932 182.485C105.045 190.842 102.463 202.39 99.6816 215.158C96.9 227.926 94.4433 239.503 92.682 247.882C91.7985 252.065 91.086 255.451 90.5901 257.811C90.345 258.951 90.1512 259.874 90.0201 260.507L89.8605 261.208C89.8456 261.288 89.8227 261.366 89.7921 261.442Z" fill="#455A64"/>
<path d="M117.779 168.11C117.569 168.166 117.352 168.195 117.135 168.196L115.374 168.321C113.886 168.418 111.828 168.52 109.571 168.743C107.314 168.965 105.279 169.273 103.803 169.467L102.053 169.689C101.839 169.73 101.62 169.743 101.403 169.729C101.607 169.654 101.82 169.602 102.036 169.575C102.44 169.489 103.033 169.381 103.746 169.256C105.216 169.011 107.251 168.686 109.52 168.446C111.788 168.207 113.852 168.156 115.339 168.11C116.086 168.11 116.69 168.082 117.106 168.082C117.331 168.067 117.557 168.076 117.779 168.11Z" fill="#455A64"/>
<path d="M130.815 160.877C130.676 160.938 130.528 160.974 130.376 160.985C129.969 161.044 129.556 161.063 129.145 161.042C127.776 160.969 126.458 160.504 125.346 159.703C124.235 158.901 123.377 157.797 122.875 156.522C122.723 156.139 122.611 155.742 122.539 155.336C122.487 155.051 122.482 154.892 122.504 154.886C122.527 154.88 122.653 155.513 123.074 156.436C123.621 157.642 124.469 158.687 125.537 159.469C126.616 160.233 127.875 160.702 129.19 160.831C130.171 160.934 130.804 160.82 130.815 160.877Z" fill="#455A64"/>
<path d="M92.8644 150.645L131.898 150.52L129.76 124.762C129.527 118.868 129.561 118.161 129.413 112.723C129.413 112.723 134.953 119.421 139.314 124.123C140.599 125.505 142.29 126.442 144.143 126.797C145.996 127.153 147.914 126.909 149.619 126.101L172.419 110.192L168.15 99.2655L147.43 111.948C146.479 111.378 138.413 99.8469 132.838 94.2324C129.269 90.6388 124.455 88.5551 119.392 88.4127C115.19 88.3144 110.987 88.4838 106.807 88.92C103.762 89.246 100.925 90.6228 98.7854 92.8136C96.6456 95.0044 95.3359 97.8724 95.0817 100.924C94.677 105.741 95.0019 111.332 95.0019 120.834L92.8644 150.645Z" fill="#455A64"/>
<path d="M94.6998 103.529C94.6998 103.529 94.6998 103.637 94.6998 103.831C94.6998 104.025 94.6998 104.35 94.6998 104.692C94.6998 105.444 94.6998 106.527 94.6998 107.867C94.6998 110.546 94.8195 114.239 94.9392 118.326C95.0589 122.413 95.076 126.118 94.9734 128.791C94.9278 130.131 94.8651 131.214 94.8024 131.961C94.8024 132.308 94.7511 132.593 94.734 132.821C94.7169 133.049 94.6998 133.118 94.6998 133.118C94.6998 133.118 94.6998 133.015 94.6998 132.821C94.6998 132.628 94.7283 132.303 94.7454 131.961C94.7967 131.214 94.8423 130.131 94.8765 128.791C94.9563 126.112 94.9221 122.413 94.8081 118.326C94.6941 114.239 94.5972 110.546 94.6029 107.867C94.6029 106.527 94.6029 105.444 94.6428 104.692C94.6428 104.344 94.6428 104.065 94.6713 103.831C94.6998 103.597 94.6998 103.529 94.6998 103.529Z" fill="#263238"/>
<path d="M146.576 115.636C146.582 115.455 146.609 115.275 146.655 115.1C146.724 114.77 146.821 114.314 146.94 113.818C147.06 113.322 147.168 112.866 147.254 112.547C147.287 112.368 147.343 112.193 147.419 112.028C147.412 112.209 147.383 112.389 147.334 112.564C147.271 112.894 147.168 113.345 147.054 113.846C146.94 114.348 146.826 114.792 146.741 115.117C146.705 115.296 146.649 115.47 146.576 115.636Z" fill="#263238"/>
<path d="M148.656 115.955C148.438 115.283 148.261 114.597 148.126 113.903C147.95 113.218 147.811 112.523 147.71 111.823C147.925 112.496 148.102 113.181 148.24 113.875C148.415 114.56 148.554 115.255 148.656 115.955Z" fill="#263238"/>
<path d="M130.376 113.686L130.165 113.493L129.567 112.923C129.054 112.421 128.313 111.686 127.423 110.745C126.381 109.652 125.41 108.492 124.516 107.274C123.411 105.782 122.519 104.144 121.866 102.406C121.206 100.665 120.909 98.8062 120.994 96.9456C121.022 95.426 121.356 93.9277 121.974 92.5395C122.417 91.6109 123.076 90.8017 123.895 90.1797C124.115 90.0127 124.345 89.8603 124.585 89.7237L124.841 89.5812C124.841 89.5812 124.488 89.775 123.924 90.2139C123.124 90.8441 122.482 91.6521 122.048 92.5737C121.447 93.956 121.125 95.4439 121.102 96.9513C121.022 98.7972 121.321 100.64 121.98 102.366C122.63 104.093 123.512 105.723 124.602 107.211C125.491 108.428 126.454 109.59 127.486 110.688C128.364 111.634 129.094 112.398 129.601 112.894L130.171 113.464C130.313 113.612 130.376 113.686 130.376 113.686Z" fill="#263238"/>
<path d="M105.005 103.09C104.49 102.674 104.039 102.184 103.666 101.637C103.221 101.149 102.849 100.6 102.56 100.006C103.075 100.421 103.526 100.909 103.9 101.454C104.347 101.942 104.719 102.493 105.005 103.09Z" fill="#455A64"/>
<path d="M113.875 113.156C113.334 113.905 112.715 114.592 112.028 115.208C111.409 115.895 110.719 116.514 109.97 117.055C111.129 115.62 112.438 114.313 113.875 113.156Z" fill="#455A64"/>
<path d="M122.459 127.606C122.379 127.606 122.065 126.751 121.484 125.765C120.903 124.779 120.299 124.055 120.344 124.015C120.932 124.423 121.407 124.975 121.723 125.617C122.131 126.208 122.383 126.892 122.459 127.606Z" fill="#455A64"/>
<path d="M100.206 125.97C99.3387 124.15 98.9839 122.128 99.18 120.122C99.2712 120.122 99.294 121.456 99.5847 123.063C99.8754 124.67 100.32 125.936 100.206 125.97Z" fill="#455A64"/>
<path d="M112.022 132.331C111.312 130.801 111.159 129.072 111.589 127.441C111.674 127.441 111.549 128.552 111.674 129.897C111.8 131.243 112.108 132.303 112.022 132.331Z" fill="#455A64"/>
<path d="M107.348 141.571C106.408 141.161 105.51 140.659 104.669 140.072C103.774 139.57 102.928 138.984 102.144 138.322C103.086 138.732 103.985 139.234 104.829 139.821C105.722 140.323 106.566 140.909 107.348 141.571Z" fill="#455A64"/>
<path d="M125.725 138.841C125.765 138.92 124.442 139.576 122.909 140.551C121.376 141.525 120.207 142.432 120.15 142.363C120.908 141.549 121.784 140.853 122.749 140.3C123.661 139.665 124.665 139.173 125.725 138.841Z" fill="#455A64"/>
<path d="M102.6 149.289C101.638 149.244 100.684 149.102 99.75 148.867C98.7891 148.725 97.8455 148.485 96.9342 148.149C97.8963 148.194 98.8512 148.337 99.7842 148.576C100.745 148.718 101.688 148.956 102.6 149.289Z" fill="#455A64"/>
<path d="M114.935 147.282C113.847 146.228 113.109 144.865 112.82 143.378C112.9 143.378 113.253 144.278 113.84 145.35C114.427 146.422 115.003 147.225 114.935 147.282Z" fill="#455A64"/>
<path d="M128.82 148.246C128.606 148.728 128.304 149.167 127.931 149.54C127.361 150.201 126.882 150.68 126.791 150.645C127 150.157 127.302 149.714 127.68 149.34C128.25 148.69 128.734 148.2 128.82 148.246Z" fill="#455A64"/>
<path d="M103.438 109.064C103.483 109.132 102.976 109.554 102.298 109.999C101.913 110.314 101.469 110.55 100.993 110.694C100.947 110.626 101.46 110.204 102.133 109.754C102.517 109.439 102.961 109.204 103.438 109.064Z" fill="#455A64"/>
<path d="M113.059 98.3194C112.602 97.385 112.258 96.3996 112.033 95.3838C111.725 94.3931 111.534 93.3696 111.464 92.3344C111.822 93.3047 112.111 94.2989 112.33 95.3098C112.644 96.2944 112.888 97.3001 113.059 98.3194Z" fill="#455A64"/>
<path d="M122.299 108.1C122.259 108.18 121.427 107.861 120.361 107.662C119.295 107.462 118.4 107.445 118.4 107.354C119.748 107.119 121.134 107.385 122.299 108.1Z" fill="#455A64"/>
<path d="M128.649 99.7899C127.941 99.9967 127.192 100.022 126.472 99.864C125.737 99.8007 125.031 99.5516 124.42 99.1401C124.454 99.0603 125.354 99.3966 126.517 99.5676C127.68 99.7386 128.638 99.7044 128.649 99.7899Z" fill="#455A64"/>
<path d="M135.141 109.058C135.034 108.009 135.088 106.95 135.301 105.917C135.423 104.869 135.707 103.846 136.144 102.885C136.224 102.885 135.865 104.264 135.574 105.963C135.284 107.662 135.232 109.064 135.141 109.058Z" fill="#455A64"/>
<path d="M142.779 119.979C141.358 118.792 140.07 117.454 138.938 115.989C140.355 117.181 141.642 118.518 142.779 119.979Z" fill="#455A64"/>
<path d="M149.129 119.13C148.54 120.419 147.772 121.618 146.849 122.692C147.102 122.026 147.448 121.399 147.875 120.829C148.211 120.206 148.633 119.635 149.129 119.13Z" fill="#455A64"/>
<path d="M156.499 115.545C156.003 114.867 155.589 114.132 155.268 113.356C154.858 112.621 154.535 111.84 154.305 111.03C154.8 111.711 155.214 112.447 155.536 113.225C155.945 113.958 156.269 114.737 156.499 115.545Z" fill="#455A64"/>
<path d="M166.531 111.395C164.773 111.285 163.033 110.975 161.344 110.472C162.227 110.481 163.107 110.588 163.966 110.791C164.841 110.895 165.702 111.097 166.531 111.395Z" fill="#455A64"/>
<path d="M86.8452 122.071C87.454 120.301 88.2529 118.602 89.2278 117.004C88.9674 117.904 88.612 118.773 88.1676 119.597C87.8153 120.466 87.3721 121.296 86.8452 122.071Z" fill="#455A64"/>
<path d="M92.1632 112.689C91.526 112.191 90.9517 111.616 90.4532 110.979C89.8781 110.407 89.3712 109.77 88.9427 109.081C89.5819 109.577 90.1564 110.152 90.6527 110.791C91.2308 111.36 91.738 111.998 92.1632 112.689Z" fill="#455A64"/>
<path d="M91.7187 127.754C91.77 127.817 91.3767 128.233 90.8409 128.683C90.3051 129.134 89.8206 129.441 89.7636 129.379C89.7066 129.316 90.1113 128.9 90.6471 128.455C91.1829 128.011 91.6674 127.68 91.7187 127.754Z" fill="#FAFAFA"/>
<path d="M93.5142 102.72C93.5826 102.771 93.3432 103.176 92.9841 103.626C92.625 104.076 92.2773 104.395 92.2146 104.344C92.1519 104.293 92.3913 103.888 92.7504 103.438C93.1095 102.988 93.48 102.668 93.5142 102.72Z" fill="#455A64"/>
<g opacity="0.3">
<path opacity="0.3" d="M123.308 105.307C125.719 112.883 127.577 120.834 129.989 128.41L129.419 112.723C127.074 110.522 125.02 108.03 123.308 105.307Z" fill="black"/>
</g>
<path d="M84.0864 115.22C84.1062 115.157 84.131 115.096 84.1605 115.037L84.3885 114.507C84.5937 114.051 84.8958 113.401 85.2834 112.598C86.0586 110.99 87.1758 108.796 88.521 106.425C89.8662 104.053 91.1715 101.967 92.1519 100.48C92.6421 99.7329 93.0468 99.1344 93.3318 98.7297L93.6624 98.2623C93.7422 98.154 93.7821 98.097 93.7878 98.1027L93.6852 98.2737L93.3717 98.7525L92.2317 100.525C91.2684 102.024 89.9517 104.116 88.635 106.482C87.3183 108.847 86.1612 111.042 85.3746 112.632L84.4455 114.53C84.3486 114.724 84.2631 114.895 84.1947 115.043C84.1649 115.106 84.1286 115.165 84.0864 115.22Z" fill="#263238"/>
<path d="M87.9339 107.964C87.7308 108.064 87.5214 108.152 87.3069 108.226C86.8116 108.442 86.3382 108.705 85.8933 109.012C85.4512 109.323 85.0408 109.676 84.6678 110.067C84.3771 110.369 84.2175 110.569 84.2061 110.557C84.1947 110.546 84.2061 110.5 84.2973 110.403C84.3919 110.266 84.4947 110.135 84.6051 110.01C84.9637 109.595 85.3736 109.227 85.8249 108.916C86.2763 108.602 86.7644 108.346 87.2784 108.152C87.433 108.091 87.591 108.04 87.7515 107.998C87.8104 107.978 87.8718 107.967 87.9339 107.964Z" fill="#263238"/>
<path d="M88.4697 96.2729C87.9816 97.2067 87.4092 98.0939 86.7597 98.9235C86.1804 99.8089 85.5181 100.637 84.7818 101.397C85.2723 100.467 85.8446 99.5816 86.4918 98.7525C87.072 97.8659 87.7343 97.0357 88.4697 96.2729Z" fill="#455A64"/>
<path d="M92.5851 87.0048C92.8675 87.0548 93.1585 87.0158 93.4178 86.8932C93.6772 86.7707 93.8921 86.5707 94.0329 86.3208C94.3521 85.842 94.5003 85.272 94.7796 84.7704C95.6289 83.2827 97.5555 82.6329 98.3307 81.1053C98.439 80.8887 98.5017 80.5923 98.3307 80.4441C98.1597 80.2959 97.9032 80.3985 97.7037 80.4954L92.6307 83.0376" fill="#FFBE9D"/>
<path d="M92.6193 83.0376C92.7759 82.9037 92.9505 82.7924 93.138 82.707C93.48 82.5132 93.9873 82.2453 94.6143 81.9147L96.8145 80.7747L97.4586 80.4498C97.6981 80.2792 97.9942 80.2077 98.2851 80.2503C98.3743 80.2844 98.4513 80.3444 98.5062 80.4226C98.561 80.5009 98.5912 80.5937 98.5929 80.6892C98.5955 80.8472 98.5603 81.0035 98.4903 81.1452C98.3667 81.3962 98.2136 81.6315 98.0343 81.8463C97.3206 82.5677 96.5589 83.2399 95.7543 83.8584C95.432 84.1405 95.1535 84.469 94.9278 84.8331C94.7226 85.1808 94.5915 85.5399 94.4319 85.8648C94.331 86.1394 94.171 86.3885 93.9632 86.5943C93.7553 86.8002 93.5048 86.9579 93.2292 87.0561C93.129 87.0961 93.0209 87.1127 92.9133 87.1048C92.8057 87.0969 92.7013 87.0647 92.6079 87.0105C92.8007 87.0174 92.9933 86.9924 93.1779 86.9364C93.4191 86.8266 93.6354 86.6689 93.8137 86.473C93.992 86.277 94.1287 86.0468 94.2153 85.7964C94.3524 85.4332 94.5085 85.0774 94.6827 84.7305C94.9124 84.3358 95.2007 83.9784 95.5377 83.6703C96.3363 83.0487 97.0976 82.3806 97.8177 81.6696C97.9766 81.4727 98.116 81.2608 98.2338 81.0369C98.3364 80.826 98.3364 80.6037 98.2338 80.5752C98.1312 80.5467 97.869 80.6436 97.6638 80.7519L97.0197 81.0711L94.7853 82.1541C94.1469 82.4562 93.6453 82.7241 93.2634 82.8552C93.0594 82.9488 92.8421 83.0103 92.6193 83.0376Z" fill="#EB996E"/>
<path d="M251.718 239.622H215.637V244.581H251.718V239.622Z" fill="#263238"/>
<path d="M251.775 244.638H215.574V239.56H251.775V244.638ZM215.699 244.53H251.649V239.696H215.699V244.53Z" fill="#263238"/>
<path d="M218.983 242.928L224.175 268.544H243.39L248.406 244.576L218.983 242.928Z" fill="#263238"/>
<path d="M218.983 266.122L221.753 269.929H245.106L248.406 266.122H218.983Z" fill="#455A64"/>
<path d="M232.321 243.675C232.247 243.675 232.155 231.808 232.115 217.17C232.076 202.532 232.115 190.659 232.172 190.659C232.229 190.659 232.332 202.527 232.372 217.17C232.412 231.813 232.389 243.675 232.321 243.675Z" fill="#263238"/>
<path d="M240.358 213.972C240.334 214.068 240.301 214.162 240.261 214.252L239.936 215.016C239.867 215.187 239.788 215.369 239.702 215.586L239.463 216.264C239.377 216.503 239.28 216.76 239.183 217.033C239.087 217.307 239.012 217.603 238.916 217.917C238.487 219.367 238.15 220.842 237.907 222.334C237.623 224.165 237.433 226.008 237.337 227.858C237.205 231.223 237.3 234.594 237.622 237.947C237.741 239.235 237.855 240.278 237.941 240.996C237.981 241.332 238.009 241.606 238.032 241.823C238.04 241.919 238.04 242.017 238.032 242.113C237.995 242.024 237.972 241.93 237.964 241.834C237.929 241.617 237.884 241.344 237.827 241.008C237.707 240.295 237.565 239.252 237.428 237.964C237.066 234.598 236.963 231.21 237.12 227.829C237.21 225.97 237.401 224.116 237.69 222.277C237.946 220.776 238.304 219.295 238.762 217.843C238.859 217.535 238.944 217.239 239.047 216.965L239.343 216.195C239.44 215.956 239.525 215.734 239.605 215.523C239.685 215.312 239.788 215.141 239.862 214.953L240.232 214.206C240.265 214.124 240.308 214.046 240.358 213.972Z" fill="#263238"/>
<path d="M239.434 204.374C239.404 204.507 239.366 204.638 239.32 204.767C239.223 205.04 239.098 205.405 238.944 205.867C238.859 206.112 238.767 206.374 238.67 206.665L238.38 207.623C238.169 208.312 237.924 209.087 237.707 209.971C237.587 210.404 237.468 210.866 237.342 211.339C237.217 211.812 237.12 212.325 237.006 212.844C236.755 213.875 236.573 214.998 236.339 216.167C235.94 218.527 235.592 221.132 235.347 223.879C235.102 226.626 235.022 229.26 234.988 231.654C234.954 234.048 234.988 236.214 235.108 238.004C235.142 238.91 235.199 239.714 235.245 240.443C235.29 241.173 235.33 241.777 235.376 242.284C235.421 242.792 235.444 243.156 235.467 243.424C235.481 243.559 235.481 243.694 235.467 243.829C235.434 243.698 235.413 243.565 235.404 243.43L235.268 242.29C235.205 241.788 235.142 241.15 235.091 240.455C235.04 239.759 234.96 238.921 234.914 238.015C234.794 236.208 234.743 234.025 234.737 231.648C234.732 229.271 234.851 226.615 235.079 223.862C235.307 221.109 235.684 218.487 236.094 216.127C236.333 214.953 236.522 213.847 236.784 212.792C236.909 212.274 237.023 211.772 237.137 211.293C237.251 210.815 237.399 210.359 237.519 209.92C237.747 209.042 238.004 208.261 238.232 207.577L238.539 206.625C238.648 206.34 238.75 206.055 238.836 205.833L239.258 204.75C239.309 204.621 239.368 204.495 239.434 204.374Z" fill="#263238"/>
<path d="M230.035 245.773V245.636C230.035 245.528 230.035 245.396 230.001 245.225C229.972 244.849 229.938 244.325 229.892 243.658C229.807 242.273 229.687 240.301 229.533 237.872C229.22 232.993 228.764 226.25 227.943 218.834C227.527 215.129 227.037 211.607 226.535 208.415C226.262 206.825 226.022 205.308 225.743 203.895C225.464 202.481 225.218 201.17 224.962 199.973C224.705 198.776 224.46 197.693 224.249 196.753C224.039 195.812 223.839 194.997 223.679 194.33C223.52 193.663 223.394 193.19 223.309 192.803C223.269 192.637 223.241 192.506 223.218 192.404C223.195 192.301 223.189 192.267 223.218 192.267C223.236 192.309 223.251 192.353 223.263 192.398C223.263 192.5 223.332 192.626 223.377 192.791C223.48 193.156 223.622 193.663 223.799 194.307C223.976 194.951 224.204 195.772 224.426 196.718C224.648 197.665 224.928 198.736 225.179 199.939C225.429 201.142 225.749 202.441 225.988 203.855C226.227 205.268 226.524 206.785 226.803 208.381C227.322 211.573 227.818 215.095 228.234 218.806C229.055 226.216 229.482 232.982 229.75 237.867C229.881 240.306 229.972 242.284 230.029 243.652C230.029 244.319 230.075 244.849 230.086 245.225C230.086 245.391 230.086 245.528 230.086 245.636C230.079 245.684 230.061 245.731 230.035 245.773Z" fill="#263238"/>
<path d="M232.024 196.365C231.87 194.684 230.172 193.412 228.479 193.395C227.633 193.433 226.808 193.663 226.064 194.066C225.321 194.47 224.679 195.038 224.187 195.727C223.215 197.115 222.513 198.673 222.118 200.321C220.885 204.267 220.453 208.42 220.847 212.536C221.331 216.629 222.99 220.658 225.925 223.548C226.404 224.021 227.025 224.489 227.681 224.352C228.033 224.246 228.351 224.049 228.604 223.782C231.478 221.149 233.756 217.932 235.286 214.347C236.815 210.762 237.561 206.891 237.473 202.994C237.428 201.438 237.223 199.819 236.362 198.525C235.501 197.231 233.512 195.852 232.024 196.371" fill="#0059EF"/>
<path d="M219.416 182.896L217.039 187.205C216.982 187.302 216.908 187.416 216.794 187.428C216.68 187.439 216.577 187.319 216.509 187.217C214.411 183.998 212.321 180.779 210.239 177.561L211.687 176.74L219.416 182.896Z" fill="#0059EF"/>
<g opacity="0.2">
<path opacity="0.2" d="M219.416 182.896L217.039 187.205C216.982 187.302 216.908 187.416 216.794 187.428C216.68 187.439 216.577 187.319 216.509 187.217C214.411 183.998 212.321 180.779 210.239 177.561L211.687 176.74L219.416 182.896Z" fill="black"/>
</g>
<path d="M232.172 190.659L210.723 178C210.487 177.9 210.299 177.712 210.199 177.475C210.113 177.156 210.353 176.854 210.581 176.615C212.055 175.084 213.843 173.889 215.821 173.112C217.799 172.335 219.921 171.994 222.043 172.112C224.164 172.265 226.215 172.932 228.021 174.056C229.826 175.179 231.331 176.724 232.406 178.558C234.475 182.258 234.544 187.148 232.172 190.659Z" fill="#0059EF"/>
<path d="M213.813 173.964C213.903 173.938 213.997 173.924 214.092 173.924C214.28 173.924 214.554 173.884 214.901 173.89C215.9 173.876 216.898 173.955 217.882 174.124C221.149 174.677 224.19 176.151 226.649 178.372C229.107 180.593 230.881 183.47 231.762 186.664C232.029 187.624 232.208 188.606 232.298 189.599C232.309 189.808 232.309 190.017 232.298 190.226C232.283 190.393 232.227 190.554 232.133 190.693C232.199 190.336 232.21 189.971 232.167 189.61C232.043 188.631 231.841 187.663 231.563 186.715C230.484 183.104 228.29 179.927 225.295 177.641C222.3 175.354 218.657 174.075 214.89 173.987C214.2 173.97 213.813 173.987 213.813 173.964Z" fill="#263238"/>
<path d="M229.265 181.921C228.925 182.127 228.561 182.294 228.182 182.417C227.498 182.685 226.547 183.027 225.475 183.369C224.403 183.711 223.429 183.979 222.716 184.15C222.336 184.267 221.944 184.343 221.548 184.378C221.911 184.201 222.293 184.067 222.688 183.979L225.424 183.124L228.143 182.246C228.505 182.1 228.881 181.992 229.265 181.921Z" fill="#263238"/>
<path d="M225.891 172.847C226.081 173.63 226.165 174.435 226.142 175.241C226.204 176.045 226.159 176.854 226.011 177.646C225.904 176.851 225.862 176.048 225.885 175.247C225.824 174.448 225.826 173.645 225.891 172.847Z" fill="#263238"/>
<path d="M210.535 177.76C211.038 177.529 211.558 177.338 212.091 177.19C213.066 176.888 214.423 176.512 215.939 176.147C217.455 175.782 218.829 175.503 219.838 175.326C220.375 175.205 220.923 175.131 221.473 175.104C220.949 175.273 220.414 175.406 219.872 175.503C218.88 175.725 217.506 176.033 215.996 176.392C214.485 176.751 213.146 177.11 212.143 177.367C211.616 177.534 211.079 177.666 210.535 177.76Z" fill="#263238"/>
<path d="M223.121 192.717C221.28 191.315 219.325 191.041 217.016 191.132C214.7 191.282 212.433 191.861 210.33 192.842C206.711 194.427 203.313 196.758 201.153 200.064C198.993 203.37 198.235 207.748 199.853 211.345C199.98 211.722 200.242 212.038 200.589 212.234C200.989 212.352 201.419 212.319 201.797 212.143C205.913 210.803 210.056 209.447 213.835 207.343C217.615 205.24 221.063 202.322 223.092 198.503C223.613 197.6 223.945 196.602 224.067 195.567C224.122 195.052 224.066 194.531 223.902 194.04C223.739 193.548 223.473 193.097 223.121 192.717Z" fill="#0059EF"/>
<path d="M223.161 192.284C223.064 192.329 222.965 192.369 222.864 192.404L222.004 192.7L221.377 192.905L220.647 193.19C220.128 193.401 219.507 193.612 218.886 193.92L217.877 194.381C217.529 194.541 217.181 194.741 216.811 194.951C216.064 195.316 215.312 195.784 214.531 196.262C211.08 198.394 208.012 201.092 205.457 204.242C204.887 204.983 204.316 205.667 203.86 206.363C203.627 206.705 203.387 207.024 203.182 207.355C202.977 207.685 202.783 207.993 202.612 208.295C202.225 208.865 201.934 209.435 201.66 209.948C201.529 210.193 201.398 210.421 201.284 210.638L200.999 211.208C200.834 211.538 200.703 211.812 200.6 212.023C200.553 212.12 200.5 212.213 200.44 212.302C200.466 212.198 200.502 212.097 200.549 212C200.644 211.783 200.763 211.504 200.908 211.162C200.993 210.98 201.079 210.775 201.176 210.558C201.273 210.341 201.404 210.108 201.535 209.857C201.797 209.361 202.076 208.78 202.453 208.181L203.023 207.223C203.222 206.893 203.461 206.568 203.695 206.22C204.145 205.514 204.704 204.818 205.274 204.071C206.563 202.492 207.973 201.015 209.492 199.654C211.033 198.318 212.678 197.108 214.411 196.034C215.221 195.561 215.984 195.1 216.742 194.741C217.113 194.552 217.466 194.359 217.82 194.199L218.84 193.754C219.49 193.452 220.1 193.253 220.624 193.059C220.892 192.962 221.137 192.865 221.365 192.791L221.998 192.603L222.876 192.352C222.968 192.32 223.064 192.297 223.161 192.284Z" fill="#263238"/>
<path d="M208.745 200.07C207.277 200.632 205.78 201.113 204.26 201.512C202.763 201.998 201.241 202.4 199.7 202.715C201.167 202.151 202.665 201.667 204.185 201.267C205.683 200.786 207.205 200.387 208.745 200.07Z" fill="#263238"/>
<path d="M208.563 209.988C208.485 209.527 208.453 209.059 208.466 208.592C208.438 207.725 208.438 206.534 208.466 205.211C208.495 203.889 208.574 202.698 208.648 201.837C208.66 201.369 208.72 200.903 208.825 200.446C208.863 200.913 208.863 201.382 208.825 201.848C208.791 202.795 208.757 203.946 208.717 205.217C208.677 206.488 208.66 207.645 208.631 208.592C208.647 209.058 208.624 209.525 208.563 209.988Z" fill="#263238"/>
<path d="M217.045 205.667C216.976 205.667 216.748 203.245 216.543 200.247C216.338 197.249 216.224 194.809 216.292 194.803C216.361 194.798 216.589 197.226 216.8 200.23C217.01 203.234 217.119 205.662 217.045 205.667Z" fill="#263238"/>
<path d="M206.488 194.569C206.965 194.511 207.445 194.496 207.925 194.524C208.814 194.524 210.034 194.558 211.385 194.604C212.735 194.649 213.961 194.701 214.85 194.752C215.331 194.751 215.81 194.799 216.281 194.894C215.804 194.949 215.323 194.962 214.844 194.934C213.955 194.934 212.73 194.906 211.379 194.86C210.028 194.815 208.802 194.758 207.919 194.706C207.439 194.704 206.96 194.658 206.488 194.569Z" fill="#263238"/>
<path d="M226.86 224.113C226.839 224.019 226.829 223.923 226.832 223.828C226.832 223.611 226.832 223.337 226.792 223.001C226.757 222.283 226.752 221.246 226.792 219.963C226.832 218.681 226.9 217.153 227.054 215.466C227.208 213.779 227.464 211.926 227.812 209.994C228.16 208.061 228.593 206.243 229.032 204.602C229.471 202.96 229.938 201.506 230.371 200.292C230.804 199.078 231.169 198.109 231.454 197.442L231.779 196.679C231.811 196.586 231.855 196.498 231.91 196.416C231.891 196.512 231.863 196.606 231.825 196.696L231.545 197.477C231.289 198.143 230.947 199.124 230.542 200.327C230.138 201.529 229.699 203.006 229.26 204.641C228.821 206.277 228.416 208.096 228.063 210.017C227.709 211.937 227.493 213.784 227.293 215.466C227.094 217.147 227.02 218.669 226.974 219.946C226.928 221.223 226.86 222.3 226.86 223.001C226.86 223.337 226.86 223.611 226.86 223.828C226.87 223.922 226.87 224.018 226.86 224.113Z" fill="#263238"/>
<path d="M228 210.068C227.754 210.415 227.467 210.731 227.145 211.008C226.575 211.578 225.806 212.302 224.905 213.095C224.004 213.887 223.195 214.565 222.545 215.044C222.226 215.324 221.876 215.567 221.502 215.768C221.783 215.449 222.094 215.159 222.431 214.901L224.711 212.901L226.991 210.877C227.303 210.578 227.64 210.307 228 210.068Z" fill="#263238"/>
<path d="M234.772 215.54C234.432 215.145 234.127 214.721 233.86 214.274L231.739 211.185C230.918 210.016 230.172 208.968 229.573 208.118C229.253 207.709 228.963 207.277 228.707 206.824C229.077 207.191 229.416 207.588 229.721 208.01C230.291 208.768 231.112 209.828 231.95 211.037C232.788 212.245 233.506 213.357 234.008 214.177C234.3 214.609 234.556 215.065 234.772 215.54Z" fill="#263238"/>
<path d="M231.215 198.36C231.249 198.423 228.998 199.939 226.176 201.78C223.355 203.621 221.046 205.018 221 204.955C220.955 204.892 223.218 203.376 226.034 201.535C228.849 199.694 231.175 198.28 231.215 198.36Z" fill="#263238"/>
<path d="M237.57 205.2C235.24 203.161 233.023 200.995 230.93 198.713C232.125 199.703 233.267 200.755 234.35 201.865C235.485 202.916 236.56 204.029 237.57 205.2Z" fill="#263238"/>
<path d="M239.172 205.063L241.104 204.904C242.479 204.792 243.813 204.384 245.015 203.707C245.601 203.362 246.211 203.057 246.839 202.795C249.233 201.831 251.906 202.002 254.477 201.871C258.696 201.658 262.83 200.602 266.635 198.765C266.856 198.663 267.041 198.496 267.165 198.286C267.558 197.562 266.823 196.918 266.184 196.525C262.924 194.513 259.607 192.478 255.924 191.48C252.242 190.483 248.024 190.654 244.866 192.825C241.161 195.373 239.816 200.612 239.166 205.063" fill="#0059EF"/>
<path d="M267.205 198.047C267.091 198.006 266.983 197.955 266.88 197.893L265.962 197.414C265.164 196.998 264.018 196.376 262.542 195.704C260.857 194.878 259.102 194.203 257.298 193.686C255.091 193.049 252.78 192.855 250.498 193.116C248.213 193.371 246.055 194.298 244.296 195.778C242.923 197.063 241.825 198.615 241.07 200.338C240.544 201.492 240.076 202.671 239.668 203.872C239.52 204.277 239.406 204.602 239.32 204.847C239.287 204.963 239.241 205.076 239.183 205.183C239.204 205.063 239.232 204.945 239.269 204.83C239.349 204.579 239.446 204.259 239.571 203.838C239.942 202.62 240.387 201.427 240.905 200.264C241.65 198.511 242.752 196.932 244.142 195.63C245.928 194.105 248.13 193.15 250.464 192.888C252.778 192.611 255.124 192.805 257.361 193.458C259.176 193.987 260.938 194.685 262.622 195.544C264.064 196.262 265.198 196.901 265.979 197.351L266.874 197.87C266.99 197.918 267.1 197.977 267.205 198.047Z" fill="#263238"/>
<path d="M262.559 200.543C262.519 200.606 259.983 198.964 256.905 196.889C253.827 194.815 251.353 193.076 251.393 193.013C251.433 192.951 253.964 194.592 257.047 196.673C260.131 198.753 262.599 200.486 262.559 200.543Z" fill="#263238"/>
<path d="M259.857 192.882C259.262 193.085 258.639 193.196 258.01 193.213C257.389 193.307 256.757 193.307 256.135 193.213C256.749 193.102 257.37 193.039 257.993 193.025C258.61 192.928 259.233 192.88 259.857 192.882Z" fill="#263238"/>
<path d="M248.771 191.44C248.565 191.914 248.284 192.351 247.939 192.734C247.649 193.182 247.296 193.585 246.89 193.931C247.097 193.466 247.378 193.037 247.722 192.66C248.01 192.205 248.364 191.794 248.771 191.44Z" fill="#263238"/>
<path d="M251.039 202.037C250.611 201.858 250.203 201.637 249.82 201.375C249.09 200.931 248.11 200.281 247.044 199.517C245.978 198.753 245.06 198.024 244.388 197.494C244.012 197.225 243.661 196.924 243.339 196.593C243.742 196.807 244.124 197.059 244.479 197.345L247.181 199.306C248.229 200.07 249.198 200.743 249.905 201.221C250.305 201.462 250.684 201.735 251.039 202.037Z" fill="#263238"/>
<path d="M242.022 213.288C240.175 212.804 237.975 214.599 237.593 216.469C237.211 218.338 237.912 220.254 238.733 221.981C240.488 225.853 243.1 229.275 246.371 231.99C249.667 234.701 253.784 236.216 258.05 236.288C257.27 232.663 258.256 228.878 257.822 225.19C257.438 221.945 255.964 218.926 253.642 216.626C251.32 214.327 248.286 212.883 245.037 212.53C243.857 212.405 242.489 212.217 242.022 213.305" fill="#0059EF"/>
<path d="M258.05 236.271C257.958 236.24 257.87 236.198 257.788 236.145C257.541 236.016 257.308 235.861 257.093 235.684C256.32 235.009 255.7 234.178 255.275 233.244C254.978 232.674 254.648 232.053 254.328 231.369L253.331 229.168C252.976 228.36 252.569 227.575 252.111 226.82C251.609 226.02 251.049 225.258 250.435 224.54C249.17 223.052 247.813 221.77 246.633 220.55C245.571 219.479 244.605 218.317 243.743 217.079C243.164 216.238 242.688 215.331 242.324 214.377C242.21 214.035 242.125 213.773 242.079 213.585C242.047 213.493 242.027 213.397 242.022 213.3C242.022 213.3 242.147 213.676 242.421 214.343C242.814 215.271 243.308 216.154 243.892 216.976C244.768 218.194 245.742 219.338 246.804 220.396C247.984 221.61 249.352 222.893 250.629 224.386C251.258 225.114 251.83 225.89 252.339 226.706C252.795 227.474 253.202 228.27 253.559 229.089L254.534 231.295C254.841 231.979 255.161 232.606 255.446 233.181C255.843 234.104 256.425 234.937 257.156 235.627C257.697 236.071 258.062 236.248 258.05 236.271Z" fill="#263238"/>
<path d="M248.52 233.255C248.535 232.837 248.593 232.42 248.691 232.013C248.839 231.255 249.073 230.212 249.392 229.072C249.711 227.932 250.059 226.923 250.333 226.222C250.458 225.825 250.627 225.443 250.834 225.082C250.762 225.494 250.651 225.898 250.504 226.29C250.276 227.025 249.962 228.046 249.643 229.174C249.324 230.303 249.073 231.34 248.868 232.087C248.791 232.487 248.675 232.879 248.52 233.255Z" fill="#263238"/>
<path d="M257.697 224.358C257.256 224.295 256.821 224.194 256.397 224.056C255.605 223.85 254.505 223.565 253.279 223.292C252.054 223.018 250.942 222.802 250.133 222.648C249.692 222.591 249.257 222.494 248.833 222.357C249.279 222.352 249.723 222.388 250.162 222.465C250.982 222.574 252.111 222.762 253.337 223.035C254.562 223.309 255.662 223.605 256.449 223.879C256.882 223.99 257.301 224.151 257.697 224.358Z" fill="#263238"/>
<path d="M241.646 226.94C241.667 226.456 241.734 225.975 241.845 225.503C242.011 224.62 242.267 223.411 242.615 222.083C242.963 220.755 243.327 219.57 243.612 218.726C243.748 218.259 243.925 217.805 244.142 217.37C244.064 217.848 243.946 218.319 243.789 218.777C243.544 219.638 243.219 220.824 242.86 222.146C242.501 223.469 242.233 224.665 242.022 225.538C241.94 226.015 241.814 226.485 241.646 226.94Z" fill="#263238"/>
<path d="M253.462 216.6C253.462 216.668 251.148 216.486 248.332 216.184C245.516 215.882 243.202 215.58 243.202 215.511C243.202 215.443 245.516 215.625 248.332 215.927C251.148 216.23 253.468 216.532 253.462 216.6Z" fill="#263238"/>
<path d="M251.775 244.559C251.775 244.627 243.669 244.684 233.677 244.684C223.685 244.684 215.574 244.627 215.574 244.559C215.574 244.49 223.679 244.427 233.677 244.427C243.675 244.427 251.775 244.484 251.775 244.559Z" fill="#455A64"/>
<path d="M246.137 254.984C246.137 255.058 240.677 255.115 233.939 255.115C227.202 255.115 221.747 255.058 221.747 254.984C221.747 254.91 227.208 254.858 233.939 254.858C240.671 254.858 246.137 254.915 246.137 254.984Z" fill="#455A64"/>
<path d="M245.921 256.5C245.921 256.568 240.557 256.625 233.951 256.625C227.345 256.625 221.981 256.568 221.981 256.5C221.981 256.432 227.345 256.369 233.951 256.369C240.557 256.369 245.921 256.403 245.921 256.5Z" fill="#455A64"/>
<path d="M246.348 253.758C246.348 253.827 240.7 253.884 233.734 253.884C226.769 253.884 221.12 253.827 221.12 253.758C221.12 253.69 226.769 253.627 233.734 253.627C240.7 253.627 246.348 253.684 246.348 253.758Z" fill="#455A64"/>
<path d="M243.96 34.1259C243.96 34.2114 240.135 34.257 235.41 34.2342C230.685 34.2114 226.86 34.1202 226.86 34.0404C226.86 33.9606 230.685 33.9093 235.41 33.9321C240.135 33.9549 243.96 34.0461 243.96 34.1259Z" fill="#263238"/>
<path d="M235.473 42.6245C235.393 42.6245 235.29 38.8055 235.239 34.0745C235.188 29.3435 235.239 25.5245 235.302 25.5245C235.364 25.5245 235.49 29.3435 235.535 34.0745C235.581 38.8055 235.558 42.6245 235.473 42.6245Z" fill="#263238"/>
<path d="M252.943 161.698C251.154 160.951 249.403 160.114 247.699 159.19C245.942 158.352 244.23 157.423 242.569 156.408C242.603 156.34 244.952 157.463 247.813 158.922C250.675 160.381 252.983 161.629 252.943 161.698Z" fill="#263238"/>
<path d="M245.203 164.274C245.921 162.471 246.733 160.708 247.637 158.99C248.447 157.235 249.346 155.523 250.333 153.86C249.612 155.662 248.799 157.425 247.899 159.144C247.087 160.898 246.187 162.611 245.203 164.274Z" fill="#263238"/>
<path d="M48.336 121.564C48.336 121.644 45.6342 122.801 42.2427 124.152C38.8512 125.503 36.0696 126.54 36.0411 126.466C36.0126 126.392 38.7372 125.229 42.1344 123.878C45.5316 122.527 48.3018 121.49 48.336 121.564Z" fill="#263238"/>
<path d="M42.0432 117.859C42.0432 117.859 41.9463 117.693 41.7411 117.431C41.4505 117.068 41.0508 116.809 40.6011 116.69C40.2397 116.594 39.8587 116.6 39.5005 116.707C39.1423 116.815 38.8211 117.02 38.5727 117.3C38.3243 117.579 38.1585 117.922 38.0938 118.291C38.029 118.659 38.0679 119.038 38.2062 119.386C38.3444 119.733 38.5764 120.035 38.8765 120.259C39.1765 120.482 39.5327 120.617 39.9052 120.65C40.2778 120.683 40.6521 120.611 40.9863 120.443C41.3206 120.275 41.6016 120.018 41.7981 119.7C42.0465 119.304 42.1586 118.837 42.1173 118.372C42.1173 118.041 42.0204 117.864 42.0432 117.853C42.1474 118.004 42.212 118.178 42.2313 118.36C42.3229 118.857 42.234 119.371 41.9805 119.808C41.793 120.14 41.5241 120.419 41.199 120.619C40.8739 120.818 40.5033 120.932 40.1223 120.948C39.6521 120.966 39.1881 120.837 38.7939 120.58C38.3997 120.323 38.0945 119.951 37.9203 119.514C37.7461 119.077 37.7114 118.597 37.8209 118.139C37.9304 117.682 38.1788 117.269 38.532 116.958C38.8171 116.707 39.1614 116.533 39.5324 116.453C39.9034 116.372 40.2888 116.387 40.6524 116.496C41.1374 116.637 41.556 116.946 41.8323 117.369C41.9404 117.513 42.0127 117.681 42.0432 117.859Z" fill="#263238"/>
<path d="M46.3182 128.581C46.2897 128.581 46.2213 128.415 46.0161 128.153C45.7272 127.788 45.3268 127.528 44.8761 127.412C44.5488 127.328 44.2058 127.326 43.8777 127.407C43.5496 127.488 43.2464 127.648 42.9951 127.874C42.69 128.149 42.4765 128.511 42.3833 128.911C42.29 129.311 42.3216 129.731 42.4737 130.112C42.6257 130.494 42.8911 130.82 43.2339 131.047C43.5768 131.273 43.9808 131.389 44.3916 131.379C44.7335 131.376 45.0691 131.287 45.3678 131.121C45.6665 130.955 45.9188 130.716 46.1016 130.427C46.3473 130.03 46.4592 129.565 46.4208 129.099C46.4208 128.769 46.3182 128.592 46.3467 128.581C46.4502 128.729 46.5149 128.902 46.5348 129.082C46.6246 129.582 46.5337 130.097 46.2783 130.536C46.0922 130.868 45.8244 131.147 45.5001 131.346C45.1759 131.546 44.8061 131.659 44.4258 131.676C43.9556 131.693 43.4916 131.564 43.0974 131.308C42.7032 131.051 42.3981 130.678 42.2239 130.241C42.0497 129.804 42.0149 129.324 42.1244 128.867C42.234 128.409 42.4823 127.996 42.8355 127.686C43.1222 127.438 43.4663 127.265 43.8365 127.183C44.2067 127.102 44.5915 127.114 44.9559 127.218C45.4398 127.364 45.8573 127.674 46.1358 128.096C46.2347 128.241 46.2973 128.407 46.3182 128.581Z" fill="#263238"/>
</svg>
