<svg width="392" height="392" viewBox="0 0 392 392" fill="none" xmlns="http://www.w3.org/2000/svg">
<path d="M159.936 299.323C177.701 307.791 206.498 307.791 224.224 299.323C241.95 290.856 241.989 277.136 224.224 268.669C206.459 260.202 177.67 260.202 159.936 268.669C142.202 277.136 142.139 290.864 159.936 299.323Z" fill="#EBEBEB"/>
<path d="M313.725 278.367L250.221 315.019C249.695 315.286 249.114 315.424 248.524 315.424C247.934 315.424 247.353 315.286 246.827 315.019L167.447 269.171C167.242 269.101 167.064 268.969 166.938 268.794C166.812 268.618 166.744 268.407 166.744 268.191C166.744 267.974 166.812 267.764 166.938 267.588C167.064 267.412 167.242 267.28 167.447 267.211L230.951 230.559C231.477 230.292 232.058 230.153 232.648 230.153C233.238 230.153 233.819 230.292 234.345 230.559L313.749 276.407C313.953 276.479 314.129 276.613 314.253 276.79C314.377 276.968 314.442 277.179 314.44 277.395C314.437 277.612 314.367 277.822 314.239 277.996C314.111 278.17 313.931 278.3 313.725 278.367Z" fill="#EBEBEB"/>
<path d="M331.397 76.8869V93.7194C331.397 93.7194 324.482 96.9573 311.797 96.9573C299.112 96.9573 292.197 93.7115 292.197 93.7115V77.2475L305.431 39.7958C305.25 40.9718 305.94 42.1478 307.493 43.073C308.628 43.7738 309.919 44.1841 311.251 44.2675C312.583 44.351 313.915 44.1049 315.129 43.5512C315.47 43.4171 315.8 43.2573 316.117 43.073C317.763 42.1243 318.469 40.8229 318.147 39.5842L331.397 76.8869Z" fill="#F5F5F5"/>
<path opacity="0.5" d="M331.397 76.8869V93.7194C331.397 93.7194 324.482 96.9573 311.797 96.9573C299.112 96.9573 292.197 93.7115 292.197 93.7115V77.2475L305.431 39.7958C305.25 40.9718 305.94 42.1478 307.493 43.073C308.628 43.7738 309.919 44.1841 311.251 44.2675C312.583 44.351 313.915 44.1049 315.129 43.5512C315.47 43.4171 315.8 43.2573 316.117 43.073C317.763 42.1243 318.469 40.8229 318.147 39.5842L331.397 76.8869Z" fill="white"/>
<path d="M329.875 194.879C328.739 196.376 327.299 197.616 325.65 198.517C317.982 202.946 305.556 202.946 297.896 198.517C296.244 197.617 294.801 196.377 293.663 194.879C292.778 193.703 292.255 192.294 292.157 190.826V199.567C292.298 202.358 294.203 205.126 297.896 207.258C305.556 211.68 317.982 211.68 325.65 207.258C329.476 205.047 331.396 202.147 331.396 199.246V190.512C331.367 192.092 330.834 193.622 329.875 194.879Z" fill="#F5F5F5"/>
<path d="M329.875 186.137C328.739 187.634 327.299 188.874 325.65 189.775C325.195 190.034 324.732 190.277 324.254 190.504C317.018 193.954 306.52 193.954 299.292 190.504C298.813 190.277 298.343 190.034 297.896 189.775C296.244 188.875 294.801 187.635 293.663 186.137C292.778 184.964 292.255 183.558 292.157 182.092V190.826C292.255 192.294 292.778 193.703 293.663 194.879C294.801 196.377 296.244 197.617 297.896 198.517C305.556 202.946 317.982 202.946 325.65 198.517C327.299 197.616 328.739 196.376 329.875 194.879C330.834 193.622 331.367 192.092 331.396 190.512V181.77C331.368 183.351 330.835 184.881 329.875 186.137Z" fill="#EBEBEB"/>
<path d="M329.875 177.396C328.738 178.894 327.298 180.136 325.65 181.041C325.195 181.3 324.732 181.535 324.254 181.77C317.018 185.22 306.52 185.22 299.292 181.77C298.813 181.535 298.343 181.3 297.896 181.041C296.245 180.136 294.803 178.894 293.663 177.396C292.778 176.222 292.255 174.816 292.157 173.35V182.092C292.255 183.558 292.778 184.964 293.663 186.137C294.801 187.635 296.244 188.875 297.896 189.775C298.343 190.034 298.813 190.277 299.292 190.504C306.52 193.954 317.018 193.954 324.254 190.504C324.732 190.277 325.195 190.034 325.65 189.775C327.299 188.874 328.739 187.634 329.875 186.137C330.835 184.881 331.368 183.351 331.396 181.77V173.029C331.369 174.61 330.836 176.14 329.875 177.396Z" fill="#F5F5F5"/>
<path d="M292.157 77.2162V173.35C292.255 174.816 292.778 176.222 293.663 177.396C294.803 178.894 296.245 180.136 297.896 181.041C298.343 181.3 298.813 181.535 299.292 181.77C301.187 182.654 303.182 183.304 305.234 183.707L301.683 82.3906L292.157 77.2162Z" fill="#F5F5F5"/>
<path d="M321.863 82.3906L318.304 183.707C320.356 183.304 322.351 182.654 324.247 181.77C324.725 181.535 325.188 181.3 325.642 181.041C327.291 180.136 328.73 178.894 329.868 177.396C330.828 176.14 331.361 174.61 331.389 173.029V76.8869L321.863 82.3906Z" fill="#F5F5F5"/>
<path d="M292.157 77.2162V173.35C292.255 174.816 292.778 176.222 293.663 177.396C294.803 178.894 296.245 180.136 297.896 181.041C298.343 181.3 298.813 181.535 299.292 181.77C301.187 182.654 303.182 183.304 305.234 183.707L301.683 82.3906L292.157 77.2162Z" fill="#E0E0E0"/>
<path d="M321.863 82.3906L318.304 183.707C320.356 183.304 322.351 182.654 324.247 181.77C324.725 181.535 325.188 181.3 325.642 181.041C327.291 180.136 328.73 178.894 329.868 177.396C330.828 176.14 331.361 174.61 331.389 173.029V76.8869L321.863 82.3906Z" fill="#E0E0E0"/>
<path d="M301.683 82.3906V182.743C302.845 183.144 304.031 183.469 305.235 183.715C307.387 184.15 309.578 184.368 311.773 184.365C313.969 184.364 316.159 184.146 318.312 183.715C319.516 183.469 320.702 183.144 321.863 182.743V82.3906H301.683Z" fill="#EBEBEB"/>
<path d="M316.085 43.0338C315.769 43.2181 315.438 43.3779 315.097 43.512C313.883 44.0657 312.551 44.3118 311.22 44.2284C309.888 44.1449 308.597 43.7347 307.461 43.0338C305.893 42.14 305.219 40.9327 305.399 39.7567L309.915 27.1107C310.064 26.7409 310.321 26.4247 310.652 26.2037C310.984 25.9826 311.375 25.867 311.773 25.872C312.173 25.8665 312.565 25.9818 312.898 26.2028C313.231 26.4239 313.489 26.7403 313.639 27.1107L318.108 39.5293C318.414 40.768 317.732 42.0851 316.085 43.0338Z" fill="#E0E0E0"/>
<path d="M325.65 207.258C319.065 211.061 308.967 211.586 301.393 208.826C300.97 208.68 300.554 208.515 300.147 208.332L299.582 208.097C298.994 207.831 298.43 207.54 297.897 207.235C294.204 205.102 292.299 202.335 292.158 199.544V223.362C292.017 226.372 293.922 229.406 297.897 231.696C298.367 231.97 298.861 232.229 299.37 232.48C299.559 232.574 299.762 232.644 299.951 232.73C300.28 232.872 300.601 233.021 300.938 233.146C301.276 233.271 301.464 233.334 301.722 233.42C301.981 233.507 302.279 233.624 302.569 233.71C302.859 233.797 303.212 233.891 303.534 233.977C303.855 234.063 304.027 234.118 304.278 234.173C304.529 234.228 305.023 234.338 305.399 234.408C305.611 234.408 305.823 234.502 306.034 234.534C306.458 234.612 306.889 234.667 307.32 234.73L307.83 234.8C308.308 234.855 308.786 234.894 309.265 234.926H309.641C310.166 234.965 310.691 234.981 311.209 234.988H311.46C312.024 234.988 312.589 234.988 313.153 234.988H313.279C313.874 234.988 314.47 234.918 315.066 234.863C318.558 234.566 321.959 233.592 325.078 231.993C325.25 231.899 325.431 231.821 325.603 231.719C329.429 229.508 331.35 226.607 331.35 223.707V199.246C331.397 202.147 329.476 205.047 325.65 207.258Z" fill="#E0E0E0"/>
<path d="M301.581 269.782L300.013 268.896L301.126 268.395C301.126 268.395 301.997 268.63 302.02 268.669C302.013 268.871 301.992 269.073 301.957 269.273L301.581 269.782Z" fill="#E0E0E0"/>
<path d="M301.581 269.782L300.013 268.896L301.126 268.395C301.126 268.395 301.997 268.63 302.02 268.669C302.013 268.871 301.992 269.073 301.957 269.273L301.581 269.782Z" fill="#0059EF"/>
<path opacity="0.1" d="M301.581 269.782L300.013 268.896L301.126 268.395C301.126 268.395 301.997 268.63 302.02 268.669C302.013 268.871 301.992 269.073 301.957 269.273L301.581 269.782Z" fill="white"/>
<path d="M243.236 299.174C243.931 299.526 244.699 299.71 245.478 299.71C246.257 299.71 247.025 299.526 247.72 299.174L298.006 270.166L222.742 226.701L220.986 225.69L170.7 254.698C169.469 255.412 169.469 256.58 170.7 257.285L243.236 299.174Z" fill="#0059EF"/>
<path opacity="0.8" d="M243.236 299.174C243.931 299.526 244.699 299.71 245.478 299.71C246.257 299.71 247.025 299.526 247.72 299.174L298.006 270.166L222.742 226.701L220.986 225.69L170.7 254.698C169.469 255.412 169.469 256.58 170.7 257.285L243.236 299.174Z" fill="white"/>
<path d="M262.123 244.326L279.661 254.416L291.013 247.862L304.192 255.498V264.992C304.192 266.144 302.898 267.783 302.428 267.516C301.558 267.727 300.712 268.026 299.903 268.41C298.585 269.16 297.361 270.066 296.258 271.107L255.96 247.846L262.123 244.326Z" fill="#E0E0E0"/>
<path d="M262.123 244.326L279.661 254.416L291.013 247.862L304.192 255.498V264.992C304.192 266.144 302.898 267.783 302.428 267.516C301.558 267.727 300.712 268.026 299.903 268.41C298.585 269.16 297.361 270.066 296.258 271.107L255.96 247.846L262.123 244.326Z" fill="#0059EF"/>
<path opacity="0.1" d="M262.123 244.326L279.661 254.416L291.013 247.862L304.192 255.498V264.992C304.192 266.144 302.898 267.783 302.428 267.516C301.558 267.727 300.712 268.026 299.903 268.41C298.585 269.16 297.361 270.066 296.258 271.107L255.96 247.846L262.123 244.326Z" fill="white"/>
<path d="M247.744 299.166L250.778 297.41L296.305 271.131C296.339 270.536 296.555 269.967 296.924 269.5C297.462 268.785 298.139 268.188 298.916 267.744C299.565 267.346 300.303 267.117 301.064 267.077C301.573 267.07 302.069 267.233 302.475 267.54C303.068 266.376 303.356 265.082 303.314 263.777H305.039C305.039 266.129 304.255 268.543 303.29 269.092L302.42 269.602C301.926 269.884 301.534 269.9 301.534 269.602V269.139C301.534 268.622 300.75 268.645 299.778 269.21C298.806 269.774 298.03 270.637 298.03 271.154V271.625C298.03 271.891 297.355 272.487 296.54 272.957L252.511 298.382L247.744 301.126C247.054 301.483 246.286 301.664 245.51 301.652V299.66C246.285 299.692 247.054 299.522 247.744 299.166Z" fill="#0059EF"/>
<path opacity="0.6" d="M247.744 299.166L250.778 297.41L296.305 271.131C296.339 270.536 296.555 269.967 296.924 269.5C297.462 268.785 298.139 268.188 298.916 267.744C299.565 267.346 300.303 267.117 301.064 267.077C301.573 267.07 302.069 267.233 302.475 267.54C303.068 266.376 303.356 265.082 303.314 263.777H305.039C305.039 266.129 304.255 268.543 303.29 269.092L302.42 269.602C301.926 269.884 301.534 269.9 301.534 269.602V269.139C301.534 268.622 300.75 268.645 299.778 269.21C298.806 269.774 298.03 270.637 298.03 271.154V271.625C298.03 271.891 297.355 272.487 296.54 272.957L252.511 298.382L247.744 301.126C247.054 301.483 246.286 301.664 245.51 301.652V299.66C246.285 299.692 247.054 299.522 247.744 299.166Z" fill="white"/>
<path d="M169.759 255.952V257.983C169.785 258.254 169.881 258.514 170.038 258.736C170.195 258.959 170.407 259.137 170.653 259.253L238.446 298.39L243.205 301.134C243.895 301.491 244.662 301.672 245.439 301.66V299.668C244.657 299.687 243.884 299.5 243.197 299.127L240.17 297.379L170.653 257.23C170.406 257.114 170.193 256.935 170.036 256.71C169.879 256.486 169.784 256.225 169.759 255.952Z" fill="#0059EF"/>
<path opacity="0.1" d="M169.759 255.952V257.983C169.785 258.254 169.881 258.514 170.038 258.736C170.195 258.959 170.407 259.137 170.653 259.253L238.446 298.39L243.205 301.134C243.895 301.491 244.662 301.672 245.439 301.66V299.668C244.657 299.687 243.884 299.5 243.197 299.127L240.17 297.379L170.653 257.23C170.406 257.114 170.193 256.935 170.036 256.71C169.879 256.486 169.784 256.225 169.759 255.952Z" fill="white"/>
<path d="M245.478 286.285V297.92C245.997 297.936 246.511 297.814 246.968 297.567L252.456 294.384L294.47 270.127V257.991L245.478 286.285Z" fill="white"/>
<path d="M171.947 245.282V254.228C171.974 254.746 172.124 255.25 172.382 255.699C172.641 256.149 173.002 256.531 173.436 256.815L238.508 294.368L243.996 297.551C244.454 297.797 244.967 297.919 245.486 297.904V287.516L171.947 245.282Z" fill="#F0F0F0"/>
<path d="M294.502 270.111C294.543 269.516 294.765 268.948 295.137 268.481C295.677 267.771 296.354 267.176 297.128 266.732C297.772 266.329 298.509 266.097 299.268 266.058C299.779 266.054 300.277 266.217 300.687 266.521V254.408L294.517 257.975L294.502 270.111Z" fill="#455A64"/>
<path d="M296.971 266.834C296.257 267.256 295.633 267.816 295.137 268.481C294.765 268.947 294.543 269.516 294.502 270.111V258.54H296.963L296.971 266.834Z" fill="#F5F5F5"/>
<path d="M222.726 212.464L297.99 255.929V256.94C297.99 257.497 298.774 257.724 299.739 257.144C300.703 256.564 301.495 255.89 301.495 254.925L301.589 253.969L224.89 209.689L224.585 209.508C224.504 209.65 224.459 209.808 224.451 209.971V210.441C224.467 211.021 223.691 211.923 222.726 212.464Z" fill="#0059EF"/>
<path opacity="0.6" d="M222.726 212.464L297.99 255.929V256.94C297.99 257.497 298.774 257.724 299.739 257.144C300.703 256.564 301.495 255.89 301.495 254.925L301.589 253.969L224.89 209.689L224.585 209.508C224.504 209.65 224.459 209.808 224.451 209.971V210.441C224.467 211.021 223.691 211.923 222.726 212.464Z" fill="white"/>
<path d="M247.744 284.992L296.916 256.595C297.536 256.274 298.108 256.007 298.351 256.133L298.03 255.952L222.766 212.487L221.888 211.978C221.493 211.866 221.079 211.839 220.673 211.9C220.268 211.961 219.88 212.108 219.536 212.331L170.747 240.508C169.516 241.221 169.516 242.381 170.747 243.095L243.299 284.992C243.989 285.337 244.75 285.517 245.521 285.517C246.293 285.517 247.054 285.337 247.744 284.992Z" fill="#0059EF"/>
<path opacity="0.8" d="M247.744 284.992L296.916 256.595C297.536 256.274 298.108 256.007 298.351 256.133L298.03 255.952L222.766 212.487L221.888 211.978C221.493 211.866 221.079 211.839 220.673 211.9C220.268 211.961 219.88 212.108 219.536 212.331L170.747 240.508C169.516 241.221 169.516 242.381 170.747 243.095L243.299 284.992C243.989 285.337 244.75 285.517 245.521 285.517C246.293 285.517 247.054 285.337 247.744 284.992Z" fill="white"/>
<path d="M224.6 209.532L224.906 209.712L301.605 254.016C301.643 253.934 301.7 253.862 301.769 253.804L302.028 253.655L302.585 253.342L303.267 252.942C303.399 252.854 303.557 252.814 303.716 252.828C303.874 252.842 304.023 252.91 304.137 253.02C304.169 253.042 304.199 253.068 304.223 253.099C304.316 253.193 304.392 253.302 304.451 253.42C304.534 253.556 304.602 253.701 304.654 253.851C304.715 254.013 304.764 254.178 304.803 254.345C304.85 254.541 304.882 254.729 304.921 254.933C304.942 255.05 304.955 255.168 304.96 255.286C304.96 255.38 304.96 255.466 304.96 255.576C304.96 255.686 304.96 256.015 304.96 256.243V254.087C304.879 253.378 304.634 252.698 304.245 252.101C303.856 251.504 303.333 251.005 302.718 250.645L230.159 208.748C229.561 208.395 228.89 208.185 228.198 208.135C227.505 208.085 226.811 208.195 226.168 208.458L225.251 208.991L224.859 209.21C224.746 209.293 224.656 209.403 224.6 209.532Z" fill="#0059EF"/>
<path opacity="0.8" d="M224.6 209.532L224.906 209.712L301.605 254.016C301.643 253.934 301.7 253.862 301.769 253.804L302.028 253.655L302.585 253.342L303.267 252.942C303.399 252.854 303.557 252.814 303.716 252.828C303.874 252.842 304.023 252.91 304.137 253.02C304.169 253.042 304.199 253.068 304.223 253.099C304.316 253.193 304.392 253.302 304.451 253.42C304.534 253.556 304.602 253.701 304.654 253.851C304.715 254.013 304.764 254.178 304.803 254.345C304.85 254.541 304.882 254.729 304.921 254.933C304.942 255.05 304.955 255.168 304.96 255.286C304.96 255.38 304.96 255.466 304.96 255.576C304.96 255.686 304.96 256.015 304.96 256.243V254.087C304.879 253.378 304.634 252.698 304.245 252.101C303.856 251.504 303.333 251.005 302.718 250.645L230.159 208.748C229.561 208.395 228.89 208.185 228.198 208.135C227.505 208.085 226.811 208.195 226.168 208.458L225.251 208.991L224.859 209.21C224.746 209.293 224.656 209.403 224.6 209.532Z" fill="white"/>
<path d="M247.744 285L250.786 283.236L285.76 263.056L296.924 256.611C297.708 256.141 298.367 255.976 298.406 256.219V256.721C298.406 257.285 299.19 257.285 300.154 256.721C300.512 256.565 300.825 256.323 301.066 256.017C301.307 255.71 301.468 255.349 301.534 254.965V254.416C301.523 254.293 301.54 254.17 301.585 254.056C301.63 253.941 301.701 253.839 301.793 253.757L302.052 253.608L302.608 253.295L303.29 252.895C303.423 252.807 303.581 252.767 303.739 252.781C303.898 252.795 304.046 252.863 304.161 252.973C304.193 252.995 304.222 253.021 304.247 253.052C304.305 253.113 304.355 253.181 304.396 253.256C304.429 253.29 304.456 253.329 304.474 253.373C304.558 253.509 304.626 253.654 304.678 253.804C304.738 253.966 304.788 254.131 304.827 254.298C304.874 254.494 304.905 254.682 304.945 254.886C304.966 255.003 304.979 255.121 304.984 255.239C304.984 255.333 304.984 255.419 304.984 255.529C304.984 255.639 304.984 255.968 304.984 256.196V263.753H303.259V256.196C303.259 256.015 303.259 255.835 303.259 255.662L303.212 255.231C303.216 255.218 303.216 255.205 303.212 255.192C303.055 256.564 301.746 257.787 300.609 258.43C299.978 258.828 299.254 259.055 298.508 259.088C297.933 259.096 297.375 258.892 296.94 258.516L296.783 258.602L296.485 258.783L252.456 284.208L247.744 286.983C247.065 287.331 246.311 287.506 245.549 287.493V285.501C246.311 285.518 247.065 285.345 247.744 285Z" fill="#0059EF"/>
<path opacity="0.6" d="M247.744 285L250.786 283.236L285.76 263.056L296.924 256.611C297.708 256.141 298.367 255.976 298.406 256.219V256.721C298.406 257.285 299.19 257.285 300.154 256.721C300.512 256.565 300.825 256.323 301.066 256.017C301.307 255.71 301.468 255.349 301.534 254.965V254.416C301.523 254.293 301.54 254.17 301.585 254.056C301.63 253.941 301.701 253.839 301.793 253.757L302.052 253.608L302.608 253.295L303.29 252.895C303.423 252.807 303.581 252.767 303.739 252.781C303.898 252.795 304.046 252.863 304.161 252.973C304.193 252.995 304.222 253.021 304.247 253.052C304.305 253.113 304.355 253.181 304.396 253.256C304.429 253.29 304.456 253.329 304.474 253.373C304.558 253.509 304.626 253.654 304.678 253.804C304.738 253.966 304.788 254.131 304.827 254.298C304.874 254.494 304.905 254.682 304.945 254.886C304.966 255.003 304.979 255.121 304.984 255.239C304.984 255.333 304.984 255.419 304.984 255.529C304.984 255.639 304.984 255.968 304.984 256.196V263.753H303.259V256.196C303.259 256.015 303.259 255.835 303.259 255.662L303.212 255.231C303.216 255.218 303.216 255.205 303.212 255.192C303.055 256.564 301.746 257.787 300.609 258.43C299.978 258.828 299.254 259.055 298.508 259.088C297.933 259.096 297.375 258.892 296.94 258.516L296.783 258.602L296.485 258.783L252.456 284.208L247.744 286.983C247.065 287.331 246.311 287.506 245.549 287.493V285.501C246.311 285.518 247.065 285.345 247.744 285Z" fill="white"/>
<path d="M169.759 241.778V243.824C169.784 244.096 169.879 244.358 170.036 244.582C170.193 244.806 170.406 244.985 170.653 245.102L238.446 284.239L243.205 286.991C243.895 287.348 244.662 287.528 245.439 287.516V285.525C244.658 285.542 243.886 285.358 243.197 284.992L240.17 283.243L170.653 243.095C170.4 242.975 170.184 242.79 170.027 242.558C169.87 242.326 169.777 242.057 169.759 241.778Z" fill="#0059EF"/>
<path opacity="0.1" d="M169.759 241.778V243.824C169.784 244.096 169.879 244.358 170.036 244.582C170.193 244.806 170.406 244.985 170.653 245.102L238.446 284.239L243.205 286.991C243.895 287.348 244.662 287.528 245.439 287.516V285.525C244.658 285.542 243.886 285.358 243.197 284.992L240.17 283.243L170.653 243.095C170.4 242.975 170.184 242.79 170.027 242.558C169.87 242.326 169.777 242.057 169.759 241.778Z" fill="white"/>
<path d="M219.473 212.331C219.817 212.108 220.205 211.961 220.611 211.9C221.016 211.839 221.43 211.866 221.825 211.978L222.703 212.487C223.667 211.923 224.443 211.021 224.443 210.465V209.994C224.451 209.832 224.497 209.673 224.577 209.532C224.638 209.404 224.733 209.296 224.851 209.218L225.243 208.999L226.16 208.466C226.803 208.203 227.497 208.092 228.19 208.143C228.882 208.193 229.553 208.403 230.151 208.756L302.71 250.653L302.789 250.7L251.585 280.264C251.123 280.5 250.611 280.623 250.092 280.623C249.573 280.623 249.061 280.5 248.598 280.264L175.569 237.685L219.473 212.331Z" fill="#263238"/>
<path d="M255.686 275.968L253.749 274.855C254.271 274.673 254.83 274.633 255.372 274.737C255.89 275.004 255.686 275.968 255.686 275.968Z" fill="#0059EF"/>
<path opacity="0.7" d="M255.686 275.968L253.749 274.855C254.271 274.673 254.83 274.633 255.372 274.737C255.89 275.004 255.686 275.968 255.686 275.968Z" fill="black"/>
<path d="M257.019 274.768C256.798 274.53 256.531 274.339 256.234 274.209C255.936 274.079 255.615 274.011 255.29 274.011C254.965 274.011 254.644 274.079 254.346 274.209C254.049 274.339 253.782 274.53 253.561 274.768C251.672 276.501 251.578 278.218 250.794 278.195C250.01 278.171 250.01 264.357 250.01 264.357L257.466 271.264L257.019 274.768Z" fill="#0059EF"/>
<path opacity="0.7" d="M257.019 274.768C256.798 274.53 256.531 274.339 256.234 274.209C255.936 274.079 255.615 274.011 255.29 274.011C254.965 274.011 254.644 274.079 254.346 274.209C254.049 274.339 253.782 274.53 253.561 274.768C251.672 276.501 251.578 278.218 250.794 278.195C250.01 278.171 250.01 264.357 250.01 264.357L257.466 271.264L257.019 274.768Z" fill="black"/>
<path d="M179.073 224.553L178.948 224.483L180.14 223.793L231.476 194.158L306.277 242.562C307.508 243.275 307.728 244.31 306.763 244.859L305.015 245.87L257.034 273.616L256.689 273.365L179.073 224.553Z" fill="#0059EF"/>
<path opacity="0.5" d="M179.073 224.553L178.948 224.483L180.14 223.793L231.476 194.158L306.277 242.562C307.508 243.275 307.728 244.31 306.763 244.859L305.015 245.87L257.034 273.616L256.689 273.365L179.073 224.553Z" fill="black"/>
<path d="M250.629 257.818L254.345 257.034V271.93C252.103 272.887 250.676 273.781 250.425 275.654L250.629 257.818Z" fill="#455A64"/>
<path d="M255.984 272.126L303.518 244.686C303.953 244.403 304.316 244.022 304.576 243.572C304.836 243.122 304.987 242.618 305.015 242.099V227.431L257.019 255.38C257.019 255.38 256.446 257.458 254.745 258.108C253.044 258.759 254.345 259.426 254.345 259.426V271.97C255.811 271.758 255.984 272.126 255.984 272.126Z" fill="#F0F0F0"/>
<path d="M251.601 257.309C252.095 257.027 252.487 257.011 252.487 257.309V257.771C252.487 258.289 253.271 258.265 254.243 257.701C255.215 257.136 255.999 256.274 255.999 255.756V255.286C255.999 255.019 256.666 254.424 257.481 253.953L180.147 209.642L178.948 210.331C178.782 210.508 178.677 210.733 178.65 210.974V211.445C178.65 211.962 177.866 212.832 176.902 213.389C175.937 213.946 175.146 213.977 175.146 213.46V212.989C175.146 212.723 174.754 212.746 174.267 213.028L251.601 257.309Z" fill="#0059EF"/>
<path opacity="0.6" d="M251.601 257.309C252.095 257.027 252.487 257.011 252.487 257.309V257.771C252.487 258.289 253.271 258.265 254.243 257.701C255.215 257.136 255.999 256.274 255.999 255.756V255.286C255.999 255.019 256.666 254.424 257.481 253.953L180.147 209.642L178.948 210.331C178.782 210.508 178.677 210.733 178.65 210.974V211.445C178.65 211.962 177.866 212.832 176.902 213.389C175.937 213.946 175.146 213.977 175.146 213.46V212.989C175.146 212.723 174.754 212.746 174.267 213.028L251.601 257.309Z" fill="black"/>
<path d="M179.073 210.371L178.948 210.3L180.14 209.61L231.476 179.975L306.277 223.173C307.508 223.887 307.728 224.914 306.763 225.471L305.015 226.474L257.019 255.38L179.073 210.371Z" fill="#0059EF"/>
<path opacity="0.5" d="M179.073 210.371L178.948 210.3L180.14 209.61L231.476 179.975L306.277 223.173C307.508 223.887 307.728 224.914 306.763 225.471L305.015 226.474L257.019 255.38L179.073 210.371Z" fill="black"/>
<path d="M175.13 212.511L252.448 257.152L249.743 259.269L172.715 214.8C172.903 214.228 173.261 213.728 173.742 213.366L175.13 212.511Z" fill="#0059EF"/>
<path opacity="0.5" d="M175.13 212.511L252.448 257.152L249.743 259.269L172.715 214.8C172.903 214.228 173.261 213.728 173.742 213.366L175.13 212.511Z" fill="black"/>
<path d="M172.974 234.753C172.926 234.724 172.882 234.689 172.841 234.651C172.805 234.634 172.775 234.606 172.754 234.573C172.691 234.511 172.638 234.44 172.597 234.361C172.563 234.331 172.536 234.294 172.519 234.251C172.435 234.117 172.369 233.972 172.323 233.82C172.258 233.657 172.206 233.489 172.166 233.318C172.119 233.13 172.088 232.942 172.057 232.738C172.029 232.622 172.014 232.504 172.009 232.385V232.095C172.009 231.884 172.009 231.656 172.009 231.429V218.658C171.995 217.317 172.24 215.986 172.731 214.738L249.759 259.206L250.08 279.214L173.06 234.73L172.974 234.753Z" fill="#0059EF"/>
<path opacity="0.7" d="M172.974 234.753C172.926 234.724 172.882 234.689 172.841 234.651C172.805 234.634 172.775 234.606 172.754 234.573C172.691 234.511 172.638 234.44 172.597 234.361C172.563 234.331 172.536 234.294 172.519 234.251C172.435 234.117 172.369 233.972 172.323 233.82C172.258 233.657 172.206 233.489 172.166 233.318C172.119 233.13 172.088 232.942 172.057 232.738C172.029 232.622 172.014 232.504 172.009 232.385V232.095C172.009 231.884 172.009 231.656 172.009 231.429V218.658C171.995 217.317 172.24 215.986 172.731 214.738L249.759 259.206L250.08 279.214L173.06 234.73L172.974 234.753Z" fill="black"/>
<path opacity="0.79" d="M249.704 259.237C249.704 259.237 189.038 230.849 183.519 228.246C179.873 226.529 178.085 230.135 178.948 233.867C179.732 237.129 182.923 240.492 182.923 240.492L173.005 234.761C172.958 234.731 172.913 234.697 172.872 234.659C172.836 234.641 172.806 234.614 172.786 234.581C172.722 234.519 172.669 234.447 172.629 234.369C172.594 234.339 172.567 234.302 172.55 234.259C172.467 234.125 172.401 233.98 172.354 233.828C172.289 233.665 172.237 233.497 172.198 233.326C172.151 233.138 172.119 232.95 172.088 232.746C172.061 232.63 172.045 232.512 172.041 232.393V232.103C172.041 231.891 172.041 231.664 172.041 231.437V218.658C172.027 217.317 172.272 215.986 172.762 214.738L249.704 259.237Z" fill="#263238"/>
<path d="M248.99 263.134H250.715C250.675 261.83 250.961 260.536 251.546 259.371C251.957 259.675 252.455 259.837 252.965 259.833C253.725 259.795 254.461 259.562 255.106 259.159C255.882 258.718 256.559 258.123 257.097 257.411C257.138 257.362 257.175 257.309 257.207 257.254C257.511 256.82 257.688 256.309 257.716 255.78L303.243 229.5L304.811 228.599L306.787 227.462C306.959 227.383 307.106 227.259 307.212 227.103C307.319 226.947 307.38 226.765 307.391 226.576V224.561C307.382 224.753 307.321 224.939 307.215 225.1C307.109 225.26 306.961 225.388 306.787 225.471L301.558 228.481L257.536 253.906C256.713 254.377 256.046 254.972 256.046 255.239V255.709C255.997 256.007 255.855 256.282 255.639 256.493C255.261 256.948 254.804 257.33 254.29 257.622C253.318 258.187 252.534 258.21 252.534 257.693V257.23C252.534 256.956 252.15 256.979 251.656 257.23L250.786 257.74C249.774 258.367 248.99 260.758 248.99 263.134Z" fill="#0059EF"/>
<path d="M250.715 263.134V275.905C250.715 276.086 250.715 276.266 250.715 276.438L250.754 276.87C250.751 276.882 250.751 276.896 250.754 276.909C250.911 275.537 252.221 274.314 253.357 273.671C253.991 273.272 254.718 273.045 255.466 273.012C256.041 273.005 256.599 273.209 257.034 273.585L257.183 273.498L257.489 273.318L301.511 247.893L304.043 246.435L304.764 246.011L306.897 244.78C307.037 244.693 307.153 244.572 307.235 244.428C307.317 244.284 307.363 244.123 307.367 243.957V245.972C307.361 246.128 307.318 246.281 307.242 246.417C307.166 246.553 307.058 246.669 306.928 246.756C306.677 246.905 306.411 247.046 306.144 247.211L305.65 247.501L304.803 247.987C304.615 248.105 304.443 248.207 304.278 248.293C304.114 248.379 304.019 248.45 303.91 248.504L303.259 248.889L268.285 269.069L257.121 275.513C256.337 275.984 255.686 276.148 255.639 275.905C255.636 275.877 255.636 275.848 255.639 275.819V275.372C255.639 274.808 254.855 274.808 253.89 275.372C253.533 275.528 253.22 275.769 252.979 276.076C252.738 276.383 252.577 276.744 252.511 277.128V277.677C252.522 277.799 252.505 277.923 252.46 278.037C252.415 278.152 252.344 278.254 252.252 278.336L251.993 278.485L251.444 278.798L250.762 279.198C250.63 279.286 250.472 279.326 250.313 279.312C250.155 279.298 250.007 279.23 249.892 279.12C249.857 279.102 249.827 279.075 249.806 279.041C249.743 278.982 249.69 278.914 249.649 278.837C249.619 278.804 249.592 278.767 249.571 278.728C249.487 278.593 249.421 278.448 249.375 278.296C249.308 278.137 249.256 277.971 249.218 277.803C249.171 277.607 249.139 277.418 249.108 277.215C249.08 277.099 249.065 276.981 249.061 276.862C249.061 276.768 249.061 276.681 249.061 276.572C249.061 276.462 249.061 276.133 249.061 275.905V263.134H250.715Z" fill="#0059EF"/>
<g opacity="0.6">
<path opacity="0.6" d="M248.99 263.134H250.715C250.675 261.83 250.961 260.536 251.546 259.371C251.957 259.675 252.455 259.837 252.965 259.833C253.725 259.795 254.461 259.562 255.106 259.159C255.882 258.718 256.559 258.123 257.097 257.411C257.138 257.362 257.175 257.309 257.207 257.254C257.511 256.82 257.688 256.309 257.716 255.78L303.243 229.5L304.811 228.599L306.787 227.462C306.959 227.383 307.106 227.259 307.212 227.103C307.319 226.947 307.38 226.765 307.391 226.576V224.561C307.382 224.753 307.321 224.939 307.215 225.1C307.109 225.26 306.961 225.388 306.787 225.471L301.558 228.481L257.536 253.906C256.713 254.377 256.046 254.972 256.046 255.239V255.709C255.997 256.007 255.855 256.282 255.639 256.493C255.261 256.948 254.804 257.33 254.29 257.622C253.318 258.187 252.534 258.21 252.534 257.693V257.23C252.534 256.956 252.15 256.979 251.656 257.23L250.786 257.74C249.774 258.367 248.99 260.758 248.99 263.134Z" fill="black"/>
<path opacity="0.6" d="M250.715 263.134V275.905C250.715 276.086 250.715 276.266 250.715 276.438L250.754 276.87C250.751 276.882 250.751 276.896 250.754 276.909C250.911 275.537 252.221 274.314 253.357 273.671C253.991 273.272 254.718 273.045 255.466 273.012C256.041 273.005 256.599 273.209 257.034 273.585L257.183 273.498L257.489 273.318L301.511 247.893L304.043 246.435L304.764 246.011L306.897 244.78C307.037 244.693 307.153 244.572 307.235 244.428C307.317 244.284 307.363 244.123 307.367 243.957V245.972C307.361 246.128 307.318 246.281 307.242 246.417C307.166 246.553 307.058 246.669 306.928 246.756C306.677 246.905 306.411 247.046 306.144 247.211L305.65 247.501L304.803 247.987C304.615 248.105 304.443 248.207 304.278 248.293C304.113 248.379 304.019 248.45 303.91 248.504L303.259 248.889L268.285 269.069L257.121 275.513C256.337 275.984 255.686 276.148 255.639 275.905C255.636 275.877 255.636 275.848 255.639 275.819V275.372C255.639 274.808 254.855 274.808 253.89 275.372C253.533 275.528 253.22 275.769 252.979 276.076C252.738 276.383 252.577 276.744 252.511 277.128V277.677C252.522 277.799 252.505 277.923 252.46 278.037C252.415 278.152 252.344 278.254 252.252 278.336L251.993 278.485L251.444 278.798L250.762 279.198C250.63 279.286 250.472 279.326 250.313 279.312C250.155 279.298 250.007 279.23 249.892 279.12C249.857 279.102 249.827 279.075 249.806 279.041C249.743 278.982 249.69 278.914 249.649 278.837C249.619 278.804 249.592 278.767 249.571 278.728C249.487 278.593 249.421 278.448 249.375 278.296C249.308 278.137 249.256 277.971 249.218 277.803C249.171 277.607 249.139 277.418 249.108 277.215C249.08 277.099 249.065 276.981 249.061 276.862C249.061 276.768 249.061 276.681 249.061 276.572C249.061 276.462 249.061 276.133 249.061 275.905V263.134H250.715Z" fill="black"/>
</g>
<path d="M172.676 214.761L245.886 257.034L301.221 225.086C301.401 225.026 301.559 224.91 301.67 224.755C301.781 224.601 301.841 224.415 301.841 224.224C301.841 224.033 301.781 223.847 301.67 223.693C301.559 223.538 301.401 223.422 301.221 223.362L228.779 181.527L180.171 209.61L178.972 210.308C178.809 210.483 178.708 210.706 178.681 210.943V211.413C178.681 211.931 177.897 212.801 176.933 213.358C176.884 213.39 176.832 213.416 176.776 213.436L175.161 212.503L174.377 212.942L174.268 212.997L173.703 213.326C173.223 213.689 172.865 214.19 172.676 214.761Z" fill="#263238"/>
<path d="M297.136 225.4L294.933 224.224L296.94 223.746C297.133 223.971 297.254 224.249 297.289 224.543C297.324 224.838 297.271 225.136 297.136 225.4Z" fill="#E0E0E0"/>
<g style="mix-blend-mode:multiply" opacity="0.5">
<path d="M297.136 225.4L294.933 224.224L296.94 223.746C297.133 223.971 297.254 224.249 297.289 224.543C297.324 224.838 297.271 225.136 297.136 225.4Z" fill="#E0E0E0"/>
</g>
<path d="M238.751 254.8C239.445 255.152 240.212 255.335 240.99 255.335C241.768 255.335 242.534 255.152 243.228 254.8L293.514 225.792L218.25 178.211L216.486 177.192L166.208 210.308C164.977 211.021 164.977 212.182 166.208 212.895L238.751 254.8Z" fill="#0059EF"/>
<path d="M257.63 195.82L295.623 221.566L275.168 205.886L286.521 199.332L299.723 206.976V220.61C299.723 221.77 298.429 223.409 297.959 223.142C297.089 223.352 296.243 223.652 295.435 224.036C294.116 224.786 292.892 225.691 291.789 226.733L251.499 199.348L257.63 195.82Z" fill="#0059EF"/>
<path opacity="0.2" d="M257.63 195.82L295.623 221.566L275.168 205.886L286.521 199.332L299.723 206.976V220.61C299.723 221.77 298.429 223.409 297.959 223.142C297.089 223.352 296.243 223.652 295.435 224.036C294.116 224.786 292.892 225.691 291.789 226.733L251.499 199.348L257.63 195.82Z" fill="black"/>
<path d="M240.986 237.779V253.522C241.507 253.534 242.022 253.412 242.483 253.169L247.971 249.986L289.994 225.729V209.469L240.986 237.779Z" fill="white"/>
<path d="M167.454 196.784V209.853C167.483 210.371 167.633 210.875 167.892 211.324C168.15 211.773 168.511 212.156 168.944 212.44L234.016 249.994L239.504 253.177C239.963 253.419 240.475 253.541 240.994 253.53V239.01L167.454 196.784Z" fill="#F0F0F0"/>
<path d="M290.017 225.729C290.056 225.135 290.274 224.566 290.644 224.099C291.18 223.384 291.858 222.789 292.636 222.35C293.283 221.947 294.022 221.715 294.784 221.676C295.278 221.626 295.774 221.742 296.195 222.005V205.902L290.025 209.469L290.017 225.729Z" fill="#455A64"/>
<path d="M292.479 222.444C291.768 222.874 291.145 223.436 290.644 224.099C290.274 224.566 290.056 225.135 290.017 225.729V210.049H292.471L292.479 222.444Z" fill="#F5F5F5"/>
<path d="M218.242 163.981L293.506 207.454V208.458C293.506 209.022 294.29 209.242 295.254 208.669C296.219 208.097 297.018 207.407 297.018 206.443L297.112 205.486L220.414 161.206L220.1 161.026C220.021 161.17 219.978 161.332 219.975 161.496V161.959C219.983 162.515 219.206 163.417 218.242 163.981Z" fill="#0059EF"/>
<path opacity="0.2" d="M218.242 163.981L293.506 207.454V208.458C293.506 209.022 294.29 209.242 295.254 208.669C296.219 208.097 297.018 207.407 297.018 206.443L297.112 205.486L220.414 161.206L220.1 161.026C220.021 161.17 219.978 161.332 219.975 161.496V161.959C219.983 162.515 219.206 163.417 218.242 163.981Z" fill="black"/>
<path d="M243.228 236.486L292.432 208.097C293.059 207.768 293.631 207.501 293.867 207.627L293.545 207.454L218.281 163.981L217.395 163.48C217.001 163.363 216.586 163.334 216.18 163.395C215.774 163.456 215.386 163.605 215.043 163.832L166.208 192.002C164.977 192.715 164.977 193.883 166.208 194.589L238.767 236.486C239.459 236.835 240.223 237.017 240.998 237.017C241.772 237.017 242.536 236.835 243.228 236.486Z" fill="#0059EF"/>
<path d="M220.108 161.026L220.422 161.206L297.136 205.486C297.175 205.405 297.231 205.332 297.301 205.275L297.559 205.134L298.108 204.812L298.79 204.412C298.923 204.326 299.081 204.286 299.239 204.301C299.397 204.315 299.545 204.382 299.66 204.491C299.693 204.513 299.722 204.539 299.747 204.569C299.837 204.667 299.916 204.775 299.982 204.891C300.063 205.027 300.128 205.171 300.178 205.322C300.239 205.486 300.292 205.653 300.335 205.823C300.374 206.012 300.413 206.2 300.444 206.404C300.468 206.523 300.484 206.643 300.492 206.764V207.047C300.492 207.258 300.492 207.486 300.492 207.721V205.565C300.413 204.855 300.169 204.173 299.78 203.574C299.39 202.975 298.866 202.475 298.249 202.115L225.69 160.218C225.092 159.866 224.42 159.657 223.728 159.608C223.035 159.559 222.341 159.672 221.699 159.936L220.782 160.469L220.398 160.696C220.272 160.776 220.171 160.891 220.108 161.026Z" fill="#0059EF"/>
<path d="M243.228 254.8L246.262 253.044L291.789 226.756C291.829 226.162 292.048 225.594 292.416 225.126C292.954 224.414 293.632 223.819 294.407 223.377C295.054 222.98 295.79 222.751 296.548 222.711C297.059 222.7 297.56 222.863 297.967 223.173C298.552 222.005 298.837 220.709 298.798 219.402H300.523C300.523 221.754 299.739 224.169 298.774 224.726L297.904 225.235C297.41 225.518 297.026 225.533 297.026 225.235V224.773C297.026 224.255 296.242 224.279 295.262 224.836C294.282 225.392 293.514 226.27 293.514 226.788V227.25C293.514 227.517 292.847 228.113 292.024 228.591L247.995 254.016L243.228 256.768C242.538 257.125 241.77 257.305 240.994 257.293V255.302C241.769 255.328 242.538 255.155 243.228 254.8Z" fill="#0059EF"/>
<path opacity="0.4" d="M243.228 254.8L246.262 253.044L291.789 226.756C291.829 226.162 292.048 225.594 292.416 225.126C292.954 224.414 293.632 223.819 294.407 223.377C295.054 222.98 295.79 222.751 296.548 222.711C297.059 222.7 297.56 222.863 297.967 223.173C298.552 222.005 298.837 220.709 298.798 219.402H300.523C300.523 221.754 299.739 224.169 298.774 224.726L297.904 225.235C297.41 225.518 297.026 225.533 297.026 225.235V224.773C297.026 224.255 296.242 224.279 295.262 224.836C294.282 225.392 293.514 226.27 293.514 226.788V227.25C293.514 227.517 292.847 228.113 292.024 228.591L247.995 254.016L243.228 256.768C242.538 257.125 241.77 257.305 240.994 257.293V255.302C241.769 255.328 242.538 255.155 243.228 254.8Z" fill="black"/>
<path d="M243.212 236.494L246.247 234.737L281.221 214.557L292.432 208.097C293.216 207.635 293.875 207.47 293.922 207.713V208.223C293.922 208.779 294.706 208.779 295.67 208.223C296.028 208.066 296.342 207.823 296.583 207.515C296.824 207.207 296.984 206.844 297.05 206.459V205.91C297.038 205.787 297.056 205.664 297.101 205.55C297.146 205.435 297.217 205.333 297.308 205.251L297.567 205.11L298.116 204.789L298.798 204.389C298.931 204.302 299.089 204.263 299.247 204.277C299.405 204.291 299.553 204.358 299.668 204.467C299.701 204.489 299.73 204.516 299.755 204.546C299.815 204.609 299.868 204.681 299.911 204.757C299.941 204.791 299.967 204.828 299.99 204.867C300.071 205.003 300.136 205.148 300.186 205.298C300.247 205.462 300.3 205.63 300.343 205.8C300.382 205.988 300.421 206.176 300.452 206.38C300.476 206.499 300.492 206.62 300.499 206.741V207.023C300.499 207.235 300.499 207.462 300.499 207.697V219.363H298.775V207.76C298.775 207.58 298.775 207.392 298.775 207.219L298.735 206.788C298.579 208.16 297.269 209.383 296.125 210.026C295.494 210.426 294.77 210.654 294.023 210.684C293.448 210.692 292.891 210.488 292.455 210.112L292.307 210.198L292.001 210.379L247.971 235.804L243.205 238.556C242.523 238.904 241.767 239.079 241.002 239.065V237.074C241.775 237.068 242.536 236.869 243.212 236.494Z" fill="#0059EF"/>
<path opacity="0.4" d="M243.212 236.494L246.247 234.737L281.221 214.557L292.432 208.097C293.216 207.635 293.875 207.47 293.922 207.713V208.223C293.922 208.779 294.706 208.779 295.67 208.223C296.028 208.066 296.342 207.823 296.583 207.515C296.824 207.207 296.984 206.844 297.05 206.459V205.91C297.038 205.787 297.056 205.664 297.101 205.55C297.146 205.435 297.217 205.333 297.308 205.251L297.567 205.11L298.116 204.789L298.798 204.389C298.931 204.302 299.089 204.263 299.247 204.277C299.405 204.291 299.553 204.358 299.668 204.467C299.701 204.489 299.73 204.516 299.755 204.546C299.815 204.609 299.868 204.681 299.911 204.757C299.941 204.791 299.967 204.828 299.99 204.867C300.071 205.003 300.136 205.148 300.186 205.298C300.247 205.462 300.3 205.63 300.343 205.8C300.382 205.988 300.421 206.176 300.452 206.38C300.476 206.499 300.492 206.62 300.499 206.741V207.023C300.499 207.235 300.499 207.462 300.499 207.697V219.363H298.775V207.76C298.775 207.58 298.775 207.392 298.775 207.219L298.735 206.788C298.579 208.16 297.269 209.383 296.125 210.026C295.494 210.426 294.77 210.654 294.023 210.684C293.448 210.692 292.891 210.488 292.455 210.112L292.307 210.198L292.001 210.379L247.971 235.804L243.205 238.556C242.523 238.904 241.767 239.079 241.002 239.065V237.074C241.775 237.068 242.536 236.869 243.212 236.494Z" fill="black"/>
<path d="M165.275 193.272V195.294C165.299 195.566 165.393 195.827 165.548 196.051C165.704 196.275 165.915 196.455 166.161 196.572L233.961 235.71L238.72 238.461C239.408 238.817 240.173 238.997 240.947 238.987V236.995C240.168 237.013 239.399 236.829 238.712 236.462L235.686 234.714L166.208 194.589C165.945 194.479 165.717 194.297 165.552 194.064C165.387 193.831 165.291 193.557 165.275 193.272Z" fill="#0059EF"/>
<path opacity="0.2" d="M165.275 193.272V195.294C165.299 195.566 165.393 195.827 165.548 196.051C165.704 196.275 165.915 196.455 166.161 196.572L233.961 235.71L238.72 238.461C239.408 238.817 240.173 238.997 240.947 238.987V236.995C240.168 237.013 239.399 236.829 238.712 236.462L235.686 234.714L166.208 194.589C165.945 194.479 165.717 194.297 165.552 194.064C165.387 193.831 165.291 193.557 165.275 193.272Z" fill="black"/>
<path d="M165.275 211.57V213.593C165.299 213.865 165.393 214.125 165.548 214.349C165.704 214.574 165.915 214.753 166.161 214.871L233.993 254.016L238.752 256.768C239.439 257.123 240.204 257.304 240.978 257.293V255.302C240.2 255.319 239.43 255.135 238.744 254.769L235.717 253.02L166.208 212.887C165.945 212.777 165.717 212.596 165.552 212.363C165.387 212.13 165.291 211.855 165.275 211.57Z" fill="#0059EF"/>
<path opacity="0.2" d="M165.275 211.57V213.593C165.299 213.865 165.393 214.125 165.548 214.349C165.704 214.574 165.915 214.753 166.161 214.871L233.993 254.016L238.752 256.768C239.439 257.123 240.204 257.304 240.978 257.293V255.302C240.2 255.319 239.43 255.135 238.744 254.769L235.717 253.02L166.208 212.887C165.945 212.777 165.717 212.596 165.552 212.363C165.387 212.13 165.291 211.855 165.275 211.57Z" fill="black"/>
<path d="M196.588 140.438L189.391 153.264L199.881 158.846L207.517 147.478L196.588 140.438Z" fill="#E08B8B"/>
<path d="M222.123 111.547C218.124 110.865 212.072 110.685 208.136 117.435C204.201 124.186 195.718 140.846 195.718 140.846C195.718 140.846 200.673 147.259 207.846 148.427L219.567 129.83L222.123 111.547Z" fill="#0059EF"/>
<path d="M212.676 268.63H203.722V283.957H212.676V268.63Z" fill="#E08B8B"/>
<path d="M186.757 264.898L177.803 265.204L177.356 248.983L186.302 248.677L186.757 264.898Z" fill="#E08B8B"/>
<path d="M203.722 279.535V278.257C202.868 278.626 200.876 286.223 197.325 289.461C194.503 292.04 190.653 295.011 189.673 297.881C188.654 300.868 195.036 302.522 197.67 302.052C200.735 301.511 206.051 299.355 207.384 297.348C208.716 295.341 209.344 292.401 210.426 290.935C211.507 289.468 214.008 287.799 214.596 286.129C214.918 285.196 214.534 283.157 214.087 281.425C213.671 279.857 213.217 278.101 212.676 278.249V279.222C212.025 279.943 210.23 280.656 208.199 280.735C206.89 280.797 203.714 280.539 203.722 279.535Z" fill="#263238"/>
<path d="M177.709 262.444C177.247 262.444 176.87 263.118 175.843 264.224C174.311 265.772 172.53 267.052 170.575 268.01C167.219 269.696 160.72 272.275 157.756 273.616C155.914 274.447 156 276.674 157.905 277.944C159.81 279.214 164.405 280.123 169.932 278.884C172.935 278.21 176.855 275.435 179.34 275.584C181.825 275.733 186.459 275.701 188.285 274.439C190.112 273.177 189.383 270.519 188.865 268.167C188.301 265.643 187.493 261.778 186.655 261.95V262.734C185.581 264.365 180.1 265.031 177.733 263.832L177.709 262.444Z" fill="#263238"/>
<path d="M248.74 175.42C250.7 189.258 248.057 191.884 234.91 205.165C227.854 212.292 216.447 222.742 216.447 222.742C216.447 222.742 216.611 227.164 216.697 237.074C216.784 245.8 213.138 274.196 213.138 274.196C213.138 274.196 207.195 276.697 203.119 274.102C203.119 274.102 201.276 252.973 200.281 241.958C198.932 227.062 198.226 219.551 198.987 216.345C199.661 213.515 213.044 196.612 216.133 191.876L187.689 208.403C188.241 212.59 188.519 216.809 188.521 221.033C188.207 232.879 186.749 256.54 186.749 256.54C186.749 256.54 180.241 259.449 177.011 256.94C177.011 256.94 168.819 205.196 168.819 200.947C168.819 194.495 196.839 175.232 202.146 170.747C205.173 168.192 208.544 165.424 208.544 165.424L248.74 175.42Z" fill="#455A64"/>
<path d="M216.133 191.884C213.141 189.462 210.889 186.248 209.634 182.609C209.79 184.984 210.129 187.342 210.645 189.665C211.429 192.739 187.69 208.403 187.69 208.403L216.133 191.884Z" fill="#37474F"/>
<path d="M231.941 86.8004C233.543 79.9668 229.302 73.1287 222.468 71.5272C215.634 69.9256 208.796 74.167 207.195 81.0007C205.593 87.8343 209.835 94.6723 216.668 96.2739C223.502 97.8754 230.34 93.634 231.941 86.8004Z" fill="#263238"/>
<path d="M246.27 119.246C246.27 119.246 249.406 121.818 249.406 129.94V147.478L248.959 176.972C242.687 183.801 214.463 181.214 207.478 166.318C207.478 166.318 207.533 135.185 207.533 128.207C207.533 121.23 211.453 112.175 222.115 111.547L235.929 114.762L246.27 119.246Z" fill="#263238"/>
<path d="M241.535 92.9354C241.535 92.9354 239.473 102.61 238.649 104.201C238.1 105.183 237.193 105.913 236.117 106.24L236.258 99.4347L241.535 92.9354Z" fill="#263238"/>
<path d="M238.947 79.0742C239.663 78.9938 240.388 79.0769 241.067 79.3172C241.746 79.5576 242.362 79.949 242.867 80.4619C244.561 82.1945 243.612 87.6198 241.503 92.9353L237.622 93.3822L238.947 79.0742Z" fill="#263238"/>
<path d="M236.494 93.3822C237.278 93.8448 238.383 92.3552 239.339 91.3517C240.296 90.3481 243.432 88.9997 244.992 92.2689C246.552 95.5382 243.612 100.054 241.151 100.83C236.901 102.163 236.258 99.4347 236.258 99.4347L235.937 114.762C232.276 118.854 219.755 117.898 222.115 114.354V109.65C222.115 109.65 218.266 110.238 216.392 109.948C213.256 109.462 211.296 107 210.347 103.613C208.826 98.1803 208.246 93.7977 209.563 83.1118C210.982 71.3989 224.6 71.2813 231.954 75.9069C239.308 80.5325 236.494 93.3822 236.494 93.3822Z" fill="#E08B8B"/>
<path d="M236.494 94.6915C236.886 94.6915 238.367 92.2297 239.339 91.3516C240.68 90.1286 238.947 79.0742 238.947 79.0742C238.947 79.0742 240.241 76.3224 237.654 73.4843C235.819 71.4616 232.746 71.2342 227.501 70.411C224.749 69.9798 220.578 69.2036 217.827 68.694C214.549 68.0825 211.829 67.4396 209.516 69.478C208.608 70.2651 207.966 71.3139 207.678 72.4805C207.391 73.647 207.471 74.8741 207.909 75.9931C208.573 77.3886 209.754 78.4711 211.202 79.0115C211.202 79.0115 212.629 80.2816 217.607 80.8852C222.585 81.4889 230.339 80.7755 231.398 80.6265C232.84 80.4305 233.146 81.826 233.93 85.652C234.612 88.984 235.2 94.668 236.494 94.6915Z" fill="#263238"/>
<path d="M238.94 79.968L243.644 77.4356C243.493 77.1195 243.28 76.837 243.017 76.6054C242.754 76.3737 242.448 76.1977 242.115 76.0878C241.782 75.9779 241.431 75.9365 241.082 75.966C240.733 75.9956 240.394 76.0954 240.084 76.2597C239.455 76.6141 238.986 77.1961 238.773 77.8858C238.56 78.5756 238.62 79.3207 238.94 79.968Z" fill="#263238"/>
<path d="M222.123 109.689C222.123 109.689 229.1 108.286 231.531 106.992C232.965 106.243 234.14 105.08 234.902 103.653C234.533 105.074 233.883 106.407 232.989 107.573C231.202 109.854 222.115 111.532 222.115 111.532L222.123 109.689Z" fill="#BC8181"/>
<path d="M223.801 91.6417C223.811 91.917 223.903 92.1831 224.064 92.4067C224.225 92.6303 224.448 92.8016 224.706 92.8992C224.963 92.9968 225.244 93.0164 225.513 92.9556C225.781 92.8947 226.026 92.7562 226.217 92.5571C226.407 92.3581 226.535 92.1074 226.584 91.8362C226.633 91.5651 226.601 91.2856 226.492 91.0325C226.383 90.7794 226.202 90.5639 225.972 90.4129C225.741 90.262 225.472 90.1822 225.196 90.1835C225.009 90.1876 224.824 90.2285 224.652 90.304C224.481 90.3795 224.326 90.4881 224.196 90.6235C224.067 90.7589 223.965 90.9185 223.897 91.0932C223.829 91.268 223.796 91.4543 223.801 91.6417Z" fill="#263238"/>
<path d="M226.043 85.8558L229.038 87.5022C229.24 87.0945 229.28 86.6255 229.15 86.1893C229.021 85.7531 228.732 85.3819 228.34 85.1502C228.144 85.0417 227.928 84.9738 227.704 84.9507C227.481 84.9275 227.256 84.9495 227.042 85.0153C226.827 85.0812 226.628 85.1895 226.457 85.3339C226.285 85.4784 226.144 85.6558 226.043 85.8558Z" fill="#263238"/>
<path d="M222.758 101.293L219.567 102.492C219.636 102.707 219.747 102.905 219.894 103.075C220.041 103.245 220.221 103.384 220.423 103.483C220.626 103.581 220.846 103.638 221.07 103.65C221.295 103.662 221.52 103.628 221.731 103.551C222.161 103.38 222.508 103.05 222.7 102.629C222.891 102.208 222.912 101.729 222.758 101.293Z" fill="#BC8181"/>
<path d="M210.974 87.0789L213.703 84.9856C213.576 84.8028 213.413 84.6477 213.224 84.5296C213.036 84.4116 212.825 84.3329 212.605 84.2985C212.386 84.264 212.161 84.2745 211.945 84.3293C211.73 84.384 211.527 84.4819 211.351 84.6171C210.983 84.9003 210.739 85.3141 210.669 85.7726C210.599 86.231 210.708 86.6989 210.974 87.0789Z" fill="#263238"/>
<path d="M212.174 91.2419C212.185 91.5172 212.276 91.7832 212.437 92.0068C212.598 92.2304 212.821 92.4017 213.079 92.4993C213.337 92.5969 213.617 92.6165 213.886 92.5557C214.155 92.4949 214.399 92.3563 214.59 92.1573C214.78 91.9582 214.908 91.7075 214.957 91.4364C215.006 91.1653 214.974 90.8857 214.865 90.6326C214.756 90.3795 214.576 90.1641 214.345 90.0131C214.115 89.8621 213.845 89.7823 213.569 89.7836C213.382 89.7877 213.197 89.8287 213.026 89.9042C212.854 89.9797 212.699 90.0882 212.569 90.2236C212.44 90.3591 212.338 90.5187 212.27 90.6934C212.202 90.8681 212.17 91.0545 212.174 91.2419Z" fill="#263238"/>
<path d="M219.081 90.1208L218.924 98.5958L213.914 97.4904L219.081 90.1208Z" fill="#BC8181"/>
<path d="M210.52 160.579V161.363C210.519 161.764 210.413 162.157 210.212 162.504C210.011 162.851 209.723 163.139 209.375 163.338L187.603 175.882C187.256 176.083 186.863 176.188 186.463 176.188C186.062 176.188 185.669 176.083 185.322 175.882L145.377 152.825C145.03 152.625 144.741 152.338 144.54 151.991C144.339 151.644 144.233 151.25 144.232 150.849V150.293L186.459 174.667L210.52 160.579Z" fill="#0059EF"/>
<path opacity="0.6" d="M210.52 160.579V161.363C210.519 161.764 210.413 162.157 210.212 162.504C210.011 162.851 209.723 163.139 209.375 163.338L187.603 175.882C187.256 176.083 186.863 176.188 186.463 176.188C186.062 176.188 185.669 176.083 185.322 175.882L145.377 152.825C145.03 152.625 144.741 152.338 144.54 151.991C144.339 151.644 144.233 151.25 144.232 150.849V150.293L186.459 174.667L210.52 160.579Z" fill="black"/>
<path d="M144.256 150.301L167.941 136.628C168.148 136.508 168.383 136.445 168.623 136.445C168.862 136.445 169.097 136.508 169.305 136.628L210.386 160.352C210.432 160.379 210.47 160.417 210.496 160.463C210.522 160.509 210.536 160.561 210.536 160.614C210.536 160.667 210.522 160.719 210.496 160.765C210.47 160.811 210.432 160.85 210.386 160.877L186.482 174.675L144.256 150.301Z" fill="#0059EF"/>
<path opacity="0.5" d="M144.256 150.301L167.941 136.628C168.148 136.508 168.383 136.445 168.623 136.445C168.862 136.445 169.097 136.508 169.305 136.628L210.386 160.352C210.432 160.379 210.47 160.417 210.496 160.463C210.522 160.509 210.536 160.561 210.536 160.614C210.536 160.667 210.522 160.719 210.496 160.765C210.47 160.811 210.432 160.85 210.386 160.877L186.482 174.675L144.256 150.301Z" fill="black"/>
<path d="M186.678 172.668L199.449 165.299L162.1 143.739L149.258 151.069L186.678 172.668Z" fill="#263238"/>
<path d="M192.958 152.174L192.723 152.308L186.459 155.922L175.326 149.493L175.099 149.36L181.59 145.612L192.958 152.174Z" fill="#263238"/>
<path d="M192.723 152.308L186.459 155.922L175.326 149.493L181.59 145.879L192.723 152.308Z" fill="#263238"/>
<path opacity="0.7" d="M186.459 174.675V176.196C186.059 176.196 185.667 176.09 185.322 175.89L145.377 152.833C145.03 152.633 144.741 152.345 144.54 151.999C144.339 151.652 144.233 151.258 144.232 150.857V150.301L186.459 174.675Z" fill="black"/>
<path d="M185.808 175.012C185.428 175.164 185.019 175.226 184.611 175.195C184.203 175.163 183.808 175.039 183.456 174.832L143.691 151.876C143.346 151.678 143.049 151.406 142.821 151.079C142.593 150.753 142.441 150.38 142.374 149.987L138.023 124.021C137.998 123.876 137.985 123.729 137.984 123.582C137.979 122.861 138.261 122.167 138.768 121.653L180.093 145.518C180.355 145.662 180.582 145.863 180.757 146.106C180.932 146.349 181.05 146.627 181.104 146.922L185.808 175.012Z" fill="#0059EF"/>
<path opacity="0.5" d="M185.808 175.012C185.428 175.164 185.019 175.226 184.611 175.195C184.203 175.163 183.808 175.039 183.456 174.832L143.691 151.876C143.346 151.678 143.049 151.406 142.821 151.079C142.593 150.753 142.441 150.38 142.374 149.987L138.023 124.021C137.998 123.876 137.985 123.729 137.984 123.582C137.979 122.861 138.261 122.167 138.768 121.653L180.093 145.518C180.355 145.662 180.582 145.863 180.757 146.106C180.932 146.349 181.05 146.627 181.104 146.922L185.808 175.012Z" fill="black"/>
<path d="M186.459 174.675L186.192 174.832C186.071 174.902 185.946 174.962 185.816 175.012L181.112 146.922C181.062 146.631 180.95 146.354 180.782 146.112C180.614 145.869 180.394 145.667 180.14 145.518L138.815 121.653C138.979 121.492 139.164 121.352 139.364 121.238L180.775 145.142C181.03 145.29 181.249 145.493 181.417 145.736C181.585 145.978 181.697 146.254 181.747 146.545L186.459 174.675Z" fill="#E0E0E0"/>
<path d="M163.417 151.045C163.127 149.313 161.331 147 159.411 145.895C157.49 144.789 156.165 145.291 156.463 147.031C156.761 148.772 158.548 151.077 160.469 152.19C162.39 153.303 163.715 152.786 163.417 151.045Z" fill="#0059EF"/>
<path d="M171.563 167.948C171.48 166.823 171.261 165.713 170.912 164.64C170.3 162.719 168.482 155.318 164.326 154.205C163.832 154.056 163.308 154.04 162.805 154.158C161.653 154.472 161.128 155.671 160.9 156.745C160.689 158.332 160.689 159.94 160.9 161.528C160.262 160.797 159.513 160.17 158.682 159.669C157.944 159.114 157.056 158.797 156.134 158.76C156.005 158.754 155.877 158.779 155.761 158.834C155.645 158.888 155.544 158.971 155.467 159.074C155.318 159.348 155.467 159.693 155.702 159.936C156.118 160.438 156.627 160.861 157.043 161.363C157.369 161.8 157.67 162.256 157.945 162.727C158.47 163.574 159.058 164.373 159.646 165.181C160.776 166.859 162.193 168.324 163.832 169.509C165.718 170.785 167.858 171.638 170.104 172.01C173.139 172.386 176.086 172.339 177.999 171.672L171.563 167.948Z" fill="#E08B8B"/>
<path d="M245.439 119.474C242.64 118.031 238.548 123.747 239.849 129.721C241.151 135.695 247.564 156.698 247.564 156.698C247.564 156.698 218.595 159.285 216.133 159.591C214.416 159.795 212.495 158.925 210.904 158.399C208.74 157.678 206.553 157.176 204.42 156.392C204.049 156.222 203.645 156.136 203.236 156.141C203.031 156.15 202.835 156.227 202.677 156.358C202.52 156.49 202.411 156.67 202.366 156.871C202.356 157.116 202.418 157.359 202.546 157.568C203.23 158.963 204.258 160.161 205.533 161.049C206.151 161.414 206.738 161.828 207.29 162.288C207.627 162.625 208.371 163.558 208.074 164.068L196.564 170.692C196.564 170.692 199.214 172.997 208.811 170.308C212.27 169.403 215.645 168.205 218.901 166.725C218.901 166.725 253.036 168.144 259.206 166.279C261.386 165.612 262.17 164.068 260.696 157.043C259.01 148.905 254.173 134.064 253.075 130.144C250.668 121.653 250.096 121.849 245.439 119.474Z" fill="#E08B8B"/>
<path d="M243.996 118.259C243.996 118.259 248.622 119.56 250.613 122.179C252.605 124.797 260.288 150.128 260.288 150.128C258.28 151.803 255.931 153.022 253.405 153.699C250.878 154.375 248.235 154.495 245.658 154.048C245.658 154.048 239.48 136.526 238.822 131.845C237.654 124.593 241.197 118.886 243.996 118.259Z" fill="#0059EF"/>
<path d="M219.034 135.256C218.658 133.296 219.881 132.237 221.77 132.904C222.77 133.314 223.66 133.954 224.368 134.771C225.076 135.588 225.582 136.559 225.847 137.608C226.223 139.591 219.402 137.2 219.034 135.256Z" fill="#0059EF"/>
<path d="M231.962 141.363L226.404 137.827C226.686 139.332 224.655 139.121 222.828 138.486C221.002 137.851 218.767 136.565 218.477 135.06L213.632 134.997C213.185 134.997 213.177 135.577 213.632 136.055C214.832 137.396 217.623 139.771 223.487 141.818C229.351 143.864 231.601 143.229 232.448 142.602C232.723 142.367 232.472 141.684 231.962 141.363Z" fill="#0059EF"/>
</svg>
