<svg width="313" height="324" viewBox="0 0 313 324" fill="none" xmlns="http://www.w3.org/2000/svg">
<path d="M132.681 323.692C205.959 323.692 265.362 302.107 265.362 275.481C265.362 248.854 205.959 227.269 132.681 227.269C59.4034 227.269 0 248.854 0 275.481C0 302.107 59.4034 323.692 132.681 323.692Z" fill="#F0F0F0"/>
<g filter="url(#filter0_d)">
<path d="M133.249 231.687L148.911 236.637L166.625 179.072L150.962 174.121L133.249 231.687Z" fill="#0059EF"/>
</g>
<g filter="url(#filter1_dd)">
<path d="M113.954 282.118L137.132 289.439L158.803 219.002L135.626 211.681L113.954 282.118Z" fill="#0059EF"/>
</g>
<path d="M205.401 103.283L129.769 146.393V145.722L205.401 102.615V103.283Z" fill="#37474F"/>
<path d="M203.212 101.366L205.401 102.615L129.769 145.722L127.577 144.476L203.212 101.366Z" fill="#455A64"/>
<path d="M127.577 144.476L129.769 145.722V146.393L127.577 145.148V144.476Z" fill="#263238"/>
<path d="M203.212 101.366L127.577 144.476V90.1592L203.212 47.0487V101.366Z" fill="#0059EF"/>
<g opacity="0.2">
<path opacity="0.2" d="M203.212 101.366L127.577 144.476V90.1592L203.212 47.0487V101.366Z" fill="black"/>
</g>
<path d="M129.51 140.831V91.6007L201.279 50.6938V99.9243L129.51 140.831Z" fill="#37474F"/>
<path d="M129.51 139.421V140.827L201.279 99.9244V50.6901L200.037 51.401V99.2213L129.51 139.421Z" fill="#263238"/>
<g opacity="0.3">
<path opacity="0.3" d="M129.51 140.831L127.577 144.476L203.212 101.366L201.279 99.9243L129.51 140.831Z" fill="black"/>
</g>
<g opacity="0.15">
<path opacity="0.15" d="M201.279 50.6939L203.212 47.0487L127.577 90.1592L129.51 91.6008L201.279 50.6939Z" fill="black"/>
</g>
<path d="M125.893 89.1969L127.576 90.1593V144.477L125.893 143.514V89.1969Z" fill="#0059EF"/>
<g opacity="0.35">
<path opacity="0.35" d="M125.893 89.1969L127.576 90.1593V144.477L125.893 143.514V89.1969Z" fill="black"/>
</g>
<path d="M203.212 47.0487L201.529 46.0863L125.893 89.1968L127.576 90.1592L203.212 47.0487Z" fill="#0059EF"/>
<g opacity="0.1">
<path opacity="0.1" d="M203.212 47.0487L201.529 46.0863L125.893 89.1968L127.576 90.1592L203.212 47.0487Z" fill="black"/>
</g>
<path opacity="0.03" d="M137.949 101.044C137.671 100.887 141.088 95.5013 141.331 95.1046C142.091 93.8437 144.514 93.8869 144.789 95.5485C145.013 97.1133 144.995 98.7029 144.733 100.262C146.678 95.8156 148.246 91.1608 150.808 87.0246C151.704 85.579 154.58 86.019 154.333 87.9673C153.733 92.7124 152.456 97.265 151.007 101.778C153.741 94.539 155.607 86.9067 157.059 79.6241C157.457 77.5619 160.871 78.0254 160.775 80.123C160.589 84.511 160.073 88.8792 159.231 93.1916C159.888 91.5772 160.516 89.9549 161.141 88.3248C161.989 86.1093 165.374 86.9382 164.79 89.3186C164.571 90.222 164.348 91.1215 164.125 92.025C165.02 89.9588 165.896 87.8809 166.735 85.7872C167.439 84.0235 170.758 84.0117 170.451 86.2822C170.427 86.4511 170.4 86.6121 170.376 86.7771C170.376 86.7771 170.376 86.7771 170.376 86.8085C170.256 87.6216 170.121 88.4308 169.978 89.2321C171.004 86.7378 171.967 84.216 172.862 81.6785C173.905 78.7639 174.518 75.2639 176.272 72.6832C176.444 72.4078 176.684 72.1804 176.97 72.0227C177.256 71.865 177.578 71.7822 177.906 71.7822C178.233 71.7822 178.555 71.865 178.841 72.0227C179.127 72.1804 179.367 72.4078 179.539 72.6832C181.067 75.0675 180.152 77.7897 179.579 80.394C178.726 84.1829 177.663 87.9228 176.396 91.5968C175.831 93.2414 175.238 94.8755 174.617 96.4991C175.608 94.9278 176.563 93.3566 177.458 91.7265C181.079 85.202 182.718 78.0175 185.96 71.3712C186.784 69.6861 189.541 70.5188 189.49 72.314C189.291 77.7701 187.858 82.9197 185.797 87.9673C185.089 89.6996 184.329 91.4083 183.561 93.1091C185.885 89.8017 188.1 86.4157 190.206 82.9512C190.982 81.6745 193.369 81.7492 193.663 83.399C194.262 86.5172 194.116 89.7302 193.238 92.7831C192.573 95.0928 188.921 94.1108 189.585 91.7893C189.716 91.3376 189.82 90.8976 189.911 90.4577C186.373 95.822 182.557 101.003 178.48 105.981C177.462 107.227 175.138 106.209 175.25 104.662C175.332 103.618 175.514 102.584 175.795 101.574C173.292 105.282 170.622 108.88 167.945 112.467C166.489 114.431 163.715 112.789 164.678 110.581C166.238 107.014 167.782 103.44 169.246 99.8379C166.963 104.341 164.301 108.647 161.288 112.71C159.844 114.635 156.963 113.028 158.018 110.825C158.588 109.636 159.154 108.442 159.717 107.242C159.249 107.449 158.718 107.465 158.239 107.285C157.76 107.105 157.373 106.745 157.162 106.284C156.51 107.392 155.833 108.488 155.097 109.556C154.932 109.832 154.696 110.06 154.414 110.217C154.131 110.374 153.811 110.455 153.487 110.452C153.162 110.449 152.844 110.362 152.565 110.199C152.285 110.036 152.054 109.803 151.895 109.525C150.088 113.423 147.887 117.132 145.326 120.594C144.072 122.263 141.411 121.321 141.868 119.152C142.771 115.191 143.904 111.283 145.262 107.451C144.496 108.782 143.634 110.058 142.684 111.269C141.617 112.608 139.473 111.426 139.453 109.949C139.425 107.835 139.958 105.75 140.46 103.664C139.266 104.772 137.83 105.235 136.083 104.277C133.915 103.086 135.82 99.8576 137.949 101.044Z" fill="white"/>
<path d="M136.843 100.981C137.058 99.9913 137.639 98.5733 138.526 98.0744C139.29 97.6384 140.117 97.8544 140.117 99.1271C140.117 99.3589 140.062 99.8302 139.823 99.9638C139.584 100.097 139.548 99.5946 139.548 99.2135C139.548 98.75 138.964 98.6911 138.558 98.9229C137.428 99.5671 137.109 102.387 137.109 103.314C137.109 104.52 137.853 104.811 138.574 104.399C139.09 104.111 139.55 103.736 139.934 103.291C140.074 103.102 140.113 102.847 140.308 102.733C140.503 102.619 140.627 102.78 140.627 103.063C140.635 103.221 140.597 103.377 140.519 103.515C140.04 104.211 139.402 104.787 138.657 105.196C137.611 105.793 136.517 105.891 136.517 103.625C136.544 102.736 136.653 101.851 136.843 100.981Z" fill="#FAFAFA"/>
<path d="M141.446 96.1261C141.446 95.993 141.475 95.8614 141.53 95.7402C141.586 95.6189 141.667 95.5108 141.769 95.423C141.94 95.3248 142.326 95.5605 142.326 95.9258C142.315 96.1353 142.222 96.3324 142.067 96.4757C142.005 96.517 141.933 96.5404 141.859 96.5433C141.785 96.5462 141.711 96.5284 141.646 96.492C141.581 96.4556 141.528 96.402 141.493 96.3373C141.458 96.2726 141.442 96.1995 141.446 96.1261ZM141.554 100.628C141.56 99.8267 141.611 99.0267 141.709 98.2316C141.709 98.1059 141.828 97.6856 142.011 97.5795C142.194 97.4734 142.25 97.6659 142.25 97.933C142.25 98.6519 142.17 99.7674 142.17 100.463C142.17 101.075 142.314 101.999 142.314 102.627C142.324 102.753 142.305 102.879 142.258 102.996C142.211 103.113 142.138 103.218 142.043 103.303C141.772 103.456 141.645 103.397 141.601 103.059C141.585 102.965 141.554 102.552 141.554 100.628Z" fill="#FAFAFA"/>
<path d="M143.571 101.095C143.571 100.887 143.571 100.675 143.571 100.459C143.551 100.099 143.551 99.7382 143.571 99.3784L143.682 97.3044C143.668 97.1658 143.69 97.0259 143.748 96.8988C143.806 96.7718 143.898 96.6624 144.013 96.5816C144.208 96.4677 144.303 96.6445 144.331 96.8173C144.647 96.2712 145.097 95.812 145.64 95.4818C146.038 95.2696 146.686 94.9829 146.686 95.7685C146.693 95.8929 146.668 96.0171 146.614 96.1296C146.56 96.2421 146.478 96.3394 146.376 96.4127C146.229 96.4952 146.165 96.4127 146.101 96.3302C146.038 96.2477 145.978 96.1731 145.656 96.3577C144.641 96.9351 144.18 97.8111 144.18 99.3038C144.18 99.8615 144.208 100.258 144.235 100.812C144.235 101.028 144.267 101.248 144.267 101.468C144.264 101.596 144.233 101.721 144.177 101.837C144.12 101.952 144.04 102.054 143.941 102.136C143.631 102.313 143.543 102.136 143.543 101.676C143.551 101.48 143.571 101.276 143.571 101.095Z" fill="#FAFAFA"/>
<path d="M149.308 93.4785C149.682 93.2625 150.434 93.4785 150.434 94.327C150.434 94.5784 150.231 95.3954 149.993 94.6452C149.869 94.2838 149.511 94.3034 149.197 94.4959C148.381 94.9594 147.884 96.346 147.884 97.4262C147.884 98.7421 148.425 98.7303 149.241 98.2668C149.502 98.1586 149.735 97.995 149.925 97.7876L150.064 97.6148C150.12 97.5391 150.184 97.4693 150.255 97.4066C150.343 97.3555 150.613 97.3555 150.613 97.7994C150.578 98.075 150.446 98.3296 150.239 98.5182L149.977 98.6675C149.662 98.8443 149.376 99.0603 149.054 99.2528C148.095 99.8027 147.267 99.7752 147.267 98.0744C147.251 96.1967 147.975 94.2366 149.308 93.4785Z" fill="#FAFAFA"/>
<path d="M151.695 96.2399C151.695 95.3286 151.624 94.5155 151.64 93.5806L151.668 90.9056C151.668 90.4578 151.743 90.12 151.974 89.9746C152.145 89.8764 152.256 90.0611 152.256 90.2496V93.9891C152.243 94.7185 152.276 95.4479 152.356 96.1731C152.384 96.4088 152.479 96.397 152.563 96.3499C152.625 96.3071 152.672 96.2468 152.698 96.1771C152.738 96.0415 152.825 95.9244 152.945 95.8471C153.104 95.7567 153.184 95.9335 153.184 96.1378C153.162 96.3498 153.095 96.5548 152.986 96.7386C152.876 96.9224 152.728 97.0806 152.551 97.2023C152.085 97.4812 151.803 97.3201 151.711 96.7545C151.694 96.5835 151.688 96.4116 151.695 96.2399Z" fill="#FAFAFA"/>
<path d="M155.805 89.739C156.502 89.3462 157.349 89.5308 157.349 90.7131C157.358 90.8267 157.34 90.9407 157.298 91.0467C157.256 91.1527 157.191 91.2481 157.106 91.3259C156.975 91.4594 156.804 91.5812 156.589 91.8051L154.345 94.162C154.52 95.3089 155.419 94.8808 155.897 94.6098C156.374 94.3387 156.927 93.5924 157.091 93.5099C157.329 93.3763 157.433 93.4745 157.433 93.8202C157.433 94.5037 155.929 95.4111 155.579 95.6114C154.644 96.1456 153.721 95.5564 153.721 94.1266C153.685 92.1783 154.449 90.5128 155.805 89.739ZM156.736 90.7878C156.641 90.3282 156.259 90.3203 155.702 90.6385C155.289 90.9665 154.952 91.3789 154.715 91.8474C154.478 92.3159 154.346 92.8294 154.329 93.3528C154.954 92.7321 156.243 91.4162 156.736 90.7878Z" fill="#FAFAFA"/>
<path d="M159.04 92.2531C159.335 92.587 159.482 92.5241 159.931 92.2531C160.436 91.9419 160.848 91.5041 161.125 90.9843C161.125 90.7643 160.727 90.7368 160.258 90.8861C159.434 91.1925 158.412 91.5382 158.412 90.2576C158.445 89.6023 158.635 88.9641 158.965 88.3948C159.296 87.8255 159.758 87.3413 160.313 86.9816C160.942 86.6242 161.348 86.9031 161.348 87.4412C161.348 87.7829 161.348 88.38 161.069 88.545C160.894 88.6432 160.89 88.3879 160.89 88.2268C160.89 87.7005 160.644 87.7319 160.214 87.9754C159.784 88.219 159.02 89.2285 159.02 89.857C159.02 90.3794 159.629 90.1712 160.214 89.9669C160.954 89.7234 161.722 89.5741 161.722 90.619C161.722 91.7149 160.357 92.8894 159.832 93.188C159.434 93.4197 158.638 93.7536 158.638 92.8855C158.662 92.7323 158.877 92.0685 159.04 92.2531Z" fill="#FAFAFA"/>
<path d="M193.961 64.3086L180.137 90.3151L180.49 90.4976L194.314 64.4911L193.961 64.3086Z" fill="#0059EF"/>
<g opacity="0.3">
<path opacity="0.3" d="M193.961 64.3084L180.137 90.3149L180.49 90.4975L194.314 64.491L193.961 64.3084Z" fill="white"/>
</g>
<path d="M180.633 72.699C180.59 72.7 180.547 72.6861 180.513 72.6598L180.195 72.4241C180.174 72.4086 180.157 72.3892 180.143 72.367C180.13 72.3448 180.121 72.3203 180.117 72.2947C180.114 72.2692 180.115 72.2432 180.122 72.2182C180.128 72.1932 180.14 72.1698 180.155 72.1491C180.171 72.1285 180.191 72.1111 180.213 72.098C180.236 72.0848 180.26 72.0762 180.286 72.0725C180.312 72.0689 180.338 72.0703 180.364 72.0767C180.389 72.0831 180.413 72.0944 180.434 72.1098L180.752 72.3455C180.785 72.3703 180.81 72.4047 180.823 72.4441C180.835 72.4834 180.835 72.5256 180.821 72.5648C180.808 72.6039 180.783 72.6379 180.749 72.662C180.715 72.6861 180.674 72.699 180.633 72.699Z" fill="#0059EF"/>
<path d="M185.869 76.5957C185.826 76.596 185.784 76.5822 185.749 76.5565L185.053 76.038C185.032 76.0225 185.014 76.0031 185.001 75.9809C184.988 75.9587 184.979 75.9341 184.975 75.9086C184.972 75.8831 184.973 75.8571 184.98 75.8321C184.986 75.8071 184.998 75.7836 185.013 75.763C185.045 75.7222 185.093 75.6953 185.144 75.688C185.196 75.6806 185.249 75.6935 185.292 75.7237L185.988 76.2422C186.03 76.2735 186.058 76.32 186.066 76.3716C186.073 76.4231 186.059 76.4755 186.028 76.5172C186.009 76.5414 185.985 76.561 185.957 76.5746C185.93 76.5882 185.899 76.5954 185.869 76.5957ZM184.122 75.2995C184.079 75.2998 184.037 75.286 184.003 75.2602L183.306 74.7417C183.285 74.7262 183.268 74.7068 183.255 74.6846C183.241 74.6625 183.232 74.6379 183.229 74.6124C183.225 74.5868 183.227 74.5608 183.233 74.5358C183.239 74.5109 183.251 74.4874 183.267 74.4667C183.282 74.4461 183.302 74.4287 183.324 74.4156C183.347 74.4024 183.372 74.3938 183.398 74.3902C183.423 74.3865 183.45 74.3879 183.475 74.3943C183.5 74.4007 183.524 74.412 183.545 74.4275L184.241 74.946C184.284 74.9772 184.311 75.0237 184.319 75.0753C184.326 75.1269 184.313 75.1793 184.281 75.2209C184.262 75.2451 184.238 75.2647 184.211 75.2783C184.183 75.292 184.153 75.2992 184.122 75.2995ZM182.375 74.0032C182.332 74.0035 182.29 73.9897 182.256 73.9639L181.56 73.4454C181.539 73.43 181.521 73.4106 181.508 73.3884C181.495 73.3662 181.486 73.3416 181.482 73.3161C181.478 73.2906 181.48 73.2646 181.486 73.2396C181.493 73.2146 181.504 73.1911 181.52 73.1705C181.536 73.1498 181.555 73.1325 181.578 73.1193C181.6 73.1062 181.625 73.0975 181.651 73.0939C181.677 73.0902 181.703 73.0917 181.728 73.0981C181.754 73.1045 181.778 73.1157 181.798 73.1312L182.499 73.6497C182.54 73.6815 182.567 73.7283 182.574 73.7799C182.581 73.8314 182.567 73.8835 182.534 73.9247C182.516 73.9495 182.492 73.9697 182.465 73.9834C182.437 73.9971 182.406 74.0039 182.375 74.0032Z" fill="#0059EF"/>
<path d="M187.233 77.6092C187.19 77.6095 187.148 77.5957 187.114 77.5699L186.796 77.3342C186.754 77.303 186.726 77.2565 186.718 77.2049C186.711 77.1533 186.724 77.1009 186.756 77.0593C186.788 77.0176 186.835 76.9901 186.887 76.9827C186.939 76.9753 186.992 76.9887 187.034 77.02L187.353 77.2557C187.395 77.2869 187.423 77.3335 187.43 77.385C187.438 77.4366 187.424 77.489 187.393 77.5306C187.375 77.556 187.351 77.5766 187.323 77.5903C187.295 77.604 187.265 77.6106 187.233 77.6092Z" fill="#0059EF"/>
<path d="M183.354 91.6126C182.441 91.6199 181.541 91.3881 180.748 90.9409C178.54 89.684 177.275 86.7811 177.275 82.9788C177.275 75.8297 181.699 67.4943 187.134 64.3951C189.545 63.0203 191.885 62.8239 193.723 63.8884C195.927 65.1453 197.196 68.0482 197.196 71.8505C197.196 78.9996 192.772 87.335 187.333 90.4342C186.134 91.1646 184.762 91.571 183.354 91.6126ZM191.113 63.6095C189.775 63.6527 188.471 64.0414 187.333 64.7368C182.005 67.7732 177.673 75.9554 177.673 82.9788C177.673 86.6358 178.866 89.4168 180.947 90.6031C182.654 91.5734 184.854 91.3887 187.134 90.0925C192.462 87.0561 196.798 78.8739 196.798 71.8505C196.798 68.1935 195.605 65.4125 193.524 64.2262C192.79 63.8136 191.958 63.6008 191.113 63.6095Z" fill="#FAFAFA"/>
<path d="M188.021 76.9689C188.016 77.2595 187.941 77.5448 187.802 77.8015C187.664 78.0581 187.466 78.2789 187.225 78.4458C186.792 78.6933 186.43 78.4458 186.43 77.8606C186.436 77.5694 186.511 77.2837 186.649 77.0265C186.787 76.7692 186.985 76.5477 187.225 76.3797C187.667 76.1361 188.021 76.3954 188.021 76.9689Z" fill="#FAFAFA"/>
<path d="M180.306 90.6111C180.263 90.6114 180.221 90.5976 180.187 90.5718C178.309 89.1498 177.275 86.4552 177.275 82.9789C177.275 79.5025 178.293 75.6923 180.147 72.1924C180.171 72.1461 180.213 72.1111 180.263 72.0949C180.312 72.0787 180.367 72.0827 180.414 72.106C180.461 72.1303 180.497 72.1719 180.513 72.2219C180.529 72.2718 180.525 72.3261 180.501 72.3731C178.723 75.6381 177.754 79.2726 177.673 82.9789C177.673 86.3295 178.651 88.9142 180.43 90.2576C180.471 90.2894 180.499 90.3362 180.505 90.3877C180.512 90.4393 180.498 90.4913 180.466 90.5325C180.447 90.5567 180.423 90.5763 180.395 90.5899C180.368 90.6036 180.337 90.6108 180.306 90.6111Z" fill="#0059EF"/>
<path d="M169.974 77.8527C169.868 78.1125 169.705 78.3459 169.496 78.5362C169.319 78.6747 169.11 78.769 168.888 78.8111C168.542 78.8936 167.853 78.9604 167.674 79.7303C167.65 79.8246 167.706 79.9974 167.782 79.9071C167.931 79.7053 168.131 79.5456 168.362 79.4436C168.345 79.625 168.337 79.8073 168.339 79.9896C168.339 80.1781 168.339 80.3824 168.339 80.5591C168.339 80.7359 168.339 80.9794 168.339 81.1876C168.333 81.3002 168.333 81.4129 168.339 81.5254C168.339 81.6708 168.43 81.7533 168.526 81.7336C168.559 81.7256 168.591 81.7101 168.618 81.6883C168.645 81.6665 168.666 81.6391 168.681 81.6079C168.712 81.5442 168.728 81.4744 168.729 81.4037C168.729 81.3605 168.729 81.3212 168.729 81.274C168.729 81.2269 168.729 81.1562 168.729 81.1012C168.729 80.8891 168.729 80.677 168.729 80.4649C168.729 80.2527 168.729 80.0721 168.729 79.9031C168.729 79.801 168.729 79.6989 168.729 79.5968C168.729 79.4946 168.729 79.5103 168.729 79.4671C168.731 79.4292 168.731 79.3911 168.729 79.3532C168.899 79.3229 169.067 79.2783 169.23 79.2197C169.202 79.5339 169.19 79.8403 169.19 80.1388C169.19 80.4374 169.19 80.7948 169.19 81.1169C169.187 81.1454 169.192 81.174 169.205 81.1998C169.217 81.2256 169.237 81.2476 169.261 81.2633C169.285 81.2791 169.313 81.288 169.342 81.2892C169.371 81.2904 169.399 81.2838 169.425 81.2701C169.484 81.2309 169.532 81.1767 169.563 81.1131C169.593 81.0495 169.606 80.9789 169.6 80.9087C169.6 80.5474 169.6 80.1781 169.6 79.8089C169.6 79.6321 169.6 79.4553 169.6 79.2786C169.6 79.1922 169.6 79.1097 169.6 79.0272C169.944 78.784 170.192 78.4297 170.3 78.0255C170.332 77.782 170.085 77.6367 169.974 77.8527Z" fill="#FAFAFA"/>
<path d="M172.409 79.1607L172.369 79.1332C172.333 79.1568 172.313 79.1332 172.317 79.1057C172.282 79.0919 172.244 79.0839 172.206 79.0821C172.069 79.0655 171.936 79.0311 171.808 78.98C171.618 78.8989 171.441 78.7903 171.283 78.6579C171.472 78.4292 171.642 78.1862 171.792 77.9312C172.046 77.5848 172.202 77.1782 172.246 76.7528C172.214 76.36 171.903 76.36 171.661 76.5171C171.332 76.7527 171.073 77.0698 170.909 77.4363C170.889 77.4812 170.872 77.5271 170.857 77.5738C170.857 77.5266 170.857 77.4756 170.837 77.4323C170.817 77.3891 170.678 77.2634 170.63 77.4323C170.562 77.7179 170.531 78.011 170.539 78.3044C170.539 78.5518 170.539 78.7993 170.539 79.0429C170.539 79.2864 170.539 79.5221 170.575 79.7578C170.575 79.8756 170.575 79.9974 170.602 80.1113C170.626 80.2959 170.69 80.3627 170.813 80.3705C170.857 80.3653 170.897 80.3476 170.931 80.3197C170.964 80.2918 170.988 80.2548 171 80.2134C171.02 80.1695 171.03 80.122 171.03 80.074C171.03 80.026 171.02 79.9785 171 79.9345V79.911C171.002 79.8926 171.002 79.8743 171 79.856C171 79.8088 171 79.7617 171 79.7146C171 79.6674 170.98 79.5064 170.972 79.4003L170.949 79.0782C171.111 79.2337 171.294 79.3659 171.494 79.471C171.632 79.5377 171.778 79.5891 171.927 79.6242C172.043 79.6556 172.25 79.7303 172.389 79.5653C172.437 79.5096 172.466 79.4396 172.469 79.3664C172.473 79.2931 172.452 79.2207 172.409 79.1607ZM171.311 77.4441C171.462 77.2359 171.709 76.9374 171.892 76.9256C171.892 76.9256 171.864 77.0199 171.868 77.012C171.872 77.0042 171.84 77.0788 171.824 77.1102C171.736 77.2949 171.633 77.4756 171.533 77.6445C171.363 77.9221 171.168 78.185 170.953 78.4301C170.972 78.074 171.096 77.7312 171.311 77.4441Z" fill="#FAFAFA"/>
<path d="M173.901 75.3505C173.893 75.3161 173.875 75.2847 173.849 75.2601C173.837 75.2479 173.823 75.2385 173.807 75.2323C173.791 75.2262 173.774 75.2236 173.758 75.2248C173.73 75.1501 173.499 75.4172 173.435 75.4722C173.385 75.5211 173.33 75.5658 173.272 75.6058C173.304 75.5272 173.336 75.4447 173.364 75.3662C173.488 75.1114 173.563 74.8354 173.582 74.5531C173.582 74.286 173.407 74.1367 173.244 74.1603C173.081 74.1838 172.93 74.3292 172.783 74.4863C172.754 74.5216 172.734 74.5631 172.724 74.6074C172.715 74.6518 172.716 74.6977 172.727 74.7416C172.727 74.8084 172.815 74.887 172.878 74.8202C172.942 74.7534 173.125 74.5609 173.24 74.5531H173.28V74.5845C173.279 74.5989 173.279 74.6133 173.28 74.6277C173.275 74.6517 173.269 74.6754 173.26 74.6984C173.227 74.792 173.188 74.8837 173.145 74.9734L173.014 75.2876C172.926 75.4958 172.842 75.7079 172.751 75.9161C172.659 76.1243 172.751 76.3089 172.878 76.3089C173.049 76.2798 173.211 76.2126 173.352 76.1125C173.557 75.9841 173.732 75.814 173.865 75.6136C173.911 75.5338 173.924 75.4395 173.901 75.3505Z" fill="#FAFAFA"/>
<path d="M171.908 83.1673C171.799 83.4279 171.635 83.6624 171.426 83.8548C171.249 83.9915 171.042 84.0857 170.821 84.1297C170.475 84.2122 169.783 84.279 169.604 85.0489C169.604 85.1392 169.64 85.3121 169.711 85.2217C169.862 85.0208 170.064 84.8623 170.296 84.7621C170.272 84.9507 170.276 85.1314 170.268 85.3081C170.26 85.4849 170.268 85.701 170.268 85.8738C170.268 86.0466 170.268 86.298 170.268 86.5062C170.262 86.6187 170.262 86.7315 170.268 86.844C170.268 86.9894 170.356 87.0718 170.455 87.0483C170.489 87.0402 170.521 87.0247 170.547 87.003C170.574 86.9812 170.596 86.9537 170.611 86.9226C170.64 86.8597 170.656 86.7915 170.658 86.7222C170.658 86.679 170.658 86.6358 170.658 86.5926C170.658 86.5494 170.658 86.4748 170.658 86.4159C170.658 86.2037 170.658 85.9956 170.658 85.7834C170.658 85.5713 170.658 85.3906 170.658 85.2178C170.658 85.1196 170.658 85.0175 170.658 84.9153V84.7857C170.66 84.7465 170.66 84.7071 170.658 84.6679C170.828 84.639 170.994 84.5956 171.156 84.5382C171.128 84.8486 171.12 85.1549 171.116 85.4574C171.112 85.7599 171.116 86.1134 171.116 86.4355C171.112 86.4638 171.116 86.4926 171.128 86.5186C171.14 86.5446 171.159 86.5669 171.183 86.5828C171.207 86.5987 171.235 86.6077 171.264 86.6088C171.293 86.6098 171.321 86.6029 171.347 86.5887C171.406 86.5495 171.453 86.4953 171.484 86.4317C171.515 86.3681 171.528 86.2975 171.522 86.2273C171.522 85.8659 171.522 85.4967 171.522 85.1275C171.522 84.9468 171.522 84.77 171.522 84.5932C171.522 84.5107 171.522 84.4283 171.522 84.3458C171.869 84.1025 172.118 83.7465 172.226 83.3402C172.262 83.1006 172.015 82.9513 171.908 83.1673Z" fill="#FAFAFA"/>
<path d="M174.342 84.4832L174.299 84.4557C174.263 84.4754 174.247 84.4557 174.247 84.4282C174.213 84.4144 174.176 84.4065 174.14 84.4047C174.01 84.385 173.883 84.3508 173.762 84.3025C173.571 84.2223 173.394 84.1137 173.236 83.9804C173.424 83.7494 173.594 83.5052 173.746 83.2498C173.997 82.9022 174.151 82.4961 174.195 82.0714C174.163 81.6786 173.853 81.6786 173.614 81.8357C173.287 82.0736 173.027 82.39 172.858 82.7549C172.838 82.802 172.827 82.8492 172.811 82.8963C172.811 82.8492 172.811 82.7981 172.787 82.7509C172.763 82.7038 172.628 82.582 172.58 82.7509C172.511 83.0377 172.481 83.3324 172.492 83.6269C172.492 83.8744 172.492 84.1179 172.492 84.3615C172.492 84.605 172.492 84.8446 172.524 85.0803C172.524 85.1981 172.524 85.3199 172.552 85.4338C172.576 85.6145 172.64 85.6813 172.763 85.6931C172.807 85.6881 172.848 85.6706 172.882 85.6426C172.916 85.6147 172.941 85.5776 172.954 85.5359C172.974 85.4921 172.984 85.4446 172.984 85.3965C172.984 85.3484 172.974 85.3009 172.954 85.2571V85.2335C172.954 85.2335 172.954 85.206 172.954 85.1785V85.0332C172.954 84.931 172.93 84.8289 172.922 84.7228C172.914 84.6168 172.922 84.5068 172.902 84.3968C173.062 84.5533 173.244 84.6856 173.443 84.7896C173.582 84.8557 173.727 84.9071 173.877 84.9428C173.996 84.9703 174.199 85.0489 174.338 84.8839C174.384 84.8271 174.409 84.7568 174.41 84.6842C174.411 84.6117 174.387 84.5409 174.342 84.4832ZM173.24 82.7667C173.392 82.5585 173.638 82.2599 173.821 82.2482C173.821 82.2482 173.797 82.3385 173.797 82.3346C173.797 82.3306 173.769 82.4014 173.758 82.4328C173.666 82.6174 173.567 82.7981 173.463 82.967C173.293 83.2449 173.098 83.5078 172.882 83.7526C172.902 83.3954 173.026 83.0515 173.24 82.7627V82.7667Z" fill="#FAFAFA"/>
<path d="M169.556 87.123C169.524 86.9894 169.421 86.9698 169.317 87.0248L168.406 87.5393C168.537 87.233 168.665 86.9226 168.772 86.6045C168.971 86.0603 169.094 85.4922 169.138 84.9154C169.157 84.8037 169.148 84.6892 169.112 84.5817C169.076 84.4742 169.014 84.3771 168.931 84.2987C168.796 84.2123 168.609 84.2987 168.446 84.4519C168.252 84.6263 168.099 84.8404 167.997 85.0791C167.895 85.3179 167.848 85.5757 167.857 85.8346C167.857 85.8699 167.897 85.9524 167.937 85.9013C168.04 85.7396 168.126 85.567 168.191 85.3868C168.268 85.217 168.37 85.0595 168.494 84.9193C168.557 84.8486 168.717 84.6954 168.764 84.7544C168.812 84.8133 168.764 85.2532 168.709 85.426C168.522 86.2879 168.227 87.1232 167.829 87.9125C167.682 88.215 167.889 88.3525 168.032 88.27L169.429 87.4844C169.479 87.4398 169.518 87.3833 169.54 87.32C169.562 87.2568 169.568 87.1889 169.556 87.123Z" fill="#FAFAFA"/>
<path d="M171.633 92.1077L171.589 92.0842C171.553 92.1038 171.537 92.0842 171.541 92.0567C171.506 92.0432 171.468 92.0353 171.43 92.0331C171.301 92.0116 171.174 91.9774 171.052 91.931C170.861 91.8508 170.684 91.7421 170.527 91.6089C170.713 91.3771 170.884 91.133 171.036 90.8782C171.29 90.5324 171.446 90.1253 171.486 89.6998C171.454 89.307 171.144 89.307 170.905 89.4641C170.578 89.702 170.318 90.0184 170.149 90.3833C170.149 90.4304 170.117 90.4776 170.101 90.5247C170.101 90.4776 170.101 90.4226 170.077 90.3794C170.053 90.3362 169.918 90.2105 169.87 90.3794C169.801 90.6661 169.772 90.9608 169.783 91.2553C169.783 91.5028 169.783 91.7463 169.783 91.9899C169.783 92.2334 169.783 92.473 169.819 92.7087C169.819 92.8266 169.819 92.9483 169.846 93.0623C169.87 93.2429 169.93 93.3097 170.053 93.3176C170.113 93.3176 170.201 93.2665 170.244 93.1644C170.265 93.1207 170.276 93.0731 170.276 93.0249C170.276 92.9768 170.265 92.9292 170.244 92.8855V92.8619C170.244 92.8619 170.244 92.8344 170.244 92.8069C170.244 92.7794 170.244 92.7127 170.244 92.6616C170.244 92.6105 170.224 92.4573 170.213 92.3513C170.201 92.2452 170.213 92.1352 170.193 92.0252C170.353 92.1827 170.537 92.3151 170.738 92.418C170.875 92.4847 171.019 92.5361 171.167 92.5712C171.287 92.5987 171.49 92.6773 171.633 92.5123C171.677 92.4539 171.701 92.383 171.701 92.31C171.701 92.2371 171.677 92.1661 171.633 92.1077ZM170.531 90.3951C170.682 90.1869 170.929 89.8884 171.116 89.8766C171.116 89.8766 171.088 89.9669 171.088 89.963C171.088 89.9591 171.06 90.0258 171.048 90.0612C170.957 90.2458 170.857 90.4265 170.754 90.5954C170.584 90.8736 170.389 91.1365 170.173 91.381C170.195 91.0255 170.319 90.6837 170.531 90.3951Z" fill="#FAFAFA"/>
<path d="M169.556 93.4353C169.524 93.2978 169.421 93.2782 169.317 93.3371L168.406 93.8517C168.537 93.5453 168.665 93.235 168.772 92.9129C168.971 92.3689 169.094 91.8006 169.138 91.2238C169.157 91.1128 169.148 90.9988 169.112 90.8919C169.076 90.7851 169.014 90.6886 168.931 90.611C168.796 90.5246 168.609 90.611 168.446 90.7603C168.253 90.9352 168.1 91.1493 167.998 91.388C167.897 91.6267 167.848 91.8842 167.857 92.143C167.857 92.1823 167.897 92.2608 167.937 92.2137C168.041 92.0509 168.127 91.877 168.191 91.6952C168.269 91.526 168.371 91.3686 168.494 91.2277C168.557 91.161 168.717 91.0038 168.764 91.0667C168.812 91.1295 168.764 91.5655 168.709 91.7384C168.521 92.5999 168.225 93.4351 167.829 94.2249C167.682 94.5234 167.889 94.6609 168.032 94.5784L169.429 93.7928C169.481 93.7504 169.521 93.6946 169.543 93.6316C169.565 93.5686 169.57 93.5007 169.556 93.4353Z" fill="#FAFAFA"/>
<path d="M176.289 117.436C176.277 117.218 176.213 117.006 176.102 116.817C175.992 116.627 175.837 116.467 175.652 116.348C175.588 116.302 175.512 116.274 175.433 116.266C175.354 116.259 175.275 116.272 175.203 116.304L168.009 120.401L168.912 121.937L176.098 117.84C176.163 117.796 176.216 117.735 176.249 117.664C176.283 117.592 176.297 117.514 176.289 117.436Z" fill="#FAFAFA"/>
<path d="M168.462 120.445C168.647 120.564 168.801 120.725 168.912 120.914C169.022 121.103 169.086 121.315 169.099 121.533C169.099 121.925 168.812 122.094 168.462 121.894C168.277 121.775 168.123 121.614 168.012 121.425C167.901 121.236 167.837 121.024 167.825 120.806C167.825 120.405 168.112 120.229 168.462 120.445Z" fill="#E6E6E6"/>
<path d="M194.487 96.9547C192.792 95.9884 190.58 96.0788 188.161 97.4575C182.813 100.506 178.48 108.7 178.48 115.735L179.559 116.352L187.902 111.587L197.849 105.923L198.923 105.31C198.923 101.452 197.626 98.7381 195.573 97.5675L194.487 96.9547ZM189.235 101.61C190.731 100.757 192.116 100.592 193.25 100.997C193.846 101.514 194.304 102.168 194.582 102.902L183.303 109.328C184.54 106.021 186.732 103.039 189.235 101.61Z" fill="#0059EF"/>
<g opacity="0.2">
<path opacity="0.2" d="M194.487 96.9547C192.792 95.9884 190.58 96.0788 188.161 97.4575C182.813 100.506 178.48 108.7 178.48 115.735L179.559 116.352L187.902 111.587L197.849 105.923L198.923 105.31C198.923 101.452 197.626 98.7381 195.573 97.5675L194.487 96.9547ZM189.235 101.61C190.731 100.757 192.116 100.592 193.25 100.997C193.846 101.514 194.304 102.168 194.582 102.902L183.303 109.328C184.54 106.021 186.732 103.039 189.235 101.61Z" fill="black"/>
</g>
<g opacity="0.2">
<path opacity="0.2" d="M194.582 102.902L195.657 103.515L182.801 110.84L181.707 110.22L194.582 102.902Z" fill="black"/>
</g>
<path d="M197.849 105.926L198.923 105.314C198.923 98.2667 194.59 95.0261 189.243 98.0703C183.896 101.115 179.547 109.312 179.547 116.352L187.902 111.587L197.849 105.923V105.926ZM189.243 101.606C192.124 99.9676 194.594 100.851 195.665 103.511L182.821 110.829C183.888 106.952 186.358 103.251 189.235 101.61L189.243 101.606Z" fill="#0059EF"/>
<path opacity="0.2" d="M184.453 103.22C188.642 97.5832 192.084 96.9862 194.002 97.0137C192.589 96.7583 190.958 97.0804 189.227 98.0703C183.892 101.118 179.547 109.312 179.547 116.352L180.279 115.931C180.291 115.747 180.319 108.786 184.453 103.22Z" fill="white"/>
<path d="M180.629 115.739L180.633 113.657L180.904 113.504L180.9 115.586L180.629 115.739Z" fill="#37474F"/>
<path d="M181.707 115.126V113.708L181.974 113.555V114.973L181.707 115.126Z" fill="#37474F"/>
<path d="M183.856 113.897V112.482L184.126 112.329V113.747L183.856 113.897Z" fill="#37474F"/>
<path d="M186.008 112.671V111.257L186.279 111.104V112.518L186.008 112.671Z" fill="#37474F"/>
<path d="M188.161 111.445V110.031L188.427 109.878V111.292L188.161 111.445Z" fill="#37474F"/>
<path d="M190.309 110.22V108.806L190.58 108.653V110.067L190.309 110.22Z" fill="#37474F"/>
<path d="M192.462 108.994V107.576L192.728 107.423V108.841L192.462 108.994Z" fill="#37474F"/>
<path d="M194.614 107.769V106.351L194.881 106.198V107.616L194.614 107.769Z" fill="#37474F"/>
<path d="M196.763 106.543V105.125L197.033 104.972V106.39L196.763 106.543Z" fill="#37474F"/>
<path d="M182.781 114.513V112.431L183.052 112.278V114.36L182.781 114.513Z" fill="#37474F"/>
<path d="M184.934 113.284V111.206L185.205 111.052L185.201 113.13L184.934 113.284Z" fill="#37474F"/>
<path d="M187.083 112.058L187.086 109.98L187.353 109.827V111.905L187.083 112.058Z" fill="#37474F"/>
<path d="M189.235 110.833V108.755L189.506 108.602L189.502 110.68L189.235 110.833Z" fill="#37474F"/>
<path d="M191.384 109.607L191.388 107.529L191.658 107.376L191.654 109.454L191.384 109.607Z" fill="#37474F"/>
<path d="M193.536 108.382L193.54 106.304L193.807 106.15V108.228L193.536 108.382Z" fill="#37474F"/>
<path d="M195.688 107.156V105.078L195.959 104.925L195.955 107.003L195.688 107.156Z" fill="#37474F"/>
<path d="M197.837 105.93L197.841 103.852L198.108 103.699V105.777L197.837 105.93Z" fill="#37474F"/>
<path d="M161.696 114.268L154.395 118.419C154.033 124.18 153.685 128.932 153.352 132.676C153.018 136.42 152.691 139.661 152.371 142.4C152.055 145.135 151.728 147.649 151.39 149.943C151.182 151.493 150.778 153.012 150.188 154.464C149.657 155.7 148.863 156.811 147.861 157.722C147.018 158.485 146.181 158.739 145.348 158.485C144.953 158.377 144.598 158.156 144.331 157.85C144.064 157.543 143.896 157.165 143.848 156.764C143.724 156.162 143.691 155.545 143.751 154.933C143.814 154.38 143.931 153.835 144.1 153.304C144.26 152.785 144.45 152.275 144.67 151.778C144.879 151.302 145.1 150.818 145.333 150.324C145.395 150.176 145.759 149.405 146.422 148.001C146.999 146.816 147.501 145.596 147.923 144.35C148.259 143.325 148.473 142.265 148.559 141.191L150.455 120.662L147.388 122.406C146.428 122.978 145.591 123.728 144.922 124.615C144.198 125.506 143.592 126.484 143.119 127.526L141.758 130.959L140.653 131.589C140.947 130.342 141.316 128.84 141.758 127.083C142.224 125.233 142.829 123.42 143.569 121.658C144.209 120.071 145.036 118.564 146.035 117.168C146.97 115.801 148.201 114.656 149.641 113.814L173.794 100.08V107.401L165.651 112.036C165.134 118.944 164.876 125.744 164.876 132.435C164.86 133.552 165.019 134.664 165.349 135.732C165.664 136.713 166.052 137.377 166.512 137.723C166.835 137.915 167.199 138.029 167.575 138.056C167.951 138.083 168.328 138.023 168.676 137.88C169.529 137.605 170.399 136.759 171.285 135.343C171.742 134.631 172.099 133.86 172.344 133.054C172.548 132.378 172.691 131.686 172.77 130.986C172.832 130.372 172.898 129.754 172.96 129.139L174.317 128.376C174.278 132.543 173.397 136.66 171.727 140.489C171.174 141.756 170.485 142.96 169.672 144.083C168.942 145.092 168.044 145.973 167.016 146.689C166.005 147.388 165.079 147.604 164.236 147.337C162.842 146.8 161.788 145.311 161.072 142.87C160.671 141.44 160.445 139.378 160.393 136.682C160.341 133.986 160.41 131.286 160.599 128.582L161.696 114.268Z" fill="#0059EF"/>
<g opacity="0.2">
<path opacity="0.2" d="M161.696 114.268L154.395 118.419C154.033 124.18 153.685 128.932 153.352 132.676C153.018 136.42 152.691 139.661 152.371 142.4C152.055 145.135 151.728 147.649 151.39 149.943C151.182 151.493 150.778 153.012 150.188 154.464C149.657 155.7 148.863 156.811 147.861 157.722C147.018 158.485 146.181 158.739 145.348 158.485C144.953 158.377 144.598 158.156 144.331 157.85C144.064 157.543 143.896 157.165 143.848 156.764C143.724 156.162 143.691 155.545 143.751 154.933C143.814 154.38 143.931 153.835 144.1 153.304C144.26 152.785 144.45 152.275 144.67 151.778C144.879 151.302 145.1 150.818 145.333 150.324C145.395 150.176 145.759 149.405 146.422 148.001C146.999 146.816 147.501 145.596 147.923 144.35C148.259 143.325 148.473 142.265 148.559 141.191L150.455 120.662L147.388 122.406C146.428 122.978 145.591 123.728 144.922 124.615C144.198 125.506 143.592 126.484 143.119 127.526L141.758 130.959L140.653 131.589C140.947 130.342 141.316 128.84 141.758 127.083C142.224 125.233 142.829 123.42 143.569 121.658C144.209 120.071 145.036 118.564 146.035 117.168C146.97 115.801 148.201 114.656 149.641 113.814L173.794 100.08V107.401L165.651 112.036C165.134 118.944 164.876 125.744 164.876 132.435C164.86 133.552 165.019 134.664 165.349 135.732C165.664 136.713 166.052 137.377 166.512 137.723C166.835 137.915 167.199 138.029 167.575 138.056C167.951 138.083 168.328 138.023 168.676 137.88C169.529 137.605 170.399 136.759 171.285 135.343C171.742 134.631 172.099 133.86 172.344 133.054C172.548 132.378 172.691 131.686 172.77 130.986C172.832 130.372 172.898 129.754 172.96 129.139L174.317 128.376C174.278 132.543 173.397 136.66 171.727 140.489C171.174 141.756 170.485 142.96 169.672 144.083C168.942 145.092 168.044 145.973 167.016 146.689C166.005 147.388 165.079 147.604 164.236 147.337C162.842 146.8 161.788 145.311 161.072 142.87C160.671 141.44 160.445 139.378 160.393 136.682C160.341 133.986 160.41 131.286 160.599 128.582L161.696 114.268Z" fill="white"/>
</g>
<path d="M169.525 97.6595L145.368 111.394C143.93 112.235 142.699 113.381 141.766 114.747C140.769 116.141 139.943 117.646 139.303 119.23C138.556 120.988 137.942 122.799 137.469 124.647C137.027 126.407 136.659 127.909 136.364 129.153L140.63 131.587C140.924 130.341 141.293 128.839 141.735 127.081C142.209 125.232 142.822 123.42 143.569 121.66C143.948 120.721 144.396 119.811 144.91 118.936C145.255 118.341 145.624 117.75 146.035 117.17C146.97 115.803 148.201 114.658 149.641 113.816L173.794 100.082L169.525 97.6595Z" fill="#0059EF"/>
<g opacity="0.5">
<path opacity="0.5" d="M169.525 97.6595L145.368 111.394C143.93 112.235 142.699 113.381 141.766 114.747C140.769 116.141 139.943 117.646 139.303 119.23C138.556 120.988 137.942 122.799 137.469 124.647C137.027 126.407 136.659 127.909 136.364 129.153L140.63 131.587C140.924 130.341 141.293 128.839 141.735 127.081C142.209 125.232 142.822 123.42 143.569 121.66C143.948 120.721 144.396 119.811 144.91 118.936C145.255 118.341 145.624 117.75 146.035 117.17C146.97 115.803 148.201 114.658 149.641 113.816L173.794 100.082L169.525 97.6595Z" fill="white"/>
</g>
<g opacity="0.5">
<path opacity="0.5" d="M143.569 121.658C143.948 120.719 144.396 119.809 144.91 118.934C145.255 118.339 145.624 117.748 146.035 117.168C146.97 115.801 148.202 114.656 149.641 113.814L173.794 100.08L169.529 97.646L172.301 100.08L149.606 112.83C146.942 114.322 143.057 117.32 140.641 131.581C140.936 130.335 141.304 128.833 141.746 127.075C142.217 125.228 142.826 123.417 143.569 121.658Z" fill="white"/>
</g>
<path d="M170.029 125.904L174.31 128.338L172.953 129.113L168.668 126.679L170.029 125.904Z" fill="#0059EF"/>
<g opacity="0.5">
<path opacity="0.5" d="M170.029 125.904L174.31 128.338L172.953 129.113L168.668 126.679L170.029 125.904Z" fill="white"/>
</g>
<path d="M172.953 129.113L169.975 127.419L168.668 126.679L168.482 128.529C168.401 129.228 168.257 129.919 168.051 130.593C167.806 131.4 167.45 132.17 166.993 132.882C166.521 133.704 165.895 134.43 165.147 135.022C165.201 135.255 165.263 135.484 165.333 135.705C165.649 136.687 166.036 137.351 166.496 137.696C166.774 137.876 167.092 137.985 167.423 138.013C167.842 138.048 168.264 137.993 168.66 137.853C169.513 137.578 170.383 136.733 171.27 135.316C171.727 134.604 172.083 133.834 172.328 133.027C172.533 132.351 172.676 131.659 172.755 130.959C172.817 130.345 172.883 129.727 172.945 129.113" fill="#0059EF"/>
<g opacity="0.15">
<path opacity="0.15" d="M172.953 129.113L169.975 127.419L168.668 126.679L168.482 128.529C168.401 129.228 168.257 129.919 168.051 130.593C167.806 131.4 167.45 132.17 166.993 132.882C166.521 133.704 165.895 134.43 165.147 135.022C165.201 135.255 165.263 135.484 165.333 135.705C165.649 136.687 166.036 137.351 166.496 137.696C166.774 137.876 167.092 137.985 167.423 138.013C167.842 138.048 168.264 137.993 168.66 137.853C169.513 137.578 170.383 136.733 171.27 135.316C171.727 134.604 172.083 133.834 172.328 133.027C172.533 132.351 172.676 131.659 172.755 130.959C172.817 130.345 172.883 129.727 172.945 129.113" fill="black"/>
</g>
<path d="M161.793 144.731C161.497 144.117 161.254 143.479 161.068 142.824C160.894 142.167 160.764 141.499 160.68 140.825C160.506 139.432 160.41 138.031 160.393 136.628C160.341 133.935 160.41 131.235 160.599 128.529C160.955 123.951 161.417 118.015 161.708 114.253L157.031 116.923L156.322 126.095C156.133 128.801 156.065 131.501 156.116 134.194C156.168 136.888 156.394 138.95 156.795 140.382C157.442 142.587 158.369 144.007 159.567 144.659L163.732 147.024C162.874 146.46 162.201 145.664 161.793 144.731Z" fill="#0059EF"/>
<path opacity="0.3" d="M161.793 144.731C161.497 144.117 161.254 143.479 161.068 142.824C160.894 142.167 160.764 141.499 160.68 140.825C160.506 139.432 160.41 138.031 160.393 136.628C160.341 133.935 160.41 131.235 160.599 128.529C160.955 123.951 161.417 118.015 161.708 114.253L157.031 116.923L156.322 126.095C156.133 128.801 156.065 131.501 156.116 134.194C156.168 136.888 156.394 138.95 156.795 140.382C157.442 142.587 158.369 144.007 159.567 144.659L163.732 147.024C162.874 146.46 162.201 145.664 161.793 144.731Z" fill="black"/>
<path opacity="0.1" d="M157.035 116.939L156.752 120.372L161.041 122.078L161.099 121.997C161.32 119.151 161.537 116.366 161.7 114.26L157.035 116.939Z" fill="black"/>
<path d="M149.773 121.036L147.365 122.406C146.898 122.677 146.463 123 146.07 123.367C145.926 123.497 145.79 123.63 145.651 123.775L144.267 138.749C144.182 139.823 143.97 140.883 143.635 141.908C143.211 143.156 142.71 144.377 142.134 145.563C141.467 146.963 141.106 147.738 141.041 147.883C140.808 148.375 140.591 148.859 140.377 149.336C140.161 149.835 139.971 150.344 139.807 150.862C139.642 151.394 139.526 151.939 139.462 152.491C139.401 153.104 139.433 153.723 139.555 154.326C139.596 154.632 139.706 154.926 139.877 155.184C140.049 155.443 140.276 155.661 140.544 155.822L144.809 158.248C144.546 158.087 144.322 157.869 144.154 157.612C143.986 157.355 143.879 157.064 143.84 156.76C143.733 156.22 143.695 155.669 143.728 155.12C143.728 155.059 143.728 154.99 143.728 154.929C143.795 154.377 143.911 153.832 144.077 153.3C144.239 152.782 144.429 152.272 144.647 151.774C144.821 151.374 145.003 150.969 145.201 150.561C145.232 150.477 145.275 150.401 145.31 150.317C145.376 150.172 145.736 149.397 146.403 147.997C146.733 147.288 147.024 146.635 147.279 146.017L147.326 145.903C147.404 145.712 147.469 145.521 147.539 145.35L147.675 144.995C147.756 144.77 147.834 144.552 147.9 144.346C148.236 143.321 148.449 142.261 148.536 141.187L150.432 120.658L149.773 121.036Z" fill="#0059EF"/>
<path opacity="0.3" d="M149.773 121.036L147.365 122.406C146.898 122.677 146.463 123 146.07 123.367C145.926 123.497 145.79 123.63 145.651 123.775L144.267 138.749C144.182 139.823 143.97 140.883 143.635 141.908C143.211 143.156 142.71 144.377 142.134 145.563C141.467 146.963 141.106 147.738 141.041 147.883C140.808 148.375 140.591 148.859 140.377 149.336C140.161 149.835 139.971 150.344 139.807 150.862C139.642 151.394 139.526 151.939 139.462 152.491C139.401 153.104 139.433 153.723 139.555 154.326C139.596 154.632 139.706 154.926 139.877 155.184C140.049 155.443 140.276 155.661 140.544 155.822L144.809 158.248C144.546 158.087 144.322 157.869 144.154 157.612C143.986 157.355 143.879 157.064 143.84 156.76C143.733 156.22 143.695 155.669 143.728 155.12C143.728 155.059 143.728 154.99 143.728 154.929C143.795 154.377 143.911 153.832 144.077 153.3C144.239 152.782 144.429 152.272 144.647 151.774C144.821 151.374 145.003 150.969 145.201 150.561C145.232 150.477 145.275 150.401 145.31 150.317C145.376 150.172 145.736 149.397 146.403 147.997C146.733 147.288 147.024 146.635 147.279 146.017L147.326 145.903C147.404 145.712 147.469 145.521 147.539 145.35L147.675 144.995C147.756 144.77 147.834 144.552 147.9 144.346C148.236 143.321 148.449 142.261 148.536 141.187L150.432 120.658L149.773 121.036Z" fill="black"/>
<g opacity="0.1">
<path opacity="0.1" d="M149.866 126.858L150.44 120.662L149.777 121.044L147.369 122.413C146.902 122.685 146.467 123.007 146.074 123.375C145.93 123.504 145.794 123.638 145.655 123.783L145.507 125.332L149.866 126.858Z" fill="black"/>
</g>
<g filter="url(#filter2_d)">
<path d="M212.471 4.44349C193.779 -1.3268 173.777 -1.48047 154.997 4.00193C136.216 9.48433 119.5 20.3566 106.961 35.2437C94.4226 50.1309 86.6252 68.3644 84.555 87.6384C82.4848 106.912 86.2347 126.361 95.3306 143.526C104.427 160.69 118.46 174.799 135.656 184.068C152.852 193.337 172.439 197.35 191.939 195.599C211.439 193.849 229.977 186.414 245.208 174.234C260.44 162.054 271.68 145.677 277.509 127.173C281.381 114.887 282.769 101.966 281.596 89.1491C280.423 76.3319 276.71 63.869 270.671 52.4722C264.631 41.0754 256.383 30.9679 246.397 22.7271C236.411 14.4863 224.883 8.27345 212.471 4.44349ZM261.507 122.202C256.671 137.575 247.339 151.184 234.689 161.306C222.04 171.428 206.642 177.61 190.444 179.068C174.245 180.527 157.973 177.197 143.687 169.5C129.4 161.803 117.74 150.085 110.182 135.828C102.624 121.57 99.5065 105.414 101.225 89.4029C102.943 73.3916 109.42 58.2444 119.836 45.8772C130.251 33.5101 144.138 24.4786 159.74 19.925C175.341 15.3714 191.956 15.5004 207.484 20.2956C228.302 26.7249 245.688 41.0758 255.818 60.1925C265.949 79.3091 267.995 101.626 261.507 122.236V122.202Z" fill="#0059EF"/>
<path d="M238.853 103.513C238.853 103.447 238.853 103.38 238.911 103.314C239.152 102.354 238.707 104.266 238.838 103.616C238.999 102.878 239.152 102.073 239.276 101.29C239.705 98.5627 239.907 95.8037 239.883 93.0421C239.883 92.6507 239.883 92.3036 239.883 91.8753C239.883 91.7498 239.926 92.7984 239.883 91.964C239.883 91.7203 239.883 91.484 239.839 91.2255C239.788 90.3099 239.7 89.3942 239.59 88.4786C239.357 86.4649 238.991 84.4692 238.495 82.5047C238.371 82.0395 238.239 81.5742 238.108 81.1017C237.94 80.474 238.342 81.8401 238.071 80.9761C237.976 80.6955 237.889 80.4223 237.801 80.1417C237.443 79.0931 237.071 78.0593 236.611 77.0403C236.15 76.0213 235.625 74.825 235.062 73.806C234.807 73.3186 234.536 72.8386 234.259 72.3291C233.784 71.5095 234.485 72.6614 234.113 72.0854C233.93 71.8122 233.755 71.5316 233.58 71.251C231.931 68.7976 230.05 66.5124 227.963 64.4279C227.919 64.3836 227.539 64.0144 227.853 64.3172C228.167 64.6199 227.678 64.1621 227.627 64.103L226.656 63.2317C226.02 62.6778 225.377 62.1388 224.72 61.6145C223.325 60.5142 221.872 59.4952 220.374 58.5353C218.658 57.435 218.417 54.7988 219.564 53.2186C220.166 52.4221 221.05 51.8921 222.03 51.7393C223.01 51.5866 224.011 51.8229 224.822 52.3989C234.317 58.4762 241.774 67.4924 245.112 78.4064C247.353 85.7474 247.969 93.4971 246.916 101.106C246.694 102.811 246.357 104.498 245.908 106.157C245.375 108.076 242.811 109.11 241.058 108.372C240.141 107.993 239.402 107.272 238.994 106.358C238.587 105.445 238.541 104.408 238.867 103.461L238.853 103.513Z" fill="white"/>
<path d="M233.397 116.034C233.118 116.78 233.062 117.592 233.238 118.37C233.415 119.147 233.814 119.854 234.387 120.401C234.96 120.948 235.68 121.31 236.456 121.442C237.232 121.574 238.029 121.47 238.747 121.142C239.464 120.815 240.07 120.279 240.487 119.603C240.904 118.926 241.113 118.14 241.089 117.343C241.065 116.545 240.807 115.774 240.35 115.125C239.893 114.476 239.255 113.979 238.519 113.697C238.032 113.509 237.512 113.421 236.991 113.437C236.469 113.452 235.956 113.572 235.48 113.789C235.005 114.006 234.576 114.316 234.218 114.702C233.861 115.087 233.582 115.54 233.397 116.034Z" fill="white"/>
</g>
<defs>
<filter id="filter0_d" x="129.249" y="174.121" width="41.3759" height="70.5157" filterUnits="userSpaceOnUse" color-interpolation-filters="sRGB">
<feFlood flood-opacity="0" result="BackgroundImageFix"/>
<feColorMatrix in="SourceAlpha" type="matrix" values="0 0 0 0 0 0 0 0 0 0 0 0 0 0 0 0 0 0 127 0"/>
<feOffset dy="4"/>
<feGaussianBlur stdDeviation="2"/>
<feColorMatrix type="matrix" values="0 0 0 0 0 0 0 0 0 0 0 0 0 0 0 0 0 0 0.25 0"/>
<feBlend mode="normal" in2="BackgroundImageFix" result="effect1_dropShadow"/>
<feBlend mode="normal" in="SourceGraphic" in2="effect1_dropShadow" result="shape"/>
</filter>
<filter id="filter1_dd" x="109.954" y="211.681" width="52.8496" height="85.7585" filterUnits="userSpaceOnUse" color-interpolation-filters="sRGB">
<feFlood flood-opacity="0" result="BackgroundImageFix"/>
<feColorMatrix in="SourceAlpha" type="matrix" values="0 0 0 0 0 0 0 0 0 0 0 0 0 0 0 0 0 0 127 0"/>
<feOffset dy="4"/>
<feGaussianBlur stdDeviation="2"/>
<feColorMatrix type="matrix" values="0 0 0 0 0 0 0 0 0 0 0 0 0 0 0 0 0 0 0.25 0"/>
<feBlend mode="normal" in2="BackgroundImageFix" result="effect1_dropShadow"/>
<feColorMatrix in="SourceAlpha" type="matrix" values="0 0 0 0 0 0 0 0 0 0 0 0 0 0 0 0 0 0 127 0"/>
<feOffset dy="4"/>
<feGaussianBlur stdDeviation="2"/>
<feColorMatrix type="matrix" values="0 0 0 0 0 0 0 0 0 0 0 0 0 0 0 0 0 0 0.25 0"/>
<feBlend mode="normal" in2="effect1_dropShadow" result="effect2_dropShadow"/>
<feBlend mode="normal" in="SourceGraphic" in2="effect2_dropShadow" result="shape"/>
</filter>
<filter id="filter2_d" x="80" y="0" width="206" height="204" filterUnits="userSpaceOnUse" color-interpolation-filters="sRGB">
<feFlood flood-opacity="0" result="BackgroundImageFix"/>
<feColorMatrix in="SourceAlpha" type="matrix" values="0 0 0 0 0 0 0 0 0 0 0 0 0 0 0 0 0 0 127 0"/>
<feOffset dy="4"/>
<feGaussianBlur stdDeviation="2"/>
<feColorMatrix type="matrix" values="0 0 0 0 0 0 0 0 0 0 0 0 0 0 0 0 0 0 0.25 0"/>
<feBlend mode="normal" in2="BackgroundImageFix" result="effect1_dropShadow"/>
<feBlend mode="normal" in="SourceGraphic" in2="effect1_dropShadow" result="shape"/>
</filter>
</defs>
</svg>
