<svg width="114" height="114" viewBox="0 0 114 114" fill="none" xmlns="http://www.w3.org/2000/svg">
<path fill-rule="evenodd" clip-rule="evenodd" d="M0 56.9263C0 25.6118 25.3855 0.226318 56.7 0.226318C88.0145 0.226318 113.4 25.6118 113.4 56.9263C113.4 88.2409 88.0145 113.626 56.7 113.626C25.3855 113.626 0 88.2409 0 56.9263ZM81.9 56.9263C81.9 43.0087 70.6176 31.7263 56.7 31.7263C42.7824 31.7263 31.5 43.0087 31.5 56.9263C31.5 70.8439 42.7824 82.1263 56.7 82.1263C70.6176 82.1263 81.9 70.8439 81.9 56.9263Z" fill="#0059EF" fill-opacity="0.08"/>
<path fill-rule="evenodd" clip-rule="evenodd" d="M9 56.9263C9 30.5823 30.356 9.22632 56.7 9.22632C83.044 9.22632 104.4 30.5823 104.4 56.9263C104.4 83.2703 83.044 104.626 56.7 104.626C30.356 104.626 9 83.2703 9 56.9263ZM81.9 56.9263C81.9 43.0087 70.6176 31.7263 56.7 31.7263C42.7824 31.7263 31.5 43.0087 31.5 56.9263C31.5 70.8439 42.7824 82.1263 56.7 82.1263C70.6176 82.1263 81.9 70.8439 81.9 56.9263Z" fill="#0059EF" fill-opacity="0.14"/>
<path fill-rule="evenodd" clip-rule="evenodd" d="M18 56.9263C18 35.5529 35.3266 18.2263 56.7 18.2263C78.0734 18.2263 95.4 35.5529 95.4 56.9263C95.4 78.2997 78.0734 95.6263 56.7 95.6263C35.3266 95.6263 18 78.2997 18 56.9263ZM81.9 56.9263C81.9 43.0087 70.6176 31.7263 56.7 31.7263C42.7824 31.7263 31.5 43.0087 31.5 56.9263C31.5 70.8439 42.7824 82.1263 56.7 82.1263C70.6176 82.1263 81.9 70.8439 81.9 56.9263Z" fill="#0059EF" fill-opacity="0.16"/>
<path fill-rule="evenodd" clip-rule="evenodd" d="M27 56.9263C27 40.5235 40.2971 27.2263 56.7 27.2263C73.1029 27.2263 86.4 40.5235 86.4 56.9263C86.4 73.3292 73.1029 86.6263 56.7 86.6263C40.2971 86.6263 27 73.3292 27 56.9263ZM81.9 56.9263C81.9 43.0087 70.6176 31.7263 56.7 31.7263C42.7824 31.7263 31.5 43.0087 31.5 56.9263C31.5 70.8439 42.7824 82.1263 56.7 82.1263C70.6176 82.1263 81.9 70.8439 81.9 56.9263Z" fill="#0059EF" fill-opacity="0.2"/>
<circle cx="56.7" cy="56.9263" r="25.2" fill="#0059EF"/>
</svg>
