<svg width="306" height="306" viewBox="0 0 306 306" fill="none" xmlns="http://www.w3.org/2000/svg">
<g clip-path="url(#clip0)">
<path d="M170.824 295.53C250.808 295.53 315.647 258.699 315.647 213.265C315.647 167.831 250.808 131 170.824 131C90.8398 131 26 167.831 26 213.265C26 258.699 90.8398 295.53 170.824 295.53Z" fill="#F5F5F5"/>
<path d="M125.68 281.226C139.464 281.226 150.638 274.812 150.638 266.899C150.638 258.987 139.464 252.572 125.68 252.572C111.897 252.572 100.723 258.987 100.723 266.899C100.723 274.812 111.897 281.226 125.68 281.226Z" fill="#E0E0E0"/>
<path d="M164.769 268.117H180.277L291.777 203.802L181.911 136.641L131.513 168.19L207.095 212.474L138.153 252.585L164.769 268.117Z" fill="#E0E0E0"/>
<path d="M197.792 139.512V115.901L164.781 96.647V73.0361L131.776 53.7764V171.825L164.781 191.085L197.792 210.338L230.797 229.598V158.771L197.792 139.512Z" fill="#0059EF"/>
<path opacity="0.3" d="M197.792 139.512V163.122L230.798 182.382V158.771L197.792 139.512Z" fill="white"/>
<path d="M230.797 158.771V182.382L197.792 201.642V225.247L164.781 244.506V268.117L197.792 248.858L230.797 229.598L263.809 210.338V139.512L230.797 158.771Z" fill="#0059EF"/>
<path opacity="0.1" d="M230.797 158.771V182.382L197.792 201.642V225.247L164.781 244.506V268.117L197.792 248.858L230.797 229.598L263.809 210.338V139.512L230.797 158.771Z" fill="white"/>
<path d="M164.781 73.0361L131.776 53.7764L164.781 34.5168L197.792 53.7764L164.781 73.0361Z" fill="#0059EF"/>
<path opacity="0.7" d="M164.781 73.0361L131.776 53.7764L164.781 34.5168L197.792 53.7764L164.781 73.0361Z" fill="white"/>
<path d="M164.781 96.6471V73.0361L197.792 53.7764V77.3874L164.781 96.6471Z" fill="#0059EF"/>
<path opacity="0.1" d="M164.781 96.6471V73.0361L197.792 53.7764V77.3874L164.781 96.6471Z" fill="black"/>
<path d="M197.792 115.901L164.781 96.647L197.792 77.3874L230.797 96.647L197.792 115.901Z" fill="#0059EF"/>
<path d="M197.792 139.512V115.901L230.798 96.647V120.252L197.792 139.512Z" fill="#0059EF"/>
<path opacity="0.7" d="M197.792 115.901L164.781 96.647L197.792 77.3874L230.797 96.647L197.792 115.901Z" fill="white"/>
<path opacity="0.1" d="M197.792 139.512V115.901L230.798 96.647V120.252L197.792 139.512Z" fill="black"/>
<path d="M230.798 158.771L197.792 139.512L230.798 120.252L263.809 139.512L230.798 158.771Z" fill="#0059EF"/>
<g opacity="0.7">
<path opacity="0.7" d="M230.798 158.771L197.792 139.512L230.798 120.252L263.809 139.512L230.798 158.771Z" fill="white"/>
</g>
<path d="M197.792 201.642L230.797 182.382L197.792 163.122L164.781 182.382L197.792 201.642Z" fill="#0059EF"/>
<path opacity="0.7" d="M197.792 201.642L230.797 182.382L197.792 163.122L164.781 182.382L197.792 201.642Z" fill="white"/>
<path d="M197.792 225.247V201.642L164.781 182.382V205.993L197.792 225.247Z" fill="#0059EF"/>
<path opacity="0.3" d="M197.792 225.247V201.642L164.781 182.382V205.993L197.792 225.247Z" fill="white"/>
<path d="M164.781 244.506L197.792 225.247L164.781 205.993L131.776 225.247L164.781 244.506Z" fill="#0059EF"/>
<path d="M164.781 268.117V244.506L131.776 225.247V248.858L164.781 268.117Z" fill="#0059EF"/>
<path opacity="0.7" d="M164.781 244.506L197.792 225.247L164.781 205.993L131.776 225.247L164.781 244.506Z" fill="white"/>
<path opacity="0.3" d="M164.781 268.117V244.506L131.776 225.247V248.858L164.781 268.117Z" fill="white"/>
<path d="M191.409 221.526L158.404 240.785L138.159 228.974L171.17 209.714L191.409 221.526Z" fill="#0059EF"/>
<path opacity="0.4" d="M191.409 221.526L158.404 240.785L138.159 228.974L171.17 209.714L191.409 221.526Z" fill="white"/>
<path d="M158.404 240.785V264.39L138.153 252.585V228.974H138.159L158.404 240.785Z" fill="#0059EF"/>
<path d="M224.42 178.655L191.409 197.915L171.17 186.109L204.175 166.85L224.42 178.655Z" fill="#0059EF"/>
<path opacity="0.4" d="M224.42 178.655L191.409 197.915L171.17 186.109L204.175 166.85L224.42 178.655Z" fill="white"/>
<path d="M191.409 197.915V221.526L171.164 209.714V186.109H171.17L191.409 197.915Z" fill="#0059EF"/>
<path d="M224.42 155.05V178.655L204.169 166.85V143.239H204.175L224.42 155.05Z" fill="#0059EF"/>
<path d="M224.42 155.05V178.655L204.169 166.85V143.239H204.175L224.42 155.05Z" fill="#0059EF"/>
<path d="M171.164 92.9199L204.169 112.18L224.414 100.374L191.403 81.1084L171.164 92.9199Z" fill="#0059EF"/>
<g style="mix-blend-mode:overlay" opacity="0.5">
<path d="M171.164 92.9199L204.169 112.18L224.414 100.374L191.403 81.1084L171.164 92.9199Z" fill="white"/>
</g>
<path d="M204.169 112.18V135.791L224.42 123.979V100.374H224.414L204.169 112.18Z" fill="#0059EF"/>
<path opacity="0.3" d="M204.169 112.18V135.791L224.42 123.979V100.374H224.414L204.169 112.18Z" fill="black"/>
<path d="M138.153 50.0494L171.164 69.3151L191.403 57.5035L158.398 38.2439L138.153 50.0494Z" fill="#0059EF"/>
<g style="mix-blend-mode:overlay" opacity="0.5">
<path d="M138.153 50.0494L171.164 69.3151L191.403 57.5035L158.398 38.2439L138.153 50.0494Z" fill="white"/>
</g>
<path d="M171.164 69.3151V92.92L191.409 81.1084V57.5035H191.403L171.164 69.3151Z" fill="#0059EF"/>
<path opacity="0.3" d="M171.164 69.3151V92.92L191.409 81.1084V57.5035H191.403L171.164 69.3151Z" fill="black"/>
<path d="M230.797 127.706L224.414 123.973L204.169 135.784L210.559 139.512L204.175 143.239L224.42 155.044L230.797 151.323L251.042 139.512L230.797 127.706Z" fill="#0059EF"/>
<path opacity="0.4" d="M230.797 127.706L224.414 123.973L204.169 135.784L210.559 139.512L204.175 143.239L224.42 155.044L230.797 151.323L251.042 139.512L230.797 127.706Z" fill="white"/>
<path d="M151.635 46.4018C151.584 46.4013 151.534 46.3888 151.488 46.3651L150.264 45.643C150.231 45.6234 150.202 45.5974 150.178 45.5664C150.155 45.5355 150.138 45.5002 150.128 45.4627C150.119 45.4251 150.116 45.386 150.122 45.3476C150.128 45.3093 150.141 45.2723 150.16 45.239C150.199 45.1721 150.262 45.1229 150.337 45.1023C150.411 45.0817 150.491 45.0912 150.558 45.1289L151.782 45.851C151.85 45.8907 151.899 45.9551 151.919 46.0306C151.94 46.106 151.93 46.1866 151.892 46.255C151.867 46.3004 151.829 46.3381 151.784 46.364C151.739 46.3899 151.687 46.4029 151.635 46.4018Z" fill="#0059EF"/>
<path d="M175.877 60.5513C175.825 60.5515 175.774 60.5366 175.73 60.5084L173.282 59.0947C173.248 59.0754 173.218 59.0497 173.195 59.0189C173.171 58.9882 173.153 58.9531 173.143 58.9156C173.133 58.8781 173.13 58.8389 173.135 58.8003C173.14 58.7618 173.152 58.7245 173.172 58.6908C173.191 58.657 173.217 58.6274 173.247 58.6036C173.278 58.5798 173.313 58.5623 173.351 58.5521C173.388 58.5418 173.427 58.5391 173.466 58.544C173.505 58.5489 173.542 58.5613 173.576 58.5806L176.024 59.9944C176.057 60.0139 176.086 60.0399 176.11 60.0709C176.133 60.1018 176.15 60.1371 176.16 60.1746C176.169 60.2122 176.171 60.2513 176.166 60.2897C176.16 60.3281 176.147 60.365 176.128 60.3983C176.104 60.4444 176.068 60.4831 176.024 60.5101C175.979 60.5371 175.929 60.5514 175.877 60.5513ZM171.03 57.7177C170.978 57.7172 170.928 57.7046 170.883 57.681L168.435 56.2673C168.401 56.248 168.371 56.2222 168.348 56.1915C168.324 56.1608 168.306 56.1256 168.296 56.0881C168.286 56.0506 168.283 56.0115 168.288 55.9729C168.293 55.9343 168.305 55.8971 168.325 55.8634C168.344 55.8296 168.37 55.8 168.4 55.7762C168.431 55.7524 168.466 55.7348 168.504 55.7246C168.541 55.7144 168.58 55.7116 168.619 55.7165C168.658 55.7215 168.695 55.7339 168.728 55.7532L171.176 57.1669C171.21 57.1865 171.239 57.2125 171.263 57.2434C171.286 57.2744 171.303 57.3097 171.313 57.3472C171.322 57.3848 171.324 57.4238 171.319 57.4622C171.313 57.5006 171.3 57.5375 171.281 57.5708C171.257 57.6163 171.22 57.6541 171.176 57.6801C171.132 57.706 171.081 57.7191 171.03 57.7177ZM166.183 54.8903C166.131 54.8905 166.081 54.8779 166.036 54.8536L163.588 53.4398C163.52 53.399 163.47 53.3335 163.45 53.257C163.429 53.1806 163.439 53.0991 163.478 53.0298C163.497 52.9963 163.523 52.9671 163.554 52.9437C163.585 52.9203 163.62 52.9033 163.658 52.8936C163.695 52.884 163.734 52.8818 163.773 52.8873C163.811 52.8929 163.848 52.9059 163.881 52.9258L166.329 54.3395C166.387 54.3712 166.432 54.4212 166.458 54.4815C166.483 54.5418 166.488 54.6089 166.471 54.6722C166.454 54.7356 166.417 54.7914 166.364 54.8309C166.312 54.8704 166.248 54.8913 166.183 54.8903ZM161.336 52.0628C161.283 52.0646 161.232 52.0496 161.189 52.02L158.741 50.6063C158.673 50.5666 158.624 50.5022 158.603 50.4267C158.583 50.3513 158.593 50.2708 158.63 50.2024C158.649 50.1691 158.675 50.14 158.705 50.1167C158.736 50.0934 158.77 50.0764 158.808 50.0667C158.845 50.057 158.883 50.0548 158.921 50.0602C158.959 50.0657 158.995 50.0786 159.028 50.0983L161.476 51.512C161.543 51.5527 161.591 51.6176 161.61 51.6929C161.629 51.7683 161.619 51.8483 161.58 51.916C161.555 51.9589 161.519 51.9948 161.477 52.0204C161.434 52.046 161.385 52.0606 161.336 52.0628ZM156.482 49.2354C156.43 49.2356 156.379 49.2207 156.335 49.1926L153.887 47.7788C153.821 47.7382 153.773 47.6733 153.754 47.5979C153.734 47.5226 153.745 47.4426 153.783 47.3749C153.822 47.3079 153.885 47.2588 153.96 47.2382C154.034 47.2176 154.114 47.2271 154.181 47.2648L156.629 48.6785C156.697 48.7181 156.746 48.7826 156.766 48.858C156.787 48.9335 156.777 49.014 156.739 49.0824C156.714 49.1286 156.677 49.1671 156.632 49.1941C156.587 49.221 156.535 49.2352 156.482 49.2354Z" fill="#0059EF"/>
<path d="M179.536 62.6872C179.484 62.6874 179.433 62.6725 179.389 62.6443L178.165 61.9222C178.132 61.9026 178.103 61.8766 178.079 61.8456C178.056 61.8147 178.039 61.7794 178.029 61.7419C178.02 61.7043 178.017 61.6652 178.023 61.6268C178.029 61.5885 178.042 61.5515 178.061 61.5182C178.08 61.4843 178.105 61.4546 178.135 61.4308C178.166 61.407 178.2 61.3897 178.238 61.3799C178.275 61.3702 178.314 61.3682 178.352 61.3741C178.39 61.38 178.427 61.3936 178.459 61.4142L179.683 62.1302C179.751 62.1699 179.8 62.2343 179.82 62.3098C179.841 62.3852 179.831 62.4658 179.793 62.5342C179.768 62.5803 179.731 62.6189 179.686 62.6458C179.641 62.6727 179.589 62.687 179.536 62.6872Z" fill="#0059EF"/>
<g opacity="0.3">
<path opacity="0.3" d="M151.635 46.4018C151.584 46.4013 151.534 46.3888 151.488 46.3651L150.264 45.643C150.231 45.6234 150.202 45.5974 150.178 45.5664C150.155 45.5355 150.138 45.5002 150.128 45.4627C150.119 45.4251 150.116 45.386 150.122 45.3476C150.128 45.3093 150.141 45.2723 150.16 45.239C150.199 45.1721 150.262 45.1229 150.337 45.1023C150.411 45.0817 150.491 45.0912 150.558 45.1289L151.782 45.851C151.85 45.8907 151.899 45.9551 151.919 46.0306C151.94 46.106 151.93 46.1866 151.892 46.255C151.867 46.3004 151.829 46.3381 151.784 46.364C151.739 46.3899 151.687 46.4029 151.635 46.4018Z" fill="black"/>
<path opacity="0.3" d="M175.877 60.5513C175.825 60.5515 175.774 60.5366 175.73 60.5085L173.282 59.0947C173.248 59.0754 173.218 59.0497 173.195 59.019C173.171 58.9882 173.153 58.9531 173.143 58.9156C173.133 58.8781 173.13 58.8389 173.135 58.8004C173.14 58.7618 173.152 58.7246 173.172 58.6908C173.191 58.6571 173.217 58.6274 173.247 58.6036C173.278 58.5798 173.313 58.5623 173.351 58.5521C173.388 58.5418 173.427 58.5391 173.466 58.544C173.505 58.5489 173.542 58.5614 173.576 58.5806L176.024 59.9944C176.057 60.0139 176.086 60.04 176.11 60.0709C176.133 60.1018 176.15 60.1371 176.16 60.1747C176.169 60.2122 176.171 60.2513 176.166 60.2897C176.16 60.3281 176.147 60.365 176.128 60.3983C176.104 60.4444 176.068 60.4831 176.024 60.5101C175.979 60.5371 175.929 60.5514 175.877 60.5513ZM171.03 57.7177C170.978 57.7172 170.928 57.7047 170.883 57.681L168.435 56.2673C168.401 56.248 168.371 56.2223 168.348 56.1915C168.324 56.1608 168.306 56.1257 168.296 56.0881C168.286 56.0506 168.283 56.0115 168.288 55.9729C168.293 55.9344 168.305 55.8971 168.325 55.8634C168.344 55.8296 168.37 55.8 168.4 55.7762C168.431 55.7524 168.466 55.7349 168.504 55.7246C168.541 55.7144 168.58 55.7117 168.619 55.7166C168.658 55.7215 168.695 55.7339 168.728 55.7532L171.176 57.1669C171.21 57.1865 171.239 57.2125 171.263 57.2435C171.286 57.2744 171.303 57.3097 171.313 57.3472C171.322 57.3848 171.324 57.4239 171.319 57.4622C171.313 57.5006 171.3 57.5375 171.281 57.5708C171.257 57.6163 171.22 57.6541 171.176 57.6801C171.132 57.7061 171.081 57.7191 171.03 57.7177ZM166.183 54.8903C166.131 54.8905 166.081 54.8779 166.036 54.8536L163.588 53.4398C163.52 53.399 163.47 53.3335 163.45 53.257C163.429 53.1806 163.439 53.0991 163.478 53.0298C163.497 52.9963 163.523 52.9671 163.554 52.9437C163.585 52.9203 163.62 52.9033 163.658 52.8937C163.695 52.884 163.734 52.8818 163.773 52.8874C163.811 52.8929 163.848 52.9059 163.881 52.9258L166.329 54.3395C166.387 54.3712 166.432 54.4212 166.458 54.4815C166.483 54.5418 166.488 54.6089 166.471 54.6723C166.454 54.7356 166.417 54.7914 166.364 54.831C166.312 54.8705 166.248 54.8913 166.183 54.8903ZM161.336 52.0628C161.283 52.0646 161.232 52.0496 161.189 52.02L158.741 50.6063C158.673 50.5666 158.624 50.5022 158.603 50.4267C158.583 50.3513 158.593 50.2708 158.63 50.2024C158.649 50.1691 158.675 50.14 158.705 50.1167C158.736 50.0934 158.77 50.0764 158.808 50.0667C158.845 50.057 158.883 50.0548 158.921 50.0602C158.959 50.0657 158.995 50.0786 159.028 50.0983L161.476 51.512C161.543 51.5527 161.591 51.6176 161.61 51.693C161.629 51.7683 161.619 51.8483 161.58 51.916C161.555 51.9589 161.519 51.9948 161.477 52.0204C161.434 52.0461 161.385 52.0606 161.336 52.0628ZM156.482 49.2354C156.43 49.2356 156.379 49.2207 156.335 49.1926L153.887 47.7789C153.821 47.7382 153.773 47.6733 153.754 47.5979C153.734 47.5226 153.745 47.4426 153.783 47.3749C153.822 47.3079 153.885 47.2588 153.96 47.2382C154.034 47.2176 154.114 47.2271 154.181 47.2648L156.629 48.6785C156.697 48.7182 156.746 48.7826 156.766 48.858C156.787 48.9335 156.777 49.014 156.739 49.0824C156.714 49.1286 156.677 49.1672 156.632 49.1941C156.587 49.221 156.535 49.2353 156.482 49.2354Z" fill="black"/>
<path opacity="0.3" d="M179.536 62.6872C179.484 62.6874 179.433 62.6725 179.39 62.6443L178.166 61.9222C178.132 61.9026 178.103 61.8766 178.079 61.8456C178.056 61.8147 178.039 61.7794 178.029 61.7419C178.02 61.7043 178.018 61.6652 178.023 61.6268C178.029 61.5885 178.042 61.5515 178.062 61.5182C178.08 61.4843 178.105 61.4546 178.135 61.4308C178.166 61.407 178.201 61.3897 178.238 61.3799C178.275 61.3702 178.314 61.3682 178.352 61.3741C178.39 61.38 178.427 61.3936 178.459 61.4142L179.683 62.1302C179.751 62.1699 179.8 62.2343 179.821 62.3098C179.841 62.3852 179.831 62.4658 179.793 62.5342C179.768 62.5803 179.731 62.6189 179.686 62.6458C179.641 62.6727 179.589 62.687 179.536 62.6872Z" fill="black"/>
</g>
<path d="M184.469 89.1684C184.417 89.1686 184.366 89.1537 184.322 89.1255L183.098 88.4034C183.065 88.3838 183.035 88.3578 183.012 88.3268C182.989 88.2959 182.972 88.2606 182.962 88.2231C182.952 88.1855 182.95 88.1464 182.956 88.1081C182.961 88.0697 182.974 88.0328 182.994 87.9995C183.013 87.9662 183.039 87.9371 183.069 87.9138C183.099 87.8905 183.134 87.8735 183.171 87.8638C183.208 87.8541 183.247 87.8519 183.285 87.8573C183.323 87.8628 183.359 87.8757 183.392 87.8954L184.616 88.6176C184.673 88.6493 184.718 88.6993 184.744 88.7596C184.77 88.8199 184.775 88.887 184.758 88.9503C184.741 89.0137 184.703 89.0695 184.651 89.109C184.599 89.1485 184.535 89.1694 184.469 89.1684Z" fill="#0059EF"/>
<path d="M208.735 103.33C208.685 103.331 208.635 103.316 208.594 103.287L206.146 101.874C206.112 101.854 206.083 101.828 206.059 101.798C206.035 101.767 206.018 101.732 206.007 101.694C205.997 101.657 205.994 101.618 205.999 101.579C206.004 101.541 206.017 101.503 206.036 101.47C206.055 101.436 206.081 101.406 206.112 101.382C206.143 101.359 206.178 101.341 206.215 101.331C206.253 101.321 206.292 101.318 206.33 101.323C206.369 101.328 206.406 101.34 206.44 101.359L208.888 102.779C208.955 102.819 209.005 102.883 209.025 102.959C209.046 103.034 209.036 103.115 208.998 103.183C208.971 103.229 208.933 103.266 208.886 103.292C208.84 103.318 208.788 103.331 208.735 103.33ZM203.882 100.497C203.831 100.496 203.78 100.483 203.735 100.46L201.287 99.0399C201.219 99.001 201.169 98.9365 201.148 98.8608C201.127 98.785 201.138 98.7042 201.177 98.636C201.216 98.5678 201.28 98.5179 201.356 98.4973C201.432 98.4766 201.512 98.4869 201.581 98.5259L204.029 99.9457C204.086 99.9774 204.131 100.027 204.157 100.088C204.182 100.148 204.187 100.215 204.17 100.278C204.153 100.342 204.116 100.398 204.064 100.437C204.011 100.477 203.947 100.498 203.882 100.497ZM199.029 97.6629C198.977 97.6625 198.927 97.6499 198.882 97.6262L196.434 96.2064C196.366 96.1667 196.317 96.1023 196.296 96.0268C196.276 95.9514 196.286 95.8709 196.324 95.8025C196.343 95.769 196.369 95.7397 196.4 95.7164C196.431 95.693 196.466 95.676 196.504 95.6663C196.541 95.6566 196.581 95.6545 196.619 95.66C196.657 95.6655 196.694 95.6786 196.728 95.6984L199.176 97.1121C199.243 97.1518 199.292 97.2162 199.313 97.2917C199.333 97.3672 199.324 97.4477 199.286 97.5161C199.26 97.5615 199.223 97.5992 199.177 97.6251C199.132 97.651 199.081 97.6641 199.029 97.6629ZM194.175 94.86C194.124 94.8595 194.074 94.8469 194.029 94.8233L191.581 93.4095C191.513 93.3699 191.464 93.3054 191.443 93.23C191.423 93.1545 191.432 93.074 191.47 93.0056C191.489 92.9716 191.515 92.9418 191.546 92.9178C191.577 92.8938 191.612 92.8762 191.649 92.866C191.687 92.8557 191.726 92.853 191.765 92.8581C191.803 92.8632 191.841 92.8759 191.874 92.8955L194.322 94.3092C194.39 94.3488 194.439 94.4133 194.46 94.4887C194.48 94.5642 194.47 94.6447 194.433 94.7131C194.407 94.7586 194.37 94.7963 194.324 94.8221C194.279 94.848 194.228 94.8611 194.175 94.86ZM189.322 92.0325C189.27 92.0328 189.219 92.0179 189.175 91.9897L186.727 90.576C186.694 90.5567 186.664 90.5309 186.64 90.5002C186.616 90.4695 186.599 90.4343 186.589 90.3968C186.578 90.3593 186.576 90.3202 186.581 90.2816C186.586 90.243 186.598 90.2058 186.617 90.1721C186.637 90.1383 186.662 90.1087 186.693 90.0849C186.724 90.0611 186.759 90.0435 186.796 90.0333C186.834 90.0231 186.873 90.0203 186.912 90.0253C186.95 90.0302 186.987 90.0426 187.021 90.0619L189.469 91.4756C189.537 91.5164 189.586 91.582 189.607 91.6584C189.627 91.7349 189.618 91.8163 189.579 91.8857C189.549 91.9246 189.51 91.9556 189.465 91.9759C189.421 91.9962 189.371 92.0051 189.322 92.0019V92.0325Z" fill="#0059EF"/>
<path d="M212.401 105.466C212.35 105.465 212.299 105.453 212.254 105.429L211.03 104.707C210.996 104.687 210.967 104.661 210.944 104.631C210.92 104.6 210.903 104.564 210.894 104.527C210.884 104.489 210.882 104.45 210.888 104.412C210.893 104.373 210.906 104.336 210.926 104.303C210.944 104.269 210.969 104.24 211 104.216C211.03 104.192 211.064 104.174 211.102 104.164C211.139 104.154 211.177 104.151 211.216 104.156C211.254 104.161 211.291 104.174 211.324 104.193L212.548 104.915C212.581 104.935 212.61 104.961 212.634 104.992C212.657 105.023 212.674 105.058 212.684 105.095C212.694 105.133 212.696 105.172 212.69 105.21C212.685 105.249 212.672 105.286 212.652 105.319C212.626 105.363 212.589 105.399 212.545 105.425C212.501 105.451 212.452 105.465 212.401 105.466Z" fill="#0059EF"/>
<g opacity="0.3">
<path opacity="0.3" d="M184.469 89.1684C184.417 89.1686 184.366 89.1537 184.322 89.1255L183.098 88.4034C183.065 88.3838 183.035 88.3578 183.012 88.3268C182.989 88.2959 182.972 88.2606 182.962 88.2231C182.952 88.1855 182.95 88.1464 182.956 88.1081C182.961 88.0697 182.974 88.0328 182.994 87.9995C183.013 87.9662 183.039 87.9371 183.069 87.9138C183.099 87.8905 183.134 87.8735 183.171 87.8638C183.208 87.8541 183.247 87.8519 183.285 87.8573C183.323 87.8628 183.359 87.8757 183.392 87.8954L184.616 88.6176C184.673 88.6493 184.718 88.6993 184.744 88.7596C184.77 88.8199 184.775 88.887 184.758 88.9503C184.741 89.0137 184.703 89.0695 184.651 89.109C184.599 89.1485 184.535 89.1694 184.469 89.1684Z" fill="black"/>
<path opacity="0.3" d="M208.735 103.33C208.685 103.331 208.635 103.316 208.594 103.287L206.146 101.874C206.112 101.854 206.083 101.828 206.059 101.798C206.035 101.767 206.018 101.732 206.007 101.694C205.997 101.657 205.994 101.618 205.999 101.579C206.004 101.541 206.017 101.503 206.036 101.47C206.055 101.436 206.081 101.406 206.112 101.382C206.142 101.359 206.178 101.341 206.215 101.331C206.253 101.321 206.292 101.318 206.33 101.323C206.369 101.328 206.406 101.34 206.44 101.359L208.888 102.779C208.955 102.819 209.004 102.883 209.025 102.959C209.046 103.034 209.036 103.115 208.998 103.183C208.971 103.229 208.932 103.266 208.886 103.292C208.84 103.318 208.788 103.331 208.735 103.33ZM203.882 100.497C203.83 100.496 203.78 100.483 203.735 100.46L201.287 99.0399C201.219 99.001 201.169 98.9365 201.148 98.8608C201.127 98.785 201.138 98.7042 201.177 98.636C201.216 98.5679 201.28 98.518 201.356 98.4973C201.432 98.4766 201.512 98.4869 201.581 98.5259L204.029 99.9457C204.086 99.9774 204.131 100.027 204.157 100.088C204.182 100.148 204.187 100.215 204.17 100.278C204.153 100.342 204.116 100.398 204.063 100.437C204.011 100.477 203.947 100.498 203.882 100.497ZM199.028 97.6629C198.977 97.6625 198.927 97.6499 198.882 97.6262L196.434 96.2064C196.366 96.1667 196.317 96.1023 196.296 96.0268C196.276 95.9514 196.286 95.8709 196.323 95.8025C196.343 95.769 196.369 95.7397 196.4 95.7164C196.431 95.693 196.466 95.676 196.504 95.6663C196.541 95.6566 196.58 95.6545 196.619 95.66C196.657 95.6655 196.694 95.6786 196.727 95.6984L199.175 97.1121C199.243 97.1518 199.292 97.2162 199.313 97.2917C199.333 97.3672 199.323 97.4477 199.286 97.5161C199.26 97.5615 199.223 97.5992 199.177 97.6251C199.132 97.651 199.081 97.6641 199.028 97.6629ZM194.175 94.86C194.124 94.8595 194.074 94.8469 194.028 94.8233L191.58 93.4095C191.513 93.3699 191.464 93.3054 191.443 93.23C191.423 93.1545 191.432 93.074 191.47 93.0056C191.489 92.9716 191.515 92.9418 191.546 92.9178C191.576 92.8938 191.612 92.8762 191.649 92.866C191.687 92.8557 191.726 92.853 191.765 92.8581C191.803 92.8632 191.841 92.8759 191.874 92.8955L194.322 94.3092C194.39 94.3488 194.439 94.4133 194.459 94.4887C194.48 94.5642 194.47 94.6447 194.432 94.7131C194.407 94.7586 194.369 94.7963 194.324 94.8222C194.279 94.848 194.227 94.8611 194.175 94.86ZM189.322 92.0325C189.27 92.0328 189.219 92.0179 189.175 91.9897L186.727 90.576C186.694 90.5567 186.664 90.5309 186.64 90.5002C186.616 90.4695 186.599 90.4343 186.589 90.3968C186.578 90.3593 186.576 90.3202 186.58 90.2816C186.585 90.243 186.598 90.2058 186.617 90.1721C186.636 90.1383 186.662 90.1087 186.693 90.0849C186.724 90.0611 186.759 90.0435 186.796 90.0333C186.834 90.0231 186.873 90.0203 186.912 90.0253C186.95 90.0302 186.987 90.0426 187.021 90.0619L189.469 91.4756C189.537 91.5164 189.586 91.582 189.607 91.6584C189.627 91.7349 189.617 91.8163 189.579 91.8857C189.549 91.9246 189.51 91.9556 189.465 91.9759C189.42 91.9962 189.371 92.0051 189.322 92.0019V92.0325Z" fill="black"/>
<path opacity="0.3" d="M212.401 105.466C212.35 105.465 212.299 105.453 212.254 105.429L211.03 104.707C210.996 104.687 210.967 104.661 210.944 104.631C210.92 104.6 210.903 104.564 210.894 104.527C210.884 104.489 210.882 104.45 210.887 104.412C210.893 104.373 210.906 104.336 210.926 104.303C210.944 104.269 210.969 104.24 210.999 104.216C211.03 104.192 211.064 104.174 211.101 104.164C211.139 104.154 211.177 104.151 211.215 104.156C211.254 104.161 211.29 104.174 211.324 104.193L212.548 104.915C212.581 104.935 212.61 104.961 212.634 104.992C212.657 105.023 212.674 105.058 212.684 105.095C212.693 105.133 212.696 105.172 212.69 105.21C212.685 105.249 212.671 105.286 212.652 105.319C212.626 105.363 212.589 105.399 212.545 105.425C212.501 105.451 212.452 105.465 212.401 105.466Z" fill="black"/>
</g>
<path d="M214.298 149.432C214.247 149.431 214.197 149.417 214.153 149.391C214.11 149.365 214.073 149.329 214.047 149.285C214.009 149.217 213.998 149.138 214.017 149.062C214.037 148.987 214.085 148.922 214.151 148.881L215.375 148.159C215.443 148.121 215.522 148.112 215.597 148.133C215.671 148.153 215.734 148.202 215.773 148.269C215.811 148.338 215.821 148.418 215.8 148.494C215.779 148.569 215.73 148.633 215.663 148.673L214.439 149.395C214.396 149.419 214.347 149.432 214.298 149.432Z" fill="#0059EF"/>
<path d="M218.343 147.076C218.292 147.077 218.242 147.063 218.197 147.037C218.153 147.011 218.117 146.974 218.092 146.929C218.072 146.896 218.058 146.859 218.052 146.82C218.046 146.782 218.048 146.742 218.058 146.705C218.067 146.667 218.085 146.631 218.109 146.601C218.132 146.57 218.162 146.544 218.196 146.525L220.999 144.885C221.033 144.865 221.07 144.853 221.109 144.848C221.148 144.842 221.187 144.845 221.224 144.855C221.262 144.866 221.297 144.883 221.328 144.907C221.359 144.931 221.384 144.961 221.403 144.995C221.441 145.063 221.451 145.144 221.43 145.219C221.41 145.295 221.361 145.359 221.293 145.399L218.484 147.033C218.442 147.06 218.393 147.075 218.343 147.076ZM223.955 143.802C223.903 143.801 223.852 143.788 223.807 143.762C223.762 143.736 223.725 143.699 223.698 143.655C223.66 143.586 223.651 143.506 223.671 143.43C223.692 143.355 223.741 143.291 223.808 143.251L226.611 141.611C226.68 141.572 226.76 141.561 226.836 141.582C226.912 141.603 226.976 141.653 227.015 141.721C227.054 141.789 227.065 141.87 227.044 141.946C227.023 142.021 226.973 142.086 226.905 142.125L224.102 143.759C224.061 143.794 224.009 143.815 223.955 143.82V143.802Z" fill="#0059EF"/>
<path d="M229.567 140.527C229.516 140.527 229.465 140.514 229.419 140.488C229.374 140.462 229.337 140.425 229.31 140.381C229.272 140.312 229.263 140.232 229.283 140.156C229.304 140.081 229.353 140.016 229.421 139.977L230.21 139.512L229.421 139.046C229.387 139.027 229.357 139.001 229.333 138.971C229.31 138.94 229.292 138.905 229.282 138.867C229.272 138.83 229.269 138.791 229.274 138.752C229.279 138.713 229.291 138.676 229.31 138.642C229.33 138.609 229.355 138.579 229.386 138.555C229.417 138.531 229.452 138.514 229.49 138.504C229.527 138.494 229.566 138.491 229.605 138.496C229.643 138.501 229.681 138.513 229.714 138.532L230.938 139.254C230.994 139.289 231.037 139.34 231.061 139.401C231.085 139.461 231.089 139.528 231.073 139.591C231.061 139.637 231.037 139.679 231.005 139.714C230.974 139.749 230.934 139.776 230.889 139.793L229.665 140.485C229.636 140.506 229.603 140.521 229.567 140.527Z" fill="#0059EF"/>
<path d="M227.132 137.663C227.08 137.664 227.03 137.651 226.985 137.627L224.537 136.207C224.469 136.167 224.42 136.103 224.4 136.027C224.379 135.952 224.389 135.871 224.427 135.803C224.445 135.769 224.47 135.739 224.5 135.715C224.53 135.691 224.565 135.674 224.602 135.664C224.639 135.653 224.678 135.651 224.716 135.656C224.754 135.661 224.791 135.673 224.824 135.693L227.272 137.112C227.339 137.153 227.387 137.218 227.406 137.293C227.426 137.369 227.415 137.449 227.376 137.516C227.352 137.56 227.317 137.597 227.274 137.622C227.231 137.648 227.182 137.662 227.132 137.663ZM222.236 134.824C222.185 134.824 222.136 134.809 222.095 134.781L219.647 133.361C219.581 133.32 219.533 133.255 219.513 133.18C219.494 133.105 219.504 133.025 219.543 132.957C219.581 132.89 219.645 132.841 219.719 132.82C219.794 132.8 219.873 132.809 219.941 132.847L222.389 134.267C222.457 134.307 222.506 134.373 222.526 134.449C222.547 134.526 222.537 134.607 222.499 134.677C222.473 134.72 222.438 134.755 222.395 134.781C222.352 134.807 222.304 134.821 222.254 134.824H222.236Z" fill="#0059EF"/>
<path d="M217.383 131.978C217.331 131.977 217.281 131.965 217.236 131.941L216.012 131.219C215.945 131.178 215.897 131.113 215.878 131.038C215.858 130.963 215.869 130.883 215.908 130.815C215.946 130.748 216.009 130.699 216.084 130.678C216.158 130.658 216.238 130.667 216.305 130.705L217.529 131.427C217.587 131.459 217.632 131.509 217.658 131.569C217.683 131.629 217.688 131.696 217.671 131.76C217.654 131.823 217.617 131.879 217.564 131.918C217.512 131.958 217.448 131.979 217.383 131.978Z" fill="#0059EF"/>
<path d="M213.056 173.759C213.005 173.759 212.954 173.745 212.91 173.72C212.866 173.694 212.83 173.657 212.805 173.612C212.767 173.544 212.757 173.463 212.778 173.388C212.798 173.312 212.847 173.248 212.915 173.208L214.139 172.486C214.206 172.448 214.286 172.439 214.36 172.46C214.435 172.48 214.498 172.529 214.537 172.596C214.575 172.665 214.584 172.745 214.564 172.821C214.543 172.896 214.494 172.96 214.427 173L213.203 173.722C213.158 173.747 213.107 173.76 213.056 173.759Z" fill="#0059EF"/>
<path d="M184.879 190.203C184.828 190.204 184.778 190.19 184.734 190.164C184.69 190.138 184.653 190.101 184.628 190.057C184.608 190.023 184.595 189.986 184.59 189.948C184.584 189.91 184.586 189.871 184.596 189.833C184.606 189.795 184.623 189.76 184.646 189.729C184.669 189.698 184.699 189.672 184.732 189.653L187.082 188.282C187.15 188.244 187.229 188.235 187.304 188.255C187.378 188.276 187.442 188.325 187.48 188.392C187.5 188.425 187.513 188.462 187.519 188.501C187.524 188.539 187.522 188.578 187.512 188.616C187.503 188.653 187.486 188.688 187.462 188.719C187.439 188.75 187.41 188.776 187.376 188.796L185.026 190.167C184.981 190.191 184.93 190.204 184.879 190.203ZM189.579 187.462C189.527 187.463 189.476 187.45 189.43 187.424C189.385 187.398 189.348 187.36 189.322 187.315C189.284 187.246 189.275 187.166 189.295 187.09C189.316 187.015 189.365 186.951 189.432 186.911L191.776 185.54C191.81 185.521 191.847 185.508 191.886 185.503C191.924 185.498 191.964 185.501 192.001 185.511C192.039 185.522 192.074 185.539 192.104 185.563C192.135 185.587 192.161 185.616 192.18 185.65C192.2 185.684 192.212 185.721 192.217 185.76C192.222 185.798 192.219 185.837 192.209 185.875C192.199 185.912 192.181 185.948 192.157 185.978C192.133 186.009 192.104 186.035 192.07 186.054L189.72 187.425C189.677 187.449 189.629 187.462 189.579 187.462ZM194.273 184.726C194.222 184.727 194.172 184.713 194.127 184.688C194.083 184.662 194.047 184.624 194.022 184.579C193.982 184.511 193.97 184.43 193.99 184.353C194.009 184.276 194.058 184.21 194.126 184.169L196.452 182.804C196.485 182.785 196.521 182.772 196.559 182.766C196.597 182.761 196.636 182.763 196.673 182.773C196.71 182.782 196.745 182.799 196.775 182.823C196.805 182.846 196.831 182.875 196.85 182.908C196.888 182.976 196.899 183.056 196.88 183.131C196.86 183.207 196.812 183.272 196.746 183.312L194.396 184.683C194.359 184.707 194.317 184.722 194.273 184.726ZM198.967 181.984C198.916 181.983 198.867 181.969 198.823 181.943C198.779 181.918 198.742 181.881 198.716 181.837C198.678 181.77 198.667 181.69 198.687 181.614C198.706 181.539 198.754 181.474 198.82 181.434L201.171 180.063C201.203 180.042 201.24 180.028 201.278 180.022C201.316 180.017 201.355 180.019 201.392 180.028C201.429 180.038 201.464 180.055 201.495 180.079C201.525 180.103 201.55 180.133 201.568 180.167C201.589 180.2 201.603 180.237 201.609 180.275C201.615 180.314 201.613 180.353 201.603 180.391C201.593 180.429 201.576 180.464 201.552 180.495C201.528 180.526 201.498 180.552 201.464 180.571L199.114 181.941C199.071 181.97 199.019 181.985 198.967 181.984ZM203.667 179.243C203.602 179.244 203.538 179.223 203.486 179.183C203.433 179.144 203.396 179.088 203.379 179.025C203.362 178.961 203.367 178.894 203.392 178.834C203.418 178.773 203.463 178.723 203.521 178.692L205.871 177.321C205.904 177.301 205.941 177.289 205.979 177.284C206.017 177.279 206.056 177.282 206.093 177.292C206.13 177.302 206.165 177.32 206.195 177.344C206.225 177.368 206.25 177.397 206.268 177.431C206.306 177.499 206.316 177.58 206.296 177.655C206.275 177.731 206.226 177.795 206.158 177.835L203.796 179.206C203.756 179.227 203.712 179.239 203.667 179.243ZM208.362 176.501C208.31 176.502 208.259 176.489 208.215 176.463C208.171 176.437 208.135 176.399 208.111 176.354C208.091 176.321 208.078 176.284 208.072 176.245C208.067 176.207 208.069 176.168 208.078 176.13C208.088 176.093 208.105 176.057 208.129 176.027C208.152 175.996 208.181 175.97 208.215 175.95L210.565 174.579C210.632 174.541 210.712 174.532 210.786 174.553C210.861 174.573 210.924 174.622 210.963 174.689C210.982 174.723 210.995 174.759 211.001 174.798C211.006 174.836 211.004 174.875 210.995 174.913C210.985 174.95 210.968 174.986 210.945 175.017C210.921 175.048 210.892 175.074 210.858 175.093L208.508 176.464C208.463 176.488 208.413 176.5 208.362 176.501Z" fill="#0059EF"/>
<path d="M181.293 192.297C181.242 192.295 181.192 192.281 181.148 192.256C181.104 192.23 181.068 192.193 181.042 192.15C181.003 192.082 180.993 192.002 181.012 191.927C181.032 191.851 181.08 191.786 181.146 191.746L182.37 191.024C182.403 191.004 182.44 190.991 182.478 190.986C182.516 190.982 182.555 190.984 182.592 190.995C182.629 191.005 182.664 191.022 182.694 191.046C182.724 191.07 182.749 191.1 182.768 191.134C182.806 191.202 182.815 191.283 182.795 191.358C182.774 191.434 182.725 191.498 182.658 191.538L181.434 192.26C181.39 192.284 181.342 192.296 181.293 192.297Z" fill="#0059EF"/>
<path d="M180.051 216.648C179.999 216.648 179.949 216.634 179.905 216.609C179.861 216.583 179.825 216.546 179.8 216.501C179.763 216.433 179.753 216.354 179.772 216.279C179.791 216.204 179.838 216.139 179.904 216.097L181.128 215.375C181.195 215.337 181.275 215.328 181.349 215.348C181.424 215.369 181.487 215.418 181.525 215.485C181.563 215.554 181.573 215.634 181.552 215.71C181.532 215.785 181.483 215.849 181.415 215.889L180.191 216.611C180.148 216.635 180.1 216.648 180.051 216.648Z" fill="#0059EF"/>
<path d="M151.874 233.068C151.823 233.069 151.772 233.056 151.728 233.03C151.683 233.004 151.647 232.967 151.623 232.921C151.603 232.888 151.59 232.851 151.585 232.812C151.579 232.774 151.581 232.735 151.591 232.697C151.601 232.66 151.618 232.625 151.641 232.594C151.664 232.563 151.694 232.537 151.727 232.517L154.077 231.146C154.145 231.109 154.224 231.099 154.299 231.12C154.373 231.14 154.436 231.189 154.475 231.256C154.495 231.29 154.508 231.327 154.513 231.365C154.519 231.403 154.517 231.443 154.507 231.48C154.497 231.518 154.48 231.553 154.457 231.584C154.434 231.615 154.404 231.641 154.371 231.66L152.021 233.031C151.975 233.055 151.925 233.067 151.874 233.068ZM156.568 230.326C156.517 230.326 156.467 230.313 156.423 230.287C156.379 230.261 156.342 230.224 156.317 230.179C156.28 230.111 156.27 230.032 156.29 229.957C156.309 229.882 156.356 229.817 156.421 229.775L158.771 228.404C158.805 228.385 158.842 228.373 158.881 228.368C158.919 228.363 158.958 228.366 158.996 228.376C159.033 228.386 159.069 228.404 159.099 228.427C159.13 228.451 159.156 228.481 159.175 228.515C159.194 228.548 159.207 228.586 159.212 228.624C159.217 228.663 159.214 228.702 159.204 228.739C159.193 228.777 159.176 228.812 159.152 228.843C159.128 228.874 159.099 228.899 159.065 228.919L156.715 230.289C156.67 230.314 156.619 230.327 156.568 230.326ZM161.268 227.591C161.216 227.59 161.164 227.576 161.119 227.549C161.074 227.522 161.036 227.484 161.011 227.438C160.973 227.369 160.963 227.289 160.984 227.213C161.005 227.138 161.054 227.073 161.121 227.034L163.471 225.669C163.504 225.649 163.541 225.636 163.579 225.631C163.616 225.625 163.655 225.628 163.692 225.637C163.729 225.647 163.764 225.664 163.794 225.687C163.825 225.711 163.85 225.74 163.869 225.773C163.907 225.841 163.917 225.922 163.896 225.997C163.876 226.073 163.826 226.137 163.759 226.177L161.415 227.548C161.371 227.576 161.32 227.591 161.268 227.591ZM165.962 224.849C165.897 224.85 165.833 224.829 165.78 224.789C165.728 224.75 165.691 224.694 165.674 224.631C165.657 224.567 165.662 224.5 165.687 224.44C165.713 224.38 165.758 224.33 165.815 224.298L168.165 222.927C168.198 222.907 168.234 222.893 168.273 222.887C168.311 222.881 168.35 222.883 168.387 222.893C168.424 222.903 168.459 222.92 168.489 222.944C168.52 222.967 168.545 222.997 168.563 223.031C168.584 223.064 168.598 223.101 168.604 223.14C168.61 223.178 168.608 223.218 168.598 223.255C168.588 223.293 168.571 223.329 168.547 223.36C168.523 223.39 168.493 223.416 168.459 223.435L166.109 224.806C166.066 224.835 166.014 224.85 165.962 224.849ZM170.662 222.107C170.597 222.108 170.533 222.087 170.481 222.048C170.428 222.008 170.391 221.952 170.374 221.889C170.357 221.826 170.362 221.759 170.387 221.698C170.413 221.638 170.458 221.588 170.515 221.556L172.859 220.185C172.893 220.166 172.93 220.153 172.969 220.148C173.008 220.143 173.047 220.146 173.084 220.156C173.122 220.166 173.157 220.184 173.188 220.208C173.219 220.232 173.244 220.262 173.263 220.296C173.301 220.364 173.311 220.444 173.29 220.52C173.27 220.595 173.221 220.66 173.153 220.699L170.803 222.07C170.76 222.095 170.712 222.107 170.662 222.107ZM175.356 219.365C175.305 219.367 175.254 219.354 175.21 219.328C175.166 219.302 175.129 219.264 175.105 219.218C175.086 219.185 175.073 219.148 175.067 219.11C175.062 219.071 175.064 219.032 175.073 218.995C175.083 218.957 175.1 218.922 175.123 218.891C175.147 218.86 175.176 218.834 175.21 218.814L177.56 217.444C177.627 217.406 177.707 217.396 177.781 217.417C177.856 217.438 177.919 217.487 177.957 217.554C177.994 217.622 178.004 217.701 177.985 217.776C177.966 217.851 177.919 217.916 177.853 217.958L175.503 219.329C175.458 219.352 175.408 219.365 175.356 219.365Z" fill="#0059EF"/>
<path d="M148.288 235.161C148.237 235.16 148.187 235.146 148.143 235.12C148.099 235.094 148.063 235.058 148.037 235.014C147.998 234.946 147.988 234.867 148.007 234.791C148.026 234.716 148.074 234.651 148.141 234.61L149.365 233.888C149.398 233.868 149.436 233.856 149.474 233.851C149.513 233.846 149.552 233.848 149.59 233.859C149.627 233.869 149.663 233.886 149.693 233.91C149.724 233.934 149.75 233.964 149.769 233.998C149.807 234.067 149.816 234.147 149.796 234.223C149.775 234.298 149.726 234.362 149.659 234.402L148.435 235.124C148.389 235.149 148.339 235.161 148.288 235.161Z" fill="#0059EF"/>
<path d="M167.602 55.4227C166.729 55.8721 165.76 56.1065 164.778 56.1065C163.796 56.1065 162.827 55.8721 161.954 55.4227C160.399 54.517 160.399 53.042 161.954 52.1302C162.827 51.6808 163.796 51.4464 164.778 51.4464C165.76 51.4464 166.729 51.6808 167.602 52.1302C169.163 53.042 169.163 54.517 167.602 55.4227Z" fill="#455A64"/>
<path d="M164.781 37.9195V24.6636L181.911 31.2915L164.781 37.9195Z" fill="#0059EF"/>
<path d="M164.781 54.3701C164.619 54.3701 164.463 54.3056 164.348 54.1908C164.233 54.0761 164.169 53.9204 164.169 53.7581V22.0626C164.142 21.9714 164.137 21.8752 164.154 21.7818C164.171 21.6883 164.21 21.6 164.267 21.524C164.324 21.448 164.398 21.3863 164.483 21.3438C164.568 21.3014 164.662 21.2792 164.757 21.2792C164.852 21.2792 164.945 21.3014 165.03 21.3438C165.115 21.3863 165.189 21.448 165.246 21.524C165.303 21.6 165.342 21.6883 165.359 21.7818C165.376 21.8752 165.371 21.9714 165.344 22.0626V53.7764C165.34 53.9274 165.28 54.0716 165.176 54.1812C165.072 54.2908 164.932 54.358 164.781 54.3701Z" fill="#263238"/>
<path d="M135.625 156.011H128.465V167.553H135.625V156.011Z" fill="#FFA8A7"/>
<path d="M139.903 153.367L141.604 155.815C141.678 155.92 141.712 156.049 141.7 156.176C141.687 156.304 141.63 156.424 141.537 156.513C141.111 156.978 140.53 157.271 139.903 157.339V153.367Z" fill="#F28F8F"/>
<path d="M132.731 144.316C132.731 144.316 138.306 140.362 140.075 154.108C141.531 165.534 134.438 162.914 131.8 161.335C129.163 159.757 124.12 154.995 127.437 148.3C128.936 145.258 132.731 144.316 132.731 144.316Z" fill="#FFA8A7"/>
<path d="M137.871 148.716C137.871 148.716 137.914 151.219 135.625 151.341C136.192 151.998 136.479 152.85 136.427 153.716C136.427 155.344 135.87 155.032 135.625 154.72C135.38 154.408 132.841 154.72 132.841 154.72L134.138 157.168C134.297 158.095 134.216 159.048 133.902 159.935C133.588 160.822 133.052 161.614 132.345 162.235C132.345 162.235 128.942 163.171 127.394 162.235C127.394 162.235 123.11 157.48 122.32 154.108C121.531 150.736 121.519 147.792 123.495 146.415C123.495 146.415 124.107 142.161 128.63 142.161C133.153 142.161 134.481 143.324 136.923 142.773C137.914 142.553 139.401 141.837 139.401 142.835C139.401 143.832 138.177 144.671 138.177 144.671C138.177 144.671 139.401 144.603 140.062 144.542C140.723 144.481 142.198 144.261 141.947 146.17C141.696 148.08 139.989 149.046 137.871 148.716Z" fill="#263238"/>
<path d="M124.095 146.568C124.095 146.568 122.908 144.169 121.427 145.552C121.415 145.562 121.406 145.575 121.399 145.589C121.393 145.603 121.39 145.619 121.39 145.635C121.39 145.65 121.393 145.666 121.399 145.68C121.406 145.694 121.415 145.707 121.427 145.717L124.077 147.315L124.095 146.568Z" fill="#263238"/>
<path d="M135.625 154.738V158.453C135.625 158.453 131.782 158.379 131.782 155.534C131.782 152.914 134.872 153.502 135.625 154.738Z" fill="#FFA8A7"/>
<path d="M107.541 251.146C107.541 251.146 107.363 256.085 114.218 258.111C114.218 258.111 115.24 251.146 107.541 251.146Z" fill="#253239"/>
<path d="M112.883 262.26V259.286C112.883 258.658 113.026 258.038 113.302 257.474C113.577 256.909 113.979 256.416 114.475 256.03C114.475 256.03 113.459 251.691 109.346 251.948C108.017 252.461 106.872 253.36 106.06 254.531C105.761 254.93 105.551 255.39 105.445 255.878C105.34 256.366 105.341 256.871 105.448 257.358C105.421 257.248 105.425 257.132 105.459 257.024C105.494 256.916 105.558 256.82 105.645 256.747C105.731 256.673 105.836 256.625 105.948 256.607C106.061 256.59 106.175 256.604 106.28 256.648L107.271 257.058C107.89 257.312 108.436 257.714 108.863 258.228C109.29 258.742 109.584 259.354 109.719 260.008L110.943 265.792C111.045 266.329 111.31 266.823 111.702 267.205C112.094 267.587 112.594 267.839 113.134 267.927H113.22C113.332 267.934 113.444 267.934 113.557 267.927H113.648C113.759 267.923 113.869 267.913 113.979 267.897H114.071C114.184 267.878 114.296 267.854 114.407 267.823H114.481C114.618 267.784 114.751 267.733 114.879 267.67C115.017 267.608 115.15 267.534 115.276 267.45L116.317 266.771C116.468 266.673 116.591 266.537 116.673 266.377C116.756 266.218 116.796 266.039 116.788 265.859C116.708 264.684 116.188 262.26 112.883 262.26Z" fill="#37474F"/>
<path d="M116.28 266.759L115.24 267.438C115.113 267.522 114.98 267.596 114.842 267.658C114.714 267.721 114.581 267.772 114.444 267.811H114.37C114.26 267.842 114.147 267.866 114.034 267.885H113.942H113.814H113.612H113.397H113.183H113.116C112.585 267.798 112.094 267.552 111.705 267.181C111.316 266.81 111.048 266.33 110.937 265.804C110.94 265.786 110.94 265.767 110.937 265.749L109.713 259.965C109.578 259.311 109.284 258.7 108.857 258.185C108.43 257.671 107.884 257.269 107.265 257.016L106.274 256.605C105.839 256.41 105.558 256.746 105.38 256.918C105.216 257.062 105.098 257.252 105.039 257.462C104.981 257.673 104.984 257.896 105.05 258.105L106.274 263.484C106.547 264.713 107.275 265.793 108.312 266.508L110.925 268.301C111.351 268.571 111.83 268.745 112.331 268.81C112.831 268.874 113.339 268.828 113.82 268.674H113.832H113.893C114.078 268.609 114.258 268.532 114.432 268.442L115.552 267.83C115.793 267.699 116.002 267.515 116.163 267.293C116.324 267.07 116.433 266.815 116.482 266.544C116.428 266.627 116.36 266.7 116.28 266.759Z" fill="#263238"/>
<path d="M108.495 252.34C108.495 252.34 113.195 252.793 113.177 257.762L116.096 253.203L111.304 248.197L108.495 252.34Z" fill="#FFA8A7"/>
<path d="M118.948 194.812V202.731C118.948 205.885 119.091 209.031 119.377 212.168L120.337 222.768C120.461 224.061 120.298 225.365 119.863 226.588C119.427 227.812 118.728 228.925 117.816 229.849C116.358 231.343 115.144 233.057 114.217 234.928C111.31 240.651 107.541 251.14 107.541 251.14C107.541 251.14 114.217 251.14 114.217 258.105L129.426 232.719C130.503 230.92 131.179 228.91 131.409 226.826L134.64 197.811L118.948 194.812Z" fill="#455A64"/>
<path d="M152.425 240.473C152.706 240.98 153.147 241.38 153.679 241.611H153.74C154.846 242.101 156.099 242.143 157.235 241.728L166.917 238.209C167.602 237.909 167.615 236.887 167.572 236.465H152.425V240.473Z" fill="#263238"/>
<path d="M153 234.739C153 234.739 151.635 236.159 152.137 238.845C152.219 239.269 152.403 239.666 152.672 240.003C152.942 240.34 153.29 240.606 153.685 240.779L153.747 240.81C154.853 241.298 156.106 241.337 157.241 240.92L166.923 237.401C167.159 237.31 167.353 237.134 167.466 236.907C167.579 236.681 167.604 236.421 167.535 236.177C167.088 234.604 165.509 233.019 161.849 233.98C160.925 234.283 159.971 234.488 159.004 234.592L158.508 233.784L153 234.739Z" fill="#37474F"/>
<path d="M159.004 234.561C158.496 235.92 156.556 236.397 154.316 235.644C153.804 235.47 153.328 235.207 152.908 234.867V229.5H159.028L159.004 234.561Z" fill="#FFA8A7"/>
<path d="M125.876 196.838V197.743C125.868 200.478 126.764 203.138 128.424 205.31C130.084 207.483 132.416 209.046 135.056 209.757L150.65 213.882C150.871 213.94 151.067 214.07 151.207 214.252C151.346 214.434 151.422 214.656 151.421 214.885V233.502C151.421 233.502 158.949 237.285 161.127 231.422V211.311C161.133 209.671 160.644 208.068 159.725 206.71C158.806 205.352 157.499 204.302 155.974 203.698L139.787 197.345L125.876 196.838Z" fill="#455A64"/>
<path d="M132.694 215.185L133.306 209.029C133.306 209.029 128.287 207.346 127.516 205.038C127.259 207.431 130.619 209.622 131.464 210.112C131.776 211.966 132.694 215.185 132.694 215.185Z" fill="#37474F"/>
<path d="M127.137 167.302C127.137 167.302 127.278 164.346 128.294 164.346C129.107 164.346 133.232 165.515 134.824 165.981C135.258 166.099 135.632 166.376 135.87 166.758C136.506 167.681 136.881 168.76 136.953 169.879L127.137 167.302Z" fill="#37474F"/>
<path d="M145.362 177.443C145.362 177.443 149.971 172.755 150.619 173.159C151.415 173.661 150.454 175.467 149.726 176.219L153.343 173.857C153.455 173.783 153.582 173.733 153.715 173.711C153.847 173.688 153.983 173.694 154.114 173.727C154.244 173.759 154.367 173.819 154.473 173.901C154.58 173.984 154.668 174.088 154.732 174.206C155.742 176.042 156.831 180.326 147.168 183.165L145.362 177.443Z" fill="#FFA8A7"/>
<path d="M148.532 183.722C148.532 183.722 146.133 184.824 143.024 186.17C137.81 188.447 130.595 191.452 129.273 191.238C125.806 190.68 122.382 189.879 119.028 188.839L119.695 179.561L129.683 182.498L144.652 176.629L145.264 176.385C149.487 177.939 148.532 183.722 148.532 183.722Z" fill="#263238"/>
<path d="M125.888 165.766L122.161 164.744C121.557 164.581 120.923 164.56 120.308 164.682C119.694 164.805 119.117 165.068 118.621 165.451C118.126 165.833 117.726 166.326 117.452 166.889C117.179 167.453 117.039 168.072 117.045 168.698V170.026C117.042 171.749 117.44 173.449 118.21 174.99C118.979 176.532 120.097 177.873 121.476 178.906L125.815 182.15L125.888 165.766Z" fill="#37474F"/>
<path d="M141.849 191.342L144.769 204.475C144.769 204.475 136.684 208.533 127.926 205.975C119.169 203.417 118.134 201.22 118.134 201.22L119.028 188.851L119.695 179.573L120.478 168.759C120.512 168.232 120.662 167.72 120.915 167.257C121.168 166.794 121.52 166.392 121.945 166.08C122.37 165.767 122.858 165.551 123.376 165.448C123.893 165.344 124.427 165.354 124.94 165.479L137.216 168.539C139.388 169.096 141.312 170.361 142.683 172.135C144.054 173.908 144.795 176.089 144.787 178.331L143.024 186.195L141.849 191.342Z" fill="#263238"/>
<path d="M147.694 206.917C147.694 206.917 152.51 211.287 152.204 211.991C151.898 212.695 149.909 211.942 149.144 211.256L151.672 214.775C151.751 214.885 151.807 215.01 151.837 215.142C151.866 215.275 151.867 215.412 151.842 215.545C151.816 215.678 151.763 215.804 151.686 215.916C151.61 216.028 151.511 216.123 151.397 216.195C149.646 217.315 145.454 218.643 142.143 209.041L147.694 206.917Z" fill="#FFA8A7"/>
<path d="M139.083 169.212C139.083 169.212 134.622 177.78 133.196 191.397C132.969 193.545 141.66 210.448 141.66 210.448C141.66 210.448 147.425 211.103 148.728 206.776L141.849 191.36L144.732 178.912C144.99 177.823 144.969 176.686 144.671 175.607C144.077 173.471 142.596 170.228 139.083 169.212Z" fill="#37474F"/>
<path d="M229.91 61.304L236.085 64.8536V62.6443C236.085 62.4852 236.085 62.3322 236.085 62.1731C236.085 62.014 236.085 61.8732 236.085 61.7324V61.6774C236.312 58.752 238.503 57.6259 241.183 59.1926C242.404 59.9436 243.448 60.9499 244.243 62.1425C244.855 58.1645 248.056 56.7324 251.936 58.9968C256.251 61.5121 259.745 67.626 259.745 72.6566V77.3935C259.75 77.7639 259.849 78.127 260.033 78.4484C260.217 78.7697 260.48 79.0386 260.798 79.2295L264.433 81.3838C265.224 81.8545 265.878 82.5231 266.332 83.3236C266.786 84.1241 267.024 85.029 267.022 85.9493C267.026 86.33 266.929 86.7049 266.741 87.036C266.553 87.367 266.281 87.6424 265.952 87.8339C265.623 88.0255 265.249 88.1264 264.868 88.1265C264.487 88.1265 264.113 88.0257 263.784 87.8342L230.02 68.1278C229.121 67.5991 228.375 66.8442 227.857 65.938C227.34 65.0319 227.069 64.0061 227.07 62.9626C227.072 62.6305 227.16 62.3047 227.326 62.0171C227.492 61.7295 227.73 61.4902 228.017 61.3227C228.304 61.1553 228.629 61.0655 228.961 61.0622C229.293 61.0589 229.62 61.1423 229.91 61.304Z" fill="#E6E6E6"/>
<path d="M225.504 32.5156L229.5 34.8106V33.3846C229.5 33.2806 229.5 33.1827 229.5 33.0847C229.5 32.9868 229.5 32.8889 229.5 32.791C229.647 30.8999 231.061 30.1777 232.793 31.1875C233.57 31.6622 234.237 32.2963 234.751 33.048C235.143 30.4776 237.199 29.5535 239.72 31.0162C242.505 32.638 244.763 36.5915 244.763 39.8412V42.9012C244.759 43.1469 244.82 43.3893 244.939 43.6041C245.058 43.8189 245.232 43.9986 245.443 44.1252L247.793 45.5145C248.303 45.8191 248.725 46.2512 249.018 46.7683C249.311 47.2855 249.465 47.8699 249.463 48.4643C249.466 48.7106 249.404 48.9532 249.282 49.1675C249.161 49.3818 248.985 49.5601 248.773 49.6844C248.56 49.8088 248.318 49.8746 248.072 49.8753C247.826 49.876 247.584 49.8115 247.37 49.6883L225.565 36.9587C224.985 36.6176 224.505 36.131 224.171 35.547C223.837 34.9631 223.661 34.3021 223.662 33.6294C223.651 33.4091 223.7 33.1901 223.804 32.9955C223.908 32.8009 224.062 32.6379 224.251 32.5238C224.44 32.4097 224.656 32.3487 224.876 32.3473C225.097 32.3458 225.313 32.404 225.504 32.5156Z" fill="#E6E6E6"/>
</g>
<defs>
<clipPath id="clip0">
<rect width="306" height="306" fill="white"/>
</clipPath>
</defs>
</svg>
