<svg width="114" height="114" viewBox="0 0 114 114" fill="none" xmlns="http://www.w3.org/2000/svg">
<path fill-rule="evenodd" clip-rule="evenodd" d="M0 56.7C0 25.3855 25.3855 0 56.7 0C88.0145 0 113.4 25.3855 113.4 56.7C113.4 88.0145 88.0145 113.4 56.7 113.4C25.3855 113.4 0 88.0145 0 56.7ZM81.9 56.7C81.9 42.7824 70.6176 31.5 56.7 31.5C42.7824 31.5 31.5 42.7824 31.5 56.7C31.5 70.6176 42.7824 81.9 56.7 81.9C70.6176 81.9 81.9 70.6176 81.9 56.7Z" fill="#0059EF" fill-opacity="0.08"/>
<path fill-rule="evenodd" clip-rule="evenodd" d="M9 56.7C9 30.356 30.356 9 56.7 9C83.044 9 104.4 30.356 104.4 56.7C104.4 83.044 83.044 104.4 56.7 104.4C30.356 104.4 9 83.044 9 56.7ZM81.9 56.7C81.9 42.7824 70.6176 31.5 56.7 31.5C42.7824 31.5 31.5 42.7824 31.5 56.7C31.5 70.6176 42.7824 81.9 56.7 81.9C70.6176 81.9 81.9 70.6176 81.9 56.7Z" fill="#0059EF" fill-opacity="0.14"/>
<path fill-rule="evenodd" clip-rule="evenodd" d="M18 56.7C18 35.3266 35.3266 18 56.7 18C78.0734 18 95.4 35.3266 95.4 56.7C95.4 78.0734 78.0734 95.4 56.7 95.4C35.3266 95.4 18 78.0734 18 56.7ZM81.9 56.7C81.9 42.7824 70.6176 31.5 56.7 31.5C42.7824 31.5 31.5 42.7824 31.5 56.7C31.5 70.6176 42.7824 81.9 56.7 81.9C70.6176 81.9 81.9 70.6176 81.9 56.7Z" fill="#0059EF" fill-opacity="0.16"/>
<path fill-rule="evenodd" clip-rule="evenodd" d="M27 56.7C27 40.2971 40.2971 27 56.7 27C73.1029 27 86.4 40.2971 86.4 56.7C86.4 73.1029 73.1029 86.4 56.7 86.4C40.2971 86.4 27 73.1029 27 56.7ZM81.9 56.7C81.9 42.7824 70.6176 31.5 56.7 31.5C42.7824 31.5 31.5 42.7824 31.5 56.7C31.5 70.6176 42.7824 81.9 56.7 81.9C70.6176 81.9 81.9 70.6176 81.9 56.7Z" fill="#0059EF" fill-opacity="0.2"/>
<circle cx="56.7" cy="56.7" r="25.2" fill="#0059EF"/>
</svg>
