<svg width="158" height="158" viewBox="0 0 158 158" fill="none" xmlns="http://www.w3.org/2000/svg">
<path d="M84.2614 105.61C111.794 100.639 142.601 86.6497 138.193 54.7653C134.196 25.8545 101.436 12.0706 76.6332 30.5787C65.9397 38.5609 64.3977 52.0351 52.1843 58.5289C39.9709 65.0227 21.9273 66.0845 22.5182 84.5009C23.4314 113.02 66.1451 108.877 84.2614 105.61Z" fill="#0059EF"/>
<path opacity="0.9" d="M84.2614 105.61C111.794 100.639 142.601 86.6497 138.193 54.7653C134.196 25.8545 101.436 12.0706 76.6332 30.5787C65.9397 38.5609 64.3977 52.0351 52.1843 58.5289C39.9709 65.0227 21.9273 66.0845 22.5182 84.5009C23.4314 113.02 66.1451 108.877 84.2614 105.61Z" fill="white"/>
<path d="M79 135.109C112.838 135.109 140.269 133.507 140.269 131.532C140.269 129.556 112.838 127.955 79 127.955C45.1619 127.955 17.7308 129.556 17.7308 131.532C17.7308 133.507 45.1619 135.109 79 135.109Z" fill="#F5F5F5"/>
<path d="M77.8529 128.599L80.6495 128.624L82.141 122.143L79.3413 122.118L77.8529 128.599Z" fill="#FF8B7B"/>
<path d="M80.7191 128.296L77.6602 128.271C77.6032 128.27 77.5476 128.289 77.502 128.323C77.4564 128.357 77.4232 128.405 77.4074 128.46L76.668 130.941C76.6481 130.998 76.6425 131.06 76.6516 131.121C76.6607 131.181 76.6842 131.238 76.7202 131.288C76.7562 131.337 76.8036 131.377 76.8583 131.404C76.913 131.431 76.9735 131.444 77.0345 131.443C78.1405 131.443 79.7395 131.383 81.1425 131.396C82.7636 131.412 83.0986 131.509 85.0009 131.528C86.148 131.528 86.5556 130.378 86.0816 130.264C83.9265 129.765 83.1997 129.699 81.3953 128.514C81.1964 128.376 80.9611 128.3 80.7191 128.296Z" fill="#263238"/>
<path opacity="0.2" d="M82.1378 122.146L81.3731 125.486L78.5734 125.461L79.3381 122.121L82.1378 122.146Z" fill="black"/>
<path d="M81.8756 128.798C81.5747 128.791 81.2751 128.755 80.9813 128.69C80.9675 128.688 80.9548 128.681 80.9452 128.671C80.9355 128.66 80.9294 128.647 80.9276 128.633C80.9263 128.62 80.9293 128.606 80.9361 128.594C80.9428 128.582 80.9531 128.573 80.9655 128.567C81.0982 128.501 82.2738 127.935 82.5961 128.137C82.6259 128.156 82.6504 128.182 82.667 128.213C82.6836 128.244 82.6919 128.279 82.6909 128.314C82.6915 128.375 82.6785 128.434 82.6528 128.489C82.6271 128.544 82.5893 128.592 82.5424 128.63C82.3436 128.755 82.11 128.814 81.8756 128.798ZM81.212 128.611C81.8187 128.719 82.2801 128.697 82.476 128.545C82.5092 128.519 82.5358 128.486 82.5534 128.448C82.571 128.41 82.5792 128.369 82.5771 128.327C82.5784 128.314 82.576 128.302 82.5705 128.291C82.5649 128.279 82.5562 128.27 82.5455 128.264C82.3528 128.144 81.6892 128.381 81.212 128.611Z" fill="#0059EF"/>
<path d="M80.994 128.693C80.9789 128.693 80.9644 128.687 80.9529 128.677C80.9436 128.67 80.9364 128.66 80.932 128.649C80.9275 128.638 80.926 128.626 80.9276 128.614C80.9276 128.564 81.1488 127.35 81.8156 127.432C81.9925 127.454 82.0399 127.543 82.0526 127.612C82.0968 127.928 81.3795 128.535 81.0192 128.687L80.994 128.693ZM81.7587 127.562C81.3574 127.562 81.1551 128.216 81.0856 128.51C81.4553 128.301 81.9483 127.827 81.9198 127.638C81.9198 127.638 81.9198 127.584 81.7998 127.571L81.7587 127.562Z" fill="#0059EF"/>
<path d="M94.8 52.0229C94.8411 53.7262 94.9011 55.4989 94.9833 57.2243C95.0212 58.0901 95.0686 58.956 95.1286 59.8155C95.1887 60.675 95.2582 61.5314 95.353 62.3751C95.393 62.7964 95.4436 63.2178 95.5047 63.6391L95.5458 63.9551C95.5458 63.993 95.5458 63.9551 95.5458 63.9741C95.5458 63.9741 95.5458 64.0088 95.5458 64.0657C95.6586 64.2639 95.8154 64.4336 96.004 64.5618C96.2783 64.7689 96.5701 64.9518 96.8761 65.1085C98.2128 65.8037 99.9097 66.3125 101.521 66.7675L101.351 68.9068C100.403 68.9632 99.4514 68.9421 98.5067 68.8436C98.0295 68.7994 97.5587 68.7299 97.072 68.6382C96.5769 68.5467 96.0882 68.4232 95.609 68.2685C95.0841 68.1101 94.5769 67.8983 94.0953 67.6365C93.506 67.3216 92.9792 66.9018 92.5406 66.3978C92.2753 66.0782 92.062 65.7188 91.9086 65.3329C91.8644 65.2317 91.8296 65.1211 91.7948 65.0169L91.7506 64.8525L91.7127 64.7103L91.64 64.3627C91.5326 63.9014 91.4409 63.44 91.3588 62.9818C91.0269 61.1459 90.8247 59.332 90.6762 57.515C90.613 56.6081 90.5466 55.7012 90.5214 54.7943C90.4961 53.8873 90.4613 52.9899 90.4771 52.0514L94.8 52.0229Z" fill="#FF8B7B"/>
<path d="M89.4628 52.2381C89.0646 55.4139 89.7977 60.1034 89.7977 60.1034C89.7977 60.1034 92.0097 60.4194 93.7319 59.9643C95.4541 59.5093 95.8175 59.1712 95.8175 59.1712C96.2313 56.9874 96.2484 54.7471 95.8681 52.5573C95.176 48.9707 92.2941 47.6087 90.3002 49.7986C89.8546 50.2947 89.5955 51.1922 89.4628 52.2381Z" fill="#0059EF"/>
<path opacity="0.2" d="M89.7914 53.7708C89.6204 54.3077 89.477 54.8529 89.3616 55.4045C89.4245 56.9763 89.5701 58.5437 89.7977 60.1002C91.0162 60.2596 92.2517 60.2362 93.4633 60.0307C93.5139 59.424 93.5455 58.7667 93.5423 58.1126C93.536 55.0727 91.7569 53.2652 89.7914 53.7708Z" fill="black"/>
<path d="M100.545 66.6031L102.735 66.4609L102.627 69.2354C102.14 69.291 101.646 69.2438 101.178 69.0968C100.71 68.9498 100.278 68.7064 99.9097 68.3822L100.545 66.6031Z" fill="#FF8B7B"/>
<path d="M104.966 67.7439L104.558 68.8878C104.504 69.0422 104.4 69.1737 104.261 69.2604C104.123 69.3472 103.959 69.3841 103.797 69.365L102.627 69.2322L102.735 66.4578L104.425 66.7896C104.527 66.8103 104.623 66.8526 104.708 66.9137C104.792 66.9748 104.862 67.0532 104.913 67.1437C104.964 67.2341 104.995 67.3345 105.004 67.438C105.014 67.5416 105 67.6459 104.966 67.7439Z" fill="#FF8B7B"/>
<path d="M104.049 66.005L103.337 65.6082C103.157 65.5079 102.93 65.5725 102.83 65.7523L101.244 68.5982C101.144 68.7781 101.208 69.0052 101.388 69.1055L102.1 69.5023C102.28 69.6026 102.507 69.538 102.607 69.3581L104.193 66.5122C104.294 66.3324 104.229 66.1053 104.049 66.005Z" fill="#263238"/>
<path d="M102.701 69.1098L101.403 68.3868C101.306 68.3324 101.183 68.3674 101.128 68.465L100.494 69.6022C100.44 69.6998 100.475 69.823 100.573 69.8773L101.87 70.6003C101.968 70.6547 102.091 70.6197 102.145 70.5221L102.779 69.3849C102.833 69.2873 102.798 69.1641 102.701 69.1098Z" fill="#263238"/>
<path d="M105.784 66.6761C104.998 66.6764 104.224 66.4751 103.537 66.0915C102.669 65.6437 101.953 64.9465 101.483 64.0895C101.013 63.2325 100.81 62.2547 100.899 61.2813C100.988 60.308 101.366 59.3835 101.984 58.6263C102.603 57.8691 103.433 57.3137 104.368 57.0314C105.304 56.749 106.303 56.7525 107.237 57.0414C108.171 57.3304 108.997 57.8916 109.61 58.6531C110.222 59.4146 110.594 60.3417 110.676 61.3157C110.759 62.2896 110.548 63.266 110.072 64.1197C109.649 64.8883 109.029 65.5303 108.275 65.9796C107.521 66.4289 106.662 66.6693 105.784 66.6761ZM106.062 57.6133C105.305 57.6205 104.563 57.8292 103.912 58.2179C103.262 58.6066 102.727 59.1614 102.362 59.8253C102.078 60.2941 101.891 60.8154 101.813 61.358C101.736 61.9005 101.768 62.4532 101.908 62.983C102.048 63.5129 102.294 64.009 102.63 64.4418C102.967 64.8746 103.387 65.2351 103.866 65.5019C104.345 65.7687 104.872 65.9363 105.417 65.9947C105.962 66.053 106.513 66.0009 107.038 65.8415C107.562 65.6822 108.049 65.4187 108.47 65.067C108.89 64.7152 109.235 64.2823 109.485 63.7942C110.038 62.8406 110.191 61.7062 109.91 60.6399C109.629 59.5736 108.936 58.6624 107.984 58.1062C107.395 57.7826 106.734 57.615 106.062 57.6196V57.6133Z" fill="#263238"/>
<path d="M88.9318 72.7715C88.9318 72.7715 90.3665 88.5715 89.9494 97.2141C89.5164 106.176 83.1585 123.872 83.1585 123.872L78.1025 123.764C78.1025 123.764 81.5785 104.289 81.4837 95.3718C81.3889 85.6454 80.4947 71.0809 80.4947 71.0809L88.9318 72.7715Z" fill="#263238"/>
<path opacity="0.2" d="M82.3243 75.1858C81.7461 74.5032 81.2278 75.1542 80.7917 76.4213C80.9719 79.8278 81.1899 84.4288 81.3321 88.8876C83.8001 85.1335 84.1856 77.3946 82.3243 75.1858Z" fill="black"/>
<path d="M77.48 123.976L83.4272 124.096L84.0623 122.121L77.8529 122.105L77.48 123.976Z" fill="#0059EF"/>
<path opacity="0.4" d="M77.48 123.976L83.4272 124.096L84.0623 122.121L77.8529 122.105L77.48 123.976Z" fill="white"/>
<path d="M56.9021 117.59L59.0193 119.423L63.8004 114.98L61.68 113.147L56.9021 117.59Z" fill="#FF8B7B"/>
<path d="M59.2058 119.51L57.6068 116.919C57.5765 116.871 57.5317 116.834 57.4789 116.813C57.4261 116.792 57.368 116.788 57.3129 116.802L54.8165 117.491C54.7572 117.505 54.702 117.533 54.6556 117.572C54.6092 117.612 54.573 117.662 54.5501 117.718C54.5271 117.774 54.5181 117.836 54.5238 117.896C54.5295 117.957 54.5497 118.015 54.5827 118.066C55.1768 118.999 56.0679 120.329 56.7947 121.514C57.6416 122.895 57.6352 122.873 58.6306 124.494C59.231 125.477 60.4287 125.205 60.2707 124.747C59.5502 122.655 59.3227 122.364 59.3669 120.206C59.3841 119.963 59.328 119.721 59.2058 119.51Z" fill="#263238"/>
<path opacity="0.2" d="M63.7972 114.98L61.3356 117.271L59.2152 115.438L61.68 113.147L63.7972 114.98Z" fill="black"/>
<path d="M59.408 120.756C59.2534 120.498 59.1243 120.225 59.0225 119.941C59.018 119.928 59.0178 119.913 59.0217 119.9C59.0257 119.886 59.0336 119.874 59.0446 119.865C59.0557 119.857 59.0689 119.853 59.0825 119.853C59.0961 119.853 59.1093 119.857 59.1204 119.865C59.2468 119.944 60.3497 120.646 60.3497 121.025C60.3497 121.06 60.3404 121.095 60.3227 121.125C60.3049 121.156 60.2793 121.181 60.2485 121.199C60.1974 121.233 60.1392 121.254 60.0783 121.262C60.0175 121.27 59.9557 121.263 59.8978 121.243C59.6856 121.139 59.5135 120.968 59.408 120.756ZM59.2215 120.083C59.4522 120.652 59.7145 121.031 59.9389 121.11C59.978 121.125 60.02 121.129 60.0613 121.124C60.1026 121.118 60.1419 121.103 60.1759 121.079C60.2106 121.056 60.2169 121.034 60.2169 121.019C60.2043 120.813 59.6481 120.377 59.2089 120.08L59.2215 120.083Z" fill="#0059EF"/>
<path d="M59.0162 119.95C59.013 119.937 59.013 119.922 59.0162 119.909C59.0176 119.897 59.0222 119.886 59.0294 119.876C59.0366 119.867 59.0463 119.86 59.0573 119.855C59.1047 119.836 60.2391 119.378 60.5299 119.982C60.6057 120.143 60.5551 120.231 60.5014 120.279C60.2581 120.484 59.3638 120.193 59.0447 119.963L59.0162 119.95ZM60.3782 120.004C60.1665 119.662 59.506 119.839 59.2248 119.931C59.5977 120.133 60.2613 120.298 60.4066 120.178C60.4066 120.178 60.4477 120.14 60.4066 120.039C60.3992 120.025 60.3896 120.014 60.3782 120.004Z" fill="#0059EF"/>
<path d="M83.8063 71.7316C83.8063 71.7316 81.1425 86.533 79.2338 94.9607C77.2525 103.727 63.4844 116.954 63.4844 116.954L59.6924 113.595C59.6924 113.595 69.7475 100.462 71.2074 91.6648C72.7874 82.0711 74.2379 69.804 74.2379 69.804L83.8063 71.7316Z" fill="#263238"/>
<path d="M58.9403 113.614L63.26 117.485L64.7294 116.25L60.1695 111.867L58.9403 113.614Z" fill="#0059EF"/>
<path opacity="0.4" d="M58.9403 113.614L63.26 117.485L64.7294 116.25L60.1695 111.867L58.9403 113.614Z" fill="white"/>
<path d="M93.555 49.0024C93.555 49.0024 95.135 57.9484 88.9319 72.7719L74.26 69.811C74.6139 67.5358 78.2479 56.8234 78.2163 45.7603C79.9079 45.7745 81.5967 45.898 83.2723 46.13C85.3764 46.4301 87.4613 46.8521 89.5165 47.394C90.9024 47.8244 92.2526 48.3622 93.555 49.0024Z" fill="#0059EF"/>
<path opacity="0.2" d="M90.8658 57.954C90.6667 60.8486 88.7297 63.1048 86.5714 62.9595C85.8569 62.9005 85.1822 62.606 84.6533 62.1221L85.2663 60.9276C85.6523 61.283 86.1463 61.4988 86.6693 61.5406C88.2493 61.6481 89.665 59.9985 89.8072 57.8813L90.8658 57.954Z" fill="#263238"/>
<path opacity="0.5" d="M90.8658 57.9539L89.8072 57.8813C89.8467 57.3273 89.7922 56.7707 89.6461 56.2349C89.5173 55.737 89.2907 55.2697 88.9793 54.8603L89.7346 53.8175C90.1606 54.3834 90.4709 55.0276 90.6478 55.7135C90.8417 56.4435 90.9153 57.2002 90.8658 57.9539Z" fill="white"/>
<path opacity="0.4" d="M89.744 53.817L88.9887 54.8598C88.7653 54.5639 88.4849 54.3157 88.164 54.1299C87.8681 53.9538 87.5367 53.8459 87.1938 53.8139L87.2918 52.395C87.7589 52.4303 88.2118 52.5719 88.6158 52.809C89.0546 53.0675 89.438 53.41 89.744 53.817Z" fill="#263238"/>
<path opacity="0.2" d="M87.2887 52.4081L87.1907 53.827C85.6107 53.7195 84.1982 55.3722 84.056 57.4894C83.9612 58.864 84.4225 60.1786 85.2663 60.9275L84.6532 62.122C83.4998 61.095 82.8678 59.3001 82.9974 57.4167C83.1933 54.5222 85.1304 52.2628 87.2887 52.4081Z" fill="white"/>
<path opacity="0.2" d="M77.755 53.015C77.6191 54.1273 77.4611 55.227 77.2905 56.273C78.5166 55.7042 80.1914 52.6927 80.0112 51.0337L77.755 53.015Z" fill="black"/>
<path d="M85.2758 39.2251C85.2758 41.3139 84.9155 45.0743 83.2407 46.1297C83.2407 46.1297 83.8064 48.4523 88.1292 50.0323C90.2496 49.0843 89.4849 47.3905 89.4849 47.3905C87.3519 46.4015 87.7437 44.7519 88.4516 43.2825L85.2758 39.2251Z" fill="#FF8B7B"/>
<path opacity="0.2" d="M86.584 40.8743L88.461 43.2664C88.2918 43.611 88.1523 43.9694 88.0439 44.3376C87.216 44.0406 86.2269 42.8651 86.3185 41.9487C86.3398 41.5772 86.4298 41.2129 86.584 40.8743Z" fill="black"/>
<path d="M91.4599 38.6177C91.8518 37.6697 91.9086 36.5827 91.1439 35.859C91.1913 35.227 91.659 34.5097 92.3068 33.9441C93.239 33.429 95.116 37.0156 91.4599 38.6177Z" fill="#263238"/>
<path d="M92.5564 35.5499C92.4725 35.5499 92.3922 35.5166 92.3329 35.4573C92.2737 35.398 92.2404 35.3177 92.2404 35.2339C92.2404 35.1501 92.2737 35.0697 92.3329 35.0104C92.3922 34.9512 92.4725 34.9179 92.5564 34.9179C92.6196 34.9179 94.0605 34.8357 94.525 33.1483C94.536 33.1082 94.5548 33.0707 94.5803 33.0379C94.6058 33.0052 94.6375 32.9777 94.6736 32.9572C94.7097 32.9366 94.7494 32.9234 94.7906 32.9182C94.8318 32.9131 94.8737 32.9161 94.9137 32.9271C94.9537 32.9381 94.9912 32.9568 95.024 32.9823C95.0568 33.0078 95.0843 33.0395 95.1048 33.0756C95.1253 33.1117 95.1386 33.1515 95.1437 33.1927C95.1489 33.2339 95.1459 33.2757 95.1349 33.3157C94.9992 33.9103 94.6788 34.4468 94.2196 34.8481C93.7604 35.2494 93.1859 35.4951 92.5785 35.5499H92.5564Z" fill="#263238"/>
<path d="M85.636 36.1533C85.2536 38.9056 84.8902 40.4983 85.9836 42.1731C87.6268 44.7011 91.2355 44.1196 92.43 41.5411C93.5075 39.2153 93.9499 35.1042 91.5072 33.4831C90.9703 33.1236 90.3505 32.9072 89.7065 32.8545C89.0625 32.8019 88.4157 32.9146 87.8275 33.1821C87.2394 33.4496 86.7293 33.863 86.3457 34.383C85.9622 34.903 85.7179 35.5123 85.636 36.1533Z" fill="#FF8B7B"/>
<path d="M85.557 38.5928C85.8758 38.6017 86.1932 38.6398 86.505 38.7065C86.5839 38.7251 86.666 38.7249 86.7447 38.7058C86.8235 38.6868 86.8966 38.6494 86.9582 38.5967C87.0197 38.5441 87.068 38.4777 87.0991 38.4028C87.1302 38.328 87.1432 38.2469 87.137 38.1662C87.0865 37.4931 87.2698 36.8074 87.886 36.5103C87.9476 36.0049 87.8217 35.4944 87.532 35.0757C87.5084 35.0215 87.5004 34.9619 87.509 34.9034C87.5175 34.845 87.5423 34.7901 87.5805 34.7451C87.6186 34.7 87.6687 34.6665 87.7249 34.6484C87.7811 34.6303 87.8413 34.6284 87.8986 34.6428C89.27 35.1736 91.3398 36.0079 92.3795 35.4675C93.7288 34.766 95.274 32.2633 93.2358 32.0895C92.2594 32.0105 92.37 31.4575 91.6337 30.9519C90.8974 30.4463 89.1057 30.5126 87.7374 31.1889C86.3692 31.8651 84.2614 30.6106 83.4588 31.6092C82.8615 32.3391 83.2344 33.3756 83.2344 33.3756C83.2344 33.3756 82.0621 33.5336 81.863 35.7456C81.7145 37.4014 84.3689 40.5362 85.1968 40.8711C85.6771 39.1584 85.557 38.5928 85.557 38.5928Z" fill="#263238"/>
<path d="M83.6231 34.1588C83.5578 34.1585 83.4941 34.1381 83.4409 34.1001C83.3877 34.0622 83.3476 34.0088 83.326 33.9471C83.2872 33.8292 83.2236 33.721 83.1394 33.6298C83.0553 33.5385 82.9525 33.4664 82.8382 33.4182C82.7238 33.37 82.6004 33.3469 82.4764 33.3503C82.3523 33.3538 82.2304 33.3838 82.1189 33.4383C82.0406 33.4621 81.9562 33.4545 81.8834 33.4173C81.8105 33.3801 81.755 33.3161 81.7284 33.2387C81.7018 33.1613 81.7062 33.0767 81.7407 33.0025C81.7752 32.9284 81.8372 32.8705 81.9135 32.8411C82.1121 32.7612 82.3249 32.7226 82.539 32.7275C82.753 32.7324 82.9638 32.7807 83.1586 32.8695C83.5106 33.0581 83.7824 33.368 83.9233 33.7417C83.9505 33.8209 83.9451 33.9076 83.9084 33.9829C83.8716 34.0581 83.8065 34.1157 83.7274 34.143C83.6937 34.1541 83.6585 34.1594 83.6231 34.1588Z" fill="#263238"/>
<path d="M89.6208 37.7455C89.5765 37.9667 89.6555 38.1689 89.8009 38.1974C89.9463 38.2258 90.1011 38.071 90.1453 37.8498C90.1896 37.6286 90.1074 37.4263 89.9621 37.3979C89.8167 37.3695 89.665 37.5243 89.6208 37.7455Z" fill="#263238"/>
<path d="M92.1234 38.2515C92.0792 38.4727 92.1614 38.675 92.3036 38.7034C92.4458 38.7318 92.6038 38.577 92.648 38.3558C92.6922 38.1346 92.6101 37.9324 92.4679 37.9008C92.3257 37.8692 92.1677 38.0272 92.1234 38.2515Z" fill="#263238"/>
<path d="M91.3051 38.2013C91.4332 38.9314 91.6608 39.6406 91.9813 40.309C91.5168 40.5934 90.8848 40.309 90.8848 40.309L91.3051 38.2013Z" fill="#FF5652"/>
<path d="M90.1168 40.7634C89.818 40.7112 89.5361 40.5882 89.2947 40.4045C89.0534 40.2209 88.8596 39.982 88.7296 39.7079C88.7232 39.692 88.7233 39.6742 88.7298 39.6583C88.7362 39.6423 88.7486 39.6296 88.7644 39.6226C88.7811 39.6163 88.7997 39.6167 88.8162 39.6238C88.8327 39.6309 88.8458 39.644 88.8528 39.6605C88.9772 39.9125 89.159 40.1317 89.3834 40.3008C89.6078 40.4698 89.8688 40.5838 90.1453 40.6338C90.1624 40.6376 90.1774 40.648 90.1869 40.6628C90.1964 40.6777 90.1996 40.6956 90.1958 40.7128C90.192 40.73 90.1816 40.745 90.1668 40.7544C90.152 40.7639 90.134 40.7671 90.1168 40.7634Z" fill="#263238"/>
<path d="M90.1959 36.4758C90.2202 36.4933 90.2371 36.5192 90.2433 36.5485C90.2521 36.582 90.2474 36.6176 90.2303 36.6477C90.2132 36.6778 90.185 36.7001 90.1517 36.7097C89.9499 36.7705 89.7364 36.7822 89.5291 36.7437C89.3219 36.7052 89.1269 36.6177 88.9603 36.4885C88.9473 36.4768 88.9366 36.4628 88.929 36.447C88.9214 36.4313 88.9169 36.4142 88.9159 36.3967C88.9149 36.3793 88.9173 36.3618 88.923 36.3453C88.9287 36.3287 88.9377 36.3135 88.9493 36.3004C88.9609 36.2874 88.975 36.2767 88.9907 36.2691C89.0065 36.2615 89.0235 36.257 89.041 36.256C89.0585 36.2549 89.076 36.2574 89.0925 36.2631C89.109 36.2688 89.1242 36.2778 89.1373 36.2894C89.2704 36.3911 89.4261 36.4592 89.5912 36.4878C89.7562 36.5164 89.9257 36.5047 90.0853 36.4537C90.1236 36.4462 90.1634 36.4542 90.1959 36.4758Z" fill="#263238"/>
<path d="M93.536 37.0884C93.5102 37.0899 93.4845 37.0834 93.4625 37.0699C93.4404 37.0563 93.4231 37.0363 93.4128 37.0126C93.345 36.8604 93.2426 36.7263 93.1136 36.6209C92.9846 36.5155 92.8328 36.4419 92.6702 36.4059C92.6354 36.4011 92.604 36.3829 92.5827 36.3551C92.5613 36.3272 92.5519 36.2921 92.5564 36.2573C92.5619 36.2224 92.5808 36.1909 92.6091 36.1696C92.6374 36.1484 92.673 36.139 92.7081 36.1436C92.9148 36.1849 93.1087 36.275 93.2736 36.4064C93.4385 36.5377 93.5696 36.7066 93.6561 36.8988C93.6636 36.9146 93.6679 36.9317 93.6688 36.9491C93.6696 36.9665 93.6671 36.984 93.6612 37.0004C93.6553 37.0168 93.6463 37.032 93.6345 37.0449C93.6228 37.0578 93.6087 37.0683 93.5929 37.0758C93.5753 37.0846 93.5557 37.0889 93.536 37.0884Z" fill="#263238"/>
<path d="M80.4189 50.642C79.7616 51.3277 79.0506 52.064 78.3838 52.794C77.7171 53.5239 77.0345 54.2634 76.3835 55.006C75.0813 56.4695 73.8578 58.0011 72.7179 59.5943L72.3198 60.1726C72.2375 60.2876 72.1666 60.4103 72.1081 60.5391C71.974 60.8406 71.8846 61.1599 71.8426 61.4871C71.7588 62.3115 71.81 63.144 71.9943 63.9519C72.4203 65.8143 73.0708 67.6182 73.9314 69.3239L72.1713 70.55C71.7921 70.1108 71.4729 69.7 71.1537 69.2544C70.8346 68.8088 70.5217 68.3601 70.2563 67.8893C69.6754 66.9325 69.1906 65.9206 68.809 64.8683C68.3847 63.7161 68.1706 62.497 68.177 61.2691C68.185 60.5689 68.3001 59.8741 68.5183 59.2088C68.638 58.8567 68.7892 58.5161 68.9702 58.1912L69.3905 57.4644C69.6654 56.9873 69.9593 56.5417 70.25 56.0835C70.5407 55.6253 70.8535 55.1924 71.1695 54.7626C71.7857 53.8873 72.4335 53.0562 73.1098 52.2346C73.786 51.413 74.4686 50.6199 75.1796 49.8425C75.8906 49.0652 76.5984 48.3099 77.3916 47.5515L80.4189 50.642Z" fill="#FF8B7B"/>
<path d="M78.2005 45.7597C75.524 45.8577 71.5392 53.2426 71.5392 53.2426C72.0638 54.5066 74.3548 56.5037 75.5714 56.8292C75.5714 56.8292 78.7535 54.8036 80.4852 51.808C82.299 48.6638 81.0666 45.6554 78.2005 45.7597Z" fill="#0059EF"/>
<path d="M73.233 68.7239L76.1908 69.2769L73.8303 71.9439C73.8303 71.9439 71.8078 71.0496 71.8047 69.9563L73.233 68.7239Z" fill="#FF8B7B"/>
<path d="M77.0345 72.0792L76.4309 72.7112C76.2243 72.9235 75.945 73.0499 75.6491 73.0651C75.3533 73.0804 75.0625 72.9833 74.8351 72.7934L73.8303 71.956L76.1908 69.2889L77.1388 70.5719C77.3007 70.7956 77.379 71.069 77.3599 71.3445C77.3409 71.6199 77.2257 71.88 77.0345 72.0792Z" fill="#FF8B7B"/>
<path d="M84.056 38.0618C84.0502 38.4082 84.1128 38.7523 84.2403 39.0744C84.3677 39.3965 84.5574 39.6903 84.7986 39.9389C85.4464 40.6025 86.2333 40.1317 86.4355 39.2784C86.6219 38.5106 86.505 37.2402 85.6676 36.899C84.8302 36.5577 84.0876 37.2055 84.056 38.0618Z" fill="#FF8B7B"/>
<path d="M29.0783 104.432H24.2498C23.5064 104.432 22.9037 105.034 22.9037 105.778V114.275C22.9037 115.019 23.5064 115.621 24.2498 115.621H29.0783C29.8218 115.621 30.4245 115.019 30.4245 114.275V105.778C30.4245 105.034 29.8218 104.432 29.0783 104.432Z" fill="#0059EF"/>
<path d="M37.8031 98.4752H32.9746C32.2312 98.4752 31.6285 99.0779 31.6285 99.8214V114.272C31.6285 115.016 32.2312 115.618 32.9746 115.618H37.8031C38.5466 115.618 39.1493 115.016 39.1493 114.272V99.8214C39.1493 99.0779 38.5466 98.4752 37.8031 98.4752Z" fill="#0059EF"/>
<path d="M46.5247 101.06H41.6962C40.9527 101.06 40.35 101.662 40.35 102.406V114.275C40.35 115.018 40.9527 115.621 41.6962 115.621H46.5247C47.2681 115.621 47.8708 115.018 47.8708 114.275V102.406C47.8708 101.662 47.2681 101.06 46.5247 101.06Z" fill="#0059EF"/>
<path d="M55.2463 97.3718H50.4178C49.6744 97.3718 49.0717 97.9745 49.0717 98.718V114.275C49.0717 115.018 49.6744 115.621 50.4178 115.621H55.2463C55.9898 115.621 56.5925 115.018 56.5925 114.275V98.718C56.5925 97.9745 55.9898 97.3718 55.2463 97.3718Z" fill="#0059EF"/>
<path d="M63.9678 93.4766H59.1394C58.3959 93.4766 57.7932 94.0793 57.7932 94.8227V114.276C57.7932 115.019 58.3959 115.622 59.1394 115.622H63.9678C64.7113 115.622 65.314 115.019 65.314 114.276V94.8227C65.314 94.0793 64.7113 93.4766 63.9678 93.4766Z" fill="#0059EF"/>
<path d="M72.6926 89.3685H67.8642C67.1207 89.3685 66.518 89.9712 66.518 90.7147V114.276C66.518 115.019 67.1207 115.622 67.8642 115.622H72.6926C73.4361 115.622 74.0388 115.019 74.0388 114.276V90.7147C74.0388 89.9712 73.4361 89.3685 72.6926 89.3685Z" fill="#0059EF"/>
<path d="M81.4143 95.5837H76.5858C75.8423 95.5837 75.2396 96.1864 75.2396 96.9299V114.275C75.2396 115.019 75.8423 115.621 76.5858 115.621H81.4143C82.1577 115.621 82.7604 115.019 82.7604 114.275V96.9299C82.7604 96.1864 82.1577 95.5837 81.4143 95.5837Z" fill="#0059EF"/>
<path d="M90.1358 87.5764H85.3073C84.5639 87.5764 83.9612 88.1791 83.9612 88.9226V114.275C83.9612 115.019 84.5639 115.621 85.3073 115.621H90.1358C90.8793 115.621 91.482 115.019 91.482 114.275V88.9226C91.482 88.1791 90.8793 87.5764 90.1358 87.5764Z" fill="#0059EF"/>
<path d="M98.8574 85.1559H94.029C93.2855 85.1559 92.6828 85.7586 92.6828 86.502V114.275C92.6828 115.019 93.2855 115.621 94.029 115.621H98.8574C99.6009 115.621 100.204 115.019 100.204 114.275V86.502C100.204 85.7586 99.6009 85.1559 98.8574 85.1559Z" fill="#0059EF"/>
<path d="M107.582 86.6282H102.754C102.01 86.6282 101.408 87.2309 101.408 87.9743V114.275C101.408 115.018 102.01 115.621 102.754 115.621H107.582C108.326 115.621 108.928 115.018 108.928 114.275V87.9743C108.928 87.2309 108.326 86.6282 107.582 86.6282Z" fill="#0059EF"/>
<path d="M116.304 78.0076H111.475C110.732 78.0076 110.129 78.6103 110.129 79.3537V114.275C110.129 115.018 110.732 115.621 111.475 115.621H116.304C117.047 115.621 117.65 115.018 117.65 114.275V79.3537C117.65 78.6103 117.047 78.0076 116.304 78.0076Z" fill="#0059EF"/>
<path d="M125.025 81.5878H120.197C119.453 81.5878 118.851 82.1905 118.851 82.9339V114.275C118.851 115.018 119.453 115.621 120.197 115.621H125.025C125.769 115.621 126.372 115.018 126.372 114.275V82.9339C126.372 82.1905 125.769 81.5878 125.025 81.5878Z" fill="#0059EF"/>
<path d="M133.747 72.8635H128.918C128.175 72.8635 127.572 73.4662 127.572 74.2097V114.275C127.572 115.019 128.175 115.622 128.918 115.622H133.747C134.49 115.622 135.093 115.019 135.093 114.275V74.2097C135.093 73.4662 134.49 72.8635 133.747 72.8635Z" fill="#0059EF"/>
<path d="M26.6673 109.415C26.642 109.412 26.6178 109.404 26.5964 109.39C26.575 109.376 26.5571 109.358 26.544 109.336C26.52 109.302 26.5102 109.26 26.5167 109.218C26.5232 109.177 26.5455 109.14 26.5788 109.115L26.9612 108.837C26.9953 108.813 27.0375 108.803 27.0788 108.809C27.12 108.816 27.1572 108.838 27.1823 108.872C27.1951 108.888 27.2043 108.907 27.2094 108.927C27.2145 108.948 27.2155 108.969 27.2123 108.99C27.209 109.01 27.2016 109.03 27.1905 109.048C27.1794 109.065 27.1648 109.081 27.1476 109.093L26.7652 109.371C26.7383 109.396 26.7039 109.411 26.6673 109.415Z" fill="#263238"/>
<path d="M28.3325 108.201C28.3071 108.202 28.2821 108.196 28.2595 108.184C28.2369 108.173 28.2175 108.156 28.203 108.135C28.179 108.101 28.1692 108.059 28.1757 108.017C28.1821 107.976 28.2044 107.939 28.2377 107.914L29.0088 107.354C29.0256 107.342 29.0446 107.333 29.0648 107.329C29.0851 107.324 29.106 107.323 29.1266 107.326C29.1471 107.329 29.1668 107.337 29.1846 107.347C29.2023 107.358 29.2177 107.372 29.23 107.389C29.2422 107.406 29.251 107.425 29.2559 107.445C29.2608 107.466 29.2616 107.487 29.2584 107.507C29.2552 107.528 29.2479 107.547 29.2371 107.565C29.2262 107.583 29.212 107.598 29.1952 107.61L28.44 108.17C28.425 108.182 28.4079 108.191 28.3894 108.196C28.371 108.202 28.3516 108.203 28.3325 108.201ZM30.3834 106.707C30.3585 106.707 30.3341 106.7 30.3121 106.689C30.2901 106.677 30.2712 106.661 30.257 106.64C30.2331 106.607 30.2234 106.565 30.2299 106.524C30.2364 106.483 30.2586 106.447 30.2917 106.422L31.0628 105.86C31.0965 105.836 31.1381 105.826 31.1789 105.833C31.2196 105.839 31.2562 105.861 31.2808 105.895C31.2935 105.911 31.3027 105.93 31.3079 105.951C31.313 105.971 31.314 105.992 31.3107 106.013C31.3075 106.033 31.3001 106.053 31.289 106.071C31.2778 106.089 31.2632 106.104 31.246 106.116L30.4782 106.675C30.4512 106.696 30.4177 106.707 30.3834 106.707ZM32.4374 105.212C32.4124 105.212 32.3879 105.206 32.3654 105.195C32.343 105.184 32.3233 105.168 32.3078 105.149C32.2838 105.115 32.274 105.072 32.2805 105.031C32.287 104.99 32.3092 104.953 32.3426 104.928L33.1136 104.365C33.1476 104.34 33.1899 104.33 33.2314 104.337C33.2729 104.343 33.3101 104.366 33.3348 104.4C33.3595 104.434 33.3698 104.476 33.3632 104.518C33.3567 104.559 33.334 104.596 33.3 104.621L32.529 105.184C32.5039 105.208 32.4718 105.223 32.4374 105.228V105.212ZM34.4882 103.717C34.4553 103.717 34.4234 103.706 34.397 103.686C34.3706 103.666 34.351 103.639 34.3409 103.608C34.3309 103.576 34.3308 103.543 34.3408 103.511C34.3507 103.48 34.3702 103.453 34.3966 103.433L35.1676 102.874C35.1842 102.862 35.203 102.853 35.223 102.848C35.2429 102.843 35.2636 102.843 35.2838 102.846C35.3041 102.849 35.3235 102.856 35.341 102.867C35.3584 102.878 35.3736 102.892 35.3856 102.908C35.3977 102.925 35.4063 102.944 35.4111 102.964C35.4159 102.984 35.4167 103.004 35.4134 103.025C35.4102 103.045 35.403 103.064 35.3923 103.082C35.3816 103.099 35.3675 103.114 35.3509 103.126L34.583 103.689C34.555 103.708 34.522 103.718 34.4882 103.717ZM36.5422 102.226C36.517 102.225 36.4921 102.219 36.4697 102.208C36.4472 102.196 36.4277 102.18 36.4126 102.159C36.4005 102.142 36.3919 102.123 36.3872 102.103C36.3826 102.083 36.382 102.061 36.3855 102.041C36.389 102.02 36.3966 102.001 36.4078 101.983C36.4189 101.965 36.4335 101.95 36.4506 101.938L37.2184 101.379C37.2353 101.367 37.2543 101.358 37.2745 101.353C37.2947 101.348 37.3157 101.347 37.3362 101.35C37.3568 101.354 37.3765 101.361 37.3942 101.372C37.412 101.383 37.4274 101.397 37.4396 101.414C37.4519 101.43 37.4607 101.45 37.4656 101.47C37.4705 101.49 37.4713 101.511 37.4681 101.531C37.4649 101.552 37.4576 101.572 37.4468 101.589C37.4359 101.607 37.4217 101.623 37.4049 101.635L36.6338 102.194C36.6071 102.214 36.5752 102.225 36.5422 102.226ZM38.5962 100.731C38.5708 100.732 38.5457 100.726 38.5231 100.714C38.5006 100.703 38.4812 100.686 38.4666 100.665C38.4426 100.631 38.4329 100.588 38.4393 100.547C38.4458 100.506 38.4681 100.469 38.5014 100.444L39.2724 99.8842C39.3061 99.8604 39.3478 99.8507 39.3885 99.8572C39.4293 99.8637 39.4659 99.8859 39.4905 99.919C39.5032 99.9356 39.5124 99.9547 39.5175 99.9749C39.5227 99.9952 39.5237 100.016 39.5204 100.037C39.5172 100.058 39.5097 100.077 39.4986 100.095C39.4875 100.113 39.4729 100.128 39.4557 100.14L38.6878 100.7C38.6618 100.72 38.6295 100.731 38.5962 100.731ZM40.647 99.2364C40.6222 99.2366 40.5976 99.2306 40.5756 99.219C40.5535 99.2075 40.5347 99.1906 40.5206 99.1701C40.5079 99.1534 40.4987 99.1344 40.4936 99.1141C40.4885 99.0938 40.4875 99.0727 40.4907 99.052C40.494 99.0314 40.5014 99.0116 40.5125 98.9938C40.5236 98.9761 40.5382 98.9608 40.5554 98.9489L41.3233 98.3895C41.3572 98.3648 41.3996 98.3546 41.4411 98.3611C41.4826 98.3676 41.5198 98.3904 41.5445 98.4243C41.5692 98.4582 41.5794 98.5006 41.5729 98.5421C41.5664 98.5836 41.5437 98.6208 41.5097 98.6455L40.7387 99.2048C40.7112 99.2213 40.6789 99.228 40.647 99.2238V99.2364ZM42.701 97.7417C42.6679 97.7417 42.6356 97.7313 42.6087 97.7119C42.5818 97.6925 42.5616 97.6652 42.5512 97.6337C42.5407 97.6022 42.5403 97.5683 42.5502 97.5366C42.5601 97.505 42.5797 97.4772 42.6062 97.4573L43.3773 96.8949C43.4112 96.8701 43.4536 96.8599 43.4951 96.8664C43.5366 96.8729 43.5738 96.8957 43.5985 96.9296C43.6232 96.9636 43.6334 97.0059 43.6269 97.0474C43.6204 97.0889 43.5977 97.1261 43.5637 97.1508L42.7927 97.7101C42.7667 97.7308 42.7343 97.742 42.701 97.7417ZM44.7519 96.247C44.719 96.2464 44.6871 96.2355 44.6607 96.2159C44.6343 96.1962 44.6147 96.1689 44.6046 96.1375C44.5945 96.1062 44.5945 96.0725 44.6044 96.0412C44.6144 96.0098 44.6339 95.9824 44.6602 95.9626L45.4281 95.4033C45.4448 95.3906 45.4638 95.3814 45.4841 95.3763C45.5044 95.3711 45.5255 95.3702 45.5462 95.3734C45.5668 95.3767 45.5866 95.3841 45.6044 95.3952C45.6221 95.4063 45.6374 95.4209 45.6493 95.4381C45.6732 95.4718 45.6828 95.5134 45.6764 95.5542C45.6699 95.5949 45.6477 95.6315 45.6146 95.6561L44.8435 96.2186C44.8167 96.2374 44.7846 96.2473 44.7519 96.247ZM46.8059 94.7524C46.7727 94.7524 46.7404 94.7419 46.7135 94.7225C46.6866 94.7031 46.6665 94.6758 46.656 94.6443C46.6455 94.6129 46.6452 94.5789 46.6551 94.5473C46.665 94.5156 46.6846 94.4879 46.7111 94.468L47.4821 93.9086C47.4988 93.8959 47.5178 93.8867 47.5381 93.8816C47.5584 93.8764 47.5795 93.8755 47.6002 93.8787C47.6208 93.882 47.6406 93.8894 47.6584 93.9005C47.6761 93.9116 47.6914 93.9262 47.7033 93.9434C47.7273 93.9776 47.7371 94.0198 47.7306 94.061C47.7241 94.1023 47.7019 94.1394 47.6686 94.1646L46.8975 94.7239C46.8705 94.7423 46.8386 94.7522 46.8059 94.7524ZM48.8567 93.2608C48.8319 93.2605 48.8076 93.2543 48.7856 93.2428C48.7636 93.2312 48.7447 93.2147 48.7303 93.1945C48.7176 93.1779 48.7084 93.1588 48.7033 93.1385C48.6981 93.1182 48.6972 93.0971 48.7004 93.0764C48.7037 93.0558 48.7111 93.036 48.7222 93.0182C48.7333 93.0005 48.7479 92.9852 48.7651 92.9733L49.533 92.414C49.5498 92.4017 49.5688 92.3928 49.589 92.3879C49.6092 92.383 49.6302 92.3822 49.6508 92.3854C49.6713 92.3886 49.6911 92.3959 49.7088 92.4067C49.7265 92.4176 49.742 92.4319 49.7542 92.4487C49.7782 92.4829 49.788 92.5251 49.7815 92.5663C49.775 92.6076 49.7527 92.6447 49.7194 92.6699L48.9515 93.2198C48.9246 93.2424 48.8917 93.2567 48.8567 93.2608ZM50.9107 91.7662C50.8853 91.7666 50.8603 91.7607 50.8377 91.7492C50.8151 91.7376 50.7957 91.7206 50.7812 91.6998C50.7572 91.6656 50.7474 91.6234 50.7539 91.5822C50.7603 91.5409 50.7826 91.5038 50.8159 91.4786L51.587 90.9193C51.6038 90.907 51.6228 90.8982 51.643 90.8933C51.6633 90.8885 51.6842 90.8876 51.7048 90.8908C51.7253 90.8941 51.745 90.9013 51.7628 90.9122C51.7805 90.923 51.7959 90.9372 51.8082 90.954C51.8204 90.9708 51.8292 90.9899 51.8341 91.0101C51.839 91.0303 51.8398 91.0513 51.8366 91.0718C51.8334 91.0924 51.8261 91.1121 51.8153 91.1298C51.8044 91.1476 51.7902 91.163 51.7734 91.1752L51.0024 91.7346C50.9763 91.7553 50.944 91.7664 50.9107 91.7662ZM52.9616 90.2715C52.9367 90.2714 52.9123 90.2653 52.8903 90.2537C52.8683 90.2422 52.8494 90.2255 52.8352 90.2051C52.8225 90.1887 52.8134 90.17 52.8083 90.1499C52.8032 90.1299 52.8022 90.109 52.8055 90.0886C52.8087 90.0682 52.8161 90.0486 52.8272 90.0312C52.8383 90.0137 52.8528 89.9987 52.8699 89.9871L53.6378 89.4246C53.6718 89.3999 53.7141 89.3896 53.7556 89.3962C53.7971 89.4027 53.8343 89.4254 53.859 89.4593C53.8837 89.4933 53.894 89.5357 53.8874 89.5771C53.8809 89.6186 53.8582 89.6558 53.8242 89.6805L53.0564 90.2399C53.0291 90.2606 52.9958 90.2717 52.9616 90.2715ZM55.0156 88.7768C54.9906 88.777 54.9658 88.7714 54.9433 88.7605C54.9208 88.7495 54.9012 88.7334 54.886 88.7136C54.862 88.6794 54.8522 88.6372 54.8587 88.596C54.8652 88.5547 54.8874 88.5176 54.9208 88.4924L55.6918 87.9299C55.7258 87.9052 55.7681 87.8949 55.8096 87.9015C55.8511 87.908 55.8883 87.9307 55.913 87.9647C55.9377 87.9986 55.948 88.041 55.9414 88.0825C55.9349 88.1239 55.9122 88.1611 55.8782 88.1859L55.1072 88.7483C55.0802 88.7667 55.0483 88.7766 55.0156 88.7768ZM57.0664 87.2821C57.0419 87.2819 57.0178 87.276 56.9959 87.2651C56.974 87.2541 56.9549 87.2383 56.94 87.2189C56.9277 87.2021 56.9189 87.1831 56.914 87.1628C56.9091 87.1426 56.9082 87.1216 56.9114 87.1011C56.9147 87.0805 56.9219 87.0608 56.9328 87.0431C56.9437 87.0253 56.9579 87.0099 56.9748 86.9977L57.7426 86.4384C57.759 86.4233 57.7783 86.4119 57.7993 86.4048C57.8204 86.3977 57.8427 86.3951 57.8648 86.3973C57.8869 86.3994 57.9083 86.4061 57.9276 86.4171C57.9469 86.428 57.9637 86.4429 57.9769 86.4608C57.9901 86.4786 57.9993 86.4991 58.0041 86.5208C58.0088 86.5425 58.009 86.5649 58.0044 86.5866C57.9999 86.6084 57.9909 86.6289 57.9779 86.6469C57.9649 86.665 57.9483 86.68 57.9291 86.6912L57.1612 87.2537C57.133 87.2721 57.1001 87.282 57.0664 87.2821ZM59.1204 85.7906C59.0952 85.7902 59.0703 85.784 59.0479 85.7725C59.0254 85.761 59.0059 85.7445 58.9908 85.7242C58.9668 85.69 58.9571 85.6479 58.9635 85.6066C58.97 85.5653 58.9923 85.5282 59.0256 85.503L59.7966 84.9437C59.8134 84.9314 59.8325 84.9226 59.8527 84.9177C59.8729 84.9128 59.8939 84.9119 59.9145 84.9151C59.935 84.9184 59.9547 84.9256 59.9725 84.9365C59.9902 84.9473 60.0056 84.9616 60.0178 84.9785C60.0418 85.0126 60.0516 85.0548 60.0452 85.0961C60.0387 85.1373 60.0164 85.1745 59.9831 85.1997L59.212 85.759C59.1853 85.7783 59.1534 85.7893 59.1204 85.7906Z" fill="#263238"/>
<path d="M61.1713 84.296C61.1466 84.2951 61.1224 84.2887 61.1005 84.2772C61.0786 84.2657 61.0596 84.2494 61.0449 84.2296C61.0326 84.2128 61.0238 84.1938 61.0189 84.1735C61.0139 84.1533 61.0131 84.1323 61.0163 84.1118C61.0196 84.0912 61.0268 84.0715 61.0377 84.0538C61.0485 84.036 61.0628 84.0206 61.0796 84.0084L61.462 83.7303C61.4808 83.7164 61.5025 83.7068 61.5255 83.7024C61.5485 83.6981 61.5721 83.699 61.5947 83.705L62.0529 83.822C62.0948 83.8324 62.1309 83.8591 62.1531 83.8962C62.1753 83.9332 62.1819 83.9776 62.1714 84.0195C62.1609 84.0614 62.1343 84.0974 62.0972 84.1196C62.0602 84.1418 62.0158 84.1484 61.9739 84.138L61.5884 84.04L61.2724 84.2738C61.2418 84.2915 61.2065 84.2992 61.1713 84.296Z" fill="#263238"/>
<path d="M96.4305 93.0179H96.4053L95.5078 92.7872C95.4659 92.7768 95.4299 92.7501 95.4077 92.713C95.3855 92.676 95.3788 92.6317 95.3893 92.5897C95.3998 92.5478 95.4265 92.5118 95.4635 92.4896C95.5006 92.4674 95.5449 92.4608 95.5868 92.4712L96.459 92.6956C96.4857 92.696 96.5119 92.7031 96.5351 92.7164C96.5583 92.7297 96.5778 92.7486 96.5917 92.7714C96.6031 92.788 96.611 92.8067 96.6147 92.8265C96.6185 92.8462 96.6182 92.8665 96.6137 92.8861C96.6093 92.9057 96.6008 92.9242 96.5889 92.9403C96.5769 92.9565 96.5617 92.97 96.5443 92.98C96.5098 93.0012 96.4709 93.0141 96.4305 93.0179ZM94.01 92.3859H93.9689L93.0462 92.1489C93.0254 92.1437 93.0059 92.1345 92.9887 92.1218C92.9715 92.1091 92.957 92.0931 92.946 92.0747C92.935 92.0564 92.9277 92.0361 92.9246 92.0149C92.9214 91.9937 92.9225 91.9722 92.9277 91.9514C92.9329 91.9307 92.9421 91.9111 92.9548 91.894C92.9676 91.8768 92.9836 91.8623 93.0019 91.8513C93.0202 91.8403 93.0406 91.833 93.0617 91.8298C93.0829 91.8267 93.1044 91.8277 93.1252 91.8329L94.0479 92.0699C94.0898 92.075 94.128 92.0964 94.1541 92.1296C94.1802 92.1628 94.192 92.205 94.1869 92.2469C94.1819 92.2888 94.1604 92.327 94.1273 92.3531C94.0941 92.3791 94.0519 92.3909 94.01 92.3859ZM97.8462 92.2121C97.8177 92.2126 97.7897 92.2051 97.7651 92.1906C97.7406 92.1761 97.7206 92.1551 97.7072 92.13C97.6875 92.0933 97.6828 92.0505 97.694 92.0105C97.7052 91.9704 97.7314 91.9362 97.7672 91.9151L98.592 91.4411C98.6289 91.4205 98.6725 91.4152 98.7133 91.4264C98.7541 91.4377 98.7888 91.4645 98.81 91.5011C98.8305 91.5376 98.8357 91.5807 98.8244 91.621C98.8132 91.6613 98.7864 91.6954 98.75 91.716L97.9252 92.19C97.9014 92.2054 97.8744 92.2151 97.8462 92.2184V92.2121ZM91.5483 91.7508H91.5073L90.5845 91.5138C90.5426 91.5033 90.5066 91.4766 90.4844 91.4396C90.4622 91.4025 90.4556 91.3582 90.466 91.3163C90.4765 91.2744 90.5032 91.2383 90.5403 91.2161C90.5773 91.1939 90.6216 91.1873 90.6635 91.1978L91.5863 91.4348C91.6282 91.4398 91.6664 91.4613 91.6924 91.4945C91.7185 91.5276 91.7303 91.5698 91.7253 91.6117C91.7203 91.6536 91.6988 91.6918 91.6656 91.7179C91.6324 91.744 91.5903 91.7558 91.5483 91.7508ZM89.0867 91.1188H89.0456L88.1229 90.8818C88.0827 90.8706 88.0483 90.8443 88.0271 90.8084C88.0059 90.7724 87.9995 90.7296 88.0092 90.689C88.0143 90.6689 88.0234 90.6499 88.0359 90.6333C88.0484 90.6167 88.064 90.6027 88.0819 90.5921C88.0998 90.5815 88.1196 90.5746 88.1402 90.5717C88.1608 90.5688 88.1818 90.57 88.2019 90.5752L89.1246 90.8122C89.1665 90.8173 89.2047 90.8387 89.2308 90.8719C89.2569 90.9051 89.2687 90.9473 89.2637 90.9892C89.2586 91.0311 89.2372 91.0693 89.204 91.0954C89.1708 91.1214 89.1286 91.1333 89.0867 91.1282V91.1188ZM100.052 90.9513C100.023 90.9517 99.9954 90.9443 99.9708 90.9298C99.9463 90.9153 99.9262 90.8943 99.9129 90.8691C99.8924 90.8327 99.8872 90.7896 99.8985 90.7493C99.9097 90.709 99.9365 90.6748 99.9729 90.6542L100.798 90.1802C100.816 90.1696 100.836 90.1627 100.857 90.16C100.878 90.1573 100.899 90.1587 100.919 90.1643C100.94 90.1699 100.959 90.1795 100.975 90.1926C100.992 90.2056 101.006 90.2218 101.016 90.2403C101.035 90.2769 101.04 90.3197 101.029 90.3598C101.018 90.3998 100.991 90.434 100.956 90.4552L100.128 90.9292C100.105 90.9438 100.079 90.9525 100.052 90.9544V90.9513ZM86.6251 90.4836H86.5872L85.6644 90.2466C85.6443 90.2414 85.6254 90.2324 85.6087 90.2199C85.5921 90.2074 85.5781 90.1918 85.5675 90.1738C85.557 90.1559 85.55 90.1361 85.5471 90.1155C85.5442 90.0949 85.5454 90.074 85.5507 90.0539C85.5554 90.0335 85.5643 90.0143 85.5767 89.9974C85.589 89.9806 85.6047 89.9664 85.6227 89.9558C85.6408 89.9451 85.6607 89.9383 85.6815 89.9356C85.7022 89.9329 85.7233 89.9344 85.7434 89.9401L86.6662 90.1771C86.6869 90.1798 86.7069 90.1865 86.725 90.197C86.7432 90.2074 86.7591 90.2213 86.7719 90.2379C86.7846 90.2545 86.794 90.2734 86.7994 90.2936C86.8049 90.3138 86.8063 90.3349 86.8036 90.3556C86.8009 90.3764 86.7942 90.3964 86.7837 90.4145C86.7733 90.4327 86.7594 90.4486 86.7428 90.4613C86.7262 90.4741 86.7073 90.4835 86.6871 90.4889C86.6669 90.4944 86.6458 90.4958 86.6251 90.4931V90.4836ZM84.1634 89.8516H84.1255L83.2028 89.6146C83.1609 89.6041 83.1249 89.5774 83.1026 89.5404C83.0804 89.5034 83.0738 89.459 83.0843 89.4171C83.0948 89.3752 83.1215 89.3392 83.1585 89.317C83.1955 89.2947 83.2399 89.2881 83.2818 89.2986L84.2045 89.5356C84.2253 89.5383 84.2453 89.5451 84.2634 89.5555C84.2815 89.5659 84.2974 89.5798 84.3102 89.5964C84.323 89.613 84.3324 89.6319 84.3378 89.6521C84.3432 89.6723 84.3447 89.6934 84.342 89.7141C84.3393 89.7349 84.3325 89.7549 84.3221 89.773C84.3116 89.7912 84.2977 89.8071 84.2812 89.8198C84.2646 89.8326 84.2457 89.842 84.2255 89.8474C84.2053 89.8529 84.1842 89.8543 84.1634 89.8516ZM102.254 89.6904C102.226 89.6903 102.199 89.6826 102.175 89.6681C102.151 89.6536 102.132 89.633 102.119 89.6083C102.098 89.5722 102.092 89.5294 102.103 89.4892C102.113 89.4489 102.14 89.4145 102.175 89.3934L103.003 88.9194C103.021 88.9088 103.041 88.902 103.062 88.8993C103.083 88.8966 103.104 88.8981 103.124 88.9037C103.144 88.9093 103.162 88.9189 103.179 88.9319C103.195 88.9449 103.208 88.9611 103.218 88.9794C103.229 88.9972 103.236 89.0169 103.239 89.0375C103.242 89.058 103.241 89.0789 103.235 89.0989C103.23 89.119 103.221 89.1377 103.208 89.1541C103.195 89.1705 103.179 89.1842 103.161 89.1943L102.333 89.6683C102.309 89.6819 102.282 89.6895 102.254 89.6904ZM81.7144 89.2164H81.6765L80.7538 88.9794C80.7119 88.969 80.6759 88.9423 80.6536 88.9052C80.6314 88.8682 80.6248 88.8238 80.6353 88.7819C80.6458 88.74 80.6725 88.704 80.7095 88.6818C80.7465 88.6596 80.7909 88.653 80.8328 88.6634L81.7555 88.9004C81.7974 88.9059 81.8354 88.9278 81.8612 88.9612C81.887 88.9947 81.8984 89.0371 81.893 89.079C81.8875 89.1209 81.8656 89.1589 81.8322 89.1847C81.7987 89.2105 81.7563 89.2219 81.7144 89.2164ZM79.2559 88.5844H79.2149L78.2921 88.3474C78.2502 88.337 78.2142 88.3103 78.192 88.2732C78.1698 88.2362 78.1632 88.1918 78.1736 88.1499C78.1841 88.108 78.2108 88.072 78.2479 88.0498C78.2849 88.0276 78.3292 88.021 78.3711 88.0314L79.2939 88.2684C79.3146 88.2709 79.3347 88.2775 79.3529 88.2877C79.3711 88.298 79.3871 88.3117 79.4 88.3281C79.4129 88.3446 79.4225 88.3634 79.4281 88.3835C79.4338 88.4036 79.4354 88.4247 79.4329 88.4454C79.4304 88.4662 79.4239 88.4862 79.4136 88.5044C79.4034 88.5226 79.3897 88.5387 79.3732 88.5516C79.3568 88.5645 79.338 88.574 79.3179 88.5797C79.2977 88.5853 79.2767 88.5869 79.2559 88.5844ZM104.473 88.4296C104.445 88.4295 104.417 88.4217 104.393 88.4073C104.37 88.3928 104.35 88.3721 104.337 88.3474C104.326 88.3297 104.319 88.31 104.316 88.2894C104.313 88.2689 104.315 88.248 104.32 88.228C104.325 88.2079 104.334 88.1892 104.347 88.1728C104.36 88.1564 104.376 88.1427 104.394 88.1326L105.222 87.6586C105.24 87.648 105.26 87.6412 105.28 87.6385C105.301 87.6358 105.322 87.6373 105.342 87.6429C105.362 87.6485 105.381 87.6581 105.397 87.6711C105.413 87.6841 105.427 87.7003 105.437 87.7186C105.447 87.7364 105.454 87.7561 105.457 87.7766C105.46 87.7971 105.459 87.818 105.454 87.8381C105.448 87.8581 105.439 87.8769 105.426 87.8933C105.414 87.9097 105.398 87.9233 105.38 87.9335L104.552 88.4075C104.524 88.4221 104.492 88.4286 104.46 88.4264L104.473 88.4296ZM76.788 87.9461H76.7469L75.8242 87.7091C75.7823 87.6986 75.7463 87.672 75.724 87.6349C75.7018 87.5979 75.6952 87.5535 75.7057 87.5116C75.7162 87.4697 75.7429 87.4337 75.7799 87.4115C75.8169 87.3893 75.8613 87.3826 75.9032 87.3931L76.8259 87.6301C76.8678 87.6352 76.906 87.6566 76.9321 87.6898C76.9582 87.723 76.97 87.7652 76.9649 87.8071C76.9599 87.849 76.9384 87.8872 76.9053 87.9133C76.8721 87.9393 76.8299 87.9512 76.788 87.9461ZM74.3263 87.3141H74.2853L73.3625 87.0771C73.3223 87.066 73.288 87.0397 73.2667 87.0037C73.2455 86.9678 73.2391 86.925 73.2488 86.8844C73.2539 86.8642 73.263 86.8453 73.2755 86.8287C73.288 86.812 73.3036 86.798 73.3215 86.7875C73.3395 86.7769 73.3593 86.77 73.3799 86.7671C73.4005 86.7642 73.4214 86.7654 73.4415 86.7706L74.3643 87.0076C74.4062 87.0126 74.4444 87.0341 74.4704 87.0673C74.4965 87.1005 74.5083 87.1427 74.5033 87.1846C74.4983 87.2265 74.4768 87.2647 74.4436 87.2907C74.4104 87.3168 74.3683 87.3286 74.3263 87.3236V87.3141ZM106.672 87.1656C106.644 87.1655 106.617 87.1577 106.593 87.1433C106.569 87.1288 106.549 87.1081 106.536 87.0834C106.526 87.0657 106.519 87.046 106.516 87.0254C106.513 87.0049 106.514 86.984 106.519 86.964C106.525 86.9439 106.534 86.9252 106.546 86.9088C106.559 86.8924 106.575 86.8787 106.593 86.8686L107.421 86.3946C107.439 86.384 107.459 86.3772 107.48 86.3745C107.5 86.3718 107.521 86.3733 107.541 86.3789C107.561 86.3845 107.58 86.3941 107.596 86.4071C107.613 86.4201 107.626 86.4363 107.636 86.4546C107.647 86.4724 107.654 86.4921 107.657 86.5126C107.659 86.5331 107.658 86.554 107.653 86.5741C107.648 86.5941 107.638 86.6129 107.626 86.6293C107.613 86.6457 107.597 86.6593 107.579 86.6695L106.751 87.1435C106.725 87.157 106.695 87.1635 106.666 87.1624L106.672 87.1656ZM71.8584 86.6758H71.8205L70.8946 86.4388C70.8545 86.4277 70.8204 86.4013 70.7997 86.3652C70.779 86.3291 70.7733 86.2863 70.784 86.246C70.7888 86.226 70.7975 86.2072 70.8097 86.1906C70.8219 86.174 70.8372 86.16 70.8549 86.1494C70.8726 86.1388 70.8921 86.1318 70.9125 86.1289C70.9329 86.1259 70.9537 86.1271 70.9736 86.1323L71.8995 86.3693C71.9202 86.372 71.9402 86.3787 71.9584 86.3892C71.9765 86.3996 71.9924 86.4135 72.0052 86.4301C72.0179 86.4467 72.0273 86.4656 72.0328 86.4858C72.0382 86.506 72.0396 86.5271 72.0369 86.5478C72.0342 86.5686 72.0275 86.5886 72.017 86.6067C72.0066 86.6249 71.9927 86.6408 71.9761 86.6535C71.9595 86.6663 71.9406 86.6757 71.9204 86.6811C71.9002 86.6866 71.8791 86.688 71.8584 86.6853V86.6758ZM69.3967 86.0438H69.3588L68.4361 85.8068C68.3942 85.7963 68.3582 85.7696 68.336 85.7326C68.3137 85.6956 68.3071 85.6512 68.3176 85.6093C68.3281 85.5674 68.3548 85.5314 68.3918 85.5092C68.4289 85.4869 68.4732 85.4803 68.5151 85.4908L69.4378 85.7278C69.4797 85.7333 69.5178 85.7551 69.5435 85.7886C69.5693 85.8221 69.5807 85.8644 69.5753 85.9064C69.5698 85.9483 69.548 85.9863 69.5145 86.0121C69.481 86.0378 69.4387 86.0493 69.3967 86.0438ZM108.871 85.9016C108.844 85.9015 108.816 85.8937 108.792 85.8793C108.768 85.8648 108.749 85.8441 108.736 85.8194C108.725 85.8017 108.718 85.782 108.715 85.7614C108.712 85.7409 108.713 85.72 108.719 85.7C108.724 85.6799 108.733 85.6612 108.746 85.6448C108.759 85.6284 108.774 85.6147 108.792 85.6046L109.62 85.1306C109.638 85.119 109.659 85.1113 109.68 85.1078C109.701 85.1044 109.723 85.1053 109.744 85.1105C109.765 85.1157 109.784 85.1251 109.801 85.1381C109.818 85.1512 109.832 85.1675 109.843 85.1862C109.854 85.205 109.86 85.2256 109.862 85.247C109.865 85.2683 109.863 85.2899 109.856 85.3105C109.85 85.331 109.839 85.35 109.826 85.3663C109.812 85.3827 109.794 85.396 109.775 85.4055L108.95 85.8795C108.926 85.8915 108.899 85.898 108.871 85.8984V85.9016ZM66.9351 85.4086H66.8972L65.9745 85.1716C65.9326 85.1612 65.8965 85.1345 65.8743 85.0974C65.8521 85.0604 65.8455 85.0161 65.856 84.9741C65.8664 84.9322 65.8931 84.8962 65.9302 84.874C65.9672 84.8518 66.0116 84.8452 66.0535 84.8556L66.9762 85.0926C66.9969 85.0953 67.017 85.1021 67.0351 85.1125C67.0532 85.123 67.0691 85.1369 67.0819 85.1534C67.0947 85.17 67.104 85.189 67.1095 85.2092C67.1149 85.2294 67.1163 85.2504 67.1136 85.2712C67.1109 85.2919 67.1042 85.312 67.0938 85.3301C67.0833 85.3482 67.0694 85.3641 67.0528 85.3769C67.0363 85.3897 67.0173 85.399 66.9971 85.4045C66.9769 85.4099 66.9559 85.4113 66.9351 85.4086ZM64.4766 84.7766H64.4355L63.5128 84.5396C63.4709 84.5292 63.4349 84.5025 63.4127 84.4654C63.3905 84.4284 63.3839 84.3841 63.3943 84.3421C63.4048 84.3002 63.4315 84.2642 63.4685 84.242C63.5056 84.2198 63.5499 84.2132 63.5918 84.2236L64.5145 84.4606C64.5565 84.4657 64.5946 84.4871 64.6207 84.5203C64.6468 84.5535 64.6586 84.5957 64.6536 84.6376C64.6486 84.6795 64.6271 84.7177 64.5939 84.7438C64.5607 84.7699 64.5185 84.7817 64.4766 84.7766ZM111.077 84.6408C111.049 84.6412 111.021 84.6337 110.996 84.6193C110.972 84.6048 110.951 84.5838 110.938 84.5586C110.918 84.522 110.914 84.4791 110.925 84.4391C110.936 84.399 110.962 84.3649 110.998 84.3437L111.826 83.8697C111.844 83.8592 111.864 83.8523 111.885 83.8496C111.905 83.8469 111.926 83.8484 111.946 83.854C111.966 83.8596 111.985 83.8692 112.001 83.8823C112.018 83.8953 112.031 83.9114 112.041 83.9298C112.061 83.9662 112.067 84.0093 112.055 84.0496C112.044 84.0899 112.017 84.1241 111.981 84.1446L111.156 84.6186C111.131 84.6296 111.104 84.635 111.077 84.6344V84.6408ZM113.289 83.3768C113.261 83.3772 113.233 83.3697 113.208 83.3553C113.184 83.3408 113.163 83.3198 113.15 83.2946C113.13 83.2581 113.124 83.215 113.136 83.1748C113.147 83.1345 113.174 83.1003 113.21 83.0797L114.035 82.6057C114.053 82.5954 114.073 82.5886 114.094 82.586C114.114 82.5833 114.135 82.5847 114.155 82.5901C114.175 82.5956 114.194 82.6049 114.211 82.6176C114.227 82.6303 114.241 82.6461 114.251 82.6642C114.262 82.6822 114.268 82.7022 114.271 82.7228C114.274 82.7434 114.272 82.7644 114.267 82.7845C114.262 82.8046 114.252 82.8235 114.239 82.8399C114.227 82.8564 114.211 82.8703 114.193 82.8806L113.365 83.3546C113.339 83.3671 113.311 83.3725 113.283 83.3704L113.289 83.3768ZM115.501 82.1128C115.473 82.1126 115.446 82.1049 115.422 82.0904C115.398 82.076 115.378 82.0553 115.365 82.0306C115.345 81.9945 115.339 81.9517 115.35 81.9115C115.36 81.8712 115.386 81.8368 115.422 81.8157L116.25 81.3417C116.268 81.3312 116.288 81.3243 116.309 81.3216C116.329 81.3189 116.35 81.3204 116.37 81.326C116.39 81.3316 116.409 81.3412 116.425 81.3543C116.442 81.3673 116.455 81.3834 116.465 81.4018C116.476 81.4195 116.483 81.4393 116.486 81.4598C116.489 81.4803 116.487 81.5012 116.482 81.5212C116.477 81.5413 116.467 81.5601 116.455 81.5764C116.442 81.5928 116.426 81.6065 116.408 81.6166L115.58 82.0906C115.551 82.1047 115.518 82.1102 115.485 82.1064L115.501 82.1128ZM117.713 80.8488C117.685 80.8486 117.658 80.8409 117.634 80.8264C117.61 80.812 117.59 80.7913 117.577 80.7666C117.567 80.7488 117.56 80.7291 117.557 80.7086C117.554 80.6881 117.555 80.6672 117.56 80.6471C117.566 80.6271 117.575 80.6083 117.588 80.5919C117.6 80.5755 117.616 80.5619 117.634 80.5517L118.462 80.0777C118.48 80.0672 118.5 80.0603 118.521 80.0576C118.541 80.0549 118.562 80.0564 118.582 80.062C118.602 80.0676 118.621 80.0772 118.637 80.0903C118.654 80.1033 118.667 80.1194 118.677 80.1378C118.688 80.1555 118.695 80.1753 118.698 80.1958C118.701 80.2163 118.699 80.2372 118.694 80.2572C118.689 80.2773 118.679 80.2961 118.667 80.3124C118.654 80.3288 118.638 80.3425 118.62 80.3526L117.792 80.8266C117.761 80.8419 117.726 80.8474 117.691 80.8424L117.713 80.8488ZM119.925 79.5848C119.897 79.5846 119.87 79.5769 119.846 79.5624C119.822 79.548 119.802 79.5273 119.789 79.5026C119.779 79.4848 119.772 79.4651 119.769 79.4446C119.766 79.4241 119.767 79.4032 119.772 79.3831C119.778 79.3631 119.787 79.3443 119.8 79.3279C119.812 79.3115 119.828 79.2979 119.846 79.2877L120.674 78.8137C120.692 78.8034 120.712 78.7966 120.733 78.794C120.753 78.7913 120.774 78.7927 120.794 78.7981C120.815 78.8036 120.833 78.8129 120.85 78.8256C120.866 78.8383 120.88 78.8541 120.891 78.8722C120.901 78.8902 120.908 78.9102 120.91 78.9308C120.913 78.9515 120.912 78.9724 120.906 78.9925C120.901 79.0126 120.891 79.0315 120.879 79.048C120.866 79.0644 120.85 79.0783 120.832 79.0886L120.004 79.5626C119.971 79.5793 119.933 79.5848 119.897 79.5784L119.925 79.5848ZM122.137 78.3208C122.109 78.3206 122.082 78.3129 122.058 78.2984C122.034 78.284 122.014 78.2633 122.001 78.2386C121.991 78.2208 121.984 78.2011 121.981 78.1806C121.978 78.1601 121.979 78.1392 121.984 78.1191C121.99 78.0991 121.999 78.0803 122.012 78.0639C122.024 78.0475 122.04 78.0339 122.058 78.0237L122.886 77.5497C122.904 77.5382 122.924 77.5304 122.946 77.527C122.967 77.5235 122.989 77.5244 123.009 77.5297C123.03 77.5349 123.05 77.5443 123.067 77.5573C123.084 77.5703 123.098 77.5867 123.109 77.6054C123.119 77.6241 123.126 77.6448 123.128 77.6661C123.13 77.6875 123.128 77.7091 123.122 77.7296C123.116 77.7501 123.105 77.7691 123.091 77.7855C123.077 77.8018 123.06 77.8151 123.041 77.8246L122.216 78.2986C122.181 78.3158 122.141 78.3213 122.102 78.3144L122.137 78.3208ZM124.349 77.0568C124.321 77.0568 124.293 77.0493 124.268 77.0348C124.244 77.0203 124.224 76.9995 124.21 76.9746C124.19 76.938 124.186 76.8951 124.197 76.8551C124.208 76.8151 124.234 76.7809 124.27 76.7597L125.098 76.2857C125.116 76.2752 125.136 76.2683 125.157 76.2656C125.177 76.2629 125.198 76.2644 125.218 76.27C125.238 76.2756 125.257 76.2852 125.273 76.2983C125.29 76.3113 125.303 76.3274 125.313 76.3458C125.333 76.3822 125.339 76.4253 125.327 76.4656C125.316 76.5059 125.289 76.5401 125.253 76.5606L124.428 77.0346C124.391 77.0531 124.349 77.0587 124.308 77.0504L124.349 77.0568ZM126.561 75.7928C126.533 75.7932 126.505 75.7857 126.48 75.7712C126.456 75.7568 126.435 75.7358 126.422 75.7106C126.402 75.6741 126.396 75.631 126.408 75.5908C126.419 75.5505 126.446 75.5163 126.482 75.4957L127.307 75.0217C127.325 75.0111 127.345 75.0042 127.366 75.0015C127.387 74.9987 127.408 75.0002 127.429 75.0058C127.449 75.0114 127.468 75.021 127.484 75.034C127.501 75.0471 127.515 75.0633 127.525 75.0818C127.545 75.1184 127.549 75.1612 127.538 75.2013C127.527 75.2413 127.501 75.2755 127.465 75.2966L126.637 75.7706C126.619 75.7813 126.598 75.7882 126.577 75.7909C126.556 75.7936 126.534 75.7921 126.514 75.7864L126.561 75.7928ZM128.773 74.5288C128.745 74.5286 128.718 74.5209 128.694 74.5064C128.67 74.492 128.65 74.4713 128.637 74.4466C128.617 74.4101 128.612 74.367 128.623 74.3268C128.634 74.2865 128.661 74.2523 128.697 74.2317L129.522 73.7577C129.54 73.7472 129.56 73.7403 129.581 73.7376C129.601 73.7349 129.622 73.7364 129.642 73.742C129.662 73.7476 129.681 73.7572 129.697 73.7703C129.714 73.7833 129.727 73.7994 129.737 73.8178C129.748 73.8355 129.755 73.8553 129.758 73.8758C129.761 73.8963 129.759 73.9172 129.754 73.9372C129.749 73.9573 129.739 73.9761 129.727 73.9924C129.714 74.0088 129.698 74.0225 129.68 74.0326L128.852 74.5066C128.832 74.5183 128.809 74.5258 128.786 74.5285C128.762 74.5312 128.739 74.5291 128.716 74.5224L128.773 74.5288Z" fill="#263238"/>
<path d="M130.922 73.2583C130.894 73.2581 130.867 73.2504 130.843 73.236C130.819 73.2215 130.799 73.2008 130.786 73.1761C130.775 73.1584 130.768 73.1387 130.765 73.1181C130.762 73.0976 130.764 73.0767 130.769 73.0567C130.774 73.0366 130.784 73.0179 130.796 73.0015C130.809 72.9851 130.825 72.9714 130.843 72.9613L131.257 72.7274C131.275 72.7172 131.294 72.7107 131.315 72.7081C131.335 72.7056 131.356 72.707 131.376 72.7125C131.395 72.7179 131.414 72.7272 131.43 72.7398C131.446 72.7524 131.46 72.768 131.47 72.7859C131.48 72.8037 131.487 72.8234 131.489 72.8438C131.492 72.8641 131.491 72.8848 131.485 72.9046C131.48 72.9244 131.47 72.943 131.458 72.9592C131.445 72.9754 131.43 72.989 131.412 72.9992L131.001 73.2362C130.977 73.2498 130.95 73.2573 130.922 73.2583Z" fill="#263238"/>
<path d="M27.9628 109.257C27.9628 109.514 27.8866 109.765 27.7437 109.979C27.6009 110.192 27.3978 110.359 27.1603 110.457C26.9228 110.555 26.6615 110.581 26.4095 110.53C26.1575 110.48 25.9261 110.356 25.7446 110.174C25.5631 109.992 25.4396 109.76 25.3899 109.508C25.3401 109.256 25.3663 108.995 25.4651 108.758C25.5639 108.52 25.7308 108.318 25.9448 108.175C26.1588 108.033 26.4102 107.957 26.6672 107.958C27.0111 107.959 27.3407 108.096 27.5835 108.34C27.8264 108.583 27.9628 108.913 27.9628 109.257Z" fill="white"/>
<path d="M26.6673 110.711C26.3789 110.711 26.0968 110.627 25.8567 110.467C25.6167 110.307 25.4295 110.079 25.3188 109.813C25.2082 109.547 25.1791 109.254 25.2352 108.971C25.2913 108.688 25.4301 108.428 25.634 108.224C25.8379 108.02 26.0978 107.881 26.3807 107.825C26.6635 107.769 26.9567 107.798 27.223 107.909C27.4894 108.02 27.7168 108.207 27.8767 108.447C28.0365 108.687 28.1215 108.969 28.1209 109.257C28.1192 109.642 27.9655 110.011 27.6933 110.283C27.421 110.556 27.0523 110.709 26.6673 110.711ZM26.6673 108.117C26.4415 108.116 26.2206 108.182 26.0326 108.307C25.8446 108.432 25.6979 108.61 25.6111 108.819C25.5243 109.027 25.5012 109.256 25.5449 109.478C25.5885 109.699 25.6969 109.903 25.8563 110.063C26.0157 110.223 26.219 110.332 26.4404 110.376C26.6617 110.42 26.8913 110.398 27.0999 110.311C27.3085 110.225 27.4869 110.079 27.6124 109.891C27.7379 109.704 27.8049 109.483 27.8049 109.257C27.8049 108.955 27.6851 108.666 27.4719 108.452C27.2586 108.238 26.9693 108.117 26.6673 108.117Z" fill="#263238"/>
<path d="M61.5568 85.153C62.2724 85.153 62.8524 84.5729 62.8524 83.8574C62.8524 83.1418 62.2724 82.5618 61.5568 82.5618C60.8413 82.5618 60.2612 83.1418 60.2612 83.8574C60.2612 84.5729 60.8413 85.153 61.5568 85.153Z" fill="white"/>
<path d="M61.5568 85.3202C61.2685 85.3208 60.9866 85.2359 60.7466 85.0762C60.5066 84.9165 60.3194 84.6892 60.2087 84.4231C60.0979 84.1569 60.0686 83.8639 60.1245 83.5811C60.1803 83.2983 60.3188 83.0385 60.5224 82.8344C60.726 82.6304 60.9856 82.4913 61.2683 82.4348C61.5509 82.3784 61.844 82.407 62.1104 82.5172C62.3767 82.6274 62.6044 82.8141 62.7647 83.0537C62.9249 83.2934 63.0104 83.5751 63.0104 83.8634C63.0095 84.2489 62.8562 84.6185 62.5839 84.8914C62.3116 85.1644 61.9423 85.3185 61.5568 85.3202ZM61.5568 82.7258C61.3309 82.7252 61.1099 82.7916 60.9218 82.9167C60.7337 83.0418 60.587 83.22 60.5003 83.4285C60.4136 83.6371 60.3907 83.8667 60.4346 84.0883C60.4785 84.3099 60.5873 84.5135 60.747 84.6732C60.9067 84.8329 61.1103 84.9416 61.3318 84.9855C61.5534 85.0295 61.7831 85.0066 61.9916 84.9199C62.2002 84.8331 62.3783 84.6864 62.5034 84.4983C62.6286 84.3103 62.695 84.0893 62.6944 83.8634C62.6948 83.7136 62.6657 83.5652 62.6088 83.4266C62.5518 83.288 62.4681 83.162 62.3625 83.0558C62.2569 82.9496 62.1313 82.8652 61.9931 82.8075C61.8548 82.7498 61.7066 82.7199 61.5568 82.7195V82.7258Z" fill="#263238"/>
<path d="M96.4432 94.1585C97.1587 94.1585 97.7388 93.5784 97.7388 92.8629C97.7388 92.1473 97.1587 91.5673 96.4432 91.5673C95.7276 91.5673 95.1476 92.1473 95.1476 92.8629C95.1476 93.5784 95.7276 94.1585 96.4432 94.1585Z" fill="white"/>
<path d="M96.4464 94.316C96.158 94.3166 95.8759 94.2316 95.6358 94.0718C95.3958 93.912 95.2086 93.6845 95.0979 93.4182C94.9873 93.1519 94.9582 92.8587 95.0143 92.5758C95.0704 92.2929 95.2092 92.0331 95.4131 91.8291C95.617 91.6252 95.8769 91.4864 96.1598 91.4303C96.4427 91.3742 96.7358 91.4033 97.0021 91.514C97.2685 91.6246 97.4959 91.8118 97.6558 92.0519C97.8156 92.2919 97.9006 92.574 97.9 92.8624C97.8983 93.2474 97.7446 93.6162 97.4724 93.8884C97.2001 94.1607 96.8314 94.3143 96.4464 94.316ZM96.4464 91.7216C96.2206 91.721 95.9997 91.7874 95.8117 91.9123C95.6237 92.0373 95.477 92.2153 95.3902 92.4236C95.3034 92.632 95.2803 92.8615 95.324 93.083C95.3676 93.3045 95.476 93.5081 95.6354 93.6679C95.7949 93.8278 95.9981 93.9367 96.2195 93.981C96.4409 94.0253 96.6704 94.0029 96.879 93.9166C97.0876 93.8304 97.266 93.6842 97.3915 93.4965C97.517 93.3088 97.584 93.0881 97.584 92.8624C97.584 92.5604 97.4642 92.2707 97.251 92.0569C97.0377 91.843 96.7484 91.7225 96.4464 91.7216Z" fill="#263238"/>
<path d="M131.333 74.1593C132.048 74.1593 132.628 73.5793 132.628 72.8637C132.628 72.1482 132.048 71.5681 131.333 71.5681C130.617 71.5681 130.037 72.1482 130.037 72.8637C130.037 73.5793 130.617 74.1593 131.333 74.1593Z" fill="white"/>
<path d="M131.333 74.317C131.045 74.3164 130.765 74.2306 130.526 74.0705C130.287 73.9104 130.102 73.6831 129.992 73.4175C129.883 73.1518 129.854 72.8596 129.911 72.5779C129.967 72.2961 130.106 72.0374 130.309 71.8344C130.513 71.6315 130.772 71.4933 131.054 71.4375C131.335 71.3817 131.628 71.4106 131.893 71.5207C132.158 71.6309 132.385 71.8172 132.545 72.0561C132.704 72.2951 132.79 72.576 132.79 72.8634C132.789 73.2492 132.635 73.6189 132.362 73.8914C132.089 74.1639 131.719 74.317 131.333 74.317ZM131.333 71.7258C131.108 71.7264 130.888 71.7937 130.702 71.919C130.515 72.0444 130.37 72.2223 130.284 72.4302C130.198 72.6382 130.176 72.8668 130.221 73.0873C130.265 73.3077 130.373 73.5101 130.533 73.6689C130.692 73.8277 130.895 73.9357 131.115 73.9794C131.336 74.023 131.564 74.0003 131.772 73.9141C131.98 73.8279 132.157 73.6821 132.282 73.4951C132.407 73.3081 132.474 73.0882 132.474 72.8634C132.472 72.5622 132.351 72.274 132.137 72.062C131.923 71.8499 131.634 71.7313 131.333 71.7321V71.7258Z" fill="#263238"/>
</svg>
