<svg width="85" height="85" viewBox="0 0 85 85" fill="none" xmlns="http://www.w3.org/2000/svg">
<ellipse cx="41" cy="42.5" rx="41" ry="39.5" fill="white"/>
<path d="M82.5695 11.6202C81.3191 10.3677 79.2902 10.3655 78.0398 11.6149L39.6083 49.9449L25.7424 34.8852C24.5442 33.5846 22.5185 33.5003 21.2158 34.6982C19.9141 35.8964 19.8307 37.9231 21.0288 39.2248L37.1533 56.7363C37.7438 57.3781 38.5702 57.7508 39.4416 57.7689C39.465 57.7699 39.4876 57.7699 39.51 57.7699C40.3569 57.7699 41.1715 57.4336 41.7717 56.8356L82.5632 16.151C83.8168 14.9017 83.8189 12.8728 82.5695 11.6202Z" fill="#0059EF"/>
<path d="M81.7964 39.2964C80.027 39.2964 78.593 40.7304 78.593 42.5C78.593 62.4025 62.4025 78.593 42.5 78.593C22.5987 78.593 6.40704 62.4025 6.40704 42.5C6.40704 22.5987 22.5987 6.40704 42.5 6.40704C44.2694 6.40704 45.7036 4.973 45.7036 3.2036C45.7036 1.43404 44.2694 0 42.5 0C19.0652 0 0 19.0652 0 42.5C0 65.9338 19.0652 85 42.5 85C65.9338 85 85 65.9338 85 42.5C85 40.7306 83.566 39.2964 81.7964 39.2964Z" fill="#00EF6E"/>
<path d="M81.7964 39.2964C80.027 39.2964 78.593 40.7304 78.593 42.5C78.593 62.4025 62.4025 78.593 42.5 78.593C22.5987 78.593 6.40704 62.4025 6.40704 42.5C6.40704 22.5987 22.5987 6.40704 42.5 6.40704C44.2694 6.40704 45.7036 4.973 45.7036 3.2036C45.7036 1.43404 44.2694 0 42.5 0C19.0652 0 0 19.0652 0 42.5C0 65.9338 19.0652 85 42.5 85C65.9338 85 85 65.9338 85 42.5C85 40.7306 83.566 39.2964 81.7964 39.2964Z" fill="url(#paint0_linear)"/>
<defs>
<linearGradient id="paint0_linear" x1="42.5" y1="2.47359e-06" x2="125.5" y2="98" gradientUnits="userSpaceOnUse">
<stop stop-color="#008EEF"/>
<stop offset="0.796875" stop-color="#CBE8FC"/>
<stop offset="1" stop-color="white"/>
</linearGradient>
</defs>
</svg>
