<svg width="390" height="323" viewBox="0 0 390 323" fill="none" xmlns="http://www.w3.org/2000/svg">
<path d="M389.529 321.3C389.529 321.426 302.598 321.534 195.39 321.534C88.1819 321.534 1.23291 321.444 1.23291 321.3C1.23291 321.156 88.1459 321.066 195.39 321.066C302.634 321.066 389.529 321.192 389.529 321.3Z" fill="#263238"/>
<path d="M106.362 11.916C91.9172 34.632 92.8622 66.132 108.648 87.939C119.169 102.483 134.946 112.239 147.474 125.073C160.002 137.907 169.524 156.852 162.909 173.538C156.177 190.521 136.458 197.424 121.698 208.188C87.8542 232.838 79.5537 279.834 102.906 314.586H256.284C256.284 314.586 283.23 263.241 248.589 224.1C213.948 184.959 195.345 184.329 196.623 158.661C197.901 132.993 215.865 124.668 226.134 115.038C236.403 105.408 286.434 82.971 256.923 11.907L106.362 11.916Z" fill="#FAFAFA"/>
<path d="M106.362 11.916H108.999H116.775H146.709L256.923 11.835H257.04V11.943C259.299 17.3238 261.223 22.8394 262.8 28.458C264.456 34.3407 265.547 40.368 266.058 46.458C266.589 52.8239 266.262 59.2322 265.086 65.511C263.794 72.0196 261.454 78.2751 258.156 84.033C256.447 86.9698 254.516 89.771 252.378 92.412C250.196 95.0885 247.836 97.6142 245.313 99.972C242.758 102.373 240.082 104.641 237.294 106.767C234.504 108.927 231.588 110.961 228.744 113.121C227.322 114.192 226.044 115.398 224.658 116.604C223.272 117.81 221.895 118.935 220.473 120.069C217.638 122.337 214.776 124.569 212.076 127.08C206.441 131.964 202.11 138.175 199.476 145.152C198.21 148.73 197.412 152.457 197.1 156.24C197.019 157.14 196.893 158.13 196.857 159.084C196.821 160.038 196.785 160.992 196.857 161.946C196.877 163.861 197.07 165.771 197.433 167.652C198.147 171.463 199.702 175.067 201.987 178.2C204.338 181.332 207.001 184.218 209.934 186.813C215.757 192.132 221.94 197.217 227.853 202.707C233.766 208.197 239.553 213.921 245.133 219.978C247.98 222.976 250.643 226.144 253.107 229.464C255.586 232.826 257.741 236.415 259.542 240.183C263.184 247.821 265.422 256.052 266.148 264.483C266.882 273.031 266.379 281.639 264.654 290.043C263.816 294.289 262.715 298.479 261.36 302.589C260.028 306.734 258.404 310.779 256.5 314.694L256.437 314.82H102.78L102.717 314.721C95.5244 303.891 91.1131 291.455 89.874 278.514C88.6273 266.083 90.4506 253.536 95.184 241.974C99.6827 230.922 106.61 221.024 115.452 213.012C119.743 209.224 124.377 205.844 129.294 202.914C134.082 199.944 138.915 197.19 143.478 194.184C148.045 191.329 152.241 187.919 155.97 184.032C159.531 180.215 162.172 175.634 163.692 170.64C165.024 165.767 165.233 160.656 164.304 155.691C163.416 150.899 161.817 146.267 159.561 141.948C157.403 137.789 154.815 133.868 151.839 130.248C148.967 126.776 145.844 123.518 142.497 120.501C136.008 114.525 129.357 109.296 123.381 103.923C120.384 101.223 117.549 98.523 114.93 95.76C112.392 93.055 110.052 90.1706 107.928 87.129C104.089 81.551 101.13 75.4165 99.153 68.94C97.4216 63.347 96.4174 57.5544 96.165 51.705C96.039 50.373 96.093 49.059 96.093 47.772C96.093 46.485 96.093 45.234 96.21 44.019C96.327 42.804 96.39 41.616 96.48 40.419C96.57 39.222 96.813 38.151 96.966 37.062C97.9603 30.4326 99.989 24.0003 102.978 18C103.383 17.0718 103.846 16.17 104.364 15.3L105.471 13.419C106.056 12.42 106.371 11.916 106.371 11.916L105.471 13.446L104.4 15.3C103.894 16.1739 103.437 17.0753 103.032 18C100.07 24.0149 98.0659 30.4555 97.092 37.089C96.939 38.169 96.759 39.285 96.624 40.428C96.489 41.571 96.444 42.768 96.354 43.983C96.264 45.198 96.264 46.449 96.255 47.727C96.246 49.005 96.21 50.319 96.336 51.651C96.5963 57.4811 97.6097 63.253 99.351 68.823C101.325 75.2764 104.282 81.3871 108.117 86.94C110.235 89.9689 112.572 92.8386 115.11 95.526C117.72 98.298 120.555 100.998 123.552 103.626C129.528 109.026 136.152 114.201 142.686 120.186C146.059 123.225 149.206 126.507 152.1 130.005C155.092 133.651 157.695 137.599 159.867 141.786C162.145 146.132 163.759 150.795 164.655 155.619C165.598 160.637 165.388 165.804 164.043 170.73C162.516 175.782 159.85 180.416 156.249 184.275C152.502 188.184 148.288 191.618 143.703 194.499C139.122 197.514 134.289 200.268 129.51 203.238C124.614 206.16 119.998 209.528 115.722 213.3C106.934 221.271 100.048 231.113 95.571 242.1C90.8662 253.603 89.0583 266.086 90.306 278.451C91.5453 291.318 95.9345 303.682 103.086 314.451L102.906 314.352H256.284L256.077 314.478C257.977 310.573 259.596 306.537 260.919 302.4C262.267 298.308 263.361 294.136 264.195 289.908C265.912 281.546 266.412 272.979 265.68 264.474C264.968 256.089 262.745 247.902 259.119 240.309C257.33 236.568 255.194 233.003 252.738 229.662C250.28 226.359 247.629 223.204 244.8 220.212C239.25 214.17 233.499 208.422 227.547 202.968C221.643 197.487 215.478 192.411 209.637 187.065C206.68 184.449 203.994 181.542 201.618 178.389C199.289 175.218 197.693 171.569 196.947 167.706C196.587 165.797 196.391 163.861 196.362 161.919C196.317 160.956 196.362 159.993 196.362 159.03C196.362 158.067 196.524 157.113 196.596 156.159C196.926 152.353 197.743 148.606 199.026 145.008C201.683 137.97 206.054 131.706 211.743 126.783C214.443 124.281 217.332 122.013 220.167 119.754C221.589 118.62 222.984 117.477 224.343 116.307C225.702 115.137 227.043 113.877 228.447 112.797C231.309 110.637 234.216 108.603 236.997 106.452C239.776 104.335 242.447 102.079 244.998 99.693C247.504 97.3458 249.852 94.8353 252.027 92.178C254.148 89.5461 256.07 86.7605 257.778 83.844C261.057 78.1259 263.386 71.913 264.672 65.448C265.843 59.2202 266.172 52.8635 265.653 46.548C265.15 40.459 264.068 34.4318 262.422 28.548C260.867 22.9139 258.967 17.3805 256.734 11.979L256.887 12.078L146.736 11.997H116.784H108.99L106.362 11.916Z" fill="#263238"/>
<path d="M250.803 53.577C273.393 57.294 237.78 97.308 217.611 113.094C205.911 122.229 193.401 132.147 187.857 145.899C181.557 161.505 186.228 179.037 183.186 194.733C182.983 195.856 181.947 196.631 180.813 196.511C179.678 196.39 178.829 195.414 178.866 194.274C179.01 183.969 178.74 173.673 177.066 163.53C174.645 149.13 169.119 134.919 159.066 124.38C150.831 115.767 140.04 110.052 131.265 102.006C118.449 90.261 105.282 75.114 103.995 57.78C103.995 57.78 128.601 37.98 142.263 40.455C158.229 43.38 173.943 68.013 198.675 65.196C215.883 63.225 224.604 49.275 250.803 53.577Z" fill="#0059EF"/>
<path d="M252.81 267.732C252.243 262.08 250.731 255.69 245.718 253.026C242.685 251.406 238.986 251.586 235.656 252.459C232.326 253.332 229.203 254.853 225.909 255.834C219.361 257.76 212.368 257.536 205.956 255.195C199.827 252.945 194.571 248.895 188.856 245.673C183.141 242.451 176.508 240.093 170.172 241.668C159.246 244.368 153.558 257.544 142.758 260.721C137.952 262.125 132.795 261.333 127.917 260.235C123.039 259.137 118.134 257.706 113.139 257.895C109.215 258.039 105.138 259.398 102.393 262.08L102.321 262.161C101.864 262.609 101.448 263.097 101.079 263.619C97.7311 268.119 97.1911 274.086 98.2261 279.54C99.3781 285.651 102.231 291.294 105.291 296.703C108.891 303.075 112.995 309.411 118.953 313.659C126.315 318.906 135.558 315.288 144.567 315.999C165.564 317.655 188.154 318.78 209.16 317.16C220.257 316.26 230.652 317.502 239.454 310.689C245.646 305.901 249.678 298.683 251.622 291.105C253.566 283.527 253.593 275.517 252.81 267.732Z" fill="#0059EF"/>
<g opacity="0.24">
<path d="M213.174 256.914C211.995 258.714 211.482 261.162 212.625 262.998C213.768 264.834 215.325 266.517 215.811 268.632C216.594 271.944 214.596 275.184 213.111 278.253C210.362 283.74 209.325 289.926 210.132 296.01C210.984 302.114 214.136 307.661 218.943 311.517C221.076 313.164 223.848 314.442 226.422 313.632C228.843 312.876 230.4 310.419 230.922 307.926C231.444 305.433 231.003 302.868 230.688 300.357C229.222 288.654 229.526 276.798 231.588 265.185C231.93 263.25 232.254 261.036 231.03 259.497C230.147 258.601 229.026 257.976 227.799 257.697C223.119 256.14 218.07 257.868 213.219 256.95" fill="black"/>
</g>
<path d="M91.6471 321.552C91.6471 321.552 91.2241 314.514 100.404 310.59H261.729C261.729 310.59 270.144 314.856 271.179 321.39L91.6471 321.552Z" fill="#263238"/>
<path d="M258.3 12.771L258.039 12.888L106.344 11.916C106.344 11.916 105.804 11.574 105.003 10.935C103.064 9.4161 102.308 6.83116 103.122 4.50662C103.936 2.18209 106.14 0.634098 108.603 0.656989L255.843 1.84499C261.9 1.89899 263.808 10.179 258.3 12.771Z" fill="#263238"/>
<g opacity="0.24">
<path d="M234 70.641C234.306 71.226 233.163 72.441 230.994 74.421C228.825 76.401 225.594 79.002 221.58 82.269C216.761 86.2508 211.646 89.8612 206.28 93.069C202.947 94.9991 199.439 96.6112 195.804 97.884C193.834 98.5649 191.823 99.121 189.783 99.549C187.64 100.004 185.464 100.287 183.276 100.395C178.842 100.636 174.403 100.025 170.199 98.595C166.482 97.2432 162.951 95.429 159.687 93.195C156.663 91.197 154.062 89.217 151.587 87.318C149.112 85.419 146.907 83.592 144.909 81.864C136.944 74.961 132.75 69.885 133.56 68.904C134.37 67.923 140.04 71.118 148.86 76.518L156.06 80.928C158.643 82.494 161.406 84.231 164.232 85.833C167.036 87.4792 170.008 88.8218 173.097 89.838C176.258 90.7844 179.559 91.1742 182.853 90.99C189.765 90.63 196.47 88.2 202.275 85.392C208.08 82.584 213.336 79.308 217.89 76.752C221.494 74.6252 225.262 72.7894 229.158 71.262C232.011 70.263 233.739 70.074 234 70.641Z" fill="black"/>
</g>
<path d="M178.974 213.534C180.301 213.006 181.806 213.643 182.351 214.963C182.897 216.283 182.28 217.796 180.967 218.358C179.654 218.921 178.133 218.324 177.554 217.019C176.974 215.714 177.551 214.185 178.848 213.588" fill="#0059EF"/>
<path d="M124.722 95.742C124.525 95.5801 124.344 95.3993 124.182 95.202L122.715 93.6C122.094 92.889 121.275 92.061 120.438 91.008L117.576 87.408C116.595 86.022 115.488 84.528 114.372 82.908L112.725 80.289C112.446 79.839 112.149 79.389 111.879 78.912L111.087 77.454C108.692 73.2091 106.815 68.6917 105.498 63.999C104.174 59.3102 103.46 54.4703 103.374 49.599C103.374 48.474 103.437 47.385 103.455 46.314C103.455 45.783 103.455 45.261 103.527 44.748C103.599 44.235 103.635 43.731 103.689 43.236C103.806 42.246 103.878 41.283 104.013 40.365C104.148 39.447 104.337 38.565 104.49 37.746C104.742 36.063 105.192 34.596 105.507 33.246C105.678 32.598 105.813 31.986 105.984 31.446L106.479 29.943L107.172 27.882C107.238 27.6367 107.329 27.3985 107.442 27.171C107.405 27.4221 107.345 27.6691 107.262 27.909C107.109 28.431 106.911 29.124 106.65 29.997L106.2 31.5C106.047 32.049 105.921 32.661 105.759 33.3C105.471 34.605 105.048 36.081 104.859 37.8C104.715 38.628 104.571 39.501 104.418 40.41C104.265 41.319 104.229 42.273 104.121 43.263C104.121 43.758 104.022 44.253 103.968 44.766C103.914 45.279 103.968 45.801 103.914 46.323C103.914 47.385 103.842 48.465 103.851 49.581C103.939 54.4237 104.644 59.2355 105.948 63.9C107.258 68.5582 109.11 73.0468 111.465 77.274C111.726 77.76 111.987 78.246 112.239 78.732C112.491 79.218 112.806 79.632 113.076 80.1L114.696 82.719C115.794 84.375 116.883 85.869 117.837 87.219L120.645 90.819C121.455 91.89 122.256 92.727 122.85 93.465L124.254 95.13C124.423 95.324 124.579 95.5284 124.722 95.742Z" fill="#263238"/>
<path d="M116.181 229.446C116.226 229.342 116.28 229.243 116.343 229.149L116.883 228.303C117.126 227.925 117.423 227.475 117.783 226.935L118.35 226.035C118.575 225.738 118.836 225.441 119.097 225.135L120.897 222.975C121.59 222.228 122.382 221.454 123.219 220.608C125.16 218.739 127.222 217.002 129.393 215.406C134.172 211.806 140.337 208.206 147.015 203.985C150.527 201.821 153.902 199.444 157.122 196.866C160.577 194.114 163.628 190.891 166.185 187.29C170.866 180.098 173.41 171.724 173.52 163.143C173.634 156.149 172.463 149.194 170.064 142.623C168.475 138.189 166.481 133.911 164.106 129.843C163.269 128.394 162.585 127.296 162.117 126.549L161.586 125.703C161.469 125.514 161.415 125.406 161.415 125.406C161.495 125.487 161.565 125.578 161.622 125.676L162.198 126.504C162.693 127.224 163.404 128.304 164.259 129.753C166.707 133.799 168.757 138.073 170.379 142.515C172.842 149.113 174.063 156.11 173.979 163.152C173.941 165.182 173.776 167.208 173.484 169.218C173.193 171.32 172.75 173.398 172.161 175.437C170.932 179.754 169.021 183.846 166.5 187.56C163.916 191.2 160.832 194.457 157.338 197.235C154.099 199.815 150.706 202.195 147.177 204.363C140.472 208.548 134.298 212.112 129.519 215.685C127.349 217.259 125.281 218.97 123.327 220.806C122.49 221.643 121.689 222.399 120.987 223.137L119.187 225.252C118.917 225.576 118.656 225.873 118.431 226.152L117.846 227.007L116.946 228.348L116.37 229.167C116.315 229.265 116.252 229.358 116.181 229.446Z" fill="#263238"/>
<path d="M107.811 245.349C107.757 245.495 107.691 245.637 107.613 245.772L106.965 246.915C106.677 247.401 106.335 248.013 105.984 248.715C105.633 249.417 105.183 250.245 104.805 251.19C104.607 251.658 104.391 252.144 104.175 252.648C103.959 253.152 103.779 253.71 103.563 254.268C103.131 255.384 102.789 256.608 102.393 257.868C100.828 263.51 100.288 269.387 100.8 275.22C100.953 276.552 101.061 277.83 101.295 279C101.394 279.585 101.475 280.161 101.592 280.701C101.709 281.241 101.835 281.763 101.952 282.258C102.15 283.257 102.447 284.13 102.663 284.904C102.879 285.678 103.095 286.344 103.293 286.884L103.716 288.126C103.777 288.266 103.816 288.415 103.833 288.567C103.746 288.442 103.677 288.306 103.626 288.162C103.491 287.829 103.329 287.433 103.122 286.947C102.85 286.306 102.613 285.651 102.411 284.985C102.168 284.211 101.853 283.338 101.628 282.339C101.502 281.844 101.376 281.322 101.241 280.782C101.106 280.242 101.025 279.657 100.908 279.072C100.656 277.884 100.53 276.606 100.368 275.265C99.8048 269.396 100.348 263.473 101.97 257.805C102.375 256.509 102.735 255.276 103.194 254.16C103.419 253.602 103.599 253.053 103.833 252.54L104.499 251.073C104.895 250.173 105.399 249.336 105.75 248.616C106.067 247.997 106.419 247.396 106.803 246.816L107.523 245.709C107.703 245.466 107.793 245.34 107.811 245.349Z" fill="#263238"/>
<path d="M219.078 266.985L218.898 267.111L218.34 267.462L216.153 268.776L214.569 269.676C213.975 270.009 213.318 270.315 212.616 270.666C211.194 271.35 209.628 272.223 207.774 272.925L204.894 274.104C203.895 274.5 202.806 274.815 201.708 275.193C199.521 275.994 197.091 276.57 194.562 277.227C183.458 279.828 171.94 280.134 160.713 278.127C158.139 277.605 155.691 277.155 153.459 276.471C152.343 276.147 151.245 275.895 150.219 275.571L147.285 274.5C145.404 273.897 143.784 273.114 142.335 272.502C141.615 272.187 140.94 271.908 140.337 271.602L138.699 270.747L136.449 269.55L135.873 269.226L135.684 269.109C135.684 269.109 135.765 269.109 135.9 269.19L136.494 269.469L138.78 270.585L140.427 271.395C141.039 271.683 141.723 271.944 142.443 272.25C143.892 272.826 145.512 273.591 147.402 274.167L150.3 275.22C151.326 275.562 152.424 275.805 153.54 276.12C155.763 276.786 158.202 277.209 160.74 277.722C171.915 279.657 183.363 279.351 194.418 276.822C196.938 276.174 199.359 275.625 201.546 274.842C202.644 274.473 203.724 274.176 204.723 273.78L207.603 272.637C209.457 271.953 211.032 271.107 212.454 270.45C213.156 270.108 213.822 269.811 214.416 269.55L216.018 268.65L218.241 267.408L218.826 267.102C219.006 267.003 219.078 266.976 219.078 266.985Z" fill="#263238"/>
<path d="M228.465 76.5C228.41 76.5652 228.346 76.6227 228.276 76.671L227.682 77.157C227.133 77.598 226.368 78.219 225.387 78.957C223.389 80.541 220.491 82.836 216.828 85.572C212.565 88.8351 208.095 91.8174 203.445 94.5C200.68 96.0475 197.797 97.3746 194.823 98.469C191.615 99.6361 188.269 100.38 184.869 100.683C178.259 101.054 171.667 99.6822 165.753 96.705C163.196 95.406 160.727 93.9388 158.364 92.313C156.168 90.765 154.161 89.262 152.388 87.813C148.788 84.951 146.034 82.53 144.09 80.874L141.867 78.948L141.3 78.444L141.111 78.255C141.111 78.255 141.192 78.255 141.327 78.399L141.93 78.876L144.207 80.73C146.187 82.35 149.013 84.726 152.595 87.552C154.395 88.965 156.384 90.45 158.589 91.98C160.944 93.5777 163.4 95.0208 165.942 96.3C171.797 99.2182 178.311 100.561 184.842 100.197C188.201 99.8991 191.508 99.167 194.679 98.019C197.633 96.9392 200.497 95.6302 203.247 94.104C207.89 91.4701 212.366 88.5516 216.648 85.365C220.32 82.665 223.245 80.415 225.288 78.876L227.637 77.076L228.258 76.626C228.32 76.5739 228.39 76.5314 228.465 76.5V76.5Z" fill="#263238"/>
<g opacity="0.24">
<path d="M147.294 274.545C151.56 271.251 157.554 272.043 162.828 273.159C168.102 274.275 173.412 276.066 178.749 275.319C182.772 274.752 186.462 272.781 190.449 271.917C194.436 271.053 199.233 271.692 201.438 275.103C183.815 280.782 164.824 280.586 147.321 274.545" fill="black"/>
</g>
<path d="M26.514 297.765C26.5534 297.633 26.6077 297.506 26.676 297.387L27.18 296.298C27.8006 294.89 28.3034 293.433 28.683 291.942C29.673 288.072 30.015 282.159 28.548 275.139C27.7587 271.31 26.7185 267.537 25.434 263.844C24.111 259.839 22.581 255.591 21.33 250.992C19.9175 246.195 19.2349 241.214 19.305 236.214C19.494 230.985 21.042 225.765 22.743 220.572C24.444 215.379 26.199 210.285 26.721 205.173C27.3109 200.254 26.3246 195.275 23.904 190.953C21.645 186.795 18.819 183.249 16.704 179.568C14.7216 176.159 13.2595 172.474 12.366 168.633C11.0911 163.065 10.9992 157.292 12.096 151.686C12.4995 149.637 13.1023 147.633 13.896 145.701C13.8749 145.839 13.8417 145.974 13.797 146.106L13.437 147.249C11.3194 154.161 11.0925 161.514 12.78 168.543C13.6819 172.34 15.1471 175.98 17.127 179.343C19.242 182.943 22.086 186.543 24.381 190.71C26.8391 195.117 27.8438 200.188 27.252 205.2C26.721 210.402 24.948 215.523 23.256 220.716C21.564 225.909 20.025 231.066 19.836 236.205C19.7576 241.154 20.422 246.087 21.807 250.839C23.04 255.411 24.561 259.659 25.857 263.682C27.1307 267.396 28.1559 271.19 28.926 275.04C30.357 282.114 29.943 288.09 28.926 291.969C28.5293 293.465 27.9929 294.92 27.324 296.316C27.09 296.766 26.901 297.117 26.766 297.387C26.6944 297.521 26.61 297.647 26.514 297.765Z" fill="#263238"/>
<path d="M19.5751 183.195C19.5751 183.195 15.2641 169.425 22.9951 161.361C23.1172 161.229 23.3035 161.176 23.4766 161.226C23.6498 161.275 23.7803 161.418 23.8141 161.595C24.2281 163.872 24.7411 170.802 19.5751 183.195Z" fill="#0059EF"/>
<path d="M22.158 165.951C22.1435 166.805 22.044 167.655 21.861 168.489C21.582 170.289 21.249 172.296 20.88 174.564C20.511 176.832 20.196 178.893 19.917 180.639C19.8442 181.492 19.6905 182.335 19.458 183.159C19.3852 182.304 19.4124 181.443 19.539 180.594C19.683 179.019 19.962 176.859 20.349 174.483C20.736 172.107 21.15 169.983 21.492 168.426C21.6182 167.578 21.8417 166.748 22.158 165.951Z" fill="#263238"/>
<path d="M24.6331 215.685C24.6331 215.685 27.2701 201.492 37.8721 198C38.0425 197.941 38.2319 197.982 38.3614 198.108C38.4909 198.234 38.5384 198.422 38.4841 198.594C37.8001 200.772 35.0011 207.144 24.6331 215.685Z" fill="#0059EF"/>
<path d="M34.9831 201.645C34.5715 202.393 34.086 203.099 33.5341 203.751C32.4721 205.173 31.2121 206.829 29.8261 208.665L26.1001 213.588C25.635 214.304 25.1047 214.976 24.5161 215.595C24.8507 214.804 25.2766 214.055 25.7851 213.363C26.6851 212.04 27.9001 210.258 29.3851 208.341C30.8701 206.424 32.2111 204.741 33.2281 203.517C33.7389 202.827 34.3279 202.199 34.9831 201.645V201.645Z" fill="#263238"/>
<path d="M21.771 251.28C21.771 251.28 20.169 236.934 29.295 230.49C29.4416 230.384 29.6353 230.37 29.7954 230.454C29.9555 230.538 30.0545 230.705 30.051 230.886C30.024 233.19 29.205 240.093 21.771 251.28Z" fill="#0059EF"/>
<path d="M27.594 234.837C27.4228 235.675 27.1634 236.493 26.82 237.276C26.208 238.941 25.497 240.876 24.696 243.054L22.599 248.832C22.3759 249.654 22.0745 250.453 21.699 251.217C21.7942 250.364 21.9844 249.525 22.266 248.715C22.707 247.194 23.391 245.115 24.228 242.865C25.065 240.615 25.884 238.59 26.505 237.141C26.7796 236.334 27.1449 235.561 27.594 234.837V234.837Z" fill="#263238"/>
<path d="M29.754 287.1C29.754 287.1 28.665 272.7 38.016 266.598C38.165 266.495 38.3593 266.486 38.5176 266.574C38.6759 266.661 38.771 266.831 38.763 267.012C38.646 269.307 37.584 276.174 29.754 287.1Z" fill="#0059EF"/>
<path d="M36.162 270.9C35.946 271.733 35.6444 272.541 35.262 273.312C34.587 274.95 33.804 276.912 32.931 279L30.618 284.706C30.3821 285.5 30.0749 286.271 29.7 287.01C29.8209 286.162 30.0415 285.331 30.357 284.535C30.843 283.032 31.608 280.989 32.526 278.766C33.444 276.543 34.326 274.545 35.001 273.123C35.3051 272.342 35.6945 271.596 36.162 270.9Z" fill="#263238"/>
<path d="M13.383 171.099C13.383 171.099 0.594021 164.421 0.342021 153.252C0.334019 153.071 0.429031 152.901 0.58733 152.814C0.745629 152.726 0.939943 152.735 1.08902 152.838C2.98802 154.152 8.25302 158.679 13.383 171.099Z" fill="#0059EF"/>
<path d="M2.99707 157.086C3.59488 157.696 4.12866 158.365 4.59007 159.084L8.19007 164.07L11.7901 169.047C12.3385 169.7 12.8265 170.402 13.2481 171.144C12.5713 170.602 11.9664 169.976 11.4481 169.281C10.4311 168.075 9.09007 166.347 7.68607 164.394C6.28207 162.441 5.05807 160.632 4.20307 159.3C3.71794 158.61 3.3133 157.868 2.99707 157.086L2.99707 157.086Z" fill="#263238"/>
<path d="M27.1169 200.7C27.1169 200.7 13.9499 194.814 13.0139 183.681C12.9987 183.503 13.0846 183.331 13.2364 183.236C13.3882 183.141 13.5803 183.139 13.7339 183.231C15.7139 184.392 21.2489 188.595 27.1169 200.7Z" fill="#0059EF"/>
<path d="M15.9031 187.326C16.535 187.9 17.1079 188.537 17.6131 189.225L21.5191 193.986L25.4341 198.729C26.0184 199.334 26.5428 199.994 27.0001 200.7C26.3138 200.171 25.6889 199.568 25.1371 198.9C24.0481 197.748 22.6081 196.11 21.0871 194.247C19.5661 192.384 18.2341 190.647 17.3071 189.378C16.763 188.749 16.292 188.061 15.9031 187.326Z" fill="#263238"/>
<path d="M19.5389 233.676C19.5389 233.676 10.4939 222.426 14.7419 212.076C14.8077 211.909 14.9616 211.793 15.1401 211.776C15.3186 211.759 15.4916 211.844 15.5879 211.995C16.8029 213.984 19.7999 220.239 19.5389 233.676Z" fill="#0059EF"/>
<path d="M15.633 216.675C15.9358 217.472 16.1559 218.299 16.29 219.141C16.668 220.878 17.109 222.912 17.604 225.162C18.099 227.412 18.504 229.437 18.927 231.165C19.1678 231.985 19.3335 232.826 19.422 233.676C19.0224 232.913 18.72 232.102 18.522 231.264C18.072 229.743 17.541 227.664 17.037 225.27C16.533 222.876 16.137 220.77 15.885 219.222C15.7081 218.385 15.6236 217.531 15.633 216.675V216.675Z" fill="#263238"/>
<path d="M28.503 272.502C28.503 272.502 15.426 266.4 14.688 255.24C14.6765 255.063 14.7638 254.895 14.9149 254.802C15.0659 254.71 15.2558 254.708 15.408 254.799C17.37 256.032 22.833 260.325 28.503 272.502Z" fill="#0059EF"/>
<path d="M17.5049 258.957C18.1298 259.54 18.6937 260.186 19.1879 260.883C20.2859 262.278 21.5819 263.907 23.0129 265.707L26.8469 270.522C27.4233 271.152 27.9415 271.833 28.3949 272.556C27.7253 272.03 27.121 271.426 26.5949 270.756C25.5329 269.595 24.1199 267.93 22.6349 266.04C21.1499 264.15 19.7999 262.404 18.8999 261.117C18.3589 260.449 17.8912 259.725 17.5049 258.957H17.5049Z" fill="#263238"/>
<path d="M54.54 215.757C54.5526 215.865 54.5526 215.973 54.54 216.081C54.54 216.333 54.54 216.63 54.54 216.981C54.54 217.881 54.45 219.024 54.387 220.482C54.216 223.56 53.982 227.844 53.703 232.983C52.803 238.203 50.103 243.99 46.503 249.606C43.884 253.746 41.103 257.517 38.772 261.018C36.617 264.074 34.6773 267.277 32.967 270.603C31.8487 272.859 30.9448 275.216 30.267 277.641C30.033 278.496 29.862 279.171 29.763 279.63C29.7232 279.867 29.6599 280.099 29.574 280.323C29.5769 280.084 29.604 279.846 29.655 279.612C29.718 279.144 29.862 278.46 30.06 277.587C30.6707 275.106 31.5332 272.693 32.634 270.387C34.3067 267.021 36.2228 263.781 38.367 260.694C40.716 257.166 43.452 253.395 46.062 249.282C49.662 243.684 52.254 237.987 53.262 232.848C53.622 227.727 53.919 223.443 54.162 220.365C54.279 218.907 54.378 217.737 54.441 216.873C54.441 216.513 54.513 216.207 54.54 215.973C54.5322 215.901 54.5322 215.829 54.54 215.757Z" fill="#263238"/>
<path d="M46.8 248.58C46.8 248.58 52.335 235.251 45.369 226.521C45.2589 226.378 45.0776 226.31 44.9006 226.344C44.7235 226.378 44.5809 226.509 44.532 226.683C43.875 228.915 42.732 235.8 46.8 248.58Z" fill="#0059EF"/>
<path d="M45.7469 231.174C45.9856 231.995 46.1334 232.84 46.1879 233.694C46.3859 235.26 46.6019 237.429 46.7729 239.832C46.9439 242.235 47.0249 244.413 47.0249 245.988C47.0803 246.843 47.0289 247.702 46.8719 248.544C46.7155 247.707 46.6401 246.857 46.6469 246.006C46.5299 244.206 46.3859 242.163 46.2329 239.868C46.0799 237.573 45.9269 235.494 45.8099 233.73C45.7049 232.882 45.6838 232.026 45.7469 231.174Z" fill="#263238"/>
<g opacity="0.3">
<path d="M46.8 248.58C46.8 248.58 52.335 235.251 45.369 226.521C45.2589 226.378 45.0776 226.31 44.9006 226.344C44.7235 226.378 44.5809 226.509 44.532 226.683C43.875 228.915 42.732 235.8 46.8 248.58Z" fill="black"/>
</g>
<path d="M29.6099 280.692C29.6099 280.692 34.0469 266.967 26.3969 258.831C26.276 258.699 26.0913 258.646 25.9186 258.693C25.7459 258.74 25.6143 258.881 25.5779 259.056C25.1369 261.324 24.5609 268.245 29.6099 280.692Z" fill="#0059EF"/>
<path d="M27.189 263.421C27.4948 264.222 27.7091 265.056 27.828 265.905C28.152 267.444 28.548 269.586 28.917 271.971C29.286 274.356 29.538 276.516 29.664 278.091C29.7863 278.941 29.8044 279.802 29.718 280.656C29.4988 279.831 29.3542 278.987 29.286 278.136C29.025 276.336 28.719 274.329 28.386 272.052C28.053 269.775 27.729 267.723 27.486 265.968C27.3035 265.131 27.204 264.278 27.189 263.421L27.189 263.421Z" fill="#263238"/>
<g opacity="0.3">
<path d="M29.6099 280.692C29.6099 280.692 34.0469 266.967 26.3969 258.831C26.276 258.699 26.0913 258.646 25.9186 258.693C25.7459 258.74 25.6143 258.881 25.5779 259.056C25.1369 261.324 24.5609 268.245 29.6099 280.692Z" fill="black"/>
</g>
<path d="M53.802 232.299C53.802 232.299 65.628 224.019 64.431 212.913C64.4153 212.733 64.2996 212.578 64.1321 212.511C63.9646 212.445 63.7738 212.478 63.639 212.598C61.929 214.2 57.285 219.321 53.802 232.299Z" fill="#0059EF"/>
<g opacity="0.3">
<path d="M53.802 232.299C53.802 232.299 65.628 224.019 64.431 212.913C64.4153 212.733 64.2996 212.578 64.1321 212.511C63.9646 212.445 63.7738 212.478 63.639 212.598C61.929 214.2 57.285 219.321 53.802 232.299Z" fill="black"/>
</g>
<path d="M62.2979 217.062C62.0591 217.882 61.7301 218.673 61.3169 219.42C60.6419 220.851 59.6609 222.795 58.5179 224.919C57.3749 227.043 56.2769 228.924 55.4219 230.256C55.0132 231.008 54.5079 231.704 53.9189 232.326C54.2436 231.536 54.6382 230.777 55.0979 230.058L58.0409 224.658L60.9749 219.258C61.3392 218.482 61.7825 217.746 62.2979 217.062Z" fill="#263238"/>
<path d="M34.3711 267.084C34.3711 267.084 48.6001 264.861 52.4521 254.367C52.517 254.198 52.481 254.007 52.3589 253.874C52.2369 253.74 52.05 253.687 51.8761 253.737C49.6531 254.367 43.2001 256.968 34.3711 267.084Z" fill="#0059EF"/>
<g opacity="0.3">
<path d="M34.3708 267.084C34.3708 267.084 48.5998 264.861 52.4518 254.367C52.5168 254.198 52.4807 254.007 52.3587 253.874C52.2367 253.74 52.0497 253.687 51.8758 253.737C49.6528 254.367 43.1998 256.968 34.3708 267.084Z" fill="black"/>
</g>
<path d="M48.708 257.148C48.1331 257.775 47.4936 258.339 46.8 258.831C45.567 259.821 43.83 261.135 41.868 262.53C39.906 263.925 38.088 265.14 36.747 265.968C36.042 266.457 35.2805 266.859 34.479 267.165C35.1155 266.597 35.8023 266.088 36.531 265.644L41.562 262.098L46.575 258.498C47.2373 257.975 47.9521 257.523 48.708 257.148Z" fill="#263238"/>
<path d="M20.772 293.328L16.614 321.318H42.534L39.168 293.328H20.772Z" fill="#455A64"/>
<path d="M40.2119 301.995C40.2119 302.148 35.5319 302.265 29.7539 302.265C23.9759 302.265 19.3049 302.148 19.3049 301.995C22.7811 301.728 26.2686 301.638 29.7539 301.725C33.2423 301.638 36.7327 301.728 40.2119 301.995Z" fill="#263238"/>
<path d="M40.725 304.2C40.725 304.344 35.892 304.47 29.925 304.47C23.958 304.47 19.125 304.344 19.125 304.2C19.125 304.056 23.958 303.93 29.925 303.93C35.892 303.93 40.725 304.074 40.725 304.2Z" fill="#263238"/>
<path d="M334.386 297.765C334.347 297.633 334.292 297.506 334.224 297.387L333.72 296.298C333.099 294.89 332.597 293.433 332.217 291.942C331.227 288.072 330.885 282.159 332.352 275.139C333.141 271.31 334.181 267.537 335.466 263.844C336.789 259.839 338.319 255.591 339.57 250.992C340.982 246.195 341.665 241.214 341.595 236.214C341.406 230.985 339.858 225.765 338.157 220.572C336.456 215.379 334.701 210.285 334.179 205.173C333.589 200.254 334.575 195.275 336.996 190.953C339.255 186.795 342.081 183.249 344.196 179.568C346.178 176.159 347.64 172.474 348.534 168.633C349.809 163.065 349.901 157.292 348.804 151.686C348.4 149.637 347.798 147.633 347.004 145.701C347.025 145.839 347.058 145.974 347.103 146.106L347.463 147.249C349.58 154.161 349.807 161.514 348.12 168.543C347.218 172.34 345.753 175.98 343.773 179.343C341.658 182.943 338.814 186.543 336.519 190.71C334.061 195.117 333.056 200.188 333.648 205.2C334.179 210.402 335.952 215.523 337.644 220.716C339.336 225.909 340.875 231.066 341.064 236.205C341.142 241.154 340.478 246.087 339.093 250.839C337.86 255.411 336.339 259.659 335.043 263.682C333.769 267.396 332.744 271.19 331.974 275.04C330.543 282.114 330.957 288.09 331.974 291.969C332.371 293.465 332.907 294.92 333.576 296.316C333.81 296.766 333.999 297.117 334.134 297.387C334.206 297.521 334.29 297.647 334.386 297.765Z" fill="#263238"/>
<path d="M341.325 183.195C341.325 183.195 345.636 169.425 337.905 161.361C337.783 161.229 337.596 161.176 337.423 161.226C337.25 161.275 337.12 161.418 337.086 161.595C336.672 163.872 336.159 170.802 341.325 183.195Z" fill="#0059EF"/>
<path d="M338.742 165.951C338.756 166.805 338.856 167.655 339.039 168.489C339.318 170.289 339.651 172.296 340.02 174.564C340.389 176.832 340.704 178.893 340.983 180.639C341.056 181.492 341.209 182.335 341.442 183.159C341.515 182.304 341.488 181.443 341.361 180.594C341.217 179.019 340.938 176.859 340.551 174.483C340.164 172.107 339.75 169.983 339.408 168.426C339.282 167.578 339.058 166.748 338.742 165.951Z" fill="#263238"/>
<path d="M336.267 215.685C336.267 215.685 333.63 201.492 323.028 198C322.857 197.941 322.668 197.982 322.538 198.108C322.409 198.234 322.361 198.422 322.416 198.594C323.1 200.772 325.899 207.144 336.267 215.685Z" fill="#0059EF"/>
<path d="M325.917 201.645C326.328 202.393 326.814 203.099 327.366 203.751C328.428 205.173 329.688 206.829 331.074 208.665L334.8 213.588C335.265 214.304 335.795 214.976 336.384 215.595C336.049 214.804 335.623 214.055 335.115 213.363C334.215 212.04 333 210.258 331.515 208.341C330.03 206.424 328.689 204.741 327.672 203.517C327.161 202.827 326.572 202.199 325.917 201.645V201.645Z" fill="#263238"/>
<path d="M339.129 251.28C339.129 251.28 340.731 236.934 331.605 230.49C331.458 230.384 331.265 230.37 331.104 230.454C330.944 230.538 330.845 230.705 330.849 230.886C330.876 233.19 331.695 240.093 339.129 251.28Z" fill="#0059EF"/>
<path d="M333.306 234.837C333.477 235.675 333.737 236.493 334.08 237.276C334.692 238.941 335.403 240.876 336.204 243.054L338.301 248.832C338.524 249.654 338.825 250.453 339.201 251.217C339.106 250.364 338.915 249.525 338.634 248.715C338.193 247.194 337.509 245.115 336.672 242.865C335.835 240.615 335.016 238.59 334.395 237.141C334.12 236.334 333.755 235.561 333.306 234.837V234.837Z" fill="#263238"/>
<path d="M331.146 287.1C331.146 287.1 332.235 272.7 322.884 266.598C322.735 266.495 322.541 266.486 322.382 266.574C322.224 266.661 322.129 266.831 322.137 267.012C322.254 269.307 323.316 276.174 331.146 287.1Z" fill="#0059EF"/>
<path d="M324.738 270.9C324.954 271.733 325.256 272.541 325.638 273.312C326.313 274.95 327.096 276.912 327.969 279L330.282 284.706C330.518 285.5 330.825 286.271 331.2 287.01C331.079 286.162 330.858 285.331 330.543 284.535C330.057 283.032 329.292 280.989 328.374 278.766C327.456 276.543 326.574 274.545 325.899 273.123C325.595 272.342 325.205 271.596 324.738 270.9Z" fill="#263238"/>
<path d="M347.517 171.099C347.517 171.099 360.306 164.421 360.558 153.252C360.566 153.071 360.471 152.901 360.313 152.814C360.154 152.726 359.96 152.735 359.811 152.838C357.912 154.152 352.647 158.679 347.517 171.099Z" fill="#0059EF"/>
<path d="M357.903 157.086C357.305 157.696 356.771 158.365 356.31 159.084L352.71 164.07L349.11 169.047C348.561 169.7 348.073 170.402 347.652 171.144C348.329 170.602 348.933 169.976 349.452 169.281C350.469 168.075 351.81 166.347 353.214 164.394C354.618 162.441 355.842 160.632 356.697 159.3C357.182 158.61 357.587 157.868 357.903 157.086V157.086Z" fill="#263238"/>
<path d="M333.783 200.7C333.783 200.7 346.95 194.814 347.886 183.681C347.901 183.503 347.815 183.331 347.663 183.236C347.512 183.141 347.32 183.139 347.166 183.231C345.186 184.392 339.651 188.595 333.783 200.7Z" fill="#0059EF"/>
<path d="M344.997 187.326C344.365 187.9 343.792 188.537 343.287 189.225L339.381 193.986L335.466 198.729C334.882 199.334 334.357 199.994 333.9 200.7C334.586 200.171 335.211 199.568 335.763 198.9C336.852 197.748 338.292 196.11 339.813 194.247C341.334 192.384 342.666 190.647 343.593 189.378C344.137 188.749 344.608 188.061 344.997 187.326Z" fill="#263238"/>
<path d="M341.361 233.676C341.361 233.676 350.406 222.426 346.158 212.076C346.092 211.909 345.938 211.793 345.76 211.776C345.581 211.759 345.408 211.844 345.312 211.995C344.097 213.984 341.1 220.239 341.361 233.676Z" fill="#0059EF"/>
<path d="M345.267 216.675C344.964 217.472 344.744 218.299 344.61 219.141C344.232 220.878 343.791 222.912 343.296 225.162C342.801 227.412 342.396 229.437 341.973 231.165C341.732 231.985 341.566 232.826 341.478 233.676C341.878 232.913 342.18 232.102 342.378 231.264C342.828 229.743 343.359 227.664 343.863 225.27C344.367 222.876 344.763 220.77 345.015 219.222C345.192 218.385 345.276 217.531 345.267 216.675V216.675Z" fill="#263238"/>
<path d="M332.397 272.502C332.397 272.502 345.474 266.4 346.212 255.24C346.223 255.063 346.136 254.895 345.985 254.802C345.834 254.71 345.644 254.708 345.492 254.799C343.53 256.032 338.067 260.325 332.397 272.502Z" fill="#0059EF"/>
<path d="M343.395 258.957C342.77 259.54 342.206 260.186 341.712 260.883C340.614 262.278 339.318 263.907 337.887 265.707L334.053 270.522C333.477 271.152 332.958 271.833 332.505 272.556C333.175 272.03 333.779 271.426 334.305 270.756C335.367 269.595 336.78 267.93 338.265 266.04C339.75 264.15 341.1 262.404 342 261.117C342.541 260.449 343.009 259.725 343.395 258.957V258.957Z" fill="#263238"/>
<path d="M306.36 215.757C306.347 215.865 306.347 215.973 306.36 216.081C306.36 216.333 306.36 216.63 306.36 216.981C306.36 217.881 306.45 219.024 306.513 220.482C306.684 223.56 306.918 227.844 307.197 232.983C308.097 238.203 310.797 243.99 314.397 249.606C317.016 253.746 319.797 257.517 322.128 261.018C324.283 264.074 326.223 267.277 327.933 270.603C329.051 272.859 329.955 275.216 330.633 277.641C330.867 278.496 331.038 279.171 331.137 279.63C331.177 279.867 331.24 280.099 331.326 280.323C331.323 280.084 331.296 279.846 331.245 279.612C331.182 279.144 331.038 278.46 330.84 277.587C330.229 275.106 329.367 272.693 328.266 270.387C326.593 267.021 324.677 263.781 322.533 260.694C320.184 257.166 317.448 253.395 314.838 249.282C311.238 243.684 308.646 237.987 307.638 232.848C307.278 227.727 306.981 223.443 306.738 220.365C306.621 218.907 306.522 217.737 306.459 216.873C306.459 216.513 306.387 216.207 306.36 215.973C306.368 215.901 306.368 215.829 306.36 215.757Z" fill="#263238"/>
<path d="M314.1 248.58C314.1 248.58 308.565 235.251 315.531 226.521C315.641 226.378 315.822 226.31 315.999 226.344C316.176 226.378 316.319 226.509 316.368 226.683C317.025 228.915 318.168 235.8 314.1 248.58Z" fill="#0059EF"/>
<path d="M315.153 231.174C314.914 231.995 314.766 232.84 314.712 233.694C314.514 235.26 314.298 237.429 314.127 239.832C313.956 242.235 313.875 244.413 313.875 245.988C313.82 246.843 313.871 247.702 314.028 248.544C314.184 247.707 314.26 246.857 314.253 246.006C314.37 244.206 314.514 242.163 314.667 239.868C314.82 237.573 314.973 235.494 315.09 233.73C315.195 232.882 315.216 232.026 315.153 231.174Z" fill="#263238"/>
<g opacity="0.3">
<path d="M314.1 248.58C314.1 248.58 308.565 235.251 315.531 226.521C315.641 226.378 315.822 226.31 315.999 226.344C316.176 226.378 316.319 226.509 316.368 226.683C317.025 228.915 318.168 235.8 314.1 248.58Z" fill="black"/>
</g>
<path d="M331.29 280.692C331.29 280.692 326.853 266.967 334.503 258.831C334.624 258.699 334.809 258.646 334.981 258.693C335.154 258.74 335.286 258.881 335.322 259.056C335.763 261.324 336.339 268.245 331.29 280.692Z" fill="#0059EF"/>
<path d="M333.711 263.421C333.405 264.222 333.191 265.056 333.072 265.905C332.748 267.444 332.352 269.586 331.983 271.971C331.614 274.356 331.362 276.516 331.236 278.091C331.114 278.941 331.096 279.802 331.182 280.656C331.401 279.831 331.546 278.987 331.614 278.136C331.875 276.336 332.181 274.329 332.514 272.052C332.847 269.775 333.171 267.723 333.414 265.968C333.596 265.131 333.696 264.278 333.711 263.421V263.421Z" fill="#263238"/>
<g opacity="0.3">
<path d="M331.29 280.692C331.29 280.692 326.853 266.967 334.503 258.831C334.624 258.699 334.809 258.646 334.981 258.693C335.154 258.74 335.286 258.881 335.322 259.056C335.763 261.324 336.339 268.245 331.29 280.692Z" fill="black"/>
</g>
<path d="M307.098 232.299C307.098 232.299 295.272 224.019 296.469 212.913C296.485 212.733 296.6 212.578 296.768 212.511C296.935 212.445 297.126 212.478 297.261 212.598C298.971 214.2 303.615 219.321 307.098 232.299Z" fill="#0059EF"/>
<g opacity="0.3">
<path d="M307.098 232.299C307.098 232.299 295.272 224.019 296.469 212.913C296.485 212.733 296.6 212.578 296.768 212.511C296.935 212.445 297.126 212.478 297.261 212.598C298.971 214.2 303.615 219.321 307.098 232.299Z" fill="black"/>
</g>
<path d="M298.602 217.062C298.841 217.882 299.17 218.673 299.583 219.42C300.258 220.851 301.239 222.795 302.382 224.919C303.525 227.043 304.623 228.924 305.478 230.256C305.887 231.008 306.392 231.704 306.981 232.326C306.656 231.536 306.262 230.777 305.802 230.058L302.859 224.658L299.925 219.258C299.561 218.482 299.117 217.746 298.602 217.062Z" fill="#263238"/>
<path d="M326.529 267.084C326.529 267.084 312.3 264.861 308.448 254.367C308.383 254.198 308.419 254.007 308.541 253.874C308.663 253.74 308.85 253.687 309.024 253.737C311.247 254.367 317.7 256.968 326.529 267.084Z" fill="#0059EF"/>
<g opacity="0.3">
<path d="M326.529 267.084C326.529 267.084 312.3 264.861 308.448 254.367C308.383 254.198 308.419 254.007 308.541 253.874C308.663 253.74 308.85 253.687 309.024 253.737C311.247 254.367 317.7 256.968 326.529 267.084Z" fill="black"/>
</g>
<path d="M312.192 257.148C312.767 257.775 313.406 258.339 314.1 258.831C315.333 259.821 317.07 261.135 319.032 262.53C320.994 263.925 322.812 265.14 324.153 265.968C324.858 266.457 325.619 266.859 326.421 267.165C325.784 266.597 325.098 266.088 324.369 265.644L319.338 262.098L314.325 258.498C313.663 257.975 312.948 257.523 312.192 257.148Z" fill="#263238"/>
<path d="M340.128 293.328L344.286 321.318H318.366L321.732 293.328H340.128Z" fill="#455A64"/>
<path d="M320.688 301.995C320.688 302.148 325.368 302.265 331.146 302.265C336.924 302.265 341.595 302.148 341.595 301.995C338.119 301.728 334.631 301.638 331.146 301.725C327.658 301.638 324.167 301.728 320.688 301.995Z" fill="#263238"/>
<path d="M320.175 304.2C320.175 304.344 325.008 304.47 330.975 304.47C336.942 304.47 341.775 304.344 341.775 304.2C341.775 304.056 336.942 303.93 330.975 303.93C325.008 303.93 320.175 304.074 320.175 304.2Z" fill="#263238"/>
</svg>
