<svg width="28" height="28" viewBox="0 0 28 28" fill="none" xmlns="http://www.w3.org/2000/svg">
<path d="M25.565 25.5708V25.5698H25.5706V17.2921C25.5706 13.2425 24.6988 10.123 19.9646 10.123C17.6888 10.123 16.1615 11.372 15.538 12.556H15.4721V10.5011H10.9834V25.5698H15.6574V18.1084C15.6574 16.1438 16.0298 14.2441 18.4628 14.2441C20.8599 14.2441 20.8957 16.4861 20.8957 18.2344V25.5708H25.565Z" fill="white"/>
<path d="M3.37244 10.502H8.05209V25.5707H3.37244V10.502Z" fill="white"/>
<path d="M5.71036 3C4.21411 3 3 4.21411 3 5.71036C3 7.20661 4.21411 8.44611 5.71036 8.44611C7.20661 8.44611 8.42072 7.20661 8.42072 5.71036C8.41978 4.21411 7.20567 3 5.71036 3Z" fill="white"/>
</svg>
