<svg width="28" height="28" viewBox="0 0 28 28" fill="none" xmlns="http://www.w3.org/2000/svg">
<path fill-rule="evenodd" clip-rule="evenodd" d="M13.7214 2.01838C13.3344 2.01837 12.949 2.01559 12.5665 2.01282C8.20808 1.98135 4.22978 1.95263 2.63031 6.05756C1.9952 7.68737 2.00276 9.74734 2.01313 12.5711C2.01449 12.9431 2.01591 13.3284 2.01591 13.7277C2.01591 14.052 2.01479 14.3742 2.01368 14.6934C2.00449 17.3356 1.99606 19.7636 2.63031 21.3964C4.22598 25.5034 8.23463 25.4741 12.5699 25.4425H12.5701H12.5703H12.5706C12.9521 25.4397 13.3361 25.4369 13.7212 25.4369C14.1234 25.4369 14.5266 25.4406 14.9289 25.4443H14.9291H14.9292H14.9294C19.1222 25.4824 23.2064 25.5195 24.8135 21.3964C25.4489 19.7524 25.4413 17.7216 25.4307 14.8989V14.8989V14.8983V14.8977V14.897C25.4293 14.5216 25.4279 14.1321 25.4279 13.7277C25.4279 13.2896 25.4302 12.8665 25.4324 12.4574C25.4535 8.59453 25.4678 5.98796 23.4618 3.98314C21.4479 1.96931 18.7979 1.9872 15.0576 2.01245C14.6269 2.01536 14.1817 2.01837 13.7214 2.01838ZM13.7214 2.01838L13.7239 2.01838H13.7186L13.7214 2.01838ZM14.5573 4.11596L14.5574 4.11596C22.8429 4.03793 23.9092 4.02788 23.253 18.4552C23.0263 23.4185 19.574 23.3806 15.1108 23.3316C14.6586 23.3266 14.1959 23.3215 13.7252 23.3215C4.39687 23.3215 4.12865 23.0546 4.12865 13.7224C4.12865 4.28175 4.86857 4.13377 12.6748 4.12584V4.12848C13.3402 4.12743 13.9671 4.12152 14.5573 4.11596ZM18.569 7.47663C18.569 6.70103 19.198 6.0721 19.9736 6.0721C20.7492 6.0721 21.3781 6.70103 21.3781 7.47663C21.3781 8.25223 20.7492 8.88116 19.9736 8.88116C19.198 8.88116 18.569 8.25223 18.569 7.47663ZM13.7239 7.71446C10.4035 7.71446 7.71199 10.4073 7.71199 13.7277C7.71199 17.0481 10.4035 19.7395 13.7239 19.7395C17.0443 19.7395 19.7344 17.0481 19.7344 13.7277C19.7344 10.4073 17.0443 7.71446 13.7239 7.71446ZM13.7239 9.82456C18.8836 9.82456 18.8902 17.6307 13.7239 17.6307C8.56553 17.6307 8.5576 9.82456 13.7239 9.82456Z" fill="white"/>
</svg>
