<svg width="138" height="40" viewBox="0 0 138 40" fill="none" xmlns="http://www.w3.org/2000/svg">
<path d="M132.058 29.1272H1.2875C0.844605 29.0798 0.413499 29.2893 0.177214 29.6669C-0.0590713 30.0445 -0.0590713 30.5239 0.177214 30.9015C0.413499 31.2791 0.844605 31.4886 1.2875 31.4412H132.058L131.38 33.0578L137.916 30.3007L131.38 27.5437L132.058 29.1272Z" fill="white"/>
<path d="M29.261 20.572C28.818 21.8017 28.3783 22.6381 26.5436 22.6381C24.7089 22.6381 24.2296 21.8017 23.8031 20.572L20.4808 11.2398C20.3882 10.9819 20.2725 10.6811 20.1502 10.6811C19.9155 10.6811 19.9155 11.0778 19.9155 11.1935L20.0345 22.4563H15.8362V8.5191C15.8362 6.33398 17.9023 6.01001 19.142 6.01001C20.7651 6.01001 22.0213 6.59183 22.6692 8.4034L26.0775 17.7852C26.1701 18.0629 26.3585 18.4464 26.5436 18.4464C26.7287 18.4464 26.9139 18.0497 27.0064 17.7852L30.4213 8.4034C31.0825 6.59183 32.3254 6.01001 33.9287 6.01001C36.5998 6.01001 37.2345 7.2629 37.2345 8.5191V22.453H33.0692L33.2081 11.1902C33.2081 10.8596 33.0924 10.6778 32.9535 10.6778C32.8147 10.6778 32.7188 10.9092 32.6031 11.2365L29.261 20.572Z" fill="white"/>
<path fill-rule="evenodd" clip-rule="evenodd" d="M51.4163 14.0465C51.4163 11.7225 50.0444 10.1423 47.6047 10.1423H40.0114V12.744H46.2362C47.2345 12.744 47.7932 13.2399 47.7932 14.2316V14.7572H42.1965C39.9882 14.7572 39.1519 16.2746 39.1519 18.5886C39.1519 21.1407 39.9882 22.4432 42.1965 22.4432H49.1023C50.6031 22.4432 51.4163 21.6399 51.4163 20.1291V14.0465ZM42.8213 18.6217C42.8213 17.7622 43.218 17.2729 43.9122 17.2729H47.7932V19.1308C47.7932 19.7126 47.5585 19.944 46.98 19.944H43.889C43.1519 19.944 42.8213 19.4118 42.8213 18.6217Z" fill="white"/>
<path d="M58.7717 22.4529C56.1039 22.4529 54.1965 21.3852 54.1965 18.3637V12.8133H52.4907V10.1422H54.2064V6.19507H57.8428V10.1422H61.3271V12.8133H57.823V17.0413C57.823 18.8992 58.6593 19.7818 60.6329 19.7818H61.294V22.4529H58.7717Z" fill="white"/>
<path d="M62.3751 6.19507H66.0115V10.1455H69.6115C72.514 10.1455 74.5702 11.4447 74.5702 14.5785V22.4529H70.9338V15.5108C70.9338 13.6529 70.2363 12.8166 68.3784 12.8166H66.0082V22.4529H62.3718L62.3751 6.19507Z" fill="white"/>
<path fill-rule="evenodd" clip-rule="evenodd" d="M105.886 14.0462C105.886 11.7223 104.517 10.1421 102.077 10.1421H94.494V12.7437H100.719C101.717 12.7437 102.273 13.2396 102.273 14.2313V14.757H96.6758C94.4709 14.757 93.6345 16.2743 93.6345 18.5884C93.6345 21.1404 94.4709 22.4429 96.6758 22.4429H103.572C105.073 22.4429 105.886 21.6396 105.886 20.1289V14.0462ZM97.3039 18.6214C97.3039 17.7619 97.6973 17.2727 98.3949 17.2727H102.273V19.1305C102.273 19.7123 102.041 19.9437 101.459 19.9437H98.3717C97.6345 19.9437 97.3039 19.4115 97.3039 18.6214Z" fill="white"/>
<path fill-rule="evenodd" clip-rule="evenodd" d="M120.084 16.2975C120.084 12.5818 118.947 10.1421 115 10.1421L110.147 10.152C108.646 10.152 107.833 10.9553 107.833 12.4661V26.3999H111.469V22.4528H115C118.937 22.4528 120.084 20.0132 120.084 16.2975ZM114.025 19.7818H111.469V13.6958C111.469 13.0479 111.737 12.8132 112.398 12.8132H113.978C116.137 12.8132 116.369 14.3933 116.369 16.2975C116.369 18.0396 116.137 19.7818 114.025 19.7818Z" fill="white"/>
<path d="M121.387 19.7818H128.213C128.702 19.7818 129.049 19.6198 129.049 19.038C129.049 18.2016 127.611 18.0463 126.891 17.8082L124.382 17.0413C122.107 16.3438 121.248 15.4611 121.248 13.4049C121.248 11.1306 122.339 10.1289 124.636 10.1289H132.302V12.8H125.691C125.159 12.8 124.699 12.8694 124.699 13.4281C124.699 14.0892 125.443 14.3107 126.21 14.5421L129.089 15.4248C131.202 16.0859 132.725 16.7273 132.725 19.2562C132.725 21.3487 131.797 22.4396 129.592 22.4396H121.387V19.7818Z" fill="white"/>
<path d="M87.7834 14.1852H84.0214V16.8298H87.7834V18.1223C87.7834 18.9356 87.5024 19.2133 86.6892 19.2133H84.9272C81.6743 19.2133 80.6065 18.1686 80.6065 14.3372C80.6065 10.5058 81.6743 9.46118 84.9272 9.46118H91.5916V6.19507H83.3272C77.8693 6.19507 76.3354 9.21325 76.3354 14.324C76.3354 19.4347 77.8693 22.4529 83.3272 22.4529H89.5156C91.0231 22.4529 91.9751 21.7091 91.9751 19.967V14.1852H87.7834Z" fill="white"/>
<path d="M6.89746 6.53554L8.49085 5.85785V38.5058C8.44343 38.9487 8.65301 39.3798 9.03061 39.6161C9.4082 39.8524 9.88755 39.8524 10.2651 39.6161C10.6427 39.3798 10.8523 38.9487 10.8049 38.5058V5.85785L12.3983 6.53554L9.65449 0L6.89746 6.53554Z" fill="white"/>
</svg>
